<svg xmlns="http://www.w3.org/2000/svg" width="444" height="346" viewBox="0 0 444 346"><style>.a{fill:#462D3B;}.b{fill:#F2692B;}.c{fill:#FFF8F0;}</style><path d="M260.1 259.5c-8 10.8-19.7 7.4-30.4 7.9 8 5.7 14.7 12.6 19.6 21.2 6.6 11.7 2.7 25.1-9.3 31.5 -3.4 1.8-6.7 4-9.9 6.3 -3.2 2.3-6.3 5-5.5 9.6 0.9 4.9 4.8 6.7 9 7.9 12.8 3.7 23 0.2 30.6-10.8 4.1-5.9 8.1-11.9 11.7-18.1 9.8-17 8.6-28.6-4.5-43.5C267.9 267.3 263.9 263.5 260.1 259.5z" class="a"/><path d="M223.2 264.4C222.4 264 223.9 264.9 223.2 264.4c-9.2-0.2-15.4-8.1-24.6-3.3 -1.8 0.9-4.1 3.8-6.6 3.4 6.5 9 12.3 14.7 19.1 23.6 5.9 7.8 4.7 13.4-1 19.7 -4.9 5.4-11 9.1-17.4 12.5 -4.9 2.5-8.7 6.1-7.4 12.3 1.4 6.4 6.6 7.3 12 7.9 6.9 0.7 12.9-1.3 18-5.9 9.6-8.8 18.4-18.4 25.7-29.3 5.5-8.1 4-14.6-1.9-22.1C234.6 277.5 227.3 273.4 223.2 264.4z" class="a"/><path d="M192 264.5c7.6 3.4 26.5 2.6 31.1-0.1 -10.5-11.1-23.3-17.9-38.4-20.4 -3.6-0.6-7.1-0.6-9.9 2.3C183.3 252.1 186.2 259.5 192 264.5z" fill="#B84526"/><path d="M110.6 245.9c-15.4-2.7-30.8-5.6-45.4-11.5 6.3 23.2 15.9 45.5 14.4 71 -0.4 6.2-1.8 12.3-4.3 18.2 -3.1 7.6 2.5 18.9 15.8 13 5.4-2.4 10.8-9.1 13-19.9 1-5 1.3-17.2 0.2-25.3 5 5.7 10.1 19.6 10.3 34.5 -0.1 7.1 0 14.5 8.9 15 11 0 15.2-8.3 15.2-19.3 -0.1-21-4.8-36.8-15.3-55C119.5 259.6 115 252.8 110.6 245.9z" class="a"/><path d="M110.6 245.9c21.4-0.2 42.9-2.8 64.3 0.5 27.9 1.7 48.3 20.1 54.8 20.9 7.7 1 22.4 2.9 30.4-7.9 -2.4-8.3-8.1-37 0.9-30.8 2.5 1.7 3 2.8 4 4.8 7.7 16.5 13.7 34.1 23.3 49.4 24.8 39.5 59.4 62.4 108.2 57.5 9-0.9 16.7-5.8 22.8-11.6 -4-2-3.1-10.1-4.7-14.1 -1.3-3.4-17.4-47.7-24.8-54.9 -26.4-9.5-50.3-20.7-73.7-40 -11.4-9.6-18.8-18.1-27.5-27.7 -12.5-13.9-26.5-26.2-40.8-38 -18.6-15.3-41.6-18-64.5-19.8 -10.1-0.8-20.1-2.1-30.1-3.6 -7.5-1.1-12.7-4.7-15-12 -15.9 7.2-91.6 7.6-104.2 0 0.2 18.9-2.4 41 2 59.7 5 21.1 12.3 41.2 29.2 56.2C79.7 243.7 85.1 243.7 110.6 245.9z" class="b"/><path d="M390 259.6c-1 6.4-0.9 12.6 5.1 16.8 3.5 2.5 1.7 4.6 0.5 7.4 -5.6 12.9-3 20.7 9.5 27.4 3.7 2 5.1 3.7 4.6 7.3 -0.9 6.3 4.7 10.2 9.8 10.2 13.5-7.5 26.9-36.9 23.6-51.7 -1.4-6.2-5.9-9.3-11.7-10.3C418.3 264.2 407.6 264.7 390 259.6z" class="c"/><path d="M145.5 87.9c8.2 4.4 15.1 13.5 21.1 21 -2.3 3.9-8.3 6-12.8 7.6 -11.4 4.1-40.3 23-55.8 37.7 -10.5 8.6-22.2 8.5-30.7-2.2 -19.1-24-54.3-47.7-63.7-50.8 6.8-8.5 14.3-19.7 24.7-21.3C46.5 76.9 127.4 78.2 145.5 87.9z" class="c"/><path d="M120.2 113.7c3.8 0 6.5-1.5 6.7-5.5 0.2-4-1.5-7-5.9-7.5 -4.3-0.5-7.1 1.3-7.3 5.8C113.5 110.7 116.2 112.9 120.2 113.7z" class="a"/><path d="M41 99.4c-0.5 5 1.5 7.9 6.2 8.5 3.7 0.5 6.1-1.8 7-4.8 1.2-4.1-1-7.7-6.4-8C45.4 95 41.7 95.8 41 99.4z" class="a"/><path d="M166.6 108.9c1.7-1.9 1.3-4.7 0.1-8.1 -6.6-20.4-11.5-36.8-18.3-49.1 -12.9-23.3-29.6-32.7-61.5-34.5 -41.8-2.4-60.8 22.7-64.2 27.7 -12.7 17.7-16.1 34.8-22.5 51.4 -1.1 2.8 0.9 4.1 3.3 4.9 6.8-8.5 15.8-14.5 26.1-16.2 18.2-2.9 37.2 2.6 43.4 27.4 2.3 9.2 2.2 20.8 1.4 30.1 5.9-0.2 12.7-1.9 17.3 2.8 0.9-14.2 2.1-23 5.7-34.3 6.4-20 29.5-27.1 47.2-18.5C153.2 96.5 160.6 101.4 166.6 108.9z" class="b"/><path d="M141.3 44.1c3.8-5.1 8.4-10.2 8-16 -0.3-4.7-0.8-14.8-5.9-15.8 -5.2-1.1-14.9 2.1-18 7.3 -1.3 2.2-2.8 5.1-3.8 7.4C128.5 28.9 139.6 39 141.3 44.1z" class="c"/><path d="M75.5 141.2c-2.6 2.9-3.2 5.8-0.3 9 3.6 3.9 8 3.7 11.9 2.7 3.7-0.9 6.9-4.8 4.9-9.5C87.5 138.7 79.1 139.3 75.5 141.2z" class="a"/><path d="M141.3 44.1c0.2 3 3.5 5.8 6.2 5.9 7.2-9.1 10.1-29.6 3.1-39.5 -2.8-3.9-7.4-6.8-11.8-4.5 -9 4.6-17.4 6.3-22.1 16.9 0.9 3.6 4.4 4.9 6.5 4.9 1-2.4 10.7-14.8 18.4-13.6 5.1 0.8 4.7 7.8 4.9 12.4C147 32.5 145.1 39 141.3 44.1z" class="a"/><path d="M26.9 41.1c-3.4-5.4-7.6-10.8-6.8-16.6 0.6-4.6 2-14.7 7.1-15.3 5.2-0.7 14.7 3.2 17.4 8.7 1.1 2.3 2.6 5.6 3.4 8C41 27.3 29 36.1 26.9 41.1z" class="c"/><path d="M26.9 41.1c-0.5 3-3.1 6.4-5.9 6.3 -6.5-9.7-9.9-31-3.8-41.4 2.4-4.1 3.7-7.7 10.5-5.1 9.5 3.5 22.4 10.3 26.3 21.3 -1.1 3.5-4.7 4.5-6.9 4.4 -1.5-4.7-11.7-14.6-19.3-16.5 -4.1-1.1-4.9 0.8-5.6 10.3C21.8 26.1 23.5 35.8 26.9 41.1z" class="a"/></svg>