<svg xmlns="http://www.w3.org/2000/svg" width="214" height="448" viewBox="0 0 214 448"><style>.a{fill:#F2692B;}.b{fill:#FFF8F0;}.c{fill:#462D3B;}</style><path d="M145.6 316.2c2.9-0.1 5.8-0.2 8.6-0.2 14.1-27.3 9.4-68.3 13-117.1 0.6-21.8-2-47.4 3.7-69 -10.7 2.6-23.5-1-30.4 7.7 -12.6 15.8-17.5 14.6-31.9 0 -5.9-5.9-16.1-10.1-29.5 1.4 -33.3 39.2-37.4 86.2-35.7 134.7 0.3 9-1.9 15.3-9.9 21.3C9.2 313.4-3.7 337.9 0.9 369.1c2.2 15.1 9.8 29 18.8 40.6 17.7 22.6 41.6 36.3 71.1 37.7 31.4 1.5 57.5-9.7 78-33.7 3-3.5 6-6.9 7.5-11.3 -5.2 0.6-10.3 1.4-15.5 1.7 -6.3 0.4-9.4-5.7-11.1-12.5 -1.2-5.2-4.5-3.7-9-3.6 -8.4 0.2-11.4-3.8-9.1-11.3 2.4-7.9-1-12.9-6.8-19 -16.6 2.3-33.3 4.3-48.3-6.1 -10.1-7-19.2-14.6-20.2-28.3 -0.5-6.1 0.9-9.3 7.8-8.7 9.4 0.8 24.7 1.3 34.2 1.7C98.1 305.4 147.1 302.9 145.6 316.2z" class="a"/><path d="M126 375.9c0.9 0.6 1.6 1.9 1.6 2.9 0.3 7.6 6.9 15.9 14.9 15.8 1.9 0 2.6-0.2 3.3 2.1 2 6.7 17.1 13.6 30.5 5.6 7.5-17.1 4.9-33.8-2.7-49.9 -2.4-5-7.4-7.6-13.2-5.7 -11.8 3.9-24.5 6.8-35.5 10.9C116.8 369.3 122 373.5 126 375.9z" class="b"/><path d="M167.2 198.9c-21.6 37.1-23.2 76.4-13 117.1 22.1 1.2 26 0 20.4-17.3C165.5 270.8 167.8 206 167.2 198.9z" class="c"/><path d="M185.4 98.1c9.7 3.9 14.7 16.4 19.4 26.3 -9.9 1-49.4 16.4-73.3 35.5 -10.7 8.5-22.1 6.2-30.4-4.6 -11.9-17.8-36-42.6-46.1-49.1 -4-2.5-9.4-5.9-10.8-10.2 7.5-6 16.2-13.3 25.2-15.8C89.1 74.6 168.3 91.2 185.4 98.1z" class="b"/><path d="M44.1 95.9c-1.3-2.2-0.2-4.8 1.7-8 10.9-18.4 19.3-33.4 28.6-43.9 17.7-19.9 36-25 67.6-20.1 47.3 7.4 55.4 42.1 59.3 43.4 8.5 20.1 5.3 35.2 7.8 52.8 0.4 3-1.8 3.8-4.3 4 -4.7-9.8-12.2-17.6-21.9-21.5 -17.1-6.9-36.9-5.7-48.4 17.1 -4.2 8.4-6.7 19.8-8 29.1 -5.7-1.5-11.9-4.7-17.4-1.1 2.3-14.1 3-22.9 2-34.7C109.1 92.3 88.2 80.3 69 84.7 59.9 86.8 51.6 89.9 44.1 95.9z" class="a"/><path d="M83.1 38.3c-2.6-5.8-5.9-11.8-4.3-17.4 1.3-4.5 4.1-14.2 9.3-14.1 5.3 0.1 14.1 5.3 16 11.1 0.8 2.4 1.7 5.6 2.1 8.1C98.9 26.3 85.8 33.7 83.1 38.3z" class="b"/><path d="M125.8 147.5c1.9 3.4 1.8 6.4-1.7 8.9 -4.4 3-8.6 1.8-12.2 0 -3.4-1.7-5.7-6.2-2.7-10.4C114.6 142.5 122.7 144.9 125.8 147.5z" class="c"/><path d="M83.1 38.3c-0.9 2.9-4.6 4.9-7.3 4.4 -5-10.5-3.3-31.1 5.7-39.2 3.6-3.2 8.7-5 12.5-1.8 7.8 6.4 15.5 9.9 17.8 21.4 -1.6 3.3-5.3 3.8-7.5 3.4 -0.4-2.5-7.2-16.8-14.9-17.3 -5.2-0.3-6.3 6.5-7.6 11C80.1 25.7 80.5 32.5 83.1 38.3z" class="c"/><path d="M195.3 60.6c4.5-4.5 9.8-8.8 10.3-14.7 0.4-4.6 1.3-14.7-3.6-16.5 -5-1.8-15-0.1-18.9 4.6 -1.6 2-3.8 4.9-5.1 7.1C184.6 44 194.4 55.3 195.3 60.6z" class="b"/><path d="M195.3 60.6c-0.2 3 2.6 6.2 5.3 6.7 8.5-8 15.6-27.3 11.9-38.9 -1.5-4.6-1.9-8.3-9.1-7.3 -10 1.3-24.1 5.1-30.3 15 0.3 3.7 3.6 5.5 5.8 5.8 2.5-4.3 14.7-11.6 22.4-11.9 4.2-0.1 4.6 1.9 3.2 11.3C203.6 47.1 199.8 56.2 195.3 60.6z" class="c"/><path d="M105.8 290.8c1.3 1.9 3.1 2.6 5.7 3 -0.5-10.9 8-23.2 6.9-36.2 -1-11.1-3.8-20.1-13.4-24.2 -6.8-2.9-14.7-2.8-14.8 0.6 0 1.8 1.6 1.2 3.8 1.6 11 0.7 18.5 9.5 19.2 22C113.7 269.2 106 284 105.8 290.8z" fill="#B84526"/><path d="M145.6 316.2c1.5-13.4-4.3-20.4-17.3-21.8 -4.8-0.5-15.4-0.5-22.4-3.7 -4.5 8.3-7.7 14.6-7.5 25.5C116 317.4 127.9 317.5 145.6 316.2z" class="c"/><path d="M159.1 126.2c3.7 0.4 6.6-0.9 7.3-4.8 0.6-3.9-0.7-7.1-5.1-8.1 -4.2-0.9-7.2 0.6-7.9 5C152.8 122.5 155.3 125 159.1 126.2z" class="c"/><path d="M79.9 103.7c-1 4.9 0.6 8.1 5.3 9.2 3.6 0.9 6.3-1.2 7.4-4.1 1.6-3.9-0.2-7.7-5.5-8.6C84.8 99.8 81 100.2 79.9 103.7z" class="c"/></svg>