<svg xmlns="http://www.w3.org/2000/svg" width="266" height="150">
  <path fill="#0096D6" d="M155.775 112.34c-.527 3.461-3.17 3.461-5.727 3.461h-1.455l1.021-6.463a.802.802 0 0 1 .793-.676h.666c1.74 0 3.385 0 4.232.99.507.592.662 1.473.47 2.688zm-1.113-9.029h-9.641a1.34 1.34 0 0 0-1.322 1.131l-3.898 24.721a.805.805 0 0 0 .793.928h4.947a.938.938 0 0 0 .926-.791l1.105-7.008a1.339 1.339 0 0 1 1.324-1.131h3.049c6.35 0 10.016-3.074 10.973-9.164.432-2.664.018-4.758-1.23-6.223-1.37-1.612-3.801-2.463-7.026-2.463z"/>
  <path fill="#00539B" d="M87.017 112.34c-.526 3.461-3.17 3.461-5.726 3.461h-1.454l1.02-6.463a.803.803 0 0 1 .794-.676h.667c1.739 0 3.383 0 4.23.99.507.592.66 1.473.469 2.688zm-1.113-9.029h-9.641c-.659 0-1.22.48-1.323 1.131l-3.899 24.721a.804.804 0 0 0 .794.928h4.603c.659 0 1.22-.48 1.323-1.131l1.052-6.668a1.34 1.34 0 0 1 1.323-1.131h3.05c6.35 0 10.015-3.074 10.973-9.164.431-2.664.017-4.758-1.23-6.223-1.37-1.612-3.8-2.463-7.025-2.463zM108.285 121.213c-.446 2.639-2.54 4.408-5.21 4.408-1.339 0-2.411-.43-3.1-1.246-.683-.807-.939-1.959-.723-3.24.416-2.615 2.543-4.441 5.173-4.441 1.311 0 2.375.434 3.078 1.256.707.829.984 1.988.782 3.263zm6.433-8.984h-4.616a.805.805 0 0 0-.794.68l-.203 1.289-.323-.467c-1-1.451-3.228-1.936-5.452-1.936-5.1 0-9.457 3.863-10.305 9.285-.441 2.703.186 5.287 1.719 7.092 1.408 1.656 3.419 2.348 5.813 2.348 4.111 0 6.391-2.643 6.391-2.643l-.206 1.283a.804.804 0 0 0 .794.93h4.157a1.34 1.34 0 0 0 1.323-1.131l2.496-15.803a.803.803 0 0 0-.794-.927z"/>
  <path fill="#0096D6" d="M177.043 121.213c-.445 2.639-2.539 4.408-5.211 4.408-1.338 0-2.41-.43-3.1-1.246-.682-.807-.939-1.959-.723-3.24.416-2.615 2.543-4.441 5.174-4.441 1.311 0 2.375.434 3.076 1.256.708.829.987 1.988.784 3.263zm6.434-8.984h-4.617a.804.804 0 0 0-.793.68l-.203 1.289-.322-.467c-1-1.451-3.229-1.936-5.453-1.936-5.1 0-9.457 3.863-10.305 9.285-.441 2.703.186 5.287 1.719 7.092 1.408 1.656 3.42 2.348 5.814 2.348 4.109 0 6.391-2.643 6.391-2.643l-.207 1.283a.806.806 0 0 0 .795.93h4.156c.658 0 1.221-.479 1.324-1.131l2.494-15.803a.802.802 0 0 0-.793-.927z"/>
  <path fill="#00539B" d="M139.305 112.229h-4.641c-.443 0-.859.221-1.107.588l-6.4 9.426-2.712-9.059a1.341 1.341 0 0 0-1.283-.955H118.6a.803.803 0 0 0-.761 1.062l5.109 14.996-4.806 6.781a.803.803 0 0 0 .656 1.268h4.636c.439 0 .851-.215 1.101-.574l15.431-22.271a.805.805 0 0 0-.661-1.262z"/>
  <path fill="#0096D6" d="M188.916 103.99l-3.955 25.172a.804.804 0 0 0 .793.928h3.98c.658 0 1.221-.48 1.322-1.131l3.902-24.719a.806.806 0 0 0-.795-.93h-4.453a.809.809 0 0 0-.794.68zM163.059 33.985c.975-6.222-.008-10.456-3.373-14.291-3.705-4.223-10.398-6.031-18.963-6.031h-24.86a3.557 3.557 0 0 0-3.514 3.002L101.997 82.31a2.132 2.132 0 0 0 2.107 2.465h15.348l-1.059 6.719a1.867 1.867 0 0 0 1.844 2.158h12.936a3.114 3.114 0 0 0 3.074-2.627l.125-.658 2.438-15.454.158-.854a3.11 3.11 0 0 1 3.072-2.627h1.936c12.531 0 22.346-5.091 25.213-19.816 1.197-6.153.578-11.289-2.59-14.899-.958-1.092-2.152-1.995-3.54-2.732"/>
  <path fill="#004990" d="M163.059 33.985c.975-6.222-.008-10.456-3.373-14.291-3.705-4.223-10.398-6.031-18.963-6.031h-24.86a3.557 3.557 0 0 0-3.514 3.002L101.997 82.31a2.132 2.132 0 0 0 2.107 2.465h15.348l3.855-24.445-.12.766a3.542 3.542 0 0 1 3.5-3.002h7.293c14.326 0 25.543-5.821 28.82-22.652.1-.499.184-.982.259-1.457"/>
  <path fill="#00539B" d="M127.45 34.068a3.111 3.111 0 0 1 3.073-2.627h19.487c2.309 0 4.461.151 6.43.468.562.091 1.109.195 1.641.312a24.42 24.42 0 0 1 2.285.626c.965.321 1.865.699 2.693 1.138.975-6.222-.008-10.456-3.373-14.291-3.705-4.223-10.398-6.031-18.963-6.031h-24.86a3.557 3.557 0 0 0-3.514 3.002L101.997 82.31a2.132 2.132 0 0 0 2.107 2.465h15.348l3.855-24.445 4.143-26.262z"/>
</svg>