<svg xmlns="http://www.w3.org/2000/svg" width="467.96" height="317.301">
  <g fill="#8D6E63">
    <path d="M381.329 48.123s12.322 102.927-61.578 254.236l16.062-1.082s64.342-100.146 52.366-262.111l-6.85 8.957z"/>
    <path d="M378.749 126.095l-3.11-8.847 2.798-.106-1.133-6.477 3.445 1.43zM384.151 136.761h5.358l-3.477 3.954 3.477 1.38-4.112 3.707 1.686 1.959-3.875 4.667zM359.123 203.505l-2.097-7.91h2.097l-1.048-5.167 4.655.891-.641-6.224 2.66 3.166zM362.749 234.928c.668-.333 5.334-1.833 5.334-1.833l-3.883 4.763 2.049 1.403-4.076 4.414 2.576.92-7.723 6.166 5.723-15.833z"/>
  </g>
  <path fill="#5D4137" d="M323.464 302.108c4.617-7.073 15.285-20.014 25.076-43.681 10.589-25.599 22.209-66.333 29.654-97.167 7.334-30.378 8.182-104.521 8.168-119.721l-5.033 6.583s2.752 23.036-2.162 63.315l-1.863-.773 1.131 6.47-.001.007-2.795.106 1.985 5.647c-2.735 18.54-7.046 40.132-13.744 64.331l-1.791-2.131.641 6.209c-.002.005-.004.01-.004.015l-4.65-.891 1.048 5.167h-2.097l2.095 7.901c-9.144 29.742-21.823 62.935-39.37 98.862l3.712-.249z" opacity=".1"/>
  <path fill="#4DAF4E" d="M384.5 44.955l-21.812-31.776 11.936-7.281 13.277 2.873z"/>
  <path fill="#8BC249" d="M355.521 27.854c-1.453 3.297-2.701 6.499-3.424 9.46 11.938 1.152 22.98 3.973 32.485 8.131-5.91-16.54-23.731-27.963-44.077-26.786-16.986.982-31.203 10.49-37.746 23.558a119.518 119.518 0 0 1 11.215-2.865c1.713-3.332 4.152-6.492 7.184-9.511-.27 3.129-.447 5.964-.473 8.315 2.688-.402 5.426-.72 8.201-.955 2.494-3.679 6.193-7.157 10.67-10.506-1.514 3.321-2.643 6.676-3.175 10.084 2.825-.078 5.614-.056 8.369.046 2.466-3.55 6.113-6.512 10.771-8.971z"/>
  <path fill="#4DAF4E" d="M356.103 53.248c.814 3.016 1.722 5.84 2.863 8.179 9.043-6.847 18.387-12.065 27.393-15.459-13.377-6.748-32.285-2.687-45.947 10.976-11.406 11.406-16.112 26.465-13.434 38.914a125.808 125.808 0 0 1 6.295-8.937c-.651-3.203-.695-6.757-.244-10.598 1.555 2.158 3.01 4.07 4.301 5.579a137.424 137.424 0 0 1 5.239-5.812c-.295-3.918.37-8.474 1.653-13.442.785 3.069 1.86 5.916 3.387 8.417a136.76 136.76 0 0 1 5.914-5.283c-.243-3.821.673-8.016 2.58-12.534z"/>
  <path fill="#8BC249" d="M400.409 18.636c2.598 1.832 4.986 3.685 6.85 5.595-9.117 6.286-16.79 13.427-22.646 20.88-2.395-15.178 7.018-31.893 23.914-40.234 14.105-6.963 29.668-6.23 40.59.675-3.389.794-6.82 1.772-10.271 2.923-2.821-1.741-6.153-3.021-9.9-3.927 1.571 2.243 2.94 4.304 3.978 6.068a126.917 126.917 0 0 0-7.019 2.999c-3.6-1.647-8.083-2.598-13.138-3.098 2.655 1.822 5.016 3.845 6.919 6.179a125.844 125.844 0 0 0-6.721 3.832c-3.523-1.563-7.741-2.146-12.556-1.892z"/>
  <path fill="#4DAF4E" d="M417.904 39.573c.726 3.134 1.263 6.126 1.324 8.762-12.317-2.743-24.108-3.85-34.646-3.393 9.7-11.65 30.278-15.459 50.564-8.228 16.937 6.038 29.152 18.165 32.813 30.826a155.258 155.258 0 0 0-10.682-5.791c-.979-3.243-2.73-6.568-5.111-9.962-.434 2.632-.895 4.996-1.397 6.918a171.623 171.623 0 0 0-8.069-3.307c-1.689-3.765-4.642-7.739-8.407-11.847.78 3.171 1.163 6.252.932 9.192a169.182 169.182 0 0 0-8.464-2.542c-1.691-3.651-4.707-7.188-8.857-10.628z"/>
  <path fill="#8BC249" d="M407.905 59.416c-1.984 2.274-3.97 4.363-5.961 5.981-5.144-8.26-11.236-15.254-17.793-20.636 14.674-1.801 29.723 6.951 36.106 22.189 5.329 12.721 3.194 26.572-4.39 36.153a93.411 93.411 0 0 0-1.835-9.216c1.918-2.476 3.444-5.416 4.653-8.736-2.281 1.351-4.37 2.525-6.146 3.412a100.85 100.85 0 0 0-2.208-6.32c1.9-3.171 3.219-7.146 4.162-11.639-1.98 2.326-4.125 4.386-6.522 6.03a100.99 100.99 0 0 0-3.028-6.072c1.815-3.104 2.759-6.85 2.962-11.146z"/>
  <g fill="#8D6E63">
    <path d="M87.358 48.489s-20.813 101.552 40.289 258.466l-15.917-2.41S55.913 199.41 81.275 38.995l6.083 9.494z"/>
    <path d="M83.465 126.407l3.834-8.558-2.779-.338 1.666-6.361-3.553 1.139zM77.197 136.589l-5.338-.444 3.137 4.229-3.579 1.086 3.789 4.035-1.842 1.813 3.474 4.971zM96.606 205.177l2.747-7.708-2.091-.174 1.473-5.063-4.714.503 1.156-6.15-2.914 2.936zM90.387 236.191c-.637-.387-5.163-2.269-5.163-2.269l3.475 5.068-2.158 1.229 3.696 4.736-2.644.703 7.186 6.786-4.392-16.253z"/>
    <path d="M118.365 305.55c-16.461-45.282-28.537-89.688-33.399-121.031-4.791-30.883-7.769-92.001-2.078-143.007l4.471 6.978s-4.651 22.729-3.095 63.276l1.922-.616-1.664 6.354.001.007 2.776.337-2.447 5.463c1.189 18.702 3.694 40.578 8.364 65.248l1.961-1.975-1.152 6.135.003.015 4.708-.502-1.474 5.062 2.091.174-2.743 7.7c6.646 30.397 16.529 64.527 31.038 101.786l-9.283-1.404z" opacity=".1"/>
  </g>
  <path fill="#8BC249" d="M83.46 47.107l21.811-27.924-9.463-5.748-13.175 2.133z"/>
  <path fill="#4DAF4E" d="M115.17 35.3c.825 3.507 1.465 6.884 1.632 9.928-11.946-1.056-23.318-.306-33.424 2.04 8.841-15.176 28.454-23.14 48.239-18.254 16.519 4.079 28.752 16.031 32.789 30.076a119.654 119.654 0 0 0-10.499-4.871c-1.073-3.59-2.893-7.143-5.319-10.667-.31 3.125-.654 5.945-1.059 8.261a129.178 129.178 0 0 0-7.888-2.442c-1.778-4.073-4.777-8.171-8.563-12.284.879 3.542 1.374 7.047 1.272 10.495a129.46 129.46 0 0 0-8.236-1.488c-1.773-3.942-4.816-7.523-8.944-10.794z"/>
  <path fill="#8BC249" d="M110.438 54.356c-1.172 2.815-2.407 5.446-3.802 7.613-7.694-6.743-15.89-11.961-24.004-15.45 13.608-5.925 31.05-1.487 42.238 11.827 9.34 11.114 11.827 25.455 7.638 37.096a102.387 102.387 0 0 0-4.806-8.623c1.042-2.997 1.553-6.344 1.631-9.977-1.763 1.982-3.398 3.737-4.826 5.117a110.813 110.813 0 0 0-4.214-5.646c.797-3.682.766-7.996.201-12.717-1.151 2.866-2.55 5.513-4.33 7.82a110.753 110.753 0 0 0-4.927-5.168c.736-3.592.418-7.574-.799-11.892z"/>
  <path fill="#4DAF4E" d="M67.044 24.311c-2.49 1.963-4.777 3.925-6.549 5.884 9.058 4.851 16.728 10.642 22.631 16.912 1.96-14.267-7.646-28.718-24.351-34.652C44.83 7.5 29.653 9.806 19.161 17.326c3.329.378 6.704.923 10.101 1.624 2.712-1.902 5.933-3.434 9.569-4.662-1.478 2.235-2.764 4.282-3.733 6.02 2.308.601 4.619 1.281 6.928 2.035 3.474-1.898 7.828-3.245 12.75-4.236-2.547 1.961-4.802 4.076-6.601 6.431 2.285.887 4.501 1.837 6.657 2.835 3.399-1.812 7.504-2.793 12.212-3.062z"/>
  <path fill="#8BC249" d="M50.055 41.725c-.725 3.134-1.262 6.126-1.323 8.761 12.317-2.743 24.108-3.849 34.646-3.393-9.7-11.65-30.278-15.459-50.565-8.227C15.877 44.904 3.661 57.031 0 69.692a154.803 154.803 0 0 1 10.681-5.791c.979-3.242 2.73-6.568 5.112-9.962.434 2.632.894 4.996 1.397 6.919a170.121 170.121 0 0 1 8.069-3.307c1.689-3.765 4.642-7.739 8.406-11.847-.779 3.171-1.163 6.252-.932 9.192a168.9 168.9 0 0 1 8.465-2.542c1.692-3.652 4.707-7.189 8.857-10.629z"/>
  <path fill="#4DAF4E" d="M61.192 63.463c2.199 2.067 4.382 3.948 6.522 5.361 4.301-8.729 9.671-16.292 15.663-22.296-14.78-.34-28.889 9.86-33.732 25.655-4.043 13.187-.548 26.758 7.948 35.541.14-3.066.447-6.191.913-9.353-2.153-2.273-3.964-5.048-5.495-8.232 2.403 1.118 4.599 2.08 6.453 2.787.444-2.159.97-4.331 1.571-6.507-2.206-2.968-3.911-6.792-5.294-11.169 2.201 2.119 4.538 3.956 7.088 5.354a99.947 99.947 0 0 1 2.412-6.342c-2.111-2.909-3.423-6.543-4.049-10.799z"/>
  <path fill="#FFF" d="M306.739 301.686H292.42l-2.854-27.843h20.027z" opacity=".7"/>
  <path fill="#F8981D" d="M294.188 299.727h10.784l.66-6.446h-12.106z"/>
  <path fill="#FEEA39" d="M307.06 279.357H292.1l.608 5.932h13.743z"/>
  <path fill="#F1592B" d="M292.708 285.289l.818 7.992h12.106l.819-7.992z"/>
  <circle cx="297.593" cy="292.547" r="1.118" fill="#FFF" opacity=".7"/>
  <circle cx="295.357" cy="287.198" r=".667" fill="#FFF" opacity=".7"/>
  <circle cx="298.445" cy="281.351" r=".821" fill="#FFF" opacity=".7"/>
  <circle cx="303.712" cy="296.223" r=".89" fill="#FFF" opacity=".7"/>
  <circle cx="298.296" cy="297.189" r=".686" fill="#FFF" opacity=".7"/>
  <path fill="#FEC111" d="M292.686 269.806l-.635.203 1.237 3.834h.7z"/>
  <path fill="#F9A01B" d="M297.811 287.865l.634-.203-2.678-8.305h-.701z"/>
  <path fill="#FFD54E" d="M293.288 273.843l1.778 5.514h.701l-1.779-5.514z"/>
  <path fill="#EBBC82" d="M291.066 265.805l-.022.007a.21.21 0 0 1-.264-.136l-.196-.613a.21.21 0 0 1 .136-.264l.022-.007a.21.21 0 0 1 .264.136l.196.613a.21.21 0 0 1-.136.264z"/>
  <path fill="#F1592B" d="M286.586 271.721l-2.309.739c.488-2.773 4.312-5.667 6.523-7.074l.031-.01c-1.549 1.298-4.36 4.08-4.245 6.345z"/>
  <path fill="#FEEA39" d="M288.895 270.981l-2.309.739c-.115-2.265 2.696-5.047 4.246-6.345l.03-.01c-1.171 1.308-2.177 3.827-1.967 5.616z"/>
  <path fill="#F1592B" d="M291.202 270.242l-2.308.739c-.21-1.789.797-4.309 1.968-5.615l.031-.01c-.231 1.582-.054 3.332.309 4.886z"/>
  <path fill="#FEEA39" d="M293.511 269.504l-2.309.738c-.363-1.554-.54-3.304-.309-4.886l.031-.01c1.108 1.154 1.98 2.681 2.587 4.158z"/>
  <path fill="#F1592B" d="M295.819 268.765l-2.309.739c-.606-1.477-1.479-3.004-2.586-4.157l.03-.01c1.714.383 3.997 1.85 4.865 3.428z"/>
  <path fill="#FEEA39" d="M298.128 268.025l-2.309.739c-.868-1.578-3.151-3.045-4.864-3.428a.283.283 0 0 0 .031-.011c2.015.158 5.921.79 7.142 2.7z"/>
  <path fill="#F1592B" d="M300.436 267.286l-2.308.739c-1.221-1.91-5.127-2.542-7.142-2.699l.031-.01c2.618-.138 7.411-.004 9.419 1.97z"/>
  <g>
    <path fill="#8BC249" d="M307.785 267.091l9.072-3.752-.654-1.583-9.87 4.081-2.003 8.006h1.766z"/>
    <path fill="#679F42" d="M299.911 291.503l1.662.416 3.143-12.562h-1.766z"/>
    <path fill="#AED580" d="M304.33 273.843l-1.38 5.514h1.766l1.38-5.514z"/>
  </g>
  <path fill="#09BCD4" d="M229.047 222.188c-42.141 0-81.147-7.945-112.979-21.443-.939-.398-1.854.608-1.361 1.502 16.619 30.135 59.665 61.007 112.476 61.007s99.584-30.872 116.204-61.007c.493-.894-.421-1.9-1.361-1.502-31.833 13.498-70.838 21.443-112.979 21.443z"/>
  <path fill="#00ACC1" d="M229.047 222.188c-42.141 0-81.147-7.945-112.979-21.443-.939-.398-1.361 1.502-1.361 1.502s61.425 34.674 114.34 34.674c52.812 0 114.34-34.674 114.34-34.674s-.421-1.9-1.361-1.502c-31.833 13.498-70.838 21.443-112.979 21.443z"/>
  <ellipse cx="227.183" cy="301.36" fill="#ECEFF0" rx="99.182" ry="3.983"/>
  <g>
    <path fill="#00ACC1" d="M113.505 202.564a3.753 3.753 0 0 1-3.741-3.376 3.77 3.77 0 0 1 3.355-4.133 3.758 3.758 0 0 1 4.133 3.355 3.77 3.77 0 0 1-3.747 4.154zm.007-6.029a2.266 2.266 0 0 0-2.255 2.499 2.257 2.257 0 0 0 2.486 2.018 2.266 2.266 0 0 0 2.018-2.486 2.258 2.258 0 0 0-2.249-2.031z"/>
  </g>
  <g>
    <path fill="#00ACC1" d="M344.941 202.61a3.753 3.753 0 0 1-3.74-3.376 3.77 3.77 0 0 1 3.355-4.133 3.745 3.745 0 0 1 4.133 3.355 3.77 3.77 0 0 1-3.748 4.154zm.007-6.029a2.268 2.268 0 0 0-2.255 2.499 2.257 2.257 0 0 0 2.486 2.018 2.268 2.268 0 0 0 2.018-2.486 2.257 2.257 0 0 0-2.249-2.031z"/>
  </g>
  <g>
    <path fill="#09BCD4" d="M110.158 197.742a.637.637 0 0 1-.298-.073l-32.812-17.888a.649.649 0 0 1 .185-1.217c4.365-.777 6.625-1.907 10.56-3.217-3.854-.573-7.535-1.509-10.977-2.789a.651.651 0 0 1 .453-1.219c4.148 1.544 8.657 2.573 13.402 3.06a.65.65 0 0 1 .161 1.255c-4.194 1.562-6.778 2.9-11.51 3.839l31.134 17.021a.65.65 0 0 1-.298 1.228z"/>
  </g>
  <g>
    <path fill="#09BCD4" d="M347.962 198.057a.652.652 0 0 1-.31-1.223l31.408-17.209c-4.517-.914-8.273-2.209-12.819-3.902a.648.648 0 1 1 .16-1.255c4.991-.511 8.962-1.628 12.991-3.127a.65.65 0 1 1 .453 1.219c-3.377 1.256-6.576 2.294-10.566 2.865 4.278 1.453 7.676 2.527 11.812 3.265a.65.65 0 0 1 .195 1.212l-33.015 18.078a.68.68 0 0 1-.309.077z"/>
  </g>
  <g>
    <path fill="#462D3B" d="M142.588 275.122c-.224 2.525.606 25.646-2.646 35.601-2.009 6.146-.607 6.577 7.28 6.162 3.64-14.497 3.062-28.526-4.634-41.763z"/>
    <path fill="#FFF8F0" d="M163.004 264.594c2.76-3.649 7.118-8.104 10.979-11.543 2.582-2.301 4.945-4.153 6.452-4.993 1.48-.825 3.469-1.92 4.053-3.425-2.539-2.3-5.451-3.58-8.655-4.514-6.74-1.96-14.43 1.89-15.522 9.294-.584 3.961-.536 7.029-.072 11.685.02.015.042.026.062.041.993 1.536.082 3.101-1.168 3.642-1.33.579-2.872.926-4.358-.248-1.028-.812-1.144-1.711-.698-2.688l-.002.001c-.291-3.32-.931-7.429-2.271-10.516-3.633-8.372-10.642-9.191-16.884-7.089-3.546 1.194-6.354 3.825-8.237 7.221 2.308.358 9.094 3.229 15.783 7.244 3.434 2.062 6.843 4.425 9.604 6.904 3.631 3.26 7.739 2.643 10.934-1.016zm2.718-19.527a1.174 1.174 0 0 1 1.613.391 2.066 2.066 0 0 0 2.194.992c.885-.169 1.51-.843 1.672-1.803.11-.64.73-1.078 1.353-.959.638.107 1.068.714.96 1.352-.329 1.935-1.686 3.357-3.542 3.714-.465.09-.931.104-1.381.049a4.442 4.442 0 0 1-3.259-2.122 1.177 1.177 0 0 1 .39-1.614zm-24.665 7.138a4.434 4.434 0 0 1-4.043-3.078 1.174 1.174 0 0 1 2.23-.731c.34 1.039 1.209 1.438 1.91 1.467.899.036 1.662-.477 2.039-1.373a1.172 1.172 0 1 1 2.161.91c-.764 1.808-2.408 2.883-4.297 2.805z"/>
    <path fill="#F2692B" d="M134.918 244.241c6.243-2.103 13.251-1.283 16.884 7.089 1.34 3.087 1.981 7.195 2.271 10.516l.002-.001a4.31 4.31 0 0 1 .268-.501c1.121-.879 4.007-1.566 5.895-.246-.464-4.655-.512-7.724.072-11.685 1.092-7.404 8.783-11.254 15.522-9.294 3.205.934 6.117 2.214 8.655 4.514.494-.771.163-1.721-.435-2.873-3.511-6.776-6.199-12.283-9.308-16.201-.15-.189-.302-.359-.452-.542-.967.117-2.249-.664-2.511-1.708-.826-1.568-4.682-4.112-7.28-4.726-.003.012-.011.029-.013.04-.765.117-2.081-.14-2.589-1.347l.005-.016c-3.076-.598-6.604-.643-10.817-.224-4.8.477-8.532 1.788-11.447 3.438.047.077.1.15.144.23-.187 1.295-1.396 1.876-2.165 1.954-.021-.041-.053-.083-.077-.125-2.392 1.116-5.769 4.653-6.185 6.441.009 1.08-1.044 2.166-2.011 2.29-.024-.025-.048-.057-.071-.083a.542.542 0 0 1-.186.113c-3.443 6.986-2.59 12.427-3.856 18.646-.211 1.047.548 1.405 1.445 1.521 1.887-3.395 4.695-6.025 8.24-7.22z"/>
    <path fill="#FFF8F0" d="M172.628 216.845c-.371-1.623-.609-4.088-2.467-4.078-2.744.013-5.396 4.843-5.657 5.816 2.598.613 6.454 3.157 7.28 4.726 1.031-2.012 1.312-4.42.844-6.464z"/>
    <path fill="#462D3B" d="M154.344 261.344c-.105.17-.192.336-.268.501-.445.977-.33 1.876.698 2.688 1.487 1.174 3.028.827 4.358.248 1.25-.541 2.161-2.105 1.168-3.642-.021-.015-.042-.026-.062-.041-1.887-1.321-4.774-.633-5.894.246zM164.491 218.623c.002-.011.01-.028.013-.04.262-.974 2.914-5.804 5.657-5.816 1.858-.01 2.097 2.455 2.467 4.078.468 2.044.187 4.452-.844 6.464.262 1.044 1.543 1.825 2.511 1.708h.013c2.011-3.644 1.798-11.007-1.228-14.075-1.198-1.217-2.989-1.946-4.409-.906-2.911 2.133-5.731 3.224-6.765 7.226l-.005.016c.509 1.205 1.825 1.462 2.59 1.345z"/>
    <path fill="#FFF8F0" d="M129.874 217.968c-.336-.029-.603-.015-.817.062-.268.23-.474.554-.629.939-.102.611-.062 1.546.068 2.943.194 2.089 1.358 5.375 2.864 7.063.416-1.788 3.792-5.325 6.185-6.441-.961-1.597-4.978-4.319-7.671-4.566z"/>
    <path fill="#462D3B" d="M131.359 228.976c-1.505-1.688-2.67-4.975-2.864-7.063-.13-1.397-.17-2.332-.068-2.943.089-.532.288-.819.629-.939.214-.076.481-.091.817-.062 2.694.247 6.711 2.969 7.67 4.566.024.042.056.084.077.125.769-.078 1.979-.659 2.165-1.954-.044-.08-.097-.153-.144-.23-2.089-3.463-6.884-5.058-10.357-5.717-2.549-.486-2.783.832-3.396 2.427-1.53 3.989.561 10.938 3.389 13.998.023.026.046.058.071.083.967-.125 2.02-1.211 2.011-2.291z"/>
    <path fill="#B84526" d="M161.837 296.055c.234-4.439 2.926-7.604 6.836-7.837.811-.173 1.373.038 1.365-.586-.011-1.21-2.835-1.27-5.267-.219-3.435 1.484-4.453 4.666-4.794 8.642-.385 4.474 2.395 8.722 2.449 12.497.725-.161 1.425-.369 2.049-.646-.068-2.442-2.811-7.693-2.638-11.851z"/>
    <path fill="#462D3B" d="M162.426 308.552c-2.205.487-4.649.526-5.949.66-4.659.479-6.7 2.996-6.181 7.764 6.309.455 10.552.406 16.858.014.078-3.867-1.061-6.115-2.68-9.084-.623.277-1.323.485-2.048.646zM165.333 246.681a4.442 4.442 0 0 0 3.259 2.122c.45.055.916.041 1.381-.049 1.856-.356 3.213-1.779 3.542-3.714a1.173 1.173 0 0 0-.96-1.352c-.623-.119-1.243.319-1.353.959-.162.96-.787 1.634-1.672 1.803a2.067 2.067 0 0 1-2.194-.992 1.174 1.174 0 1 0-2.003 1.223zM145.353 249.399a1.172 1.172 0 1 0-2.161-.91c-.376.896-1.14 1.409-2.039 1.373a2.068 2.068 0 0 1-1.91-1.467 1.173 1.173 0 0 0-2.23.731 4.434 4.434 0 0 0 4.043 3.078c1.89.079 3.534-.996 4.297-2.805z"/>
    <path fill="#FFF8F0" d="M224.819 241.195c-5.99 2.463-10.375 5.822-13.614 12.222.609 1.195 1.423 2.238 2.864 2.259 1.335.021 1.689.849 2.178 1.842 1.678 3.406 5.649 4.311 8.667 1.944.927-.725 1.464-1.648 2.895-.713 2.789 1.82 5.569 1.03 8.244-.476-.869-5.964-3.245-11.438-6.825-16.107-1.128-1.469-2.684-1.681-4.409-.971z"/>
    <path fill="#F2692B" d="M236.053 258.664c-2.675 1.506-5.455 2.297-8.244.476-1.431-.936-1.968-.012-2.895.714-3.017 2.365-6.989 1.462-8.667-1.945-.488-.993-.842-1.821-2.178-1.842-1.441-.021-2.255-1.063-2.864-2.259-1.665 2.823-3.999 6.689-5.75 12.279-2.663 8.5-2.837 14.428-4.636 23.044-1.305 6.252-4.143 12.728-9.505 16.575a17.677 17.677 0 0 1-2.902 1.706c-1.869.817-2.492.234-2.492.234.479-2.293.721-5.507.836-8.221.017-.013.032-.028.049-.043.031-1.22.044-2.437.047-3.648v-.506l-.001-.236-.007-.822c-.173-23.557-6.093-33.906-12.86-41.119-3.862 3.439-8.219 7.894-10.979 11.543-3.195 3.659-7.303 4.276-10.936 1.017-2.761-2.479-6.17-4.842-9.604-6.904.333 5.533-.018 11.269.124 16.416 7.696 13.237 8.274 27.266 4.634 41.763l3.074.091c-.519-4.768 1.522-7.285 6.181-7.764 1.3-.134 3.744-.173 5.949-.66-.054-3.775-2.834-8.023-2.449-12.497.341-3.976 1.36-7.157 4.794-8.642 2.432-1.051 5.256-.991 5.267.219.007.624-.555.413-1.365.586-3.91.233-6.602 3.397-6.836 7.837-.174 4.158 2.57 9.409 2.638 11.851 1.619 2.969 2.758 5.217 2.68 9.084 1.443-.064 3.268-.135 5.145-.213.005-.012.011-.021.017-.031 4.094-.174 8.883-.357 11.654-.516l3.644-.108a62.08 62.08 0 0 0 3.699-.046c14.816-.613 26.663-6.712 35.383-19.853 6.833-10.299 10.657-21.094 9.941-33.441-.082-1.389-.586-4.119-.586-4.119z"/>
  </g>
</svg>