<svg xmlns="http://www.w3.org/2000/svg" width="266" height="150"><path fill="#472E3B" d="M147.156 103.513c-.243 2.736.656 27.785-2.867 38.572-2.176 6.656-.658 7.125 7.889 6.674 3.943-15.705 3.316-30.905-5.022-45.246z"/><path fill="#FAF9F0" d="M169.275 92.106c2.99-3.955 7.711-8.779 11.896-12.508 2.798-2.491 5.357-4.499 6.99-5.409 1.604-.894 3.759-2.079 4.392-3.71-2.75-2.492-5.906-3.879-9.378-4.89-7.302-2.125-15.634 2.046-16.817 10.068-.633 4.292-.581 7.616-.078 12.659.021.018.046.029.067.045 1.077 1.664.089 3.359-1.265 3.947-1.441.627-3.111 1.002-4.723-.27-1.113-.879-1.239-1.854-.756-2.912h-.002c-.315-3.598-1.01-8.047-2.462-11.392-3.936-9.071-11.529-9.958-18.292-7.681-3.842 1.294-6.884 4.146-8.925 7.824 2.5.388 9.853 3.499 17.099 7.849 3.721 2.234 7.414 4.793 10.406 7.48 3.936 3.533 8.387 2.865 11.848-1.1zm2.946-21.154a1.269 1.269 0 0 1 1.746.423c.615 1.011 1.633 1.218 2.379 1.074.958-.184 1.636-.913 1.811-1.953.119-.692.791-1.169 1.467-1.039a1.268 1.268 0 0 1 1.039 1.465c-.355 2.096-1.826 3.637-3.837 4.023a4.87 4.87 0 0 1-1.496.054 4.818 4.818 0 0 1-3.53-2.301 1.27 1.27 0 0 1 .421-1.746zm-26.724 7.733a4.801 4.801 0 0 1-1.442-.281 4.81 4.81 0 0 1-2.938-3.054 1.27 1.27 0 1 1 2.416-.792c.369 1.126 1.311 1.559 2.07 1.59.974.039 1.801-.517 2.209-1.489a1.27 1.27 0 0 1 2.341.986c-.827 1.959-2.608 3.124-4.656 3.04z"/><path fill="#F06829" d="M138.848 70.055c6.763-2.277 14.356-1.39 18.292 7.681 1.452 3.345 2.146 7.794 2.46 11.392h.004c.082-.18.175-.359.289-.543 1.215-.951 4.342-1.697 6.387-.268-.503-5.043-.555-8.367.078-12.659 1.184-8.022 9.516-12.193 16.817-10.068 3.472 1.011 6.628 2.397 9.378 4.89.534-.836.177-1.864-.471-3.112-3.805-7.342-6.717-13.309-10.085-17.554-.162-.204-.327-.39-.489-.586-1.047.126-2.436-.721-2.721-1.852-.895-1.699-5.072-4.455-7.887-5.119-.004.012-.012.031-.014.043-.829.127-2.254-.151-2.805-1.459l.005-.018c-3.333-.647-7.155-.695-11.72-.242-5.201.516-9.244 1.938-12.402 3.724.05.084.107.163.156.25-.203 1.403-1.514 2.032-2.347 2.117-.022-.043-.058-.09-.083-.136-2.592 1.209-6.25 5.042-6.701 6.979.01 1.17-1.131 2.347-2.179 2.48-.026-.027-.051-.061-.077-.09a.58.58 0 0 1-.201.123c-3.73 7.569-2.807 13.464-4.177 20.201-.229 1.135.593 1.523 1.565 1.648 2.043-3.676 5.086-6.528 8.928-7.822z"/><path fill="#FAF9F0" d="M179.703 40.373c-.402-1.758-.66-4.428-2.674-4.418-2.973.014-5.846 5.246-6.129 6.303 2.814.664 6.992 3.42 7.887 5.119 1.117-2.18 1.423-4.789.916-7.004z"/><path fill="#472E3B" d="M159.893 88.585a4.786 4.786 0 0 0-.289.543c-.483 1.059-.357 2.033.756 2.912 1.611 1.271 3.281.896 4.723.27 1.354-.588 2.342-2.283 1.265-3.947-.021-.016-.046-.027-.067-.045-2.047-1.43-5.174-.684-6.388.267zM170.887 42.3c.002-.012.01-.031.014-.043.283-1.057 3.156-6.289 6.129-6.303 2.014-.01 2.271 2.66 2.674 4.418.507 2.216.201 4.824-.916 7.004.285 1.131 1.674 1.978 2.721 1.852h.014c2.179-3.948 1.949-11.926-1.33-15.251-1.298-1.318-3.238-2.108-4.776-.981-3.153 2.311-6.209 3.493-7.328 7.828l-.005.018c.549 1.307 1.974 1.585 2.803 1.458z"/><path fill="#FAF9F0" d="M133.381 41.59c-.364-.032-.653-.016-.885.065-.291.251-.514.602-.682 1.019-.111.663-.068 1.675.073 3.189.21 2.263 1.472 5.823 3.103 7.652.451-1.938 4.109-5.771 6.701-6.979-1.039-1.729-5.391-4.678-8.31-4.946z"/><path fill="#472E3B" d="M134.99 53.516c-1.63-1.829-2.893-5.39-3.103-7.652-.141-1.515-.184-2.526-.073-3.189.096-.576.311-.887.682-1.019.232-.081.521-.098.885-.065 2.919.268 7.271 3.217 8.311 4.946.025.046.061.093.083.136.833-.085 2.144-.714 2.347-2.117-.049-.087-.106-.166-.156-.25-2.264-3.751-7.459-5.479-11.223-6.193-2.761-.526-3.015.902-3.679 2.63-1.659 4.321.607 11.85 3.671 15.165.025.029.05.062.077.09 1.047-.135 2.188-1.312 2.178-2.482z"/><path fill="#B84425" d="M168.012 126.192c.254-4.811 3.17-8.238 7.406-8.492.879-.186 1.487.043 1.48-.635-.013-1.311-3.072-1.375-5.707-.236-3.721 1.607-4.824 5.057-5.195 9.363-.417 4.846 2.596 9.449 2.654 13.539.785-.174 1.543-.4 2.219-.701-.073-2.644-3.046-8.332-2.857-12.838z"/><path fill="#472E3B" d="M168.65 139.731c-2.39.527-5.037.57-6.445.715-5.047.52-7.259 3.246-6.697 8.412 6.836.492 11.432.439 18.266.014.084-4.188-1.149-6.625-2.904-9.842-.677.301-1.434.528-2.22.701zM171.799 72.698a4.82 4.82 0 0 0 3.53 2.301c.487.059.992.043 1.496-.054 2.011-.387 3.481-1.928 3.837-4.023a1.269 1.269 0 0 0-1.039-1.465c-.676-.13-1.348.347-1.467 1.039-.175 1.04-.853 1.77-1.811 1.953-.746.144-1.764-.063-2.379-1.074a1.269 1.269 0 1 0-2.167 1.323zM150.151 75.644a1.27 1.27 0 1 0-2.341-.986c-.408.972-1.235 1.528-2.209 1.489-.76-.031-1.701-.464-2.07-1.59a1.272 1.272 0 0 0-2.416.792 4.813 4.813 0 0 0 2.938 3.054 4.77 4.77 0 0 0 1.442.281c2.05.085 3.831-1.08 4.656-3.04z"/><path fill="#FAF9F0" d="M236.248 66.755c-6.49 2.668-11.241 6.308-14.75 13.242.66 1.295 1.542 2.424 3.104 2.447 1.447.021 1.83.92 2.359 1.994 1.818 3.691 6.121 4.672 9.389 2.107 1.004-.785 1.586-1.785 3.138-.773 3.021 1.975 6.034 1.117 8.931-.514-.939-6.461-3.515-12.392-7.395-17.451-1.221-1.592-2.907-1.821-4.776-1.052z"/><path fill="#F06829" d="M248.418 85.683c-2.896 1.631-5.91 2.486-8.931.514-1.552-1.014-2.134-.012-3.138.773-3.268 2.562-7.57 1.584-9.389-2.107-.529-1.076-.912-1.973-2.359-1.994-1.562-.023-2.443-1.152-3.104-2.449-1.804 3.059-4.332 7.248-6.23 13.305-2.885 9.209-3.072 15.631-5.021 24.967-1.415 6.773-4.489 13.789-10.299 17.957a19.257 19.257 0 0 1-3.145 1.85c-2.025.885-2.699.254-2.699.254.52-2.484.78-5.967.905-8.906l.053-.047c.033-1.322.048-2.639.052-3.953v-.547c0-.088 0-.17-.002-.256-.002-.299-.004-.596-.008-.893-.188-25.521-6.602-36.734-13.933-44.551-4.185 3.729-8.905 8.553-11.896 12.508-3.461 3.965-7.912 4.633-11.848 1.102-2.992-2.688-6.686-5.246-10.406-7.48.361 5.994-.02 12.207.135 17.785 8.338 14.342 8.965 29.541 5.021 45.246l3.33.1c-.562-5.166 1.65-7.893 6.697-8.412 1.408-.145 4.056-.188 6.445-.715-.059-4.09-3.071-8.693-2.654-13.539.371-4.307 1.475-7.756 5.195-9.363 2.635-1.139 5.694-1.074 5.707.236.007.678-.602.449-1.48.635-4.236.254-7.152 3.682-7.406 8.492-.188 4.506 2.784 10.193 2.857 12.838 1.755 3.217 2.988 5.654 2.904 9.842 1.563-.068 3.539-.146 5.572-.23l.019-.033c4.436-.188 9.624-.387 12.627-.559l3.948-.117c1.357.023 2.691.006 4.008-.051 16.052-.664 28.887-7.271 38.334-21.508 7.404-11.158 11.547-22.854 10.771-36.23-.084-1.509-.632-4.464-.632-4.464z"/><g><circle fill="#EEE" cx="65.195" cy="68.414" r="59.606"/><circle fill="#36474F" cx="65.195" cy="68.415" r="47.685"/><circle fill="#1BA8C2" cx="65.195" cy="68.414" r="35.764"/><circle fill="#E43935" cx="65.195" cy="68.415" r="23.843"/><circle fill="#F8EB39" cx="65.195" cy="68.415" r="11.922"/><path fill-rule="evenodd" clip-rule="evenodd" d="M66.249 67.361l-2.107 2.107 42.134 42.136a59.045 59.045 0 0 0 2.108-2.109L66.249 67.361z" opacity=".2"/><path fill-rule="evenodd" clip-rule="evenodd" d="M65.195 19.984c-26.747 0-48.43 21.682-48.43 48.43s21.683 48.43 48.43 48.43c26.749 0 48.432-21.683 48.432-48.43-.001-26.747-21.684-48.43-48.432-48.43zm0 95.37c-25.924 0-46.94-21.016-46.94-46.94 0-25.923 21.016-46.94 46.94-46.94 25.925 0 46.941 21.017 46.941 46.94 0 25.925-21.016 46.94-46.941 46.94zm0-59.605c-6.995 0-12.666 5.671-12.666 12.666S58.2 81.082 65.195 81.082c6.996 0 12.667-5.672 12.667-12.667 0-6.996-5.671-12.666-12.667-12.666zm0 23.842c-6.172 0-11.176-5.004-11.176-11.176s5.004-11.176 11.176-11.176c6.173 0 11.177 5.004 11.177 11.176s-5.004 11.176-11.177 11.176zm0-47.685c-20.163 0-36.509 16.346-36.509 36.509 0 20.164 16.346 36.509 36.509 36.509 20.164 0 36.51-16.346 36.51-36.509 0-20.164-16.346-36.509-36.51-36.509zm0 71.528c-19.34 0-35.018-15.679-35.018-35.019s15.678-35.019 35.018-35.019c19.341 0 35.019 15.679 35.019 35.019s-15.678 35.019-35.019 35.019zm0-94.626c-32.919 0-59.606 26.687-59.606 59.606 0 32.921 26.687 59.606 59.606 59.606 32.92 0 59.607-26.685 59.607-59.606 0-32.919-26.687-59.606-59.607-59.606zm0 118.469c-32.507 0-58.861-26.354-58.861-58.863 0-32.508 26.354-58.862 58.861-58.862 32.509 0 58.862 26.354 58.862 58.862 0 32.51-26.353 58.863-58.862 58.863zm0-83.45c-13.579 0-24.587 11.007-24.587 24.587 0 13.581 11.009 24.589 24.587 24.589 13.58 0 24.588-11.009 24.588-24.589 0-13.58-11.008-24.587-24.588-24.587zm0 47.684c-12.756 0-23.097-10.338-23.097-23.096 0-12.756 10.341-23.098 23.097-23.098 12.756 0 23.098 10.342 23.098 23.098 0 12.758-10.342 23.096-23.098 23.096z" opacity=".102"/><path fill="#19A1C8" d="M122.091 11.512V3.083l-12.645 12.644v8.43h8.43l12.644-12.645z"/><path fill-rule="evenodd" clip-rule="evenodd" fill="#DF963F" d="M125.251 8.351a1.49 1.49 0 0 0-2.106 0L64.137 67.359a1.488 1.488 0 0 0 0 2.106 1.488 1.488 0 0 0 2.107 0l59.007-59.007a1.488 1.488 0 0 0 0-2.107z"/><path fill-rule="evenodd" clip-rule="evenodd" d="M64.155 69.481a1.49 1.49 0 0 0 2.089-.016l59.007-59.007a1.488 1.488 0 0 0 .016-2.088L64.155 69.481z" opacity=".149"/></g></svg>