<svg xmlns="http://www.w3.org/2000/svg" width="266" height="150"><path fill="#8BCFED" d="M116.423 116.562a2.83 2.83 0 0 0 3.841 1.119l28.375-15.557a2.83 2.83 0 0 0 1.12-3.842l-10.934-19.941a2.83 2.83 0 0 0-3.841-1.119L106.61 92.779a2.828 2.828 0 0 0-1.121 3.84l10.934 19.943z"/><path fill="#BDE6F9" d="M115.934 115.668a2.828 2.828 0 0 0 3.841 1.121l28.375-15.557a2.832 2.832 0 0 0 1.12-3.842l-10.935-19.941a2.826 2.826 0 0 0-3.84-1.121L106.12 91.887a2.829 2.829 0 0 0-1.12 3.84l10.934 19.941z"/><path fill="#8BCFED" d="M124.399 113.221l20.2-12.109c.86-.471 4.603-1.143 4.683-2.051l-22.256-8.15a3.163 3.163 0 0 0-3.921 2.15l-5.209 23.598c.696.204 5.816-3.061 6.503-3.438z"/><path fill="#A1DBF7" d="M119.774 116.789l28.375-15.557a2.83 2.83 0 0 0 1.457-2.234l-21.601-6.303a3.164 3.164 0 0 0-3.921 2.15l-6.47 22.176a2.817 2.817 0 0 0 2.16-.232z"/><path fill="#8BCFED" d="M106.823 93.168l28.374-15.559c.86-.471 1.189-1.246 1.992-.838l-5.777 22.137a3.204 3.204 0 0 1-3.921 2.15L104.976 93.8c.207-.689 1.16-.255 1.847-.632z"/><path fill="#D2ECED" d="M106.12 91.887l28.375-15.559a2.824 2.824 0 0 1 2.667-.027l-6.302 21.6a3.159 3.159 0 0 1-3.921 2.15l-22.177-6.469a2.82 2.82 0 0 1 1.358-1.695z"/><path fill="#FFF" d="M135.148 77.52l-28.376 15.557a2.851 2.851 0 0 0-.93.82l-1.08-.314a2.815 2.815 0 0 1 1.357-1.695l28.375-15.559a2.824 2.824 0 0 1 2.667-.027l-.263.898a2.801 2.801 0 0 0-1.75.32zM126.178 98.662a3.16 3.16 0 0 0 3.921-2.15l5.385-14.455L130.86 97.9a3.159 3.159 0 0 1-3.921 2.15l-17.782-5.188 17.021 3.8z"/><path fill="#8BCFED" d="M251.682 84.975a.966.966 0 0 0 .901 1.029l11.037.73a.965.965 0 0 0 1.029-.9l.514-7.756a.966.966 0 0 0-.9-1.029l-11.038-.732a.968.968 0 0 0-1.028.902l-.515 7.756z"/><path fill="#BDE6F9" d="M251.704 84.627a.969.969 0 0 0 .902 1.029l11.037.732a.97.97 0 0 0 1.029-.902l.514-7.756a.968.968 0 0 0-.902-1.029l-11.037-.732a.97.97 0 0 0-1.029.902l-.514 7.756z"/><path fill="#8BCFED" d="M254.595 85.479l8.048.223c.334.023 1.536.518 1.726.27l-4.916-6.439a1.082 1.082 0 0 0-1.525-.102l-5.838 5.844c.161.186 2.237.186 2.505.204z"/><path fill="#A1DBF7" d="M252.606 85.656l11.037.732a.967.967 0 0 0 .83-.377l-5.067-5.787a1.084 1.084 0 0 0-1.525-.1l-5.94 5.201a.955.955 0 0 0 .665.331z"/><path fill="#8BCFED" d="M253.215 76.469l11.037.73c.335.023.572-.141.728.125l-5.733 5.318a1.094 1.094 0 0 1-1.524-.102l-5.156-6.23c.185-.16.381.141.648.159z"/><path fill="#D2ECED" d="M253.247 75.969l11.037.732a.959.959 0 0 1 .774.482l-5.786 5.066a1.08 1.08 0 0 1-1.525-.1l-5.203-5.941a.975.975 0 0 1 .703-.239z"/><path fill="#FFF" d="M264.254 77.164l-11.037-.732a1.002 1.002 0 0 0-.418.066l-.255-.289a.974.974 0 0 1 .703-.24l11.037.732a.959.959 0 0 1 .774.482l-.241.211a.959.959 0 0 0-.563-.23zM257.782 81.609a1.08 1.08 0 0 0 1.525.1l4.209-3.176-4.244 3.717a1.08 1.08 0 0 1-1.525-.1l-4.171-4.764 4.206 4.223z"/><path fill="#8BCFED" d="M223.434 104.689a.968.968 0 0 0 1.161.723l10.772-2.514a.967.967 0 0 0 .722-1.162l-1.766-7.57a.966.966 0 0 0-1.161-.721l-10.772 2.512a.968.968 0 0 0-.723 1.162l1.767 7.57z"/><path fill="#BDE6F9" d="M223.354 104.35a.966.966 0 0 0 1.162.723l10.771-2.512a.97.97 0 0 0 .723-1.162l-1.768-7.57a.967.967 0 0 0-1.161-.723l-10.772 2.514a.966.966 0 0 0-.722 1.16l1.767 7.57z"/><path fill="#8BCFED" d="M226.366 104.324l7.765-2.131c.326-.074 1.62.047 1.729-.244l-6.578-4.73a1.083 1.083 0 0 0-1.488.348l-3.884 7.291c.21.13 2.196-.473 2.456-.534z"/><path fill="#A1DBF7" d="M224.517 105.072l10.771-2.512a.976.976 0 0 0 .686-.602l-6.533-4.061a1.08 1.08 0 0 0-1.488.346l-4.169 6.707a.953.953 0 0 0 .733.122z"/><path fill="#8BCFED" d="M222.424 96.105l10.772-2.514c.326-.076.506-.301.732-.092l-3.938 6.756c-.316.5-.982.656-1.488.348l-6.745-4.459c.131-.208.406.022.667-.039z"/><path fill="#D2ECED" d="M222.31 95.619l10.772-2.514a.967.967 0 0 1 .881.236l-4.061 6.531a1.08 1.08 0 0 1-1.489.348l-6.705-4.168a.955.955 0 0 1 .602-.433z"/><path fill="#FFF" d="M233.188 93.557l-10.772 2.514a.973.973 0 0 0-.381.184l-.326-.201a.953.953 0 0 1 .602-.434l10.772-2.514a.967.967 0 0 1 .881.236l-.169.271a.957.957 0 0 0-.607-.056zM228.29 99.693c.508.316 1.174.16 1.488-.348l3.103-4.264-2.979 4.791a1.08 1.08 0 0 1-1.489.348l-5.377-3.342 5.254 2.815z"/><g><path fill="#8BCFED" d="M231.378 86.908c-.093.305.167.641.58.752l8.557 2.281c.412.109.822-.049.914-.354l1.344-4.443c.092-.307-.168-.643-.581-.754l-8.556-2.281c-.414-.109-.823.049-.916.354l-1.342 4.445z"/><path fill="#BDE6F9" d="M231.438 86.709c-.093.305.167.641.581.752l8.556 2.281c.413.109.823-.049.915-.354l1.343-4.443c.093-.305-.167-.643-.581-.752l-8.556-2.281c-.413-.111-.823.047-.915.352l-1.343 4.445z"/><path fill="#8BCFED" d="M233.597 87.691l6.277 1.482c.259.068 1.14.559 1.318.447l-3.068-4.588c-.254-.328-.783-.469-1.184-.314l-5.281 2.432c.106.137 1.731.485 1.938.541z"/><path fill="#A1DBF7" d="M232.019 87.461l8.556 2.281a.89.89 0 0 0 .696-.08l-3.268-4.23c-.254-.328-.783-.469-1.182-.316l-5.283 2.041a.894.894 0 0 0 .481.304z"/><path fill="#8BCFED" d="M233.608 82.197l8.557 2.281c.26.068.465.014.555.195l-5.135 2.143c-.398.15-.928.008-1.183-.316l-3.282-4.504c.165-.062.281.145.488.201z"/><path fill="#D2ECED" d="M233.695 81.912l8.556 2.281c.26.068.459.227.548.41l-5.146 1.988c-.399.154-.929.014-1.183-.316l-3.354-4.342a.92.92 0 0 1 .579-.021z"/><path fill="#FFF" d="M242.171 84.459l-8.556-2.283a1.055 1.055 0 0 0-.336-.031l-.163-.211a.92.92 0 0 1 .579-.021l8.556 2.281c.26.068.459.227.548.41l-.214.084a.899.899 0 0 0-.414-.229zM236.563 85.967c.254.328.783.469 1.183.314l3.682-1.148-3.775 1.459c-.399.154-.929.014-1.183-.316l-2.689-3.482 2.782 3.173z"/></g><g><path fill="#8BCFED" d="M197.499 81.291c.053.314.436.5.855.414l8.678-1.762c.419-.084.715-.408.662-.723l-.773-4.578c-.053-.314-.436-.5-.855-.416l-8.678 1.762c-.419.086-.715.41-.662.725l.773 4.578z"/><path fill="#BDE6F9" d="M197.464 81.086c.054.314.437.5.855.414l8.678-1.76c.419-.086.716-.41.662-.725l-.773-4.578c-.053-.314-.436-.5-.854-.414l-8.679 1.762c-.418.084-.715.408-.662.723l.773 4.578z"/><path fill="#8BCFED" d="M199.836 81.004l6.28-1.463c.264-.053 1.271-.006 1.381-.186l-4.789-2.744c-.373-.182-.91-.072-1.199.244l-3.648 4.527c.154.075 1.765-.335 1.975-.378z"/><path fill="#A1DBF7" d="M198.319 81.5l8.678-1.76c.264-.055.479-.203.588-.383l-4.808-2.336c-.374-.182-.91-.072-1.199.244l-3.825 4.176a.884.884 0 0 0 .566.059z"/><path fill="#8BCFED" d="M197.403 76.078l8.678-1.762c.263-.053.422-.193.584-.072l-3.646 4.203c-.29.312-.827.42-1.199.244l-4.943-2.574c.119-.131.315.004.526-.039z"/><path fill="#D2ECED" d="M197.353 75.785l8.679-1.762c.263-.054.512 0 .673.125l-3.725 4.068c-.289.316-.826.424-1.199.244l-4.937-2.4c.12-.13.3-.232.509-.275z"/><path fill="#FFF" d="M206.077 74.295l-8.678 1.764a.932.932 0 0 0-.314.119l-.241-.117c.12-.131.3-.232.509-.275l8.679-1.762c.263-.054.512 0 .673.125l-.154.168a.948.948 0 0 0-.474-.022zM201.726 78.141c.373.182.91.072 1.199-.242l2.787-2.666-2.732 2.984c-.289.316-.826.424-1.199.244l-3.959-1.924 3.904 1.604z"/></g><g><path fill="#8BCFED" d="M132.98 128.873c.325 1.061 1.947 1.754 3.624 1.549l34.752-4.24c1.678-.203 2.775-1.229 2.451-2.289l-4.719-15.422c-.324-1.061-1.947-1.752-3.624-1.549l-34.751 4.24c-1.678.205-2.775 1.23-2.451 2.289l4.718 15.422z"/><path fill="#BDE6F9" d="M132.77 128.184c.324 1.059 1.946 1.752 3.625 1.547l34.751-4.238c1.677-.205 2.773-1.23 2.451-2.289l-4.719-15.424c-.324-1.059-1.947-1.752-3.625-1.547l-34.751 4.238c-1.677.205-2.774 1.23-2.45 2.289l4.718 15.424z"/><path fill="#8BCFED" d="M142.403 128.361l25.086-3.697c1.053-.129 5.174.221 5.562-.359l-20.45-10.061c-1.582-.676-3.732-.414-4.803.586l-13.315 14.418c.656.281 7.079-.783 7.92-.887z"/><path fill="#A1DBF7" d="M136.395 129.73l34.751-4.238c1.053-.129 1.877-.58 2.265-1.162l-20.387-8.705c-1.583-.676-3.733-.412-4.804.586l-14.151 13.217c.656.283 1.484.406 2.326.302z"/><path fill="#8BCFED" d="M130.806 111.463l34.75-4.24c1.055-.127 1.656-.568 2.355-.131l-13.418 13.338c-1.074.984-3.225 1.246-4.803.586l-21.02-9.527c.446-.409 1.294.077 2.136-.026z"/><path fill="#D2ECED" d="M130.502 110.471l34.751-4.238c1.053-.129 2.085.098 2.787.545l-13.785 12.873c-1.07 1-3.22 1.262-4.803.586l-20.93-8.938c.444-.416 1.138-.725 1.98-.828z"/><path fill="#FFF" d="M165.536 107.152l-34.752 4.24a4.161 4.161 0 0 0-1.242.342l-1.02-.436c.443-.416 1.138-.725 1.979-.828l34.751-4.238c1.053-.129 2.085.098 2.787.545l-.574.535a4.73 4.73 0 0 0-1.929-.16zM149.124 119.162c1.582.676 3.731.414 4.802-.586l10.441-8.369-10.112 9.443c-1.07 1-3.22 1.262-4.803.586l-16.782-7.166 16.454 6.092z"/></g><g><path fill="#8BCFED" d="M157.215 84.832c-.322.824.493 1.672 1.824 1.895l27.816 4.857c1.354.244 2.521-.408 2.604-1.461l1.08-15.437c.065-1.067-.836-1.996-2.011-2.072l-24.097-1.33c-1.152-.054-2.332.587-2.638 1.427l-4.578 12.121z"/><path fill="#BDE6F9" d="M157.426 84.293c-.322.826.488 1.67 1.813 1.887l27.682 4.729c1.349.24 2.509-.418 2.592-1.471l1.069-15.446c.064-1.069-.832-1.994-2.001-2.063l-23.964-1.204c-1.145-.046-2.318.6-2.623 1.439l-4.568 12.129z"/><path fill="#8BCFED" d="M164.297 86.482l20.129 2.781c.839.143 3.85 1.479 4.33 1.047l-11.274-13.236c-.819-.849-2.366-.984-3.479-.324l-15.9 8.668c.328.344 5.53.957 6.194 1.064z"/><path fill="#A1DBF7" d="M159.239 86.18l27.682 4.729c.847.15 1.621-.051 2.1-.482l-11.767-12.093c-.827-.857-2.392-1.009-3.516-.36l-16.029 7.486c.328.343.865.61 1.53.72z"/><path fill="#8BCFED" d="M164.35 71.528l24.154 1.384c.74.05 1.264-.271 1.612.261l-13.667 9.524c-1.152.605-2.794.381-3.644-.48l-9.813-10.938c.474-.258.779.221 1.358.249z"/><path fill="#D2ECED" d="M164.617 70.724l23.964 1.204c.733.043 1.358.423 1.706.964l-13.706 9.101c-1.149.625-2.781.408-3.622-.462l-9.971-10.414a3.144 3.144 0 0 1 1.629-.393z"/><path fill="#FFF" d="M188.511 72.844l-24.142-1.373a3.057 3.057 0 0 0-.945.105l-.436-.46a3.153 3.153 0 0 1 1.629-.393l23.964 1.204c.733.043 1.358.423 1.706.964l-.529.418a2.266 2.266 0 0 0-1.247-.465zM173.168 80.582c.834.864 2.453 1.068 3.594.435l10.074-5.51-10.255 6.485c-1.149.625-2.781.408-3.622-.462l-8.166-8.514 8.375 7.566z"/></g><g><path fill="#8BCFED" d="M41.584 116.803a3.978 3.978 0 0 0 3.565 4.352l45.284 4.51a3.976 3.976 0 0 0 4.353-3.564l3.169-31.826a3.978 3.978 0 0 0-3.564-4.352l-45.284-4.508a3.976 3.976 0 0 0-4.353 3.562l-3.17 31.826z"/><path fill="#BDE6F9" d="M41.727 115.377a3.978 3.978 0 0 0 3.564 4.354l45.284 4.51a3.982 3.982 0 0 0 4.354-3.566l3.168-31.826a3.977 3.977 0 0 0-3.564-4.352l-45.285-4.508a3.977 3.977 0 0 0-4.352 3.562l-3.169 31.826z"/><path fill="#8BCFED" d="M53.492 119.268l33.061 2.012c1.372.137 6.247 2.334 7.062 1.344L74.277 95.475a4.446 4.446 0 0 0-6.258-.623l-24.803 23.234c.645.791 9.18 1.074 10.276 1.182z"/><path fill="#A1DBF7" d="M45.291 119.73l45.284 4.51a3.972 3.972 0 0 0 3.467-1.434L73.994 98.324a4.45 4.45 0 0 0-6.258-.623l-25.135 20.584a3.969 3.969 0 0 0 2.69 1.445z"/><path fill="#8BCFED" d="M49.044 82.033l45.284 4.508c1.373.137 2.371-.5 2.978.611l-24.3 21.086c-1.896 1.525-4.698 1.246-6.257-.621l-20.35-26.318c.787-.635 1.548.625 2.645.734z"/><path fill="#A1DBF7" d="M69.253 103.578v.002l-.125 1.961a5.467 5.467 0 0 1-5.804 5.109l-20.994-1.34 1.335-13.396.18-1.809 1.051-10.555c.007-.066.015-.135.025-.201.004-.031.01-.059.016-.088.006-.037.012-.074.02-.111l.026-.115.019-.08c.011-.043.023-.082.035-.125.006-.021.011-.045.019-.066.014-.045.029-.09.046-.135l.017-.051c.019-.051.038-.1.058-.146l.015-.037c.021-.051.045-.102.068-.152a.485.485 0 0 1 .012-.023c.025-.055.053-.105.08-.158l.008-.014c.03-.057.062-.109.094-.162l.003-.006a4.013 4.013 0 0 1 .873-1.004c.051-.043.103-.082.156-.123l.004-.002a3.837 3.837 0 0 1 .647-.391l.015-.006.156-.072.015-.006c.056-.023.112-.045.169-.066l.019-.006a3.823 3.823 0 0 1 .182-.061c.057-.018.113-.033.17-.049l.018-.004c.051-.014.103-.025.153-.035l.044-.01c.057-.012.114-.021.172-.031l.022-.002c.058-.01.116-.018.174-.023l.063-.004c.029-.004.06-.006.09-.008.016 0 .029-.002.045-.004l.084-.002.116-.004c.051 0 .102.002.153.004l.04.002h.01c.068.004.137.008.204.016l21.376 2.127-1.374 21.462z"/><path fill="#D2ECED" d="M49.247 79.988l45.285 4.508a3.974 3.974 0 0 1 3.116 2.088l-24.482 20.049a4.448 4.448 0 0 1-6.258-.623L46.325 80.875a3.97 3.97 0 0 1 2.922-.887z"/><path fill="#FFF" d="M94.344 86.396l-45.285-4.51a3.962 3.962 0 0 0-1.729.213l-1.004-1.225a3.97 3.97 0 0 1 2.922-.887l45.285 4.508a3.974 3.974 0 0 1 3.116 2.088l-1.02.834a3.955 3.955 0 0 0-2.285-1.021z"/><path fill="#8BCFED" d="M67.736 97.701a4.45 4.45 0 0 1 1.951-.922l-.435 6.799v.002l-.125 1.961a5.467 5.467 0 0 1-5.804 5.109l-10.575-.676 14.988-12.273z"/><path fill="#A1DBF7" d="M69.253 103.578v.002l-.125 1.961a5.45 5.45 0 0 1-.421 1.783 4.416 4.416 0 0 1-1.799-1.314L46.325 80.875c.044-.037.089-.072.135-.105.012-.01.024-.018.037-.027.039-.029.079-.059.12-.086l.021-.014c.046-.031.093-.061.141-.09l.04-.023c.039-.023.079-.047.118-.068l.033-.02c.05-.025.099-.051.149-.074a.36.36 0 0 1 .039-.02c.04-.02.081-.037.122-.055a.524.524 0 0 1 .042-.02 7.132 7.132 0 0 1 .192-.075l.128-.043c.017-.004.032-.01.049-.016.054-.016.106-.031.161-.045.009-.004.019-.006.027-.008.048-.012.095-.023.143-.031l.052-.012c.051-.01.103-.02.153-.027l.018-.004c.005 0 .011 0 .016-.002.004 0 .008 0 .012-.002.056-.008.112-.016.169-.021.007 0 .015 0 .021-.002l.042-.002.134-.012.135-.004c.022 0 .045 0 .066-.002.04 0 .08.002.12.004h.033c.017.002.033 0 .05.002.067.004.137.008.204.016l21.376 2.127-1.37 21.464z"/><path fill="#FFF" d="M67.129 103.793a4.446 4.446 0 0 0 6.258.623l17.738-12.49-17.959 14.707a4.448 4.448 0 0 1-6.258-.623L50.405 85.855l16.724 17.938z"/></g><g><path fill="#F2692B" d="M179.223 83.024c-1.729-5.9-4.051-11.806-7.101-17.883-.423-.844-.642-2.097-.674-3.196-4.456 3.326-9.013 7.25-12.446 11.231-3.742 4.337-8.613 4.232-12.882.45-2.69-2.747-6.398-5.854-10.126-8.657-.716 1.2-1.538 2.359-2.078 3.637-2.289 5.408-4.486 9.9-6.354 14.418-3.727 9.01-6.138 18.121-5.318 34.81.143 2.869 1.532 8.724 2.924 11.112 0 0-.731.686-2.924-.273-8.548-3.954-12.773-12.889-14.562-21.455-1.903-9.118-2.264-15.679-4.606-24.193a86.438 86.438 0 0 0-.834-2.854c-2.056-6.561-4.795-11.097-6.749-14.41-.715 1.403-1.67 2.626-3.361 2.65-1.568.023-1.983.996-2.556 2.161-1.969 3.998-6.631 5.06-10.172 2.282-1.087-.851-1.719-1.935-3.398-.837-3.272 2.138-6.537 1.21-9.675-.558 0 0-.592 3.202-.687 4.832a58.12 58.12 0 0 0 .009 6.732c.673 11.745 4.907 22.338 11.659 32.516 11.073 16.687 26.438 23.704 45.867 23.353 1.426.042 2.854.086 4.276.129 4.834.273 9.663.546 14.493.821-.732-11.588-.477-23.236-2.146-34.764-.478-3.302-.979-6.432-.22-9.631.909-3.841 4.885-5.581 7.733-2.774 1.856 1.826 2.805 4.844 2.95 7.445.748 13.256.868 26.523.851 39.792h5.496c.089-13.93.481-27.862.266-41.792-.082-5.445 3.797-7.603 6.518-6.528 2.707 1.069 3.994 3.639 4.133 6.579.324 6.825.461 13.664-.191 20.469-.432 6.95-.752 13.817-1.935 21.189 10.96.083 17.385-7.539 17.831-17.693.62-14.099-.347-26.596-4.011-39.11z"/><path fill="#FFF8F0" d="M76.005 72.018c1.679-1.098 2.311-.014 3.398.837 3.541 2.777 8.203 1.716 10.172-2.282.572-1.165.988-2.138 2.556-2.161 1.691-.024 2.646-1.247 3.361-2.65-3.8-7.511-8.947-11.453-15.977-14.345-2.024-.832-3.851-.584-5.172 1.142-4.203 5.479-6.993 11.903-8.012 18.902 3.137 1.767 6.401 2.694 9.674.557z"/><path fill="#462D3B" d="M167.528 98.17c-.139-2.94-1.426-5.51-4.133-6.579-2.721-1.074-6.6 1.083-6.518 6.528.216 13.93-.177 27.862-.266 41.792 2.934.369 5.864.412 8.79-.083 1.183-7.372 1.503-14.239 1.935-21.189.653-6.805.517-13.644.192-20.469zM147.315 92.674c-2.849-2.807-6.824-1.066-7.733 2.774-.759 3.199-.258 6.329.22 9.631 1.67 11.527 1.414 23.176 2.146 34.764 3.052.503 6.11.435 9.168.068.018-13.269-.103-26.536-.851-39.792-.145-2.601-1.093-5.619-2.95-7.445z"/></g><g><path fill="#8BCFED" d="M79.358 69.445c-.628 1.291.496 2.442 2.507 2.572l42.517 3.299c2.091.188 3.831-1.043 3.878-2.75l.295-25.153c-.007-1.75-1.362-3.068-3.021-2.944l-33.567 3.13c-1.582.18-3.323 1.41-3.894 2.741l-8.715 19.105z"/><path fill="#BDE6F9" d="M79.764 68.599c-.623 1.295.485 2.439 2.485 2.558l42.194 3.07c2.074.174 3.8-1.065 3.847-2.775l.262-25.178c-.01-1.751-1.354-3.062-3-2.929l-33.247 3.364c-1.565.19-3.291 1.43-3.859 2.763l-8.682 19.127z"/><path fill="#8BCFED" d="M89.948 70.822l30.606 1.162c1.28.096 5.946 1.765 6.647.995l-17.211-19.14c-1.165-1.176-3.378-1.08-4.997.176L80.619 70.186c.451.466 8.326.577 9.329.636z"/><path fill="#A1DBF7" d="M82.249 71.157l42.194 3.07c1.304.109 2.469-.336 3.17-1.105L109.654 55.87c-1.187-1.19-3.438-1.124-5.085.111L80.011 70.31c.451.466 1.234.787 2.238.847z"/><path fill="#8BCFED" d="M91.817 47.988l33.707-3.032c1.045-.073 1.754-.704 2.293.086l-19.38 17.856c-1.722 1.154-4.162 1.087-5.395-.111l-13.063-14.87c.695-.497 1.042.159 1.838.071z"/><path fill="#D2ECED" d="M92.305 46.709l33.247-3.364a2.683 2.683 0 0 1 2.48 1.205l-19.394 17.21c-1.71 1.188-4.127 1.138-5.345-.074L90.001 47.672c.695-.506 1.518-.868 2.304-.963z"/><path fill="#FFF" d="M125.525 44.842l-33.674 3.055a4.515 4.515 0 0 0-1.321.37l-.529-.595c.695-.507 1.518-.868 2.304-.963l33.247-3.364a2.683 2.683 0 0 1 2.48 1.205l-.707.788a2.719 2.719 0 0 0-1.8-.496zM103.641 60.168c1.199 1.198 3.585 1.228 5.274.022l14.432-10.709-14.708 12.279c-1.71 1.188-4.127 1.138-5.345-.074l-11.07-11.534 11.417 10.016z"/></g><g><path fill="#8BCFED" d="M174.833 108.799c-.57.578.061 1.346 1.409 1.717l27.921 7.67c1.348.369 2.436-.008 2.433-.842l-.034-12.135c-.002-.832-.746-1.65-1.663-1.828l-19.027-3.693c-.921-.18-2.132.143-2.704.719l-8.335 8.392z"/><path fill="#BDE6F9" d="M175.206 108.424c-.571.576.047 1.34 1.381 1.703l27.602 7.527c1.332.361 2.408-.021 2.405-.854l-.033-12.135c-.001-.832-.733-1.646-1.636-1.816l-18.709-3.551c-.904-.172-2.102.156-2.676.73l-8.334 8.396z"/><path fill="#8BCFED" d="M181.769 111.104l19.916 4.92c.818.221 3.814 1.668 4.248 1.383l-10.289-11.791c-.615-.748-1.927-1.037-2.984-.668l-17.064 4.43c.251.31 5.51 1.546 6.173 1.726z"/><path fill="#A1DBF7" d="M176.587 110.127l27.602 7.527c.836.227 1.576.162 2.008-.123l-10.873-10.973c-.64-.76-1.99-1.066-3.072-.709l-17.078 3.5c.25.311.743.596 1.413.778z"/><path fill="#8BCFED" d="M185.72 99.855l19.166 3.756c.58.113.977-.086 1.271.365l-11.947 5.859c-1.137.322-2.674-.066-3.379-.846l-6.133-9.482c.481-.13.557.257 1.022.348z"/><path fill="#D2ECED" d="M186.216 99.299l18.709 3.551a2.093 2.093 0 0 1 1.354.926l-11.889 5.529c-1.127.338-2.641-.041-3.328-.822l-6.305-9.094c.482-.135 1.006-.176 1.459-.09z"/><path fill="#FFF" d="M204.89 103.557l-19.135-3.74a2.982 2.982 0 0 0-.811-.039l-.188-.389c.482-.135 1.006-.176 1.459-.09l18.709 3.551a2.093 2.093 0 0 1 1.354.926l-.397.273a2.13 2.13 0 0 0-.991-.492zM191.379 107.779c.667.773 2.151 1.139 3.26.793l8.95-3.109-9.199 3.842c-1.127.338-2.641-.041-3.328-.822l-5.466-7.475 5.783 6.771z"/></g><g><path fill="#8BCFED" d="M1.251 97.926a4.686 4.686 0 0 0 4.378 4.975l53.497 3.414a4.687 4.687 0 0 0 4.976-4.379l2.397-37.597a4.687 4.687 0 0 0-4.377-4.976L8.625 55.951a4.686 4.686 0 0 0-4.976 4.377L1.251 97.926z"/><path fill="#BDE6F9" d="M1.358 96.242a4.686 4.686 0 0 0 4.379 4.975l53.496 3.414a4.689 4.689 0 0 0 4.976-4.379l2.398-37.598a4.686 4.686 0 0 0-4.379-4.974L8.731 54.266a4.688 4.688 0 0 0-4.975 4.378L1.358 96.242z"/><path fill="#8BCFED" d="M15.372 100.33l39.002.984c1.621.104 7.451 2.486 8.37 1.285L38.845 71.451a5.24 5.24 0 0 0-7.394-.471L3.226 99.367c.792.904 10.849.881 12.146.963z"/><path fill="#A1DBF7" d="M5.737 101.217l53.496 3.414a4.675 4.675 0 0 0 4.021-1.832L38.63 74.816a5.243 5.243 0 0 0-7.394-.471L2.51 99.627a4.664 4.664 0 0 0 3.227 1.59z"/><path fill="#8BCFED" d="M8.578 56.683l53.496 3.412c1.622.104 2.771-.688 3.531.595L37.882 86.531c-2.169 1.873-5.479 1.662-7.393-.473L5.434 55.93c.899-.781 1.847.67 3.144.753z"/><path fill="#D2ECED" d="M8.731 54.266l53.497 3.414a4.684 4.684 0 0 1 3.757 2.326L38.003 84.631a5.236 5.236 0 0 1-7.392-.471L5.329 55.432a4.68 4.68 0 0 1 3.402-1.166z"/><path fill="#FFF" d="M62.086 59.925L8.588 56.511a4.667 4.667 0 0 0-2.027.321l-1.231-1.4a4.678 4.678 0 0 1 3.402-1.166l53.497 3.414a4.684 4.684 0 0 1 3.757 2.326l-1.166 1.025a4.653 4.653 0 0 0-2.734-1.106zM30.777 81.541a5.236 5.236 0 0 0 7.393.473l20.358-15.446-20.525 18.063a5.236 5.236 0 0 1-7.392-.471L10.34 61.125l20.437 20.416z"/></g><path fill-rule="evenodd" clip-rule="evenodd" fill="#FFF8F0" d="M178.323 51.522c4.075 1.637 6.138 6.886 8.118 10.989-4.13.4-20.669 6.859-30.696 14.875-4.475 3.577-9.245 2.577-12.744-1.925-4.989-7.443-15.052-17.838-19.316-20.544-1.68-1.066-3.937-2.481-4.519-4.285 3.128-2.524 6.769-5.572 10.543-6.622 8.296-2.31 41.442 4.631 48.614 7.512z"/><path fill-rule="evenodd" clip-rule="evenodd" fill="#F2692B" d="M119.166 50.633c-.525-.937-.075-2.026.702-3.336 4.569-7.704 8.088-13.978 11.994-18.358 7.417-8.323 15.064-10.479 28.29-8.399 19.808 3.118 23.212 17.629 24.818 18.184 3.564 8.418 2.202 14.734 3.266 22.106.18 1.239-.734 1.608-1.794 1.683-1.98-4.104-5.093-7.374-9.168-9.013-7.174-2.881-15.44-2.391-20.258 7.174-1.778 3.527-2.805 8.298-3.366 12.169-2.398-.632-5.002-1.959-7.303-.47.958-5.894 1.269-9.604.827-14.517-.781-8.748-9.534-13.775-17.563-11.93-3.819.878-7.315 2.182-10.445 4.707z"/><path fill-rule="evenodd" clip-rule="evenodd" fill="#FFF8F0" d="M135.483 26.501c-1.074-2.427-2.491-4.93-1.804-7.292.543-1.876 1.71-5.951 3.89-5.908 2.211.042 5.89 2.23 6.679 4.661.329 1.013.692 2.334.877 3.393-3.003.137-8.475 3.204-9.642 5.146z"/><path fill-rule="evenodd" clip-rule="evenodd" fill="#462D3B" d="M153.365 72.236c.78 1.422.756 2.676-.718 3.707-1.822 1.276-3.604.766-5.123-.001-1.428-.72-2.392-2.613-1.124-4.347 2.303-1.491 5.698-.476 6.965.641zM135.483 26.501c-.378 1.209-1.946 2.043-3.073 1.833-2.111-4.406-1.367-13.019 2.383-16.411 1.486-1.346 3.634-2.08 5.229-.766 3.271 2.698 6.507 4.165 7.443 8.939-.677 1.38-2.233 1.592-3.122 1.402-.185-1.061-3-7.041-6.251-7.241-2.177-.136-2.622 2.736-3.165 4.612-.687 2.365-.518 5.205.556 7.632z"/><path fill-rule="evenodd" clip-rule="evenodd" fill="#FFF8F0" d="M182.469 35.853c1.878-1.877 4.102-3.698 4.315-6.15.17-1.945.553-6.165-1.496-6.914-2.077-.759-6.296-.044-7.91 1.937-.672.825-1.589 2.03-2.144 2.953 2.749 1.21 6.847 5.939 7.235 8.174z"/><path fill-rule="evenodd" clip-rule="evenodd" fill="#462D3B" d="M182.469 35.853c-.083 1.264 1.078 2.607 2.203 2.817 3.56-3.346 6.536-11.448 4.997-16.265-.611-1.91-.798-3.472-3.816-3.073-4.206.552-10.106 2.151-12.703 6.264.132 1.531 1.509 2.291 2.407 2.436 1.06-1.792 6.136-4.866 9.393-4.976 1.754-.06 1.943.78 1.348 4.714-.367 2.432-1.951 6.206-3.829 8.083zM167.339 63.289c1.566.17 2.778-.357 3.047-1.995.271-1.653-.312-2.987-2.143-3.385-1.76-.383-3.021.234-3.293 2.089-.259 1.77.765 2.791 2.389 3.291zM134.15 53.89c-.42 2.066.269 3.371 2.209 3.83 1.51.355 2.627-.497 3.119-1.705.67-1.646-.084-3.236-2.301-3.611-.983-.168-2.562-.005-3.027 1.486z"/></svg>