<?xml version="1.0" encoding="UTF-8"?>
<!DOCTYPE svg  PUBLIC '-//W3C//DTD SVG 1.1//EN'  'http://www.w3.org/Graphics/SVG/1.1/DTD/svg11.dtd'>
<svg enable-background="new 0 0 266 150" version="1.1" viewBox="0 0 266 150" xml:space="preserve" xmlns="http://www.w3.org/2000/svg">
	<path d="m71.701 38.051l1e-3 -9.105h-6.782c-0.213-0.919-0.486-1.813-0.807-2.688l6.09-3.516-4.551-7.886-6.323 3.65c-0.581-0.619-1.19-1.213-1.837-1.765l3.759-6.51-7.884-4.554-3.835 6.646c-0.745-0.233-1.51-0.429-2.287-0.588v-7.861h-9.103v7.862c-0.75 0.151-1.487 0.34-2.208 0.562l-3.999-6.926-7.884 4.552 3.905 6.762c-0.589 0.499-1.149 1.03-1.687 1.587l-6.842-3.951-4.552 7.883 6.506 3.756c-0.293 0.77-0.545 1.559-0.755 2.368h-7.556v9.103h7.058c0.131 0.911 0.315 1.805 0.553 2.677l-6.11 3.528 4.551 7.885 5.663-3.27c0.622 0.786 1.289 1.532 2.007 2.229l-3.27 5.664 7.883 4.552 3.061-5.302c0.99 0.383 2.009 0.702 3.061 0.943v6.163h9.103v-5.917c1.095-0.188 2.163-0.449 3.198-0.79l3.007 5.207 7.885-4.551-2.991-5.181c0.812-0.713 1.578-1.479 2.282-2.298l5.333 3.078 4.555-7.885-5.441-3.14c0.309-0.965 0.533-1.965 0.711-2.982h6.533v9e-3h-1e-3zm-29.317 2.853c-4.259 0-7.714-3.454-7.714-7.714s3.455-7.714 7.714-7.714c4.26 0 7.715 3.454 7.715 7.714s-3.452 7.714-7.715 7.714z" fill="#09BCD4"/>
	<path d="m59.561 119.67l3e-3 -9.105h-6.783c-0.212-0.919-0.487-1.813-0.807-2.688l6.09-3.517-4.552-7.888-6.32 3.652c-0.581-0.62-1.191-1.212-1.837-1.767l3.757-6.509-7.883-4.555-3.837 6.646c-0.746-0.236-1.508-0.432-2.285-0.589v-7.86h-9.104v7.86c-0.75 0.15-1.487 0.343-2.207 0.564l-4.001-6.928-7.881 4.551 3.905 6.764c-0.59 0.497-1.151 1.029-1.689 1.588l-6.84-3.95-4.552 7.885 6.508 3.756c-0.295 0.771-0.545 1.556-0.758 2.368h-7.555v9.102h7.055c0.134 0.912 0.317 1.804 0.555 2.679l-6.112 3.526 4.552 7.889 5.664-3.272c0.619 0.787 1.289 1.534 2.006 2.232l-3.27 5.662 7.884 4.553 3.06-5.303c0.991 0.383 2.011 0.703 3.062 0.944v6.166h9.103v-5.918c1.094-0.189 2.164-0.451 3.198-0.792l3.008 5.208 7.885-4.553-2.992-5.185c0.812-0.717 1.577-1.48 2.281-2.298l5.333 3.076 4.553-7.885-5.44-3.143c0.308-0.965 0.534-1.963 0.712-2.982h6.531v0.016zm-29.315 2.853c-4.26 0-7.713-3.454-7.713-7.714 0-4.263 3.454-7.715 7.713-7.715 4.261 0 7.714 3.452 7.714 7.715 5e-3 4.26-3.451 7.714-7.714 7.714z" fill="#36C2D6"/>
	<path d="m153.29 83.678c0-1.149-0.056-2.283-0.14-3.41l7.536-1.328-1.59-8.96-7.518 1.326c-0.618-2.209-1.401-4.348-2.329-6.409l6.619-3.819-4.558-7.878-6.618 3.82c-1.331-1.848-2.794-3.594-4.38-5.222l4.916-5.859-6.977-5.844-4.906 5.846c-1.87-1.278-3.84-2.426-5.899-3.419l2.61-7.17-8.552-3.105-2.61 7.166c-2.181-0.554-4.424-0.95-6.715-1.178v-7.634h-9.103v7.632c-2.295 0.227-4.534 0.625-6.718 1.178l-2.607-7.168-8.556 3.113 2.611 7.165c-2.058 0.992-4.028 2.139-5.897 3.417l-4.907-5.848-6.973 5.852 4.911 5.854c-1.585 1.626-3.049 3.373-4.38 5.22l-6.62-3.821-4.552 7.885 6.615 3.818c-0.931 2.06-1.713 4.198-2.333 6.407l-7.521-1.328-1.579 8.964 7.53 1.328c-0.083 1.127-0.14 2.261-0.14 3.407 0 1.147 0.057 2.282 0.14 3.405l-7.53 1.328 1.582 8.966 7.518-1.328c0.62 2.21 1.401 4.351 2.333 6.412l-6.615 3.82 4.552 7.881 6.619-3.822c1.33 1.849 2.794 3.596 4.381 5.219l-4.913 5.857 6.972 5.85 4.906-5.846c1.87 1.274 3.839 2.427 5.902 3.418l-2.611 7.168 8.553 3.11 2.61-7.167c2.179 0.552 4.429 0.949 6.718 1.176v7.631l9.1-1e-3v-7.63c2.297-0.227 4.537-0.627 6.718-1.176l2.61 7.169 8.549-3.113-2.607-7.169c2.06-0.993 4.03-2.143 5.899-3.42l4.907 5.85 6.968-5.853-4.909-5.856c1.587-1.631 3.05-3.373 4.381-5.219l6.622 3.824 4.547-7.886-6.612-3.818c0.932-2.059 1.71-4.204 2.329-6.41l7.524 1.328 1.572-8.969-7.529-1.325c0.088-1.123 0.144-2.258 0.144-3.402zm-45.67 9.872c-5.455 0-9.878-4.419-9.878-9.874s4.423-9.881 9.878-9.881 9.879 4.426 9.879 9.881-4.424 9.874-9.879 9.874z" fill="#36C2D6"/>
	<path d="m167.25 149h97.75c-5.344-24.199-14.844-38.444-25.208-49.492-8.92 7.946-18.984 18.234-25.359 26.663-7.38 8.452-16.868 9.878-25.259 2.349-6.379-5.728-14.253-11.185-22.186-15.948 0.739 12.254 0.033 24.923 0.262 36.428z" fill="#F2692B"/>
	<g transform="translate(0 -952.36)">
		<path d="m133.94 1094.6c4.695 6.421 12.801 9.958 21.146 8.375 8.344-1.584 14.583-7.846 16.604-15.545l71.522-13.213c4.971-0.949 8.21-5.71 7.268-10.676-0.942-4.972-5.703-8.211-10.676-7.268l-71.522 13.213c-4.695-6.427-12.8-9.964-21.146-8.381-8.345 1.59-14.585 7.845-16.604 15.545l15.888-3.013 6.681 8.028-3.28 9.916-15.881 3.019z" fill="#263238"/>
	</g>
	<path d="m214.43 126.17c6.375-8.429 16.439-18.717 25.359-26.663 5.966-5.313 11.423-9.593 14.903-11.531 3.421-1.907 8.014-4.434 9.362-7.911-5.864-5.312-12.591-8.271-19.993-10.426-15.567-4.53-33.33 4.364-35.854 21.467-1.349 9.148-1.239 16.237-0.167 26.99 0.046 0.033 0.098 0.06 0.145 0.093 2.295 3.549 0.189 7.163-2.697 8.415-3.073 1.335-6.633 2.137-10.067-0.575-2.375-1.874-2.643-3.952-1.612-6.208-3e-3 2e-3 -5e-3 2e-3 -5e-3 2e-3 -0.671-7.67-2.151-17.158-5.248-24.288-8.391-19.337-24.579-21.231-38.998-16.374-8.19 2.758-14.676 8.836-19.027 16.678 5.331 0.827 21.007 7.46 36.455 16.732 7.933 4.764 15.807 10.221 22.186 15.948 8.389 7.529 17.878 6.103 25.258-2.349zm6.279-45.1c1.277-0.779 2.947-0.377 3.724 0.9 1.31 2.155 3.479 2.598 5.068 2.292 2.044-0.391 3.489-1.947 3.862-4.165 0.255-1.476 1.687-2.491 3.125-2.216 1.475 0.25 2.469 1.649 2.218 3.124-0.76 4.467-3.895 7.753-8.182 8.577-1.074 0.207-2.149 0.239-3.189 0.114-3.061-0.375-5.831-2.126-7.527-4.903-0.78-1.277-0.374-2.944 0.901-3.723zm-56.974 16.485c-1.075-0.04-2.105-0.247-3.077-0.599-2.916-1.051-5.243-3.398-6.263-6.511-0.464-1.423 0.309-2.953 1.731-3.42 1.422-0.465 2.951 0.306 3.418 1.73 0.785 2.399 2.794 3.323 4.412 3.389 2.076 0.084 3.84-1.101 4.709-3.173 0.582-1.381 2.176-2.023 3.547-1.445 1.381 0.582 2.027 2.171 1.445 3.548-1.76 4.177-5.557 6.661-9.922 6.481z" fill="#FFF8F0"/>
	<path d="m149.56 79.161c14.419-4.857 30.607-2.963 38.998 16.374 3.097 7.13 4.577 16.618 5.246 24.288 0 0 4e-3 0 7e-3 -2e-3 0.174-0.382 0.373-0.766 0.618-1.157 2.588-2.029 9.255-3.617 13.614-0.567-1.072-10.753-1.182-17.842 0.167-26.99 2.523-17.103 20.286-25.997 35.854-21.467 7.402 2.155 14.129 5.113 19.993 10.426 1.14-1.781 0.377-3.974-1.004-6.635-8.11-15.654-14.319-28.375-21.499-37.423-0.347-0.436-0.697-0.831-1.043-1.25-2.233 0.269-5.195-1.537-5.8-3.946-1.908-3.624-10.814-9.5-16.816-10.916-7e-3 0.026-0.024 0.068-0.029 0.092-1.767 0.271-4.805-0.322-5.979-3.109 3e-3 -0.015 8e-3 -0.024 0.011-0.039-7.106-1.379-15.255-1.482-24.986-0.517-11.088 1.101-19.707 4.132-26.441 7.94 0.107 0.179 0.231 0.348 0.333 0.533-0.431 2.991-3.225 4.332-5.001 4.514-0.049-0.093-0.123-0.193-0.179-0.29-5.524 2.578-13.325 10.75-14.285 14.879 0.022 2.494-2.411 5.003-4.645 5.29-0.057-0.06-0.109-0.13-0.164-0.191-0.151 0.125-0.296 0.225-0.428 0.262-7.953 16.137-5.983 28.703-8.906 43.068-0.489 2.417 1.265 3.246 3.337 3.512 4.351-7.843 10.836-13.921 19.027-16.679z" fill="#F2692B"/>
	<path d="m236.66 15.878c-0.856-3.748-1.406-9.441-5.7-9.419-6.337 0.027-12.462 11.184-13.066 13.436 6.002 1.416 14.908 7.292 16.816 10.916 2.382-4.648 3.031-10.209 1.95-14.933z" fill="#FFF8F0"/>
	<path d="m194.43 118.66c-0.245 0.392-0.444 0.775-0.618 1.157-1.03 2.256-0.763 4.334 1.612 6.208 3.435 2.712 6.994 1.91 10.067 0.575 2.887-1.252 4.992-4.866 2.697-8.415-0.047-0.033-0.099-0.06-0.145-0.093-4.358-3.049-11.025-1.461-13.613 0.568z" fill="#462D3B"/>
	<path d="m217.87 19.987c5e-3 -0.024 0.022-0.066 0.029-0.092 0.604-2.251 6.729-13.408 13.066-13.436 4.294-0.022 4.844 5.671 5.7 9.419 1.081 4.723 0.432 10.285-1.95 14.932 0.604 2.409 3.566 4.214 5.8 3.946 0.01-1e-3 0.02 1e-3 0.028 0 4.645-8.418 4.155-25.424-2.835-32.513-2.768-2.811-6.903-4.496-10.184-2.093-6.723 4.927-13.237 7.447-15.624 16.689-3e-3 0.014-8e-3 0.024-0.011 0.039 1.177 2.787 4.215 3.379 5.981 3.109z" fill="#462D3B"/>
	<path d="m137.91 18.474c-0.775-0.069-1.392-0.034-1.886 0.14-0.619 0.534-1.096 1.281-1.453 2.171-0.236 1.413-0.145 3.571 0.156 6.799 0.447 4.825 3.138 12.415 6.614 16.314 0.96-4.129 8.761-12.301 14.285-14.879-2.214-3.688-11.492-9.975-17.716-10.545z" fill="#FFF8F0"/>
	<path d="m141.34 43.898c-3.477-3.899-6.167-11.49-6.614-16.314-0.301-3.228-0.393-5.386-0.156-6.799 0.204-1.229 0.663-1.891 1.453-2.171 0.494-0.174 1.11-0.209 1.886-0.14 6.224 0.57 15.502 6.857 17.717 10.545 0.056 0.097 0.13 0.196 0.179 0.29 1.776-0.182 4.57-1.522 5.001-4.514-0.102-0.185-0.226-0.354-0.333-0.533-4.824-7.998-15.9-11.68-23.925-13.206-5.886-1.122-6.427 1.925-7.843 5.608-3.535 9.213 1.294 25.262 7.828 32.331 0.055 0.061 0.107 0.132 0.164 0.191 2.232-0.285 4.665-2.793 4.643-5.288z" fill="#462D3B"/>
	<path d="m219.81 84.795c1.696 2.777 4.467 4.528 7.527 4.903 1.04 0.125 2.115 0.093 3.189-0.114 4.287-0.824 7.422-4.11 8.182-8.577 0.251-1.475-0.743-2.874-2.218-3.124-1.438-0.275-2.87 0.74-3.125 2.216-0.373 2.218-1.818 3.774-3.862 4.165-1.59 0.306-3.759-0.137-5.068-2.292-0.776-1.277-2.446-1.68-3.724-0.9-1.275 0.778-1.681 2.445-0.901 3.723z" fill="#462D3B"/>
	<path d="m173.66 91.075c0.582-1.377-0.064-2.966-1.445-3.548-1.371-0.578-2.965 0.064-3.547 1.445-0.869 2.072-2.633 3.257-4.709 3.173-1.618-0.065-3.627-0.989-4.412-3.389-0.467-1.425-1.996-2.195-3.418-1.73-1.423 0.467-2.195 1.997-1.731 3.42 1.02 3.112 3.347 5.46 6.263 6.511 0.972 0.352 2.002 0.559 3.077 0.599 4.364 0.18 8.161-2.304 9.922-6.481z" fill="#462D3B"/>
</svg>
