<svg xmlns="http://www.w3.org/2000/svg" width="266" height="150">
  <path fill="#8BC249" d="M97.956 139.282v-3.27c0-18.221-14.771-32.991-32.992-32.991H46.388v-8.174a4.161 4.161 0 0 0-4.161-4.162h-9.362c-.985 0-1.784.799-1.784 1.784v2.328c0 .984.798 1.759 1.784 1.759h2.526v42.726h62.565z"/>
  <ellipse cx="80.068" cy="101.238" fill="#09BCD4" rx="3.344" ry="1.586" transform="rotate(19.359 80.067 101.238)"/>
  <path fill="#9D9D9D" d="M79.581 106.22l1.207-3.119-2.267-.983-1.207 3.12z"/>
  <ellipse cx="88.815" cy="106.604" fill="#09BCD4" rx="3.344" ry="1.585" transform="rotate(38.259 88.82 106.615)"/>
  <path fill="#9D9D9D" d="M86.74 111.16l2.152-2.561-1.827-1.663-2.151 2.56z"/>
  <ellipse cx="96.033" cy="114.337" fill="#09BCD4" rx="3.344" ry="1.585" transform="rotate(50.713 96.03 114.335)"/>
  <path fill="#9D9D9D" d="M95.679 116.301l-2.655 2.037-1.424-2.019 2.654-2.036z"/>
  <g fill="#616161">
    <path d="M77.688 101.792l1.664.642-1.206 3.12-1.663-.642zM79.952 102.774l1.663.643-1.207 3.12-1.663-.644z"/>
  </g>
  <path fill="#0097A7" d="M81.524 103.992c-.709 0-1.5-.144-2.277-.417-.964-.339-1.82-.848-2.408-1.43-1.02-1.009-.918-1.881-.767-2.311.151-.431.618-1.175 2.043-1.324.823-.087 1.809.052 2.773.392.965.339 1.82.847 2.409 1.43 1.019 1.009.917 1.881.767 2.312-.152.43-.618 1.173-2.044 1.323-.16.016-.325.025-.496.025zm-3.756-3.561c.072.263.712.984 2.071 1.462 1.359.479 2.31.315 2.53.154-.071-.263-.712-.984-2.07-1.463-1.36-.478-2.311-.314-2.531-.153z"/>
  <g fill="#616161">
    <path d="M86.377 106.364l1.366 1.146-2.151 2.563-1.366-1.147zM88.212 108.029l1.365 1.148-2.152 2.56-1.366-1.148z"/>
  </g>
  <path fill="#0097A7" d="M90.555 109.913c-.958 0-2.136-.467-3.274-1.364-.803-.633-1.448-1.391-1.815-2.133-.637-1.285-.258-2.077.023-2.435.283-.358.964-.91 2.362-.59.808.184 1.694.635 2.497 1.268.804.634 1.449 1.391 1.816 2.133.637 1.284.258 2.077-.023 2.436-.364.46-.922.685-1.586.685zm-3.655-4.819c-.018.272.354 1.163 1.485 2.055s2.084 1.047 2.344.965c.017-.272-.354-1.163-1.485-2.055-1.131-.892-2.084-1.045-2.344-.965z"/>
  <g fill="#616161">
    <path d="M93.714 113.577l1.086 1.414-2.653 2.038-1.086-1.414zM95.136 115.59l1.086 1.416-2.654 2.036-1.086-1.415z"/>
  </g>
  <path fill="#0097A7" d="M97.566 118.006c-1.055 0-2.348-.753-3.451-2.101-1.554-1.9-1.875-3.938-.765-4.847.353-.289 1.139-.681 2.434-.067.749.354 1.518.986 2.165 1.778 1.554 1.898 1.875 3.937.764 4.846a1.765 1.765 0 0 1-1.147.391zm-3.078-5.556c-.076.262.096 1.211 1.007 2.326.912 1.114 1.811 1.47 2.081 1.448.076-.263-.096-1.212-1.007-2.327-.912-1.114-1.808-1.471-2.081-1.447z"/>
  <path fill="#689F38" d="M98.848 139.282h-1.783v-3.27c0-17.7-14.4-32.1-32.1-32.1H46.388a.892.892 0 0 1-.892-.892v-8.174a3.273 3.273 0 0 0-3.269-3.27h-9.362a.892.892 0 0 0-.892.892v2.328c0 .485.392.867.892.867h2.526a.89.89 0 0 1 .892.892v42.726h-1.784V97.448h-1.634c-1.475 0-2.675-1.189-2.675-2.65V92.47c0-1.476 1.2-2.676 2.675-2.676h9.362a5.058 5.058 0 0 1 5.052 5.054v7.282h17.685c4.574 0 9.011.896 13.189 2.662a33.744 33.744 0 0 1 10.77 7.261 33.755 33.755 0 0 1 7.261 10.77 33.681 33.681 0 0 1 2.663 13.19v3.269z"/>
  <path fill="#4DAF4E" d="M29.075 139.282h74.306v9.214H29.075z"/>
  <path fill="#388E3C" d="M103.38 149.388H29.075a.892.892 0 0 1-.892-.892v-9.214c0-.492.399-.893.892-.893h74.306c.493 0 .892.4.892.893v9.214a.894.894 0 0 1-.893.892zm-73.414-1.784h72.522v-7.431H29.966v7.431z"/>
  <g>
    <path fill="#462D3B" d="M123.959 103.379c3.599.398 6.881 1.633 9.948 3.508-1.403-3.645-4.213-7.073-1.752-11.315-1.895-.706-3.769-1.478-5.689-2.104-6.878-2.245-10.95-.989-15.215 4.758-1.559 2.101-3.458 5.69-4.375 6.521-.917.83-2.688.979-3.961 1.611-1.286.636-2.6 1.395-2.586 3.103.013 1.807 1.295 2.715 2.724 3.431 4.36 2.176 8.271 1.603 11.689-1.874 1.335-1.36 4.364-8.177 9.217-7.639z"/>
    <path fill="#462D3B" d="M126.363 94.306c-.294 3.314.796 33.659-3.473 46.723-2.637 8.065-.798 8.632 9.555 8.085 4.776-19.026 4.018-37.435-6.082-54.808z"/>
    <path fill="#FFF8F0" d="M153.157 80.49c3.622-4.789 9.34-10.636 14.407-15.15 3.391-3.02 6.491-5.452 8.469-6.553 1.943-1.083 4.552-2.519 5.319-4.495-3.332-3.019-7.154-4.699-11.359-5.923-8.846-2.574-18.938 2.479-20.372 12.196-.766 5.198-.704 9.226-.095 15.334.027.021.055.035.082.053 1.304 2.018.107 4.072-1.532 4.783-1.746.758-3.77 1.213-5.721-.328-1.349-1.062-1.5-2.244-.915-3.525h-.002c-.383-4.357-1.225-9.75-2.982-13.8-4.769-10.986-13.965-12.063-22.157-9.303-4.655 1.566-8.34 5.02-10.812 9.476 3.029.47 11.935 4.238 20.713 9.508 4.506 2.705 8.979 5.805 12.604 9.059 4.768 4.28 10.159 3.47 14.353-1.332z"/>
    <path fill="#F2692B" d="M116.299 53.779c8.192-2.76 17.389-1.683 22.157 9.303 1.758 4.051 2.6 9.443 2.981 13.8h.003a5.61 5.61 0 0 1 .35-.658c1.471-1.154 5.259-2.057 7.736-.324-.609-6.109-.671-10.137.095-15.334 1.434-9.717 11.526-14.77 20.372-12.196 4.205 1.224 8.027 2.904 11.359 5.923.647-1.012.213-2.257-.57-3.769-4.608-8.895-8.138-16.122-12.215-21.264-.198-.247-.396-.472-.595-.71-1.269.153-2.951-.872-3.295-2.242-1.083-2.058-6.144-5.396-9.555-6.202-.003.015-.013.04-.016.052-1.004.154-2.729-.182-3.397-1.766.001-.007.005-.013.007-.021-4.039-.784-8.668-.842-14.198-.293-6.299.625-11.196 2.349-15.022 4.512.061.101.132.197.188.302-.244 1.7-1.832 2.462-2.841 2.564-.028-.053-.07-.109-.102-.164-3.14 1.465-7.571 6.108-8.116 8.454.012 1.417-1.37 2.842-2.64 3.005-.031-.034-.062-.074-.093-.108a.745.745 0 0 1-.243.149c-4.52 9.168-3.4 16.308-5.061 24.47-.278 1.374.718 1.845 1.896 1.996 2.475-4.459 6.16-7.912 10.815-9.479z"/>
    <path fill="#FFF8F0" d="M165.787 17.824c-.487-2.129-.799-5.364-3.239-5.351-3.601.015-7.08 6.354-7.425 7.633 3.411.805 8.472 4.144 9.555 6.202 1.353-2.64 1.723-5.8 1.109-8.484z"/>
    <path fill="#462D3B" d="M141.79 76.225a5.691 5.691 0 0 0-.35.658c-.585 1.281-.434 2.463.915 3.525 1.951 1.541 3.975 1.086 5.721.328 1.64-.711 2.836-2.766 1.532-4.783-.027-.018-.055-.031-.082-.053-2.477-1.732-6.265-.83-7.736.325zM155.107 20.158c.003-.012.013-.037.016-.052.345-1.279 3.824-7.619 7.425-7.633 2.44-.013 2.752 3.222 3.239 5.351.614 2.684.244 5.845-1.109 8.484.344 1.37 2.026 2.395 3.295 2.242.008-.001.012.002.018 0 2.639-4.782 2.36-14.445-1.611-18.473-1.572-1.598-3.922-2.554-5.786-1.189-3.82 2.799-7.521 4.231-8.876 9.482-.002.009-.006.014-.007.021.667 1.585 2.393 1.921 3.396 1.767z"/>
    <path fill="#FFF8F0" d="M109.676 19.299c-.44-.039-.791-.02-1.071.08-.352.303-.623.727-.826 1.232-.135.803-.082 2.03.089 3.863.253 2.741 1.783 7.054 3.758 9.269.545-2.345 4.976-6.989 8.116-8.454-1.258-2.094-6.53-5.666-10.066-5.99z"/>
    <path fill="#462D3B" d="M111.626 33.744c-1.975-2.215-3.505-6.528-3.758-9.269-.171-1.833-.224-3.061-.089-3.863.116-.698.377-1.075.826-1.232.28-.1.631-.119 1.071-.08 3.536.323 8.808 3.896 10.066 5.991.031.055.073.111.102.164 1.009-.103 2.597-.865 2.841-2.564-.057-.105-.128-.201-.188-.302-2.741-4.544-9.034-6.637-13.594-7.504-3.345-.637-3.651 1.094-4.456 3.187-2.009 5.234.734 14.353 4.447 18.37.031.034.062.074.093.108 1.269-.164 2.652-1.588 2.639-3.006z"/>
    <path fill="#B84526" d="M151.625 121.779c.307-5.83 3.84-9.979 8.971-10.287 1.064-.227 1.802.049 1.794-.77-.015-1.589-3.722-1.666-6.912-.285-4.509 1.947-5.845 6.125-6.294 11.342-.505 5.868 3.145 11.445 3.214 16.4.952-.214 1.87-.486 2.69-.851-.09-3.202-3.692-10.092-3.463-15.549z"/>
    <path fill="#462D3B" d="M152.397 138.18c-2.893.64-6.101.689-7.806.866-6.114.628-8.794 3.93-8.113 10.187 8.281.6 13.849.536 22.125.02.103-5.075-1.392-8.026-3.516-11.923-.819.363-1.737.636-2.69.85z"/>
    <path fill="#FFF8F0" d="M234.28 49.781c-7.861 3.232-13.616 7.642-17.866 16.04.799 1.569 1.867 2.938 3.759 2.964 1.752.027 2.219 1.115 2.859 2.417 2.201 4.469 7.414 5.655 11.373 2.554 1.217-.954 1.92-2.166 3.799-.939 3.659 2.39 7.31 1.353 10.819-.622-1.14-7.828-4.257-15.011-8.956-21.14-1.481-1.928-3.523-2.205-5.787-1.274z"/>
    <path fill="#F2692B" d="M249.023 72.707c-3.51 1.977-7.16 3.014-10.819.624-1.879-1.228-2.582-.015-3.799.939-3.959 3.104-9.172 1.916-11.373-2.554-.641-1.304-1.107-2.39-2.859-2.417-1.892-.029-2.96-1.397-3.759-2.965-2.185 3.705-5.248 8.78-7.546 16.113-3.495 11.157-3.725 18.936-6.084 30.242-1.715 8.207-5.438 16.704-12.476 21.754a23.2 23.2 0 0 1-3.808 2.238c-2.452 1.074-3.271.309-3.271.309.63-3.01.944-7.228 1.097-10.788l.064-.056c.04-1.602.059-3.199.062-4.79v-.662c0-.106 0-.205-.002-.311-.002-.359-.006-.719-.01-1.08-.228-30.917-7.996-44.496-16.878-53.963-5.067 4.514-10.785 10.361-14.407 15.15-4.194 4.802-9.585 5.611-14.353 1.332-3.625-3.254-8.098-6.354-12.604-9.059.438 7.262-.025 14.788.163 21.542 10.1 17.373 10.858 35.782 6.083 54.808l4.033.119c-.681-6.257 1.999-9.559 8.113-10.187 1.705-.177 4.913-.227 7.806-.866-.069-4.955-3.719-10.532-3.214-16.4.449-5.217 1.785-9.395 6.294-11.342 3.19-1.381 6.897-1.304 6.912.285.008.818-.729.543-1.794.77-5.131.309-8.664 4.457-8.971 10.287-.229 5.457 3.373 12.347 3.463 15.55 2.124 3.896 3.618 6.848 3.516 11.923 1.895-.085 4.287-.179 6.752-.28a.395.395 0 0 1 .022-.041c5.372-.228 11.656-.47 15.294-.674l4.782-.145c1.646.029 3.262.008 4.854-.062 19.444-.804 34.992-8.808 46.437-26.054 8.969-13.516 13.986-27.681 13.047-43.888-.103-1.819-.767-5.401-.767-5.401z"/>
    <path fill="#462D3B" d="M128.959 59.913c-.232-2.646-2.452-3.419-4.492-3.229-2.644.248-3.512 2.247-3.312 4.615.156 1.881 1.914 3.188 4.149 3.075 2.338-.572 3.876-1.935 3.655-4.461zM160.599 60.468c2.725-.478 3.788-2.229 3.377-5.127-.525-2.103-2.703-2.458-4.074-2.306-3.104.341-4.28 2.484-3.486 4.817.582 1.716 2.061 2.988 4.183 2.616z"/>
  </g>
</svg>