<svg xmlns="http://www.w3.org/2000/svg" width="266" height="150"><path fill="#8BCFED" d="M116.423 116.562a2.83 2.83 0 0 0 3.841 1.119l28.375-15.559a2.828 2.828 0 0 0 1.12-3.842l-10.934-19.94a2.828 2.828 0 0 0-3.841-1.117L106.61 92.779a2.828 2.828 0 0 0-1.122 3.839v.001l10.935 19.943z"/><path fill="#BDE6F9" d="M115.934 115.668a2.827 2.827 0 0 0 3.839 1.122l.002-.001 28.375-15.557a2.833 2.833 0 0 0 1.119-3.842l-10.936-19.941a2.826 2.826 0 0 0-3.835-1.124l-.005.003-28.373 15.559a2.829 2.829 0 0 0-1.12 3.84l10.934 19.941z"/><path fill="#8BCFED" d="M124.399 113.221l20.201-12.109c.859-.471 4.604-1.143 4.684-2.051l-22.256-8.148a3.163 3.163 0 0 0-3.921 2.148l-5.209 23.6c.694.202 5.814-3.063 6.501-3.44z"/><path fill="#A1DBF7" d="M119.774 116.789l28.375-15.557a2.83 2.83 0 0 0 1.457-2.234l-21.601-6.303a3.165 3.165 0 0 0-3.921 2.148l-6.47 22.178c.722.213 1.5.131 2.16-.232z"/><path fill="#8BCFED" d="M106.823 93.168l28.374-15.559c.859-.471 1.188-1.246 1.992-.838l-5.777 22.137a3.207 3.207 0 0 1-3.921 2.15L104.976 93.8c.207-.689 1.16-.255 1.847-.632z"/><path fill="#D2ECED" d="M106.12 91.887l28.375-15.559a2.823 2.823 0 0 1 2.667-.027l-6.302 21.6a3.157 3.157 0 0 1-3.915 2.152l-.006-.002-22.177-6.469a2.815 2.815 0 0 1 1.358-1.695z"/><path fill="#FFF" d="M135.148 77.52l-28.376 15.559c-.366.202-.684.48-.93.818l-1.08-.312a2.8 2.8 0 0 1 1.357-1.693l28.375-15.561a2.825 2.825 0 0 1 2.667-.027l-.263.898a2.79 2.79 0 0 0-1.75.318zm-8.97 21.142a3.159 3.159 0 0 0 3.919-2.146l.001-.004 5.384-14.455L130.86 97.9a3.157 3.157 0 0 1-3.915 2.15l-.006-.002-17.782-5.188 17.021 3.802z"/><path fill="#8BCFED" d="M251.682 84.975a.967.967 0 0 0 .898 1.029h.003l11.037.73a.965.965 0 0 0 1.028-.896v-.004l.515-7.756a.966.966 0 0 0-.899-1.029l-11.039-.732a.97.97 0 0 0-1.026.902l-.517 7.756z"/><path fill="#BDE6F9" d="M251.704 84.627a.97.97 0 0 0 .901 1.029l11.037.732a.972.972 0 0 0 1.028-.902l.515-7.756a.968.968 0 0 0-.901-1.029l-11.037-.732a.97.97 0 0 0-1.029.902l-.514 7.756z"/><path fill="#8BCFED" d="M254.596 85.479l8.047.225c.334.021 1.537.518 1.728.271l-4.916-6.439a1.08 1.08 0 0 0-1.524-.102l-5.839 5.844c.159.183 2.235.183 2.504.201z"/><path fill="#A1DBF7" d="M252.605 85.656l11.037.732a.966.966 0 0 0 .83-.379l-5.066-5.785a1.086 1.086 0 0 0-1.525-.102l-5.939 5.201a.942.942 0 0 0 .663.333z"/><path fill="#8BCFED" d="M253.215 76.469l11.037.73c.335.023.572-.141.729.125l-5.732 5.318a1.092 1.092 0 0 1-1.523-.104l-5.156-6.229c.182-.159.377.142.645.16z"/><path fill="#D2ECED" d="M253.247 75.969l11.037.732c.323.02.614.201.774.482l-5.787 5.064a1.076 1.076 0 0 1-1.523-.1l-.001-.002-5.203-5.939a.984.984 0 0 1 .703-.237z"/><path fill="#FFF" d="M264.254 77.164l-11.037-.732a1.025 1.025 0 0 0-.418.066l-.255-.289a.97.97 0 0 1 .703-.24l11.037.732c.323.02.614.201.774.482l-.242.211a.957.957 0 0 0-.562-.23zm-6.472 4.445a1.082 1.082 0 0 0 1.524.101v-.001l4.209-3.176-4.244 3.717a1.076 1.076 0 0 1-1.523-.1h-.001l-4.171-4.766 4.206 4.225z"/><path fill="#8BCFED" d="M223.434 104.689a.97.97 0 0 0 1.162.723l10.771-2.514a.969.969 0 0 0 .723-1.162h-.001l-1.766-7.57a.967.967 0 0 0-1.161-.721l-10.771 2.512a.969.969 0 0 0-.724 1.162l1.767 7.57z"/><path fill="#BDE6F9" d="M223.354 104.35a.97.97 0 0 0 1.16.726l.002-.001 10.771-2.514a.969.969 0 0 0 .723-1.162l-1.768-7.568a.968.968 0 0 0-1.161-.725l-10.772 2.516a.965.965 0 0 0-.722 1.158v.002l1.767 7.568z"/><path fill="#8BCFED" d="M226.366 104.324l7.765-2.131c.326-.074 1.62.047 1.729-.244l-6.576-4.73a1.084 1.084 0 0 0-1.488.348l-3.884 7.291c.208.13 2.193-.473 2.454-.534z"/><path fill="#A1DBF7" d="M224.518 105.072l10.771-2.512a.994.994 0 0 0 .688-.604l-6.533-4.062a1.082 1.082 0 0 0-1.488.347v.001l-4.169 6.707a.939.939 0 0 0 .731.123z"/><path fill="#8BCFED" d="M222.424 96.105l10.771-2.516c.326-.074.507-.301.731-.092l-3.938 6.756c-.315.5-.981.656-1.487.35l-6.745-4.459c.133-.208.407.022.668-.039z"/><path fill="#D2ECED" d="M222.311 95.619l10.771-2.514a.97.97 0 0 1 .881.234l-4.061 6.531c-.314.507-.98.663-1.487.35h-.002l-6.705-4.17a.955.955 0 0 1 .603-.431z"/><path fill="#FFF" d="M233.188 93.557l-10.771 2.514a.956.956 0 0 0-.381.186l-.326-.199a.96.96 0 0 1 .603-.436l10.771-2.516a.979.979 0 0 1 .881.236l-.169.271a.963.963 0 0 0-.608-.056zm-4.898 6.136c.508.314 1.174.16 1.487-.35l3.104-4.264-2.979 4.791c-.314.507-.98.663-1.487.35h-.002l-5.377-3.344 5.254 2.817z"/><path fill="#8BCFED" d="M231.378 86.908c-.093.305.167.641.58.752l8.558 2.281c.412.107.821-.049.914-.354l1.344-4.442c.093-.308-.168-.644-.582-.754l-8.555-2.281c-.414-.108-.824.05-.916.354l-1.343 4.444z"/><path fill="#BDE6F9" d="M231.438 86.709c-.092.305.168.641.582.752l8.557 2.281c.412.109.822-.049.915-.354l1.343-4.443c.093-.305-.167-.645-.581-.752l-8.558-2.281c-.411-.111-.821.047-.913.352l-1.345 4.445z"/><path fill="#8BCFED" d="M233.598 87.691l6.276 1.48c.259.068 1.14.561 1.317.447l-3.067-4.588c-.254-.328-.783-.471-1.185-.314l-5.28 2.434c.107.137 1.732.485 1.939.541z"/><path fill="#A1DBF7" d="M232.02 87.461l8.557 2.281a.894.894 0 0 0 .695-.08l-3.269-4.23c-.254-.328-.782-.469-1.183-.314l-5.282 2.041a.9.9 0 0 0 .482.302z"/><path fill="#8BCFED" d="M233.607 82.197l8.558 2.281c.26.066.465.014.556.193l-5.136 2.145c-.397.148-.928.008-1.183-.316l-3.282-4.504c.165-.062.28.145.487.201z"/><path fill="#D2ECED" d="M233.695 81.912l8.556 2.281c.261.066.459.227.548.41l-5.146 1.986c-.397.154-.928.016-1.182-.314l-3.354-4.342a.901.901 0 0 1 .578-.021z"/><path fill="#FFF" d="M242.171 84.459l-8.556-2.283a1.084 1.084 0 0 0-.336-.031l-.163-.211a.94.94 0 0 1 .579-.021l8.556 2.28c.261.067.459.228.548.41l-.214.084a.9.9 0 0 0-.414-.228zm-5.609 1.508c.254.328.783.469 1.184.314l3.682-1.148-3.775 1.459c-.397.154-.928.014-1.182-.316l-2.688-3.48 2.779 3.171z"/><path fill="#8BCFED" d="M197.499 81.291c.053.314.437.5.854.414l8.679-1.762c.419-.084.715-.408.661-.725l-.772-4.578c-.053-.314-.437-.5-.854-.416l-8.678 1.761c-.42.087-.716.41-.662.726l.772 4.58z"/><path fill="#BDE6F9" d="M197.464 81.086c.054.314.437.5.854.414l8.679-1.76c.419-.086.716-.41.662-.725l-.772-4.58c-.054-.314-.437-.5-.854-.414l-8.68 1.762c-.418.084-.715.407-.662.723l.773 4.58z"/><path fill="#8BCFED" d="M199.836 81.004l6.28-1.463c.264-.053 1.271-.006 1.381-.186l-4.789-2.744c-.373-.182-.91-.072-1.199.244l-3.647 4.525c.154.077 1.764-.333 1.974-.376z"/><path fill="#A1DBF7" d="M198.318 81.5l8.679-1.76c.265-.055.479-.203.588-.383l-4.808-2.336c-.375-.184-.91-.072-1.199.244l-3.825 4.176c.177.08.376.102.565.059z"/><path fill="#8BCFED" d="M197.402 76.078l8.679-1.762c.263-.053.422-.193.584-.072l-3.646 4.203c-.291.312-.828.42-1.199.244l-4.943-2.574c.119-.131.314.004.525-.039z"/><path fill="#D2ECED" d="M197.354 75.785l8.68-1.762c.263-.054.512 0 .673.125l-3.726 4.068c-.289.316-.826.425-1.198.244l-4.938-2.399a.95.95 0 0 1 .509-.276z"/><path fill="#FFF" d="M206.077 74.295l-8.679 1.764a.975.975 0 0 0-.313.119l-.241-.117a.953.953 0 0 1 .51-.273l8.68-1.762c.263-.054.512 0 .673.125l-.154.168a.94.94 0 0 0-.476-.024zm-4.35 3.846c.373.184.91.072 1.198-.242l2.787-2.666-2.731 2.984c-.289.316-.826.424-1.198.244l-3.959-1.924 3.903 1.604z"/><path fill="#8BCFED" d="M132.98 128.873c.325 1.061 1.947 1.754 3.624 1.549l34.752-4.24c1.68-.203 2.775-1.229 2.451-2.289l-4.719-15.422c-.324-1.061-1.947-1.752-3.624-1.549l-34.751 4.24c-1.678.205-2.775 1.23-2.451 2.289l4.718 15.422z"/><path fill="#BDE6F9" d="M132.77 128.184c.324 1.061 1.946 1.752 3.625 1.547l34.752-4.236c1.678-.205 2.772-1.229 2.451-2.289l-4.72-15.426c-.323-1.059-1.946-1.752-3.625-1.547l-34.751 4.238c-1.677.205-2.774 1.23-2.45 2.289l4.718 15.424z"/><path fill="#8BCFED" d="M142.402 128.361l25.086-3.697c1.054-.129 5.175.221 5.562-.359l-20.448-10.061c-1.582-.676-3.732-.414-4.805.586l-13.314 14.418c.656.281 7.079-.783 7.919-.887z"/><path fill="#A1DBF7" d="M136.395 129.73l34.752-4.238c1.054-.129 1.877-.58 2.266-1.162l-20.389-8.705c-1.582-.676-3.731-.412-4.803.586l-14.152 13.217c.656.283 1.484.406 2.326.302z"/><path fill="#8BCFED" d="M130.806 111.463l34.75-4.24c1.055-.127 1.654-.568 2.354-.131l-13.418 13.338c-1.074.984-3.227 1.246-4.805.586l-21.02-9.525c.449-.411 1.297.075 2.139-.028z"/><path fill="#D2ECED" d="M130.502 110.471l34.751-4.238c1.054-.129 2.085.1 2.787.545l-13.785 12.873c-1.069 1-3.22 1.264-4.803.586l-20.93-8.938c.444-.416 1.138-.725 1.98-.828z"/><path fill="#FFF" d="M165.536 107.152l-34.752 4.24a4.156 4.156 0 0 0-1.242.342l-1.02-.438c.443-.416 1.138-.725 1.979-.826l34.751-4.238c1.053-.129 2.085.098 2.787.545l-.574.535a4.745 4.745 0 0 0-1.929-.16zm-16.412 12.01c1.582.676 3.731.414 4.802-.586l10.441-8.369-10.112 9.443c-1.069 1-3.22 1.262-4.803.586l-16.782-7.166 16.454 6.092z"/><path fill="#8BCFED" d="M157.215 84.832c-.322.824.493 1.672 1.824 1.895l27.816 4.857c1.354.244 2.521-.408 2.604-1.461l1.08-15.437c.064-1.067-.836-1.996-2.012-2.072l-24.096-1.33c-1.152-.054-2.332.587-2.64 1.427l-4.576 12.121z"/><path fill="#BDE6F9" d="M157.426 84.293c-.322.826.488 1.67 1.812 1.887l27.683 4.729c1.349.239 2.509-.418 2.593-1.472l1.068-15.445c.064-1.069-.832-1.994-2.001-2.063l-23.964-1.204c-1.145-.046-2.318.6-2.623 1.439l-4.568 12.129z"/><path fill="#8BCFED" d="M164.297 86.482l20.129 2.781c.84.143 3.85 1.479 4.33 1.047l-11.273-13.236c-.818-.85-2.365-.984-3.479-.324l-15.898 8.668c.326.344 5.527.957 6.191 1.064z"/><path fill="#A1DBF7" d="M159.238 86.18l27.683 4.729c.847.149 1.621-.052 2.101-.482l-11.768-12.093c-.827-.857-2.393-1.009-3.516-.359l-16.029 7.485c.328.343.865.61 1.529.72z"/><path fill="#8BCFED" d="M164.35 71.528l24.154 1.384c.74.05 1.264-.271 1.612.261l-13.667 9.524c-1.152.604-2.795.381-3.645-.48l-9.812-10.938c.474-.258.779.221 1.358.249z"/><path fill="#D2ECED" d="M164.617 70.724l23.964 1.204c.733.043 1.358.423 1.706.964l-13.706 9.101c-1.149.625-2.781.407-3.622-.462l-9.971-10.414a3.14 3.14 0 0 1 1.629-.393z"/><path fill="#FFF" d="M188.512 72.844l-24.143-1.373a3.04 3.04 0 0 0-.945.105l-.436-.46a3.14 3.14 0 0 1 1.629-.393l23.964 1.204c.733.043 1.358.423 1.706.964l-.529.418a2.27 2.27 0 0 0-1.246-.465zm-15.344 7.738c.834.863 2.453 1.068 3.594.436l10.074-5.511-10.255 6.485c-1.149.625-2.781.408-3.622-.462l-8.166-8.514 8.375 7.566z"/><g><path fill="#B2EBF2" d="M57.862 29.172h25.805c1.555 0 2.727 1.26 2.618 2.815l-1.312 18.767c-.109 1.555-1.457 2.815-3.012 2.815h-2.84l-.404 6.143c-.587.55-1.479.55-1.99 0l-5.713-6.143H56.156c-1.555 0-2.727-1.26-2.618-2.815l1.312-18.767c.109-1.554 1.458-2.815 3.012-2.815z"/><g fill="#26C6DA"><path d="M78.303 39.488c1.423.027 2.474 1.205 2.347 2.63-.127 1.424-1.384 2.558-2.807 2.531-1.423-.028-2.473-1.206-2.346-2.631.126-1.425 1.382-2.558 2.806-2.53zM70.339 39.334c1.423.027 2.474 1.205 2.346 2.629-.127 1.425-1.383 2.558-2.807 2.53-1.423-.027-2.473-1.205-2.346-2.629.127-1.424 1.383-2.557 2.807-2.53zM62.375 39.18c1.422.027 2.473 1.205 2.345 2.63-.126 1.424-1.383 2.557-2.806 2.53-1.423-.027-2.474-1.205-2.347-2.629.128-1.426 1.384-2.558 2.808-2.531z"/></g></g><g><path fill="#8BCFED" d="M41.584 116.803a3.977 3.977 0 0 0 3.565 4.352l45.284 4.512a3.977 3.977 0 0 0 4.353-3.561v-.004l3.169-31.826a3.978 3.978 0 0 0-3.564-4.353l-45.284-4.508a3.975 3.975 0 0 0-4.353 3.56v.002l-3.17 31.826z"/><path fill="#BDE6F9" d="M41.727 115.377a3.978 3.978 0 0 0 3.562 4.354h.001l45.284 4.512a3.983 3.983 0 0 0 4.354-3.566l3.168-31.824a3.978 3.978 0 0 0-3.563-4.354h-.001L49.247 79.99a3.975 3.975 0 0 0-4.352 3.562l-3.168 31.825z"/><path fill="#8BCFED" d="M53.492 119.268l33.061 2.012c1.372.139 6.247 2.336 7.062 1.346l-19.338-27.15a4.446 4.446 0 0 0-6.256-.623h-.001l-24.803 23.234c.644.79 9.179 1.073 10.275 1.181z"/><path fill="#A1DBF7" d="M45.291 119.73l45.284 4.51a3.973 3.973 0 0 0 3.467-1.434L73.994 98.324a4.45 4.45 0 0 0-6.258-.623l-25.135 20.584a3.97 3.97 0 0 0 2.69 1.445z"/><path fill="#8BCFED" d="M49.044 82.033l45.284 4.508c1.373.137 2.371-.5 2.978.611l-24.3 21.086c-1.896 1.525-4.698 1.246-6.257-.621l-20.35-26.318c.787-.635 1.548.625 2.645.734z"/><path fill="#A1DBF7" d="M69.253 103.578v.002l-.125 1.961a5.466 5.466 0 0 1-5.803 5.109h-.001l-20.994-1.34 1.335-13.396.18-1.809 1.051-10.557a4.505 4.505 0 0 1 .041-.289c.006-.035.012-.072.02-.109l.026-.115.019-.08c.011-.043.023-.082.035-.125.006-.021.011-.045.019-.066.014-.045.029-.09.046-.135l.017-.051c.019-.051.038-.1.058-.146l.015-.037a2.955 2.955 0 0 1 .08-.173c.025-.055.053-.104.08-.156l.008-.016c.03-.057.062-.107.094-.162l.003-.006a4.01 4.01 0 0 1 .873-1.004c.051-.043.103-.082.156-.123l.004-.002c.202-.15.419-.282.647-.393l.015-.006.156-.07.015-.008c.056-.021.112-.045.169-.064l.019-.006a9.71 9.71 0 0 1 .182-.062c.057-.018.113-.033.17-.049l.018-.004c.051-.014.103-.025.153-.035l.044-.01c.057-.012.114-.021.172-.031l.022-.002c.058-.01.116-.018.174-.021l.063-.006c.029-.004.06-.006.09-.008.016 0 .029-.002.045-.004l.084-.002.116-.004c.051 0 .102.002.153.004l.04.002h.01c.068.004.137.008.204.018l21.376 2.127-1.374 21.459z"/><path fill="#D2ECED" d="M49.247 79.988l45.285 4.508a3.972 3.972 0 0 1 3.116 2.088l-24.482 20.049a4.446 4.446 0 0 1-6.258-.623L46.325 80.875a3.971 3.971 0 0 1 2.922-.887z"/><path fill="#FFF" d="M94.344 86.396l-45.285-4.512a3.956 3.956 0 0 0-1.729.215l-1.004-1.227a3.98 3.98 0 0 1 2.922-.889l45.285 4.51a3.974 3.974 0 0 1 3.116 2.088l-1.02.834a3.963 3.963 0 0 0-2.285-1.019z"/><path fill="#8BCFED" d="M67.736 97.701a4.453 4.453 0 0 1 1.951-.922l-.435 6.799v.002l-.125 1.961a5.466 5.466 0 0 1-5.803 5.109h-.001l-10.575-.676 14.988-12.273z"/><path fill="#A1DBF7" d="M69.253 103.578v.002l-.125 1.961a5.459 5.459 0 0 1-.421 1.783 4.415 4.415 0 0 1-1.799-1.314L46.325 80.875a2.224 2.224 0 0 1 .172-.13c.039-.029.079-.061.12-.086l.021-.016c.046-.031.093-.061.141-.09l.04-.021c.039-.023.079-.049.118-.068l.033-.021c.05-.023.099-.051.149-.072a.183.183 0 0 1 .039-.021c.04-.02.081-.037.122-.055.014-.008.028-.014.042-.02l.192-.075.128-.043.049-.017c.054-.017.106-.031.161-.046.009-.004.019-.006.027-.008.048-.012.095-.022.143-.03l.052-.013c.051-.01.103-.021.153-.026l.018-.005c.005 0 .011 0 .016-.002.004 0 .008 0 .012-.002.056-.008.112-.016.169-.021.007 0 .015 0 .021-.002l.042-.002.134-.013.135-.004c.022 0 .045 0 .066-.002.04 0 .08.002.12.004h.033c.017.002.033 0 .05.002.067.005.137.009.204.017l21.376 2.128-1.37 21.463z"/><path fill="#FFF" d="M67.129 103.793a4.446 4.446 0 0 0 6.257.624l.001-.001 17.738-12.49-17.959 14.707a4.446 4.446 0 0 1-6.258-.623L50.405 85.855l16.724 17.938z"/></g><g><path fill="#F2692B" d="M179.223 83.023c-1.729-5.899-4.051-11.807-7.101-17.882-.423-.844-.642-2.097-.674-3.196-4.456 3.326-9.013 7.25-12.446 11.231-3.742 4.338-8.613 4.232-12.882.45-2.69-2.747-6.397-5.854-10.126-8.657-.717 1.2-1.538 2.359-2.078 3.637-2.289 5.408-4.486 9.9-6.354 14.417-3.727 9.011-6.138 18.121-5.318 34.811.143 2.869 1.532 8.725 2.924 11.111 0 0-.731.687-2.924-.272-8.548-3.954-12.773-12.889-14.562-21.455-1.903-9.118-2.264-15.679-4.606-24.192a87.922 87.922 0 0 0-.834-2.854c-2.056-6.561-4.795-11.097-6.749-14.41-.715 1.403-1.67 2.626-3.361 2.65-1.568.023-1.983.996-2.556 2.161-1.969 3.998-6.631 5.06-10.172 2.282-1.087-.851-1.719-1.935-3.398-.837-3.272 2.138-6.537 1.21-9.675-.558 0 0-.592 3.202-.687 4.832a58.134 58.134 0 0 0 .009 6.731c.673 11.744 4.907 22.338 11.659 32.517 11.073 16.688 26.438 23.704 45.867 23.354 1.426.041 2.854.086 4.276.129 4.834.271 9.663.545 14.493.819-.732-11.588-.478-23.235-2.146-34.764-.478-3.304-.979-6.433-.22-9.631.909-3.843 4.885-5.581 7.732-2.774 1.855 1.826 2.806 4.846 2.951 7.445.748 13.256.866 26.521.851 39.792h5.495c.09-13.931.48-27.862.267-41.792-.082-5.445 3.797-7.604 6.519-6.528 2.707 1.069 3.994 3.64 4.133 6.579.324 6.825.462 13.664-.19 20.471-.432 6.948-.752 13.815-1.937 21.188 10.961.083 17.387-7.539 17.832-17.693.619-14.1-.348-26.597-4.012-39.112z"/><path fill="#FFF8F0" d="M76.005 72.018c1.679-1.098 2.311-.014 3.398.837 3.541 2.777 8.203 1.716 10.172-2.282.572-1.165.988-2.138 2.556-2.161 1.691-.024 2.646-1.247 3.361-2.65-3.8-7.511-8.947-11.453-15.977-14.345-2.024-.832-3.851-.584-5.172 1.142-4.203 5.479-6.993 11.903-8.012 18.902 3.137 1.767 6.401 2.694 9.674.557z"/><path fill="#462D3B" d="M167.527 98.17c-.139-2.939-1.426-5.51-4.133-6.579-2.722-1.073-6.601 1.083-6.519 6.528.216 13.93-.177 27.861-.267 41.792 2.935.368 5.863.412 8.789-.083 1.185-7.372 1.504-14.239 1.937-21.189.654-6.805.52-13.644.193-20.469zm-20.213-5.496c-2.85-2.807-6.823-1.066-7.732 2.774-.759 3.198-.258 6.329.22 9.631 1.671 11.526 1.414 23.176 2.146 34.764 3.052.503 6.11.435 9.168.068.018-13.269-.103-26.536-.851-39.792-.145-2.601-1.093-5.619-2.951-7.445z"/></g><g><path fill="#8BCFED" d="M79.358 69.445c-.628 1.291.496 2.442 2.507 2.572l42.517 3.299c2.091.188 3.831-1.043 3.878-2.75l.295-25.153c-.007-1.75-1.362-3.068-3.021-2.944l-33.567 3.13c-1.582.18-3.323 1.41-3.894 2.741l-8.715 19.105z"/><path fill="#BDE6F9" d="M79.764 68.599c-.623 1.295.485 2.439 2.485 2.558l42.194 3.07c2.074.174 3.8-1.065 3.847-2.775l.262-25.178c-.01-1.751-1.354-3.062-3-2.929l-33.247 3.364c-1.565.19-3.291 1.43-3.859 2.763l-8.682 19.127z"/><path fill="#8BCFED" d="M89.948 70.822l30.606 1.162c1.28.096 5.946 1.765 6.647.995l-17.211-19.14c-1.165-1.176-3.378-1.08-4.997.176L80.619 70.186c.451.466 8.326.577 9.329.636z"/><path fill="#A1DBF7" d="M82.249 71.157l42.194 3.07c1.304.109 2.469-.336 3.17-1.105L109.654 55.87c-1.187-1.19-3.438-1.124-5.085.111L80.011 70.31c.451.466 1.234.787 2.238.847z"/><path fill="#8BCFED" d="M91.817 47.988l33.707-3.032c1.045-.073 1.754-.704 2.293.086l-19.38 17.856c-1.722 1.154-4.162 1.087-5.395-.111l-13.063-14.87c.695-.497 1.042.159 1.838.071z"/><path fill="#D2ECED" d="M92.305 46.709l33.247-3.364a2.683 2.683 0 0 1 2.48 1.205l-19.394 17.21c-1.71 1.188-4.127 1.138-5.345-.074L90.001 47.672c.695-.506 1.518-.868 2.304-.963z"/><path fill="#FFF" d="M125.525 44.842l-33.674 3.055a4.5 4.5 0 0 0-1.321.37l-.529-.595c.695-.507 1.518-.868 2.304-.963l33.247-3.364a2.683 2.683 0 0 1 2.48 1.205l-.707.788a2.719 2.719 0 0 0-1.8-.496zm-21.884 15.326c1.199 1.198 3.585 1.228 5.274.022l14.432-10.709-14.708 12.279c-1.71 1.188-4.127 1.138-5.345-.074l-11.07-11.534 11.417 10.016z"/></g><g><path fill="#8BCFED" d="M174.833 108.799c-.569.578.062 1.346 1.409 1.717l27.921 7.67c1.349.369 2.437-.008 2.433-.842l-.033-12.135c-.002-.832-.746-1.65-1.664-1.828l-19.025-3.693c-.921-.18-2.132.145-2.704.721l-8.337 8.39z"/><path fill="#BDE6F9" d="M175.206 108.424c-.571.576.047 1.34 1.381 1.703l27.603 7.527c1.332.361 2.408-.021 2.404-.854l-.033-12.135c0-.832-.731-1.646-1.636-1.815l-18.709-3.552c-.903-.172-2.103.156-2.676.729l-8.334 8.397z"/><path fill="#8BCFED" d="M181.77 111.104l19.916 4.92c.817.223 3.813 1.668 4.248 1.385l-10.289-11.791c-.615-.748-1.928-1.037-2.983-.668l-17.063 4.43c.249.308 5.506 1.544 6.171 1.724z"/><path fill="#A1DBF7" d="M176.587 110.127l27.603 7.527c.836.227 1.576.162 2.009-.123l-10.873-10.973c-.642-.762-1.99-1.066-3.072-.709l-17.078 3.5c.248.311.741.596 1.411.778z"/><path fill="#8BCFED" d="M185.721 99.855l19.166 3.756c.579.113.977-.086 1.271.365l-11.947 5.857c-1.137.322-2.674-.064-3.379-.846l-6.133-9.482c.481-.128.556.259 1.022.35z"/><path fill="#D2ECED" d="M186.216 99.299l18.709 3.551c.56.111 1.048.446 1.354.926l-11.889 5.529c-1.127.338-2.643-.041-3.328-.822l-6.307-9.094c.483-.135 1.009-.176 1.461-.09z"/><path fill="#FFF" d="M204.891 103.557l-19.136-3.74a3.066 3.066 0 0 0-.812-.039l-.188-.389c.481-.135 1.007-.176 1.459-.09l18.709 3.551c.56.111 1.048.446 1.354.926l-.396.273a2.135 2.135 0 0 0-.99-.492zm-13.512 4.222c.667.771 2.15 1.139 3.26.793l8.95-3.109-9.198 3.842c-1.127.338-2.642-.041-3.328-.822l-5.467-7.475 5.783 6.771z"/></g><g><path fill="#8BCFED" d="M1.251 97.926a4.685 4.685 0 0 0 4.378 4.975l53.497 3.414a4.686 4.686 0 0 0 4.976-4.379l2.397-37.597a4.686 4.686 0 0 0-4.377-4.976L8.625 55.951a4.685 4.685 0 0 0-4.976 4.376L1.251 97.926z"/><path fill="#BDE6F9" d="M1.358 96.242a4.686 4.686 0 0 0 4.378 4.975h.001l53.496 3.414a4.689 4.689 0 0 0 4.976-4.379l2.398-37.598a4.685 4.685 0 0 0-4.379-4.974L8.731 54.266a4.687 4.687 0 0 0-4.975 4.378L1.358 96.242z"/><path fill="#8BCFED" d="M15.372 100.33l39.002.984c1.621.104 7.451 2.484 8.37 1.285L38.845 71.451a5.24 5.24 0 0 0-7.394-.471L3.226 99.367c.792.904 10.849.881 12.146.963z"/><path fill="#A1DBF7" d="M5.737 101.217l53.496 3.414a4.673 4.673 0 0 0 4.021-1.832L38.63 74.816a5.244 5.244 0 0 0-7.394-.471L2.51 99.627a4.665 4.665 0 0 0 3.227 1.59z"/><path fill="#8BCFED" d="M8.578 56.683l53.496 3.412c1.622.104 2.771-.688 3.531.595L37.882 86.531c-2.169 1.873-5.479 1.662-7.393-.473L5.434 55.93c.899-.781 1.847.67 3.144.753z"/><path fill="#D2ECED" d="M8.731 54.266l53.497 3.414a4.684 4.684 0 0 1 3.757 2.326L38.003 84.631a5.236 5.236 0 0 1-7.39-.469l-.002-.002L5.329 55.432a4.68 4.68 0 0 1 3.402-1.166z"/><path fill="#FFF" d="M62.086 59.925L8.588 56.511a4.68 4.68 0 0 0-2.027.321l-1.231-1.4a4.676 4.676 0 0 1 3.402-1.166l53.497 3.414a4.684 4.684 0 0 1 3.757 2.326l-1.166 1.025a4.646 4.646 0 0 0-2.734-1.106zM30.777 81.541a5.238 5.238 0 0 0 7.39.477l.003-.004 20.358-15.446-20.525 18.063a5.236 5.236 0 0 1-7.39-.469l-.002-.002L10.34 61.125l20.437 20.416z"/></g><path fill="#FFF8F0" d="M178.323 51.522c4.075 1.637 6.138 6.886 8.118 10.989-4.131.4-20.67 6.859-30.696 14.875-4.476 3.577-9.245 2.577-12.744-1.925-4.989-7.443-15.052-17.838-19.316-20.544-1.68-1.066-3.937-2.481-4.519-4.285 3.128-2.524 6.769-5.572 10.543-6.622 8.296-2.31 41.441 4.631 48.614 7.512z"/><path fill="#F2692B" d="M119.166 50.633c-.525-.937-.075-2.026.702-3.336 4.569-7.704 8.088-13.978 11.994-18.358 7.417-8.323 15.064-10.479 28.291-8.399 19.809 3.118 23.213 17.629 24.818 18.184 3.563 8.418 2.201 14.734 3.266 22.106.181 1.239-.733 1.608-1.795 1.683-1.979-4.104-5.092-7.374-9.168-9.013-7.174-2.881-15.438-2.391-20.258 7.174-1.776 3.527-2.805 8.298-3.365 12.169-2.397-.632-5.002-1.959-7.303-.47.957-5.894 1.27-9.604.826-14.517-.781-8.748-9.533-13.775-17.563-11.93-3.819.878-7.315 2.182-10.445 4.707z"/><path fill="#FFF8F0" d="M135.482 26.501c-1.073-2.427-2.49-4.93-1.803-7.292.543-1.876 1.709-5.951 3.889-5.908 2.211.042 5.891 2.23 6.68 4.661.329 1.013.691 2.334.877 3.393-3.003.137-8.475 3.204-9.643 5.146z"/><path fill="#462D3B" d="M153.365 72.236c.779 1.422.756 2.676-.719 3.708-1.821 1.275-3.604.767-5.123-.002-1.428-.718-2.393-2.611-1.123-4.347 2.303-1.491 5.698-.476 6.965.641zm-17.883-45.735c-.377 1.209-1.945 2.043-3.072 1.833-2.111-4.406-1.367-13.019 2.383-16.411 1.486-1.346 3.634-2.08 5.229-.766 3.271 2.698 6.508 4.165 7.443 8.939-.677 1.38-2.232 1.592-3.122 1.402-.185-1.061-3-7.041-6.251-7.241-2.177-.136-2.621 2.736-3.165 4.612-.687 2.365-.518 5.205.555 7.632z"/><path fill="#FFF8F0" d="M182.469 35.853c1.879-1.877 4.102-3.698 4.315-6.15.17-1.945.553-6.165-1.496-6.914-2.077-.759-6.296-.044-7.91 1.937-.672.825-1.589 2.03-2.144 2.953 2.748 1.21 6.847 5.939 7.235 8.174z"/><path fill="#462D3B" d="M182.469 35.853c-.082 1.264 1.078 2.607 2.203 2.817 3.561-3.346 6.536-11.448 4.997-16.265-.61-1.91-.798-3.472-3.815-3.073-4.207.552-10.105 2.151-12.703 6.264.133 1.531 1.51 2.291 2.406 2.436 1.062-1.792 6.137-4.866 9.395-4.976 1.754-.06 1.941.78 1.348 4.714-.368 2.432-1.952 6.206-3.831 8.083zm-15.13 27.436c1.565.17 2.778-.357 3.048-1.995.271-1.653-.312-2.987-2.144-3.385-1.761-.383-3.021.234-3.293 2.089-.259 1.77.765 2.791 2.389 3.291zM134.15 53.89c-.42 2.066.269 3.371 2.209 3.83 1.51.355 2.627-.497 3.119-1.705.67-1.646-.084-3.236-2.303-3.611-.982-.168-2.56-.005-3.025 1.486z"/><g><path fill="#B2DFDB" d="M202.217 63.805l-9.934-1.752c-.6-.104-1.084.294-1.084.893v7.225c0 .599.484 1.169 1.084 1.275l1.093.192-.01 2.363c.212.249.555.309.767.135l2.365-1.948 5.719 1.009c.6.104 1.084-.294 1.084-.893V65.08c0-.599-.487-1.169-1.084-1.275z"/><g fill="#4DB6AC"><path d="M200.158 67.475c.549.108.984.638.975 1.185-.01.547-.465.903-1.013.795-.55-.107-.983-.638-.974-1.184s.463-.903 1.012-.796zM197.089 66.875c.548.107.984.637.974 1.184-.01.547-.463.903-1.013.795-.549-.107-.983-.637-.974-1.184.011-.546.464-.903 1.013-.795zM194.02 66.274c.549.107.983.637.974 1.184-.011.546-.464.903-1.013.796-.549-.108-.983-.638-.975-1.185.012-.546.465-.902 1.014-.795z"/></g></g><g><path fill="#B2EBF2" d="M83.98 127.248h16.263c.98 0 1.634.795 1.461 1.773l-2.085 11.826c-.173.98-1.107 1.774-2.087 1.774h-1.79l-.667 3.871c-.407.347-.968.347-1.254 0l-3.188-3.871H81.27c-.979 0-1.634-.794-1.461-1.774l2.086-11.826c.171-.978 1.105-1.773 2.085-1.773z"/><g fill="#26C6DA"><path d="M96.17 133.749c.895.019 1.478.759 1.302 1.657-.176.896-1.044 1.611-1.938 1.594-.896-.018-1.478-.759-1.302-1.656.175-.899 1.043-1.614 1.938-1.595zM91.162 133.65c.895.019 1.478.76 1.302 1.658-.175.897-1.043 1.61-1.938 1.594-.895-.018-1.478-.76-1.302-1.655.174-.897 1.043-1.612 1.938-1.597zM86.153 133.555c.896.019 1.478.76 1.303 1.657-.176.897-1.043 1.611-1.938 1.595-.895-.018-1.479-.76-1.303-1.656.175-.9 1.043-1.614 1.938-1.596z"/></g></g><path fill="#8BCFED" d="M56.961 122.331l-.566-6.474c-.102-1.168-1.131-2.112-2.297-2.112H41.889l-.305 3.058a3.977 3.977 0 0 0 3.565 4.352l11.812 1.176z"/><g><path fill="#B2DFDB" d="M52.096 115.747H32.733c-1.166 0-2.029.944-1.927 2.112l1.231 14.08c.103 1.168 1.131 2.113 2.297 2.113h2.131l.385 4.608c.448.411 1.116.411 1.493 0l4.205-4.608h11.148c1.166 0 2.029-.945 1.928-2.113l-1.232-14.08c-.101-1.168-1.13-2.112-2.296-2.112z"/><g fill="#4DB6AC"><path d="M48.771 123.607c1.072.021 1.998.902 2.071 1.974.073 1.067-.736 1.918-1.808 1.897-1.07-.021-1.997-.903-2.07-1.974-.073-1.068.736-1.917 1.807-1.897zM42.777 123.493c1.071.019 1.999.903 2.072 1.973.072 1.069-.737 1.919-1.809 1.898-1.07-.021-1.998-.904-2.071-1.974-.073-1.07.737-1.917 1.808-1.897zM36.784 123.378c1.07.021 1.998.901 2.071 1.974.072 1.067-.736 1.918-1.808 1.896-1.072-.021-1.998-.902-2.071-1.973-.072-1.068.737-1.92 1.808-1.897z"/></g></g><g><path fill="#B2EBF2" d="M199.631 83.461l16.139 1.411c.974.086 1.76.942 1.76 1.915v11.736c0 .973-.786 1.691-1.76 1.605l-1.776-.154.017 3.844c-.344.312-.9.265-1.244-.109l-3.843-4.178-9.291-.812c-.973-.085-1.761-.941-1.761-1.914V85.066c-.002-.971.786-1.69 1.759-1.605z"/><g fill="#26C6DA"><path d="M212.865 91.068c.892.096 1.6.895 1.582 1.783-.018.891-.754 1.534-1.646 1.439-.891-.096-1.6-.895-1.581-1.784.018-.887.755-1.531 1.645-1.438zM207.878 90.538c.892.094 1.601.894 1.583 1.782-.018.89-.754 1.533-1.646 1.438-.892-.096-1.6-.894-1.582-1.783.017-.888.753-1.534 1.645-1.437zM202.891 90.005c.892.097 1.601.894 1.582 1.782-.017.89-.752 1.533-1.645 1.438-.891-.096-1.6-.893-1.582-1.783.018-.887.753-1.533 1.645-1.437z"/></g></g><g><path fill="#B2DFDB" d="M232.059 65.5l-9.703.678a1.153 1.153 0 0 0-1.059 1.132v7.056a.975.975 0 0 0 1.059.985l1.068-.075-.01 2.311c.206.19.541.169.748-.053l2.309-2.471 5.588-.391a1.154 1.154 0 0 0 1.059-1.132v-7.056a.975.975 0 0 0-1.059-.984z"/><g fill="#4DB6AC"><path d="M230.047 69.579a.892.892 0 0 1 .951.922c-.01.536-.453.993-.988 1.021a.893.893 0 0 1-.951-.923c.009-.536.453-.993.988-1.02zM227.049 69.731a.893.893 0 0 1 .951.922c-.01.537-.452.993-.988 1.021a.892.892 0 0 1-.951-.922c.009-.537.453-.994.988-1.021zM224.051 69.883a.892.892 0 0 1 .95.922c-.01.536-.452.993-.987 1.02a.891.891 0 0 1-.951-.922c.009-.536.453-.993.988-1.02z"/></g></g><g><path fill="#B2EBF2" d="M245.486 92.143h6.414c.388 0 .756.312.822.699l.823 4.666c.067.387-.188.699-.575.699h-.707l.275 1.527c-.112.137-.335.137-.495 0l-1.796-1.527h-3.693a.867.867 0 0 1-.822-.699l-.823-4.666c-.067-.387.191-.699.577-.699z"/><g fill="#26C6DA"><path d="M251.199 94.707a.8.8 0 0 1 .744.652c.056.354-.188.637-.543.63a.8.8 0 0 1-.744-.653c-.054-.356.188-.636.543-.629zM249.21 94.668a.8.8 0 0 1 .744.654c.056.354-.188.636-.543.629a.801.801 0 0 1-.744-.653c-.056-.355.187-.637.543-.63zM247.221 94.63a.8.8 0 0 1 .744.654c.057.354-.188.636-.543.629s-.688-.3-.744-.654c-.056-.354.187-.636.543-.629z"/></g></g></svg>