<svg xmlns="http://www.w3.org/2000/svg" width="266" height="150">
  <path fill="#684D47" d="M190.527 101.923c-.098.32-9.334 35.818-45.621 35.808-31.368-.01-46.235-27.274-46.235-27.274a16.233 16.233 0 0 1-6.527-.983c-9.203-3.381-13.619-13.909-10.443-22.742l-5.058-3.865C57.05 67.941 112.554-.359 132.181 15.096c.099.078 4.685 3.769 4.685 3.769 7.048-4.279 14.027-6.593 19.7-6.593 4.029 0 7.399 1.166 9.667 3.623 5.096 5.516 3.264 16.049-3.691 26.713 1.496 1.42 2.736 3.351 3.621 5.267 2.211 1.707 3.645 4.301 4.357 7.883.793 3.984.957 9.659 1.455 12.097 1.875.847 1.076.455 3.076 1.454 2.086 1.042 4.625 2.312 7.432 5.012 4.988 1.25 6.893 6.554 3.975 10.173-.078.098-.432.515-.797.93.088.23 1.045 1.78 1.734 4.937 2.068.487 3.715 1.761 4.578 3.606 1.494 3.61-1.446 7.956-1.446 7.956zM177.658 129.97v5.405h2.068v-5.405h2.119v-1.706h-6.277v1.706zM182.477 128.264v7.111h1.89v-5.136l1.542 5.136h1.614l1.542-5.149v5.149h1.884v-7.111h-2.95l-1.271 4.093-1.301-4.093z"/>
  <path fill="#F5DCBA" d="M106.073 88.564a31.05 31.05 0 0 0 1.188-3.656c.904 2.766 1.368 5.674 1.186 8.614.75-.998 1.555-2.877 1.555-2.877 1.395 8.213-4.599 15.731-12.496 15.731-7.011 0-12.694-5.983-12.694-13.363 0-7.381 5.684-13.364 12.694-13.364 1.817 0 3.545.402 5.109 1.126.001 0 2.699 1.362 3.458 7.789zm69.077 28.964c9.84-7.732 11.561-17.045 11.725-17.365 2.42-2.904 1.762-5.766-1.436-5.767-1.02 0-1.787.27-1.787.27s.012-4.238-1.949-7.539c-1.512 1.699-5.705 5.066-11.209 7.68-5.162 2.45-12.049 4.597-20.584 4.881-2.391.104-3.869-.286-4.701 2.501-.266.984-.15 2.446.049 2.868.674 2.309 2.433 3.325 4.748 3.864 1.756.409 3.62.447 3.62.447 17.31.485 31.208-13.015 31.376-13.127.16-.132.293-.288.293-.288s-.152.358-.172.399c-2.5 5.622-16.975 15.817-31.383 15.525l-.048.017c-3.341-.013-7.401-.872-9.513-3.489-3.339-4.142-1.605-11.027 3.717-11.188.006 0 1.23-.028 1.775-.042 13.178-.405 25.002-5.247 33.469-15.357 1.164-1.446-.137-3.433-2.66-3.493a.086.086 0 0 1-.059-.026c-2.99-3.203-5.621-4.334-7.961-5.523-4.904-2.499-4.441-.34-5.584-12.459-.307-3.268-.926-7.723-3.797-9.432-.752-.448-1.574-.64-2.428-.64-.844 0-1.256.172-1.421.209-1.572.349-2.466 1.24-3.587 2.272-5.291 4.88-9.521 3.555-15.834 3.5-5.93-.052-11.166 4.084-12.167 10.436l-.001.003c-.487 3.325-.172 6.704.349 8.222 0 0-1.609-1.071-2.376-2.019.928 5.803 6.222 9.596 6.222 9.596-.833.191-2.033.111-2.033.111.005.005 3.021 2.391 5.64 3.223-.683.425-4.133 3.83-5.914 8.519-1.665 4.388-.987 9.654-.987 9.654l1.447-2.156s-.945 4.806.884 9.46c.606-1.385 1.932-3.856 1.932-3.856s-.21 5.161 2.274 9.387c.063-.976.437-3.458.437-3.458s1.426 4.405 4.719 7.486c6.167 5.469 22.492 6.457 34.915-3.306z"/>
  <path fill="#1089C0" d="M83.601 82.971c-.05-.014-4.776-3.482-5.449-4.625-3.977-6.711 2.942-20.496 7.865-28.332 12.168-19.365 32.421-34.647 41.62-32.465l9.447 4.876c-3.668 2.158-7.215 4.808-9.34 6.57l-2.01 1.686s-5.87 3.952-8.79 6.443c-11.703 9.986-23.226 25.446-27.5 40.368 0 0-3.51 1.743-5.843 5.479z"/>
  <path fill="#49B9E3" d="M127.638 17.549c-9.199-2.183-29.452 13.1-41.62 32.465l-.01.017.049.005 9.696 7.633c10.646-16.898 24.025-25.612 24.402-25.868l-1.537-10.343 2.88-1.378 5.78 1.872-.442-1.931.802-2.472z"/>
  <path fill="#FFD250" d="M137.084 22.425l-9.34 6.57-.653.511-8.283-6.768-.19-1.279 2.88-1.379 5.78 1.871.096-3.588.264-.814 2.53-.97c.003.004 6.906 5.838 6.916 5.846z"/>
  <g fill="#132030">
    <path d="M155.516 15.981c-6.177 0-13.111 3.249-18.432 6.443-.746.439-1.486.898-2.212 1.367l-2.784-2.333 1.011 3.513c-.382.263-.755.525-1.12.785L126.228 24l3.805 3.186a68.186 68.186 0 0 0-2.289 1.809l-9.126-7.536.483 3.377 6.633 5.844s-5.87 3.952-8.79 6.443c-11.703 9.986-23.226 25.446-27.5 40.368l.243-.137.099-.051c.119-.064.238-.125.357-.186.076-.038.152-.077.228-.113.123-.059.245-.113.367-.168l.217-.095c.132-.056.265-.106.397-.156.061-.023.122-.048.184-.07.193-.069.385-.134.577-.19 2.905-.867 6.858-1.423 11.484.541 2.324-5.861 5.1-11.823 9.475-17.553 3.547-4.646 6.957-8.793 11.049-11.074 7.749-7.279 28.634-14.999 35.325-8.307 1.582-2.588 2.955-5.039 4.086-8.11 2.794-7.384 2.845-15.841-8.016-15.841z"/>
    <path d="M129.003 22.511l-1.365-4.962-.804 2.472.481 1.943z"/>
  </g>
  <path fill="#FFF" d="M183.652 94.661s.012-4.238-1.949-7.539c-1.512 1.7-5.705 5.066-11.209 7.68-5.162 2.45-12.049 4.597-20.584 4.881-2.391.104-3.868-.285-4.701 2.501a4.754 4.754 0 0 0-.131.783l-.001.028h-.001a7.823 7.823 0 0 0-.012.943v.014l.003.043c.008.122.019.24.031.35l.001.018.003.017c.056.442.144.648.155.672v.003l.012.037c.682 2.281 2.434 3.291 4.736 3.826 1.756.409 3.621.447 3.621.447 14.123.396 25.975-8.519 29.951-11.875.069-.942.109-1.613.075-2.829zM143.08 19.22c3.373-1.556 6.99-2.785 10.458-3.139-3.444.775-7.642 2.561-12.614 5.604-.122.07-11.768 7.931-18.883 14.988-3.877 3.846-19.448 22.518-19.436 22.502 2.846-5.385 4.72-8.029 9.226-13.694a127.284 127.284 0 0 1 8.049-9.198c.936-.967 1.878-1.907 2.825-2.814.36-.346 8.497-8.678 20.375-14.249z"/>
  <path fill="#EABE8D" d="M175.15 117.528a34.425 34.425 0 0 1-5.248 3.4c-4.158-1.58-6.711-4.947-6.711-4.947s3.564-.843 8.33-3.266c5.797-2.945 11.213-7.2 15.354-12.554-.164.322-1.885 9.635-11.725 17.367zm-11.316-44.889c-2.012-1.431-5.344-.292-6.078 2.075 1.164.059 2.399.939 2.324 2.065a4.457 4.457 0 0 1 3.127-1.223c-.549-.879-.271-2.394.627-2.917zm-21.104 28.887c.635-2.358 2.424-4.227 5.166-4.31.006 0 1.23-.028 1.775-.042 13.178-.405 25.002-5.247 33.469-15.357 1.164-1.446-.137-3.433-2.66-3.493h-.035c-.428.451-.504 1.275-1.209 2.507-2.576 4.474-6.137 6.52-10.887 8.894-14.562 7.25-22.113 3.876-25.145 8.315-.88 1.306-.895 2.765-.474 3.486zm26.35-30.405c-1.393-1-1.443-2.743-2.203-10.806-.242-2.572-.678-5.879-2.252-8.005-.324-.284-.783-.611-1.441-.611-.994-.044-2.119.986-2.756 1.69-1.809 2.61-3.535 4.291-6.592 5.748-3.093 1.4-6.031 1.908-9.084 1.811-2.232-.07-4.189-.438-6.105-.463-3.554-.055-6.633 1.096-8.877 3.93-1.539 1.943-2.157 3.998-2.354 6.443a19.72 19.72 0 0 0 .143 1.941c.157 1.24.38 1.882.38 1.882 0 .01-.001.019-.004.028.018.061.037.119.057.175 0 0-1.609-1.071-2.376-2.019.774 4.837 4.582 8.278 5.827 9.289.074.056.146.112.218.169.006.004.011.01.016.016.104.08.162.122.162.122-.834.192-2.034.112-2.034.112.005.004 3.022 2.391 5.641 3.223 3.474-2.936 7.412-4.062 10.645-4.412a86.01 86.01 0 0 1 6.329-3.562c-.685-4.266 3.099-8.561 7.858-8.974 3.592-.262 5.34 1.349 6.598 3.07.684-.218 1.453-.456 2.314-.709a.567.567 0 0 1-.11-.088zm1.717 28.73c-.035.001-.072.009-.133.022-1.436.332-16.232 6.064-25.588 3.127-.041.512-.028 1.587.182 2.055v.002c1.416.284 3.207.466 5.285.466 12.311-.001 21.182-5.597 20.254-5.672zm-68.867-1.15l.01-.007c.75-.806 1.064-1.932.886-3.008-.277-1.55-2.032-1.862-3.193-3.065l-.055-.058a1.64 1.64 0 0 1-.057-.064l-.004-.004c-.521-.601-.703-1.284-.661-1.894.092-1.584 1.499-2.029 2.231-1.738 0 0 .869.205 1.542 1.145v-.004c-.102-.31-.081-.811-.608-1.556-.863-1.223-2.844-2.466-5.654-1.87-.52.109-.229.047-.741.191-.08.023-.153.045-.216.071-.161.075-.31.128-.453.203-.074.041-.496.232-1.004.615-3.157 4.077 2.192 11.47 7.977 11.043z"/>
  <path fill="#9C7457" d="M148.491 73.612c.267.39.338.684.23.807-.215.251-.981-.088-2.114-.53-2.9-1.082-5.036-1.246-8.817.185-.956.365-1.634.646-1.96.598-.529-.079-.016-1.05 1.143-1.991 2.332-1.86 5.535-2.438 8.271-1.419 1.197.44 2.543 1.321 3.247 2.35zm-.575 2.965c-.794-.607-2.258-1.014-3.777-.756-.318.049-.613.147-.904.226a1.986 1.986 0 0 0-.307.105c-.628.264-1.172.55-1.699 1.056-.605.585-.777 1.128-.604 1.263.172.137.592-.066 1.24-.328 2.17-.902 3.705-.926 5.168-.824.705.047 1.178.09 1.287-.103.078-.13-.062-.378-.404-.639zm-46.729 11.13l.001.001c.356.283.629.585.833.874.667.945.455 1.496.729 1.764a.34.34 0 0 0 .381.07c.378-.156.565-.758.6-1.178v-.003c.095-1.01-.439-2.146-1.146-2.948l-.002-.003a6.177 6.177 0 0 0-1.681-1.349 6.974 6.974 0 0 0-2.333-.799c-1.497-.233-2.969.064-3.38.188h.002c-.212.061-.474.116-.699.204-2.441.952-4.047 2.7-4.762 5.014v.003a8.798 8.798 0 0 0-.17 4.385v.002-.001c.207.943.629 2.007 1.288 2.704l.002.002c.824.891 1.727.721 1.342-.108-.092-.229-.59-1.167-.657-2.865-.043-1.111.109-2.269.517-3.323a6.262 6.262 0 0 1 .938-1.627c.83-1.014 1.849-1.469 1.968-1.535.143-.076.292-.128.453-.203.063-.026.136-.049.216-.07.512-.145.221-.082.74-.193 1.953-.415 3.634.037 4.82.994zm-.416 3.772c-.27-.214-.395-.396-.47-.678-.11-.511-.053-.808.384-1.115.336-.23.608-.342.608-.486.015-.273-1.111-.557-1.898.219-.653.696-.86 2.148.183 3.279 1.161 1.253 2.966 1.548 3.247 3.123.037.223.065.472.045.717.004.282-.09.688-.095.713-.349 1.521-1.793 2.973-4.174 2.603-.438-.063-.723-.117-.808.004-.184.256.837 1.423 2.705 1.38 1.828-.038 3.641-1.406 4.222-3.463.006-.026.178-.609.192-1.132a4.697 4.697 0 0 0-.067-1.202c-.475-2.642-3.099-3.184-4.074-3.962zm63.69-18.854c-.723-.113-1.434.599-1.588 1.589-.154.991.307 1.885 1.027 1.997.723.113 1.434-.598 1.588-1.589.155-.99-.306-1.884-1.027-1.997zm-7.936 2.889c-.396.725.086 1.753 1.08 2.297.993.545 2.12.398 2.518-.326.396-.724-.087-1.752-1.08-2.296-.994-.545-2.121-.399-2.518.325zm-29.071-29.3c13.666-8.857 27.316-9.875 31.992-6.28l.002-.001c-.01-.023-.084-.231-.113-.288-1.188-2.523-3.959-4.284-6.426-4.99.432.45 1.059 1.273 1.312 1.762-1.863-1.279-4.338-2.406-6.922-2.941 0 0 .309.221.361.27.515.479 1.199 1.237 1.48 1.888-2.469-.991-5.591-1.547-8.262-1.032-.038.007-.334.077-.334.077s.348.086.425.109c.886.263 2.15.803 2.707 1.542-4.435-.78-9.313.083-11.945 1.555.338-.014.335-.016.622-.008.968.026 2.918.158 3.736.678-2.797.569-6.846 1.82-9.025 3.695.385-.045 2.568-.323 3.462-.18-11.996 6.864-17.455 17.242-17.455 17.242 3.537-4.607 8.126-9.042 14.383-13.098z"/>
  <path fill="#684D47" d="M159.694 65.565c-.019-.942.131-2.498 1.018-2.788h.001c1.516-.526 3.521 3.355 3.615 6.801-1.197-.6-2.605-.854-4.053-.729a11.725 11.725 0 0 1-.581-3.284z"/>
</svg>
