<svg xmlns="http://www.w3.org/2000/svg" width="266" height="150" viewBox="0 0 266 150"><style>.a{fill:none;stroke:#09BCD4;}.b{fill:#3575BB;}.c{fill:#FAFAFA;}.d{fill:#E0E1E0;}.e{fill:#462D3B;}.f{fill:#F2692B;}</style><rect x="61.7" y="20.4" width="193" height="121" class="a"/><line x1="61.7" y1="121.2" x2="254.7" y2="121.2" class="a"/><line x1="61.7" y1="101.1" x2="254.7" y2="101.1" class="a"/><line x1="61.7" y1="80.9" x2="254.7" y2="80.9" class="a"/><line x1="61.7" y1="60.7" x2="254.7" y2="60.7" class="a"/><line x1="61.7" y1="40.6" x2="254.7" y2="40.6" class="a"/><line x1="227.2" y1="20.4" x2="227.2" y2="141.4" class="a"/><line x1="199.6" y1="20.4" x2="199.6" y2="141.4" class="a"/><line x1="172.1" y1="20.4" x2="172.1" y2="141.4" class="a"/><line x1="144.4" y1="20.4" x2="144.4" y2="141.4" class="a"/><line x1="116.9" y1="20.4" x2="116.9" y2="141.4" class="a"/><line x1="89.3" y1="20.4" x2="89.3" y2="141.4" class="a"/><path d="M106.2 31.4c-17 0-58.6 0-75.6 0 -3 0-5.4 2.4-5.4 5.4 0 8.2 0 8.1 0 8.1h86.5c0 0 0 0.1 0-8.1C111.6 33.8 109.2 31.4 106.2 31.4zM41.4 39.5c-1.5 0-2.7-1.2-2.7-2.7 0-1.5 1.2-2.7 2.7-2.7 1.5 0 2.7 1.2 2.7 2.7C44.1 38.3 42.9 39.5 41.4 39.5zM95.4 39.5c-1.5 0-2.7-1.2-2.7-2.7 0-1.5 1.2-2.7 2.7-2.7 1.5 0 2.7 1.2 2.7 2.7C98.1 38.3 96.9 39.5 95.4 39.5z" fill="#C8C7C7"/><path d="M122.4 47.6c0.3-1.6-3.8-5.4-5.4-5.4 -19.2 0-78 0-97.3 0 -2.7 0-5.7 3.8-5.4 5.4 2.2 12.6 8.1 40.5 8.1 40.5h91.9C114.3 88.2 120.2 60.2 122.4 47.6z" class="b"/><path d="M114.3 88.2H22.5c0 0-5.9 27.9-8.1 40.5 0 3.1 2.1 5.4 5.4 5.4 19.2 0 78 0 97.3 0 1.6 0 5.4-1.3 5.4-5.4C120.2 116.1 114.3 88.2 114.3 88.2z" fill="#3E83C4"/><path d="M59.1 88.2c2.7 0.9 4.6 2.3 5.7 4.2 1.2 2 1.8 4.2 1.8 6.6 0 4.3-1.4 7.6-4.2 10.1 -2.8 2.4-6.4 3.7-10.7 3.7 -4.3 0-7.8-1.2-10.6-3.5 -2.8-2.3-4.1-5.4-4-9.4l0.1-0.2h6.1c0 2.5 0.8 4.4 2.3 5.9 1.5 1.5 3.6 2.2 6.2 2.2 2.7 0 4.8-0.7 6.3-2.2 1.5-1.5 2.3-3.6 2.3-6.5 0-2.9-0.7-5-2-6.4 -1.4-1.4-3.5-2.1-6.4-2.1h-5.5v-2.5H59.1z" class="c"/><rect x="89" y="88.2" width="6.3" height="23.9" class="c"/><path d="M43.4 77.4h-6.1l-0.1-0.2c-0.1-3.5 1.2-6.6 3.9-9 2.7-2.5 6.2-3.7 10.5-3.7 4.3 0 7.8 1.2 10.4 3.5 2.6 2.3 3.9 5.6 3.9 9.9 0 1.9-0.6 3.9-1.8 5.8 -1.2 1.9-2.9 3.4-5.3 4.4l0.3 0.1H46.2v-2.5h5.5c2.8 0 4.8-0.7 6-2.1 1.2-1.4 1.8-3.4 1.8-5.9 0-2.7-0.7-4.7-2-6.1 -1.3-1.4-3.3-2.1-5.9-2.1 -2.5 0-4.5 0.7-5.9 2.2C44.2 73.1 43.4 74.9 43.4 77.4z" class="d"/><polygon points="95.4 88.2 89 88.2 89 71.4 79.4 71.5 79.4 66.9 95.4 65.2 " class="d"/><path d="M19.8 42.2c-3.9 0-5.7 3.8-5.4 5.4 2.2 12.6 8.1 40.5 8.1 40.5" class="b"/><path d="M114.3 88.2c0 0 5.9-27.9 8.1-40.5 0-4.4-3.8-5.4-5.4-5.4" class="b"/><path d="M145.3 40.6c-6.5-3.3-12.4 1.9-11.9 9.1 0.5 6 3.1 11.1 5.7 16.6 9.3 19.1 20.3 52 28 71.7 5.6-0.8 10.8-2.6 15.9-4.9 -7.3-23-19.9-58.6-28.5-81.2C152.9 47.4 149.6 42.7 145.3 40.6z" class="e"/><path d="M259.2 139.2c-3.1-10.7-7.4-21.5-12.9-32.6 -0.8-1.5-1.2-3.8-1.2-5.8 -8.1 6.1-22.9 12.3-34 12.3 -11.8 0-23.8-1.6-30.6-6.8 -1.3 2.2-2.8 4.3-3.8 6.6 -4.2 9.9-8.2 18-11.6 26.3 -1.5 3.6-2.8 7.1-4 10.8h100.9C261.2 146.4 260.3 142.8 259.2 139.2z" class="f"/><path d="M245.1 100.8c-8.1 6.1-22.9 12.3-34 12.3 -11.8 0-23.8-1.6-30.6-6.8 -0.5 0.9-1 1.7-1.6 2.5 0.5 0.4 1 0.8 1.6 1.2 6.8 5.1 19.7 5.3 30.6 5.3s23.8-0.2 30.6-5.3c1.5-1.2 3.1-2.3 4.6-3.4 0 0 0 0 0 0C245.5 105.1 245.1 102.8 245.1 100.8z" fill="#B84526"/><path d="M274.1 80.8c-5.6-15.3-9.8-27.7-15.3-36.9 -0.3-0.4-0.5-0.8-0.8-1.3 -2.5-2.3-3.4-3.3-3.7-5.5 -1.3-3.6-10-8.8-15.3-10.8 0 0 0 0.1 0 0.1 -1.7 0-4.4-0.9-5.1-3.6 0 0 0 0 0 0 -6.3-2.1-13.7-3.1-22.7-3.4 -9 0.3-16.4 1.3-22.7 3.4 0 0 0 0 0 0 -0.7 2.7-3.5 3.6-5.1 3.6 0 0 0-0.1 0-0.1 -5.3 2-14 7.2-15.3 10.8 -0.3 2.3-1.2 3.3-3.7 5.5 -0.3 0.4-0.5 0.8-0.8 1.3 -5.5 9.2-9.7 21.6-15.3 36.9 -1 2.6-1.4 4.7-0.1 6.2 1.6 3 6.2 4.8 9.5 6.2 4.9 2 14 7.8 23 14.6 6.8 5.1 19.7 5.3 30.6 5.3s23.8-0.2 30.6-5.3c9-6.8 18.1-12.6 23-14.6 3.4-1.3 7.9-3.1 9.5-6.2C275.5 85.5 275 83.4 274.1 80.8z" class="f"/><path d="M188.4 22.8c-3.3-8.2-9.5-10.5-15.6-13.7 -3.4-1.7-7.5 0.4-9.8 3.3 -5.6 7.3-4 23 1.2 30.2 0 0 0 0 0 0 2.1 0 10-4.1 14.2-7.3 4.2-3.2 9.2-9.8 9.9-12.5C188.4 22.9 188.4 22.9 188.4 22.8z" class="e"/><path d="M262 11.9c-1.7-3.2-2.6-5.9-7.9-4.2 -7.2 2.3-16.9 7-20.4 14.9 -0.1 0.2-0.2 0.4-0.3 0.6 0.7 2.7 6.6 8.1 9.7 10.8s8.6 7.9 14.5 8.4C263.7 36.2 266.3 20 262 11.9z" class="e"/><text transform="matrix(1 0 0 1 72.5723 17.8208)" font-family="'MyriadPro-Regular'" font-size="12">  S</text><text transform="matrix(1 0 0 1 98.2705 17.8213)" font-family="'MyriadPro-Regular'" font-size="12">  M</text><text transform="matrix(1 0 0 1 127.6772 17.8213)" font-family="'MyriadPro-Regular'" font-size="12">  T</text><text transform="matrix(1 0 0 1 153.1729 17.8213)" font-family="'MyriadPro-Regular'" font-size="12">  W</text><text transform="matrix(1 0 0 1 182.8535 17.8208)" font-family="'MyriadPro-Regular'" font-size="12">  T</text><text transform="matrix(1 0 0 1 210.4775 17.8208)" font-family="'MyriadPro-Regular'" font-size="12">  F</text><text transform="matrix(1 0 0 1 238.0078 17.8213)" font-family="'MyriadPro-Regular'" font-size="12">  S</text></svg>