<svg xmlns="http://www.w3.org/2000/svg" width="266" height="150">
  <path fill="none" d="M154.804 75.794c-.505.4-1.026.78-1.562 1.141a169.64 169.64 0 0 0 2.232-.267c-.075-.098-.153-.189-.228-.288l-.442-.586z"/>
  <path fill="#FFF8F0" d="M198.032 74.922a25.59 25.59 0 0 1-10.257 9.306c-4.817 2.404-10.092 3.288-15.25 2.56a25.256 25.256 0 0 1-7.485-2.285 26.522 26.522 0 0 1-7.397-5.344c-3.379 6.578.006 9.266 2.689 10.862.708.427 1.216 1.421 1.254 2.252.258 5.818 5.303 12.165 11.401 12.051 1.49-.005 1.992-.161 2.517 1.625 1.515 5.155 13.092 10.388 23.327 4.319 5.279-12.069 4.023-23.879-.799-35.346z"/>
  <path fill="#4C4C4C" d="M201.944 54.507c-2.288-7.726-8.129-13.839-15.562-16.675 5.141-10.085 2.493-22.85-6.4-30.518a25.961 25.961 0 0 0-13.326-6.056c-6.784-.958-13.574.777-19.119 4.886-5.057 3.749-8.361 8.803-9.826 15.023a25.122 25.122 0 0 0-.426 9.477c-9.723.795-17.957 7.189-21.595 15.963-1.291 8.189-1.377 19.327 7.88 25.861 9.507 6.71 20.037 6.677 30.674 5.467a24.56 24.56 0 0 0 1.562-1.141l.443.586c.074.099.152.19.228.288a28.54 28.54 0 0 0 2.168 2.49 26.57 26.57 0 0 0 7.397 5.344 25.236 25.236 0 0 0 7.485 2.285c5.158.729 10.433-.155 15.25-2.56a25.596 25.596 0 0 0 10.257-9.306c3.884-6.172 5.128-13.927 2.91-21.414zm-60.215-4.536l8.163-10.137c-3.57-4.714-5.36-9.888-3.969-15.792.983-4.173 3.16-7.591 6.622-10.156 6.629-4.913 15.638-4.588 21.868.78 5.983 5.156 7.835 13.815 4.271 20.5l-5.799-2.487c1.359-3.804 1.259-7.407-.959-10.794-1.466-2.239-3.559-3.596-6.052-4.34-4.998-1.492-10.476 1.081-12.67 5.884-2.493 5.45-.593 10.459 5.896 14.947-3.709 4.617-7.271 9.093-10.887 13.523-.929 1.136-1.444 2.098-1.066 3.763 1.046 4.604-1.897 8.523-6.466 9.055-4.306.502-7.969-2.798-8.164-7.363-.175-4.039 3.424-7.466 7.849-7.468.372-.002.744.045 1.363.085zm14.591 13.004c-1.958 4.925-5.22 8.664-10.203 10.631-3.872 1.529-7.836 1.673-11.858.427-7.404-2.29-12.636-9.984-12.098-17.74.612-8.789 7.683-15.678 15.897-16.29l.809 6.243c-7.84 2.698-11.033 7.043-9.815 13.21 1.071 5.427 5.789 8.984 11.5 8.674 5.832-.32 9.359-4.634 10.078-12.25 5.38.759 10.772 1.462 16.142 2.304 2.097.332 3.748.341 5.593-1.288 3.036-2.68 7.793-1.729 10.193 1.546 2.452 3.347 1.648 8.06-1.787 10.45-3.31 2.305-7.915 1.508-10.242-1.809-.476-.684-.818-1.464-1.273-2.283l-12.936-1.825zm37.17 5.894c-1.459 4.115-4.415 7.653-8.53 9.707-6.832 3.407-14.486 2.189-19.897-3.016a19.83 19.83 0 0 1-2.086-2.351c1.786-1.11 3.582-2.229 5.502-3.42 1.693 1.47 3.37 2.542 5.016 3.22 3.818 1.57 7.466.979 10.744-1.943a10.746 10.746 0 0 0 1.504-1.668c2.635-3.596 2.853-8.588.308-12.416-3.428-5.153-8.86-6.062-16.074-2.599-2.049-5.236-4.152-10.443-6.111-15.704-.662-1.774-1.514-2.868-3.477-3.5-3.278-1.057-5.042-4.251-4.714-7.502.323-3.217 2.616-5.841 5.718-6.552 3.075-.704 6.371.68 7.983 3.437 1.318 2.252 1.506 4.605.31 6.985-.333.663-.733 1.295-1.178 2.074 1.585 4.025 3.197 8.11 4.795 12.159 11.214-1.809 18.476 5.284 20.483 12.062a17.813 17.813 0 0 1-.296 11.027z" opacity=".1"/>
  <path fill="#FFF" d="M200.943 53.506c-2.288-7.726-8.129-13.839-15.562-16.675 5.141-10.085 2.493-22.85-6.4-30.518A25.961 25.961 0 0 0 165.655.257c-6.785-.957-13.575.778-19.12 4.886-5.057 3.749-8.361 8.803-9.826 15.023a25.122 25.122 0 0 0-.426 9.477c-9.723.795-17.957 7.189-21.595 15.963-1.291 8.189-1.377 19.327 7.88 25.861 9.508 6.71 20.037 6.677 30.674 5.467a24.56 24.56 0 0 0 1.562-1.141l.443.586c.074.099.152.19.228.288a28.54 28.54 0 0 0 2.168 2.49 26.57 26.57 0 0 0 7.397 5.344 25.236 25.236 0 0 0 7.485 2.285c5.158.729 10.433-.155 15.25-2.56a25.596 25.596 0 0 0 10.257-9.306c3.885-6.172 5.129-13.927 2.911-21.414zm-60.215-4.536l8.163-10.137c-3.57-4.714-5.36-9.888-3.969-15.792.983-4.173 3.16-7.591 6.622-10.156 6.629-4.913 15.638-4.588 21.868.78 5.983 5.156 7.835 13.815 4.271 20.5l-5.799-2.487c1.359-3.804 1.259-7.407-.959-10.794-1.466-2.239-3.559-3.596-6.052-4.34-4.998-1.492-10.476 1.081-12.67 5.884-2.493 5.45-.593 10.459 5.896 14.947-3.709 4.617-7.271 9.093-10.887 13.523-.929 1.136-1.444 2.098-1.066 3.763 1.046 4.604-1.897 8.523-6.466 9.055-4.306.502-7.969-2.798-8.164-7.363-.175-4.039 3.424-7.466 7.849-7.468.372-.002.744.045 1.363.085zm14.591 13.004c-1.958 4.925-5.22 8.664-10.203 10.631-3.872 1.529-7.836 1.673-11.858.427-7.404-2.29-12.636-9.984-12.098-17.74.612-8.789 7.683-15.678 15.897-16.29l.809 6.243c-7.84 2.698-11.033 7.043-9.815 13.21 1.071 5.427 5.789 8.984 11.5 8.674 5.832-.32 9.359-4.634 10.078-12.25 5.38.759 10.772 1.462 16.142 2.304 2.097.332 3.748.341 5.593-1.288 3.036-2.68 7.793-1.729 10.193 1.546 2.452 3.347 1.648 8.06-1.787 10.45-3.31 2.305-7.915 1.508-10.242-1.809-.476-.684-.818-1.464-1.273-2.283l-12.936-1.825zm37.17 5.894c-1.459 4.115-4.415 7.653-8.53 9.707-6.832 3.407-14.486 2.189-19.897-3.016a19.83 19.83 0 0 1-2.086-2.351c1.786-1.11 3.582-2.229 5.502-3.42 1.693 1.47 3.37 2.542 5.016 3.219 3.818 1.571 7.466.979 10.744-1.943a10.746 10.746 0 0 0 1.504-1.668c2.635-3.596 2.853-8.588.308-12.416-3.428-5.153-8.86-6.062-16.074-2.599-2.049-5.236-4.152-10.443-6.111-15.704-.662-1.774-1.514-2.868-3.477-3.5-3.278-1.057-5.042-4.251-4.714-7.502.323-3.217 2.616-5.841 5.718-6.552 3.075-.704 6.371.68 7.983 3.437 1.318 2.252 1.506 4.605.31 6.985-.333.663-.733 1.295-1.178 2.074 1.585 4.025 3.197 8.11 4.795 12.159 11.214-1.809 18.476 5.284 20.483 12.062a17.816 17.816 0 0 1-.296 11.028z"/>
  <path fill="#C73A64" d="M131.517 56.353c.195 4.565 3.858 7.865 8.164 7.363 4.568-.532 7.512-4.451 6.466-9.055-.378-1.665.138-2.627 1.066-3.763 3.615-4.43 7.178-8.907 10.887-13.523-6.489-4.487-8.39-9.497-5.896-14.947 2.194-4.803 7.672-7.376 12.67-5.884 2.493.744 4.586 2.102 6.052 4.34 2.218 3.387 2.318 6.99.959 10.794l5.799 2.487c3.564-6.685 1.713-15.344-4.271-20.5-6.23-5.368-15.239-5.693-21.868-.78-3.462 2.565-5.639 5.983-6.622 10.156-1.392 5.903.398 11.078 3.969 15.792l-8.163 10.137c-.618-.04-.99-.086-1.362-.085-4.427.001-8.025 3.428-7.85 7.468z"/>
  <path fill="#4C4C4C" d="M192.784 56.843c-2.008-6.779-9.27-13.872-20.483-12.062-1.598-4.049-3.21-8.134-4.795-12.159.444-.779.845-1.411 1.178-2.074 1.196-2.38 1.009-4.733-.31-6.985-1.612-2.757-4.908-4.141-7.983-3.437-3.102.71-5.395 3.335-5.718 6.552-.328 3.251 1.436 6.445 4.714 7.502 1.963.632 2.814 1.726 3.477 3.5 1.959 5.26 4.062 10.467 6.111 15.704 7.214-3.463 12.646-2.555 16.074 2.599 2.545 3.828 2.327 8.82-.308 12.416-.438.597-.935 1.16-1.504 1.668-3.278 2.922-6.926 3.514-10.744 1.943-1.646-.677-3.322-1.749-5.016-3.219-1.92 1.19-3.716 2.31-5.502 3.42a19.82 19.82 0 0 0 2.086 2.351c5.411 5.205 13.065 6.423 19.897 3.016 4.115-2.054 7.071-5.592 8.53-9.707a17.803 17.803 0 0 0 .296-11.028z"/>
  <path fill="#4B4A4B" d="M133.258 73.031c4.022 1.246 7.986 1.103 11.858-.427 4.983-1.967 8.245-5.706 10.203-10.631l12.935 1.826c.455.819.798 1.6 1.273 2.283 2.327 3.316 6.933 4.113 10.242 1.809 3.436-2.391 4.239-7.103 1.787-10.45-2.4-3.276-7.157-4.227-10.193-1.546-1.845 1.629-3.496 1.62-5.593 1.288-5.369-.842-10.762-1.545-16.142-2.304-.719 7.616-4.246 11.93-10.078 12.25-5.711.311-10.429-3.247-11.5-8.674-1.217-6.167 1.976-10.512 9.815-13.21l-.809-6.243c-8.214.612-15.286 7.501-15.897 16.29-.537 7.755 4.695 15.449 12.099 17.739z"/>
  <path fill="#F2692B" d="M175.504 105.948c-.524-1.786-1.026-1.63-2.517-1.625-6.099.114-11.144-6.232-11.401-12.051-.038-.831-.546-1.825-1.254-2.252-2.684-1.597-6.068-4.284-2.689-10.862a28.54 28.54 0 0 1-2.168-2.49c-.744.094-1.488.183-2.232.267-10.638 1.21-21.167 1.243-30.674-5.467-9.257-6.534-9.171-17.672-7.88-25.861.463-2.935 1.079-5.495 1.477-7.323C118.71 26.595 134.617 10.189 145.604 0h-39.766L73.724 44.423c-7.869 11.351-11.311 24.787-9.012 40.413 1.697 11.54 7.485 22.206 14.369 31.011 13.509 17.274 31.818 27.762 54.37 28.837 23.989 1.144 43.93-7.423 59.609-25.779 2.294-2.688 4.6-5.25 5.771-8.637-10.235 6.068-21.812.836-23.327-4.32z"/>
</svg>