<svg xmlns="http://www.w3.org/2000/svg" width="464" height="261">
  <path fill="#805648" d="M92.716 212.968h1.173v2.77h-1.173z"/>
  <path fill="#8FB840" d="M93.303 176.614l-5.412 36.354h10.823z"/>
  <g fill="#462D3B">
    <path d="M19.938 47.913c.495 1.542 1.774 2.559 3.229 2.559 1.513 0 2.676-.698 2.676-2.269 0-3.315-8.405-3.286-8.405-9.481 0-3.141 2.298-5.555 5.613-5.555s5.206 1.832 6.194 4.392l-3.286 2.036c-.494-1.687-1.367-2.792-2.908-2.792-1.076 0-1.832.669-1.832 1.803 0 3.606 8.404 2.879 8.404 9.597 0 3.606-2.675 5.904-6.456 5.904-3.141 0-5.438-1.629-6.456-4.014l3.227-2.18zM32.996 53.816V33.458h3.781v20.358h-3.781zM53.588 53.816V41.282c0-.582.029-1.396.029-1.396h-.059s-.349.698-.64 1.163l-3.49 5.875h-.058l-3.432-5.817c-.262-.465-.698-1.28-.698-1.28h-.059s.029.844.029 1.455v12.535h-3.78V33.458h4.188l3.083 5.468c.262.465.669 1.28.669 1.28h.058s.437-.814.698-1.309l3.054-5.438h4.188v20.358h-3.78zM62.021 53.816V33.458h5.642c4.624 0 6.544 3.723 6.544 7.271s-2.152 7.416-7.097 7.416h-1.309v5.671h-3.78zm5.206-9.306c2.152 0 3.229-1.745 3.229-3.723 0-2.065-1.105-3.723-3.257-3.723h-1.396v7.445h1.424zM77.318 53.816V33.458H81.1v16.723h5.933v3.635h-9.715zM96.688 53.816h-3.811v-5.729l-4.915-14.629h4.246l2.036 7.3c.291 1.076.523 2.56.523 2.56h.059c.029-.291.232-1.483.523-2.56l2.007-7.3h4.275l-4.944 14.804v5.554zM113.206 47.913c.495 1.542 1.774 2.559 3.229 2.559 1.513 0 2.676-.698 2.676-2.269 0-3.315-8.405-3.286-8.405-9.481 0-3.141 2.298-5.555 5.613-5.555s5.206 1.832 6.194 4.392l-3.286 2.036c-.494-1.687-1.367-2.792-2.908-2.792-1.076 0-1.832.669-1.832 1.803 0 3.606 8.404 2.879 8.404 9.597 0 3.606-2.675 5.904-6.456 5.904-3.141 0-5.438-1.629-6.456-4.014l3.227-2.18zM138.305 50.094c-1.018 2.385-2.908 4.014-6.05 4.014-5.612 0-7.154-5.177-7.154-10.47 0-5.293 1.542-10.47 7.154-10.47 3.315 0 5.206 1.832 6.195 4.392l-3.286 2.036c-.495-1.687-1.367-2.792-2.909-2.792-2.588 0-3.373 3.17-3.373 6.834s.785 6.834 3.373 6.834c1.454 0 2.327-1.018 2.821-2.559l3.229 2.181zM150.403 53.816v-7.649h-5.235v7.649h-3.781V33.458h3.781v9.074h5.235v-9.074h3.78v20.358h-3.78zM158.836 53.816V33.458h10.819v3.636h-7.038V42.3h5.933v3.636h-5.933v4.246h7.038v3.635h-10.819zM174.047 53.816V33.458h5.264c5.613 0 7.445 4.886 7.445 10.179s-1.832 10.179-7.445 10.179h-5.264zm5.264-3.635c2.588 0 3.664-2.879 3.664-6.544s-1.076-6.543-3.664-6.543h-1.483v13.087h1.483zM199.146 33.458h3.78V47.04c0 4.915-2.646 7.067-6.194 7.067s-6.312-2.152-6.312-7.097V33.458h3.781v13.756c0 2.007.728 3.257 2.472 3.257 1.833 0 2.473-1.309 2.473-3.286V33.458zM207.578 53.816V33.458h3.781v16.723h5.933v3.635h-9.714zM220.201 53.816V33.458h10.818v3.636h-7.038V42.3h5.933v3.636h-5.933v4.246h7.038v3.635h-10.818z"/>
    <g>
      <path d="M26.606 82.067l-.308-2.405H22.32l-.247 2.405h-5.365l4.625-21.586h6.045l4.625 21.586h-5.397zm-1.88-13.383c-.185-1.233-.339-2.991-.339-2.991h-.062s-.186 1.758-.37 2.991l-.864 6.476h2.498l-.863-6.476zM36.719 82.067V60.481h6.414c4.935 0 6.97 4.255 6.97 7.679 0 4.132-2.313 7.895-7.186 7.895h-1.079v6.013h-5.119zm6.075-10.608c1.604 0 2.22-1.573 2.22-3.207 0-1.758-.647-3.207-2.251-3.207h-.925v6.414h.956zM55.034 82.067V60.481h6.414c4.935 0 6.97 4.255 6.97 7.679 0 4.132-2.313 7.895-7.186 7.895h-1.079v6.013h-5.119zm6.075-10.608c1.604 0 2.22-1.573 2.22-3.207 0-1.758-.647-3.207-2.251-3.207h-.925v6.414h.956zM72.424 71.274c0-5.736 1.325-11.225 7.309-11.225 6.013 0 7.309 5.489 7.309 11.225s-1.296 11.225-7.309 11.225c-5.984 0-7.309-5.489-7.309-11.225zm9.498 0c0-3.947-.278-6.291-2.189-6.291-1.882 0-2.189 2.344-2.189 6.291s.339 6.291 2.189 6.291c1.88 0 2.189-2.344 2.189-6.291zM92.28 82.067V60.481h5.119v21.586H92.28zM113.402 82.067l-3.7-8.265c-.709-1.573-1.326-3.546-1.326-3.546h-.062s.062 2.066.062 3.824v7.987h-4.811V60.481h5.242l3.361 7.401c.71 1.542 1.48 3.701 1.48 3.701h.062s-.062-2.22-.062-4.04v-7.062h4.842v21.586h-5.088zM126.906 82.067V65.415h-3.176v-4.934h11.502v4.934h-3.176v16.652h-5.15zM152.777 82.067V71.089c0-1.356.092-2.59.092-2.59h-.062s-.463.925-1.295 2.066l-2.405 3.299h-.124l-2.405-3.299c-.832-1.141-1.264-2.066-1.264-2.066h-.062s.03 1.265.03 2.59v10.979h-4.811V60.481h5.119l1.912 2.745a31.36 31.36 0 0 1 1.511 2.375h.062s.647-1.049 1.542-2.375l1.881-2.745h5.089v21.586h-4.81zM163.752 82.067V60.481h11.996v4.687h-6.877V69.3h5.735v4.502h-5.735v3.577h6.877v4.688h-11.996zM191.441 82.067l-3.7-8.265c-.709-1.573-1.326-3.546-1.326-3.546h-.062s.062 2.066.062 3.824v7.987h-4.811V60.481h5.242l3.361 7.401c.71 1.542 1.48 3.701 1.48 3.701h.062s-.062-2.22-.062-4.04v-7.062h4.842v21.586h-5.088zM204.946 82.067V65.415h-3.176v-4.934h11.502v4.934h-3.176v16.652h-5.15zM221.658 75.437c.524 1.326 1.665 2.221 2.93 2.221 1.048 0 1.604-.617 1.604-1.388 0-2.96-8.388-3.639-8.388-9.961 0-3.546 2.651-6.26 6.599-6.26 3.054 0 5.366 1.635 6.507 4.657l-4.07 2.405c-.339-1.418-1.326-2.529-2.528-2.529-.895 0-1.48.617-1.48 1.419 0 3.053 8.48 3.146 8.48 10.022 0 4.04-2.961 6.476-6.908 6.476-3.484 0-5.735-1.912-7.03-4.471l4.284-2.591z"/>
    </g>
    <path d="M16.727 20.522h214.675v6.06H16.727zM16.727 88.84h214.675v6.058H16.727z"/>
  </g>
  <g fill="#FFF">
    <path d="M19.596 128.318v-25.101h6.956c5.701 0 8.068 4.59 8.068 8.964s-2.654 9.144-8.75 9.144h-1.613v6.992h-4.661zm6.418-11.475c2.653 0 3.98-2.151 3.98-4.59 0-2.546-1.362-4.59-4.017-4.59h-1.721v9.18h1.758zM48.927 128.318l-3.119-7.745c-.358.036-.718.036-1.076.036h-1.613v7.709h-4.661v-25.101h6.956c5.701 0 8.068 4.231 8.068 8.606 0 2.761-1.076 5.522-3.371 7.208l3.766 9.287h-4.95zm-4.052-12.192c2.653 0 3.98-1.793 3.98-4.231 0-2.546-1.362-4.231-4.017-4.231h-1.721v8.462h1.758zM57.103 115.768c0-6.885 2.079-12.909 8.642-12.909s8.642 6.024 8.642 12.909-2.079 12.909-8.642 12.909-8.642-6.025-8.642-12.909zm12.622 0c0-5.235-1.112-8.427-3.98-8.427-2.869 0-3.98 3.191-3.98 8.427s1.147 8.427 3.98 8.427 3.98-3.192 3.98-8.427z"/>
  </g>
  <path fill="#8FB840" d="M0 213.97h463.997v8.125H0z"/>
  <path fill="#8C8D35" d="M0 222.103h463.997v18.455H0z"/>
  <path fill="#C8D968" d="M1.065 199.728c0-8.222 6.665-14.887 14.887-14.887.384 0 .761.029 1.138.058a22.076 22.076 0 0 1-1.566-8.185c0-12.238 9.921-22.161 22.161-22.161 3.04 0 5.937.614 8.572 1.722a14.938 14.938 0 0 1-.253-2.676c0-8.222 6.666-14.887 14.888-14.887 3.717 0 7.108 1.371 9.718 3.625 6.233-5.307 14.307-8.518 23.134-8.518 18.751 0 34.116 14.455 35.588 32.827 10.29 2.978 17.817 12.464 17.817 23.714 0 13.638-11.056 24.693-24.691 24.693H12.959 8.833a5.312 5.312 0 0 1-5.312-5.312c0-.889.238-1.713.624-2.449-1.758-2.268-3.08-4.866-3.08-7.564z"/>
  <path fill="#C8D968" d="M87.891 195.003c0-10.756 8.72-19.475 19.476-19.475.503 0 .996.037 1.489.074a28.912 28.912 0 0 1-2.051-10.707c0-16.012 12.98-28.993 28.993-28.993 3.977 0 7.768.802 11.218 2.251a19.505 19.505 0 0 1-.333-3.5c0-10.756 8.722-19.476 19.478-19.476 4.863 0 9.3 1.794 12.712 4.742 8.155-6.943 18.718-11.142 30.267-11.142 24.532 0 44.635 18.91 46.56 42.946 13.463 3.896 23.31 16.308 23.31 31.025 0 17.842-14.463 32.305-32.304 32.305H103.451h-5.399a6.95 6.95 0 0 1-6.949-6.949c0-1.163.312-2.242.818-3.205-2.303-2.966-4.03-6.367-4.03-9.896z"/>
  <path fill="#805648" d="M71.815 199.619h3.691v18.464h-3.691z"/>
  <path fill="#8FB840" d="M73.661 145.456c-10.089 0-18.269 27.996-18.269 38.084 0 10.09 8.18 18.269 18.269 18.269s18.268-8.179 18.268-18.269c0-10.088-8.179-38.084-18.268-38.084z"/>
  <circle cx="99.046" cy="194.108" r="14.232" fill="#8C8D35"/>
  <path fill="#805648" d="M97.342 208.341h3.069v11.968h-3.069z"/>
  <path fill="#0C8FAF" d="M356.804 67.722h97.913v148.576h-97.913z"/>
  <path fill="#6ECCDE" d="M368.3 91.926h16.775v25.18H368.3z"/>
  <path fill="#108093" d="M367.146 111.761h19.084v6.678h-19.084zM376.698 86.186v-.014l-.01.007-.012-.007v.014l-9.529 5.74h19.082z"/>
  <path fill="#8C8D35" d="M367.147 110.206h19.081v1.556h-19.081z"/>
  <path fill="#6ECCDE" d="M368.3 135.354h16.775v25.18H368.3z"/>
  <path fill="#108093" d="M367.146 153.855h19.084v6.679h-19.084zM376.698 129.614v-.013l-.01.007-.012-.007v.013l-9.529 5.74h19.082z"/>
  <path fill="#8C8D35" d="M367.147 153.882h19.081v1.557h-19.081z"/>
  <path fill="#6ECCDE" d="M368.3 177.328h16.775v25.181H368.3z"/>
  <path fill="#108093" d="M367.146 195.978h19.084v6.679h-19.084zM376.698 171.588v-.014l-.01.007-.012-.007v.014l-9.529 5.74h19.082z"/>
  <path fill="#8C8D35" d="M367.147 195.978h19.081v1.555h-19.081z"/>
  <path fill="#6ECCDE" d="M397.353 91.926h16.775v25.18h-16.775z"/>
  <path fill="#108093" d="M396.198 111.761h19.083v6.678h-19.083zM405.752 86.186v-.014l-.012.007-.011-.007v.014l-9.529 5.74h19.08z"/>
  <path fill="#8C8D35" d="M396.2 110.206h19.08v1.556H396.2z"/>
  <g>
    <path fill="#6ECCDE" d="M397.353 135.354h16.775v25.18h-16.775z"/>
    <path fill="#108093" d="M396.198 153.855h19.083v6.679h-19.083zM405.752 129.614v-.013l-.012.007-.011-.007v.013l-9.529 5.74h19.08z"/>
    <path fill="#8C8D35" d="M396.2 153.882h19.08v1.557H396.2z"/>
  </g>
  <g>
    <path fill="#6ECCDE" d="M397.353 177.328h16.775v25.181h-16.775z"/>
    <path fill="#108093" d="M396.198 195.978h19.083v6.679h-19.083zM405.752 171.588v-.014l-.012.007-.011-.007v.014l-9.529 5.74h19.08z"/>
    <path fill="#8C8D35" d="M396.2 195.978h19.08v1.555H396.2z"/>
  </g>
  <g>
    <path fill="#6ECCDE" d="M426.405 91.926h16.774v25.18h-16.774z"/>
    <path fill="#108093" d="M425.25 111.761h19.084v6.678H425.25zM434.803 86.186v-.014l-.011.007-.011-.007v.014l-9.528 5.74H444.331z"/>
    <path fill="#8C8D35" d="M425.253 110.206h19.078v1.556h-19.078z"/>
    <g>
      <path fill="#6ECCDE" d="M426.405 135.354h16.774v25.18h-16.774z"/>
      <path fill="#108093" d="M425.25 153.855h19.084v6.679H425.25zM434.803 129.614v-.013l-.011.007-.011-.007v.013l-9.528 5.74H444.331z"/>
      <path fill="#8C8D35" d="M425.253 153.882h19.078v1.557h-19.078z"/>
    </g>
    <g>
      <path fill="#6ECCDE" d="M426.405 177.328h16.774v25.181h-16.774z"/>
      <path fill="#108093" d="M425.25 195.978h19.084v6.679H425.25zM434.803 171.588v-.014l-.011.007-.011-.007v.014l-9.528 5.74H444.331z"/>
      <path fill="#8C8D35" d="M425.253 195.978h19.078v1.555h-19.078z"/>
    </g>
  </g>
  <g>
    <path fill="#2D4861" d="M342.531 54.357h112.024v5.084H342.531z"/>
    <path fill="#2D4861" d="M425.954 57.691H334.309l8.305 10.168h111.861l8.305-10.168z"/>
    <path fill="#108093" d="M339.537 64.093l3.077 3.766h111.861l3.078-3.766zM371.135 57.691h-36.826l2.132 2.613h124.205l2.134-2.613h-36.826z"/>
  </g>
  <path fill="#11A8CE" d="M244.778 73.682h112.025v148.575H244.778z"/>
  <g fill="#345172">
    <path d="M301.481 177.534h13.928v44.723h-13.928zM286.172 177.534h13.93v44.723h-13.93z"/>
  </g>
  <path fill="#6ECCDE" d="M301.331 93.467h14.078v30.938h-14.078zM301.331 135.562h14.078v30.933h-14.078zM286.172 93.467h13.97v30.938h-13.97zM286.172 135.562h13.97v30.933h-13.97z"/>
  <g>
    <path fill="#6ECCDE" d="M324.499 97.887h16.774v25.18h-16.774z"/>
    <path fill="#0C8FAF" d="M323.345 117.72h19.083v6.679h-19.083zM332.897 92.146v-.013l-.011.007-.01-.007v.013l-9.53 5.741h19.08z"/>
    <path fill="#8FB840" d="M323.346 116.165h19.08v1.555h-19.08z"/>
    <path fill="#E6EBEC" d="M324.499 99.039l16.774 16.775V97.887h-16.774z"/>
  </g>
  <g>
    <path fill="#6ECCDE" d="M260.306 97.887h16.775v25.18h-16.775z"/>
    <path fill="#0C8FAF" d="M259.151 117.72h19.084v6.679h-19.084zM268.702 92.146v-.013l-.01.007-.01-.007v.013l-9.531 5.741h19.081z"/>
    <path fill="#8FB840" d="M259.151 116.165h19.081v1.555h-19.081z"/>
    <path fill="#E6EBEC" d="M260.306 99.039l16.773 16.775V97.887h-16.773z"/>
  </g>
  <g>
    <path fill="#6ECCDE" d="M324.499 141.314h16.774v25.18h-16.774z"/>
    <path fill="#0C8FAF" d="M323.345 159.815h19.083v6.679h-19.083zM332.897 135.575v-.013l-.011.005-.01-.005v.013l-9.53 5.739h19.08z"/>
    <path fill="#8FB840" d="M323.346 159.843h19.08v1.555h-19.08z"/>
    <path fill="#E6EBEC" d="M324.499 142.467l16.774 16.774v-17.927h-16.774z"/>
  </g>
  <g>
    <path fill="#6ECCDE" d="M260.306 141.314h16.775v25.18h-16.775z"/>
    <path fill="#0C8FAF" d="M259.151 159.815h19.084v6.679h-19.084zM268.702 135.575v-.013l-.01.005-.01-.005v.013l-9.531 5.739h19.081z"/>
    <path fill="#8FB840" d="M259.151 159.843h19.081v1.555h-19.081z"/>
    <path fill="#E6EBEC" d="M260.306 142.467l16.773 16.774v-17.927h-16.773z"/>
  </g>
  <g>
    <path fill="#6ECCDE" d="M324.499 183.288h16.774v25.18h-16.774z"/>
    <path fill="#0C8FAF" d="M323.345 201.938h19.083v6.679h-19.083zM332.897 177.548v-.014l-.011.007-.01-.007v.014l-9.53 5.74h19.08z"/>
    <path fill="#8FB840" d="M323.346 201.938h19.08v1.556h-19.08z"/>
    <path fill="#E6EBEC" d="M324.499 184.44l16.774 16.776v-17.928h-16.774z"/>
  </g>
  <g>
    <path fill="#6ECCDE" d="M260.306 183.288h16.775v25.18h-16.775z"/>
    <path fill="#0C8FAF" d="M259.151 201.938h19.084v6.679h-19.084zM268.702 177.548v-.014l-.01.007-.01-.007v.014l-9.531 5.74h19.081z"/>
    <path fill="#8FB840" d="M259.151 201.938h19.081v1.556h-19.081z"/>
    <path fill="#E6EBEC" d="M260.306 184.44l16.773 16.776v-17.928h-16.773z"/>
  </g>
  <g>
    <path fill="#345172" d="M244.778 60.179h112.025v5.083H244.778z"/>
    <path fill="#345172" d="M328.2 63.514h-91.646l8.306 10.168h111.86l8.306-10.168z"/>
    <path fill="#0C8FAF" d="M241.782 69.915l3.078 3.767h111.86l3.077-3.767zM273.38 63.514h-36.826l2.134 2.612h124.204l2.134-2.612H328.2z"/>
  </g>
  <g>
    <path fill="#805648" d="M36.035 205.595h2.713v13.564h-2.713z"/>
    <path fill="#8FB840" d="M37.392 165.804c-7.412 0-13.421 20.566-13.421 27.979s6.009 13.42 13.421 13.42c7.411 0 13.421-6.008 13.421-13.42s-6.01-27.979-13.421-27.979z"/>
  </g>
  <g>
    <path fill="#A6ABBB" d="M0 239.782h463.997V261H0z"/>
    <path fill="#C4C7D8" d="M454.334 251.165h-11.4v-1.551h11.4v1.551zm-22.803 0h-11.403v-1.551h11.403v1.551zm-22.803 0h-11.402v-1.551h11.402v1.551zm-22.804 0h-11.402v-1.551h11.402v1.551zm-22.806 0h-11.4v-1.551h11.4v1.551zm-22.803 0h-11.401v-1.551h11.401v1.551zm-22.802 0h-11.401v-1.551h11.401v1.551zm-22.804 0h-11.404v-1.551h11.404v1.551zm-22.805 0h-11.4v-1.551h11.4v1.551zm-22.803 0H237.7v-1.551h11.401v1.551zm-22.804 0h-11.401v-1.551h11.401v1.551zm-22.802 0h-11.403v-1.551h11.403v1.551zm-22.804 0h-11.403v-1.551h11.403v1.551zm-22.805 0h-11.401v-1.551h11.401v1.551zm-22.804 0h-11.401v-1.551h11.401v1.551zm-22.804 0h-11.402v-1.551h11.402v1.551zm-22.803 0h-11.4v-1.551h11.4v1.551zm-22.802 0H55.27v-1.551h11.403v1.551zm-22.804 0H32.468v-1.551h11.401v1.551zm-22.805 0H9.661v-1.551h11.403v1.551z"/>
  </g>
  <g>
    <path fill="#805648" d="M129.104 212.9h2.067v4.88h-2.067z"/>
    <path fill="#8FB840" d="M130.14 148.83l-9.539 64.07h19.075z"/>
  </g>
  <g>
    <path fill="#805648" d="M204.406 199.968h3.691v18.464h-3.691z"/>
    <path fill="#8FB840" d="M206.252 145.804c-10.089 0-18.269 27.997-18.269 38.086s8.18 18.268 18.269 18.268 18.268-8.179 18.268-18.268-8.179-38.086-18.268-38.086z"/>
  </g>
  <g>
    <path fill="#462D3B" d="M217.412 222.952c-.142 1.604.386 16.287-1.68 22.608-1.276 3.902-.386 4.177 4.623 3.913 2.311-9.205 1.945-18.115-2.943-26.521z"/>
    <path fill="#FFF8F0" d="M230.377 216.267c1.753-2.317 4.52-5.146 6.973-7.33 1.64-1.461 3.14-2.639 4.098-3.17.94-.525 2.203-1.221 2.573-2.176-1.613-1.461-3.462-2.273-5.497-2.866-4.279-1.245-9.163 1.2-9.856 5.901-.371 2.516-.342 4.465-.046 7.42l.039.027c.632.975.053 1.968-.741 2.312-.845.367-1.824.588-2.768-.158-.653-.516-.728-1.086-.444-1.707h-.001c-.184-2.107-.591-4.717-1.442-6.677-2.307-5.316-6.758-5.837-10.722-4.501-2.252.758-4.034 2.428-5.23 4.584 1.465.229 5.775 2.052 10.021 4.601 2.182 1.31 4.347 2.81 6.1 4.385 2.305 2.07 4.915 1.679 6.943-.645zm1.727-12.4a.743.743 0 0 1 1.023.247c.36.593.957.715 1.394.631.562-.107.96-.535 1.062-1.145.071-.406.464-.686.859-.609a.744.744 0 0 1 .61.858c-.209 1.228-1.071 2.132-2.249 2.358a2.85 2.85 0 0 1-.877.031 2.82 2.82 0 0 1-2.069-1.348.744.744 0 0 1 .247-1.023zm-15.665 4.532a2.836 2.836 0 0 1-.846-.164 2.824 2.824 0 0 1-1.722-1.79.745.745 0 1 1 1.415-.464c.216.659.769.913 1.214.932.57.022 1.057-.303 1.294-.872a.745.745 0 0 1 1.373.579c-.482 1.146-1.527 1.828-2.728 1.779z"/>
    <path fill="#F2692B" d="M212.542 203.343c3.964-1.336 8.415-.815 10.722 4.501.852 1.96 1.259 4.569 1.442 6.677h.001c.049-.104.104-.211.171-.318.712-.558 2.545-.994 3.743-.156-.296-2.955-.325-4.904.046-7.42.693-4.701 5.577-7.146 9.856-5.901 2.035.593 3.884 1.405 5.497 2.866.313-.49.104-1.092-.275-1.824-2.23-4.304-3.938-7.801-5.91-10.288-.096-.12-.192-.229-.288-.345-.614.074-1.429-.422-1.595-1.084-.524-.996-2.973-2.612-4.623-3.002l-.008.025c-.485.074-1.32-.088-1.645-.854l.004-.011c-1.954-.379-4.194-.407-6.87-.143-3.048.303-5.418 1.137-7.27 2.184.03.049.064.096.091.146-.117.822-.886 1.191-1.375 1.24-.013-.025-.033-.053-.049-.079-1.519.709-3.663 2.956-3.927 4.091.006.686-.663 1.376-1.276 1.454l-.046-.053a.353.353 0 0 1-.117.072c-2.188 4.437-1.646 7.892-2.448 11.841-.135.665.348.893.918.965 1.197-2.156 2.979-3.826 5.231-4.584z"/>
    <path fill="#FFF8F0" d="M236.489 185.944c-.236-1.03-.388-2.596-1.567-2.59-1.743.008-3.427 3.074-3.593 3.693 1.65.39 4.099 2.006 4.623 3.002.655-1.278.834-2.806.537-4.105z"/>
    <path fill="#462D3B" d="M224.878 214.202a3.012 3.012 0 0 0-.171.318c-.283.621-.209 1.191.444 1.707.943.746 1.923.525 2.768.158.794-.345 1.373-1.338.741-2.312-.014-.011-.026-.018-.039-.027-1.198-.838-3.031-.401-3.743.156zM231.321 187.073l.008-.025c.166-.619 1.85-3.686 3.593-3.693 1.18-.006 1.331 1.56 1.567 2.59.297 1.299.118 2.827-.537 4.105.166.662.98 1.158 1.595 1.084h.009c1.276-2.314 1.142-6.99-.779-8.938-.762-.772-1.898-1.235-2.801-.575-1.849 1.354-3.639 2.047-4.295 4.588l-.004.011c.324.765 1.159.927 1.644.853z"/>
    <path fill="#FFF8F0" d="M209.338 186.657c-.213-.019-.382-.009-.519.039-.17.146-.301.352-.399.597-.064.388-.04.981.042 1.869.124 1.326.864 3.413 1.819 4.485.264-1.135 2.408-3.382 3.927-4.091-.608-1.013-3.159-2.743-4.87-2.899z"/>
    <path fill="#462D3B" d="M210.281 193.647c-.955-1.072-1.695-3.159-1.819-4.485-.082-.888-.106-1.481-.042-1.869.056-.338.183-.521.399-.597.137-.048.306-.058.519-.039 1.711.156 4.262 1.886 4.87 2.899.016.026.036.054.049.079.489-.049 1.258-.418 1.375-1.24-.026-.051-.061-.098-.091-.146-1.326-2.199-4.371-3.211-6.578-3.631-1.618-.308-1.767.529-2.155 1.542-.973 2.533.355 6.944 2.151 8.889l.046.053c.613-.079 1.282-.769 1.276-1.455z"/>
    <path fill="#B94527" d="M229.637 236.245c.148-2.818 1.858-4.828 4.341-4.977.516-.109.871.025.868-.371-.008-.77-1.803-.807-3.346-.141-2.182.943-2.828 2.965-3.045 5.488-.245 2.842 1.521 5.539 1.556 7.936a6.92 6.92 0 0 0 1.301-.41c-.043-1.55-1.786-4.883-1.675-7.525z"/>
    <path fill="#462D3B" d="M230.011 244.181c-1.4.311-2.952.336-3.777.42-2.959.305-4.256 1.902-3.926 4.93 4.007.291 6.7.26 10.705.01.05-2.455-.673-3.885-1.701-5.77a6.993 6.993 0 0 1-1.301.41zM231.856 204.892a2.824 2.824 0 0 0 2.069 1.348c.286.034.581.025.877-.031 1.178-.227 2.04-1.131 2.249-2.358a.745.745 0 0 0-1.469-.249c-.102.609-.499 1.037-1.062 1.145a1.315 1.315 0 0 1-1.394-.631.744.744 0 1 0-1.27.776zM219.168 206.618a.745.745 0 0 0-1.373-.579c-.237.569-.724.895-1.294.872a1.316 1.316 0 0 1-1.214-.932.745.745 0 0 0-1.415.464c.28.854.92 1.501 1.722 1.79.268.096.55.152.846.164 1.2.051 2.245-.631 2.728-1.779z"/>
    <path fill="#FFF8F0" d="M269.632 201.407c-3.805 1.564-6.589 3.697-8.646 7.762.387.759.903 1.422 1.818 1.435.849.013 1.074.539 1.384 1.169 1.065 2.164 3.588 2.737 5.504 1.236.588-.461.93-1.048 1.838-.454 1.771 1.157 3.537.655 5.234-.302a21.936 21.936 0 0 0-4.333-10.229c-.716-.932-1.703-1.067-2.799-.617z"/>
    <path fill="#F2692B" d="M276.765 212.501c-1.697.957-3.463 1.458-5.234.303-.908-.596-1.25-.008-1.838.453-1.916 1.502-4.438.928-5.504-1.236-.31-.631-.535-1.156-1.384-1.169-.915-.014-1.432-.675-1.818-1.435-1.058 1.793-2.539 4.248-3.651 7.797-1.69 5.398-1.802 9.163-2.944 14.635-.829 3.971-2.631 8.082-6.036 10.525-.57.409-1.18.777-1.844 1.084-1.186.52-1.582.148-1.582.148.306-1.456.458-3.497.531-5.221l.031-.026c.019-.774.028-1.548.03-2.317v-.321l-.001-.149-.004-.523c-.11-14.959-3.87-21.531-8.167-26.111-2.453 2.185-5.22 5.013-6.973 7.33-2.028 2.324-4.638 2.716-6.944.646-1.753-1.575-3.918-3.075-6.1-4.385.212 3.514-.012 7.156.079 10.425 4.888 8.406 5.254 17.315 2.943 26.521.649.02 1.302.037 1.952.057-.33-3.027.967-4.625 3.926-4.93.825-.084 2.377-.109 3.777-.42-.034-2.396-1.801-5.094-1.556-7.936.217-2.523.863-4.545 3.045-5.488 1.543-.666 3.338-.629 3.346.141.003.396-.353.262-.868.371-2.482.148-4.192 2.158-4.341 4.977-.11 2.642 1.632 5.975 1.675 7.525 1.028 1.885 1.751 3.314 1.701 5.77.917-.041 2.075-.086 3.268-.136l.01-.02c2.6-.11 5.642-.228 7.401-.327l2.313-.069c.797.015 1.578.003 2.35-.029 9.409-.39 16.933-4.263 22.47-12.606 4.34-6.541 6.768-13.396 6.313-21.236-.05-.885-.372-2.618-.372-2.618z"/>
  </g>
</svg>
