<svg xmlns="http://www.w3.org/2000/svg" width="464" height="261"><path fill="#F6AD3B" d="M60.277 37.731l49.282 42.53v137.51H10.997V80.261z"/><path fill="#88E8FF" d="M80.245 98.921H95.09v20.935H80.245zM42.008 98.921h36.54v20.935h-36.54zM25.464 98.921h14.845v20.935H25.464zM80.245 140.692H95.09v26.611H80.245zM25.464 140.692h14.845v26.611H25.464zM52.645 140.692H67.49v26.611H52.645z"/><g fill="#88E8FF"><path d="M79.396 177.016H95.09v26.609H79.396zM25.464 177.016h15.694v26.609H25.464z"/></g><path fill="#88E8FF" d="M80.245 69.037l14.947 12.898v7.273H80.245zM61.126 52.536l17.422 15.035v21.637H61.126z"/><g fill="#88E8FF"><path d="M42.008 67.571l17.42-15.035v36.672h-17.42zM40.31 69.037v20.171H25.363v-7.273z"/></g><path fill="#DF8E36" d="M109.559 207.856v9.915H10.997v-9.915z"/><path fill="#E6ECED" d="M63.279 217.771h28.11l-9.917-9.915H53.363z"/><path fill="#F7724C" d="M46.202 177.016h28.15v40.755h-28.15z"/><path fill="#C1445A" d="M60.277 37.731l-49.28 42.53H.662L55.84 32.59l4.437-3.831 4.439 3.831 54.756 47.681-3.12-.01h-6.793z"/><path fill="#8EB740" d="M22.885 119.855H97.47v3.767H22.885z"/><path fill="#E86042" d="M59.854 177.864h.849v29.992h-.849z"/><g fill="#E86042"><path d="M61.702 191.474h.85v2.772h-.85zM58.003 191.474h.85v2.772h-.85z"/></g><path fill="#8EB740" d="M42.906 221.209h387.162v6.514H42.906z"/><path fill="#C7D967" d="M384.658 205.68c0-8.437-6.84-15.276-15.278-15.276-.395 0-.78.028-1.168.058a22.666 22.666 0 001.609-8.398c0-12.562-10.184-22.743-22.744-22.743-3.12 0-6.094.628-8.8 1.765.163-.893.261-1.807.261-2.746 0-8.438-6.842-15.277-15.279-15.277a15.203 15.203 0 00-9.973 3.72c-6.396-5.446-14.684-8.74-23.742-8.74-19.244 0-35.014 14.834-36.524 33.69-10.562 3.056-18.286 12.791-18.286 24.337 0 13.995 11.347 25.342 25.342 25.342H376.687a5.45 5.45 0 005.452-5.451 5.37 5.37 0 00-.642-2.513c1.806-2.332 3.161-4.999 3.161-7.768z"/><g><path fill="#7F5547" d="M242.53 209.717h2.626v13.127h-2.626z"/><path fill="#8EB740" d="M243.844 171.211c-7.173 0-12.987 19.904-12.987 27.076s5.814 12.986 12.987 12.986c7.172 0 12.987-5.814 12.987-12.986s-5.815-27.076-12.987-27.076z"/></g><path fill="#8C8D36" d="M0 213.103h463.997v18.456H0z"/><g><path fill="#8C8D36" d="M331.968 172.635c-9.414 0-17.048 7.633-17.048 17.047s7.634 17.047 17.048 17.047c9.412 0 17.045-7.633 17.045-17.047s-7.633-17.047-17.045-17.047z"/><path fill="#7F5547" d="M329.926 206.729h3.677v14.334h-3.677z"/></g><path fill="#8EB740" d="M0 221.103h463.997v18.456H0z"/><g><path fill="#098FAF" d="M134.446 97.195h78.708v119.432h-78.708z"/><path fill="#69D1E2" d="M143.688 116.651h13.484v20.241h-13.484z"/><path fill="#0A8093" d="M142.759 132.595H158.1v5.368h-15.341zM150.439 112.037v-.01l-.008.005-.009-.005v.01l-7.661 4.614H158.099z"/><path fill="#8C8D36" d="M142.761 131.345h15.337v1.25h-15.337z"/><path fill="#69D1E2" d="M143.688 151.561h13.484v20.241h-13.484z"/><path fill="#0A8093" d="M142.759 166.434H158.1v5.368h-15.341zM150.439 146.946v-.009l-.008.004-.009-.004v.009l-7.661 4.615H158.099z"/><path fill="#8C8D36" d="M142.761 166.455h15.337v1.25h-15.337z"/><path fill="#69D1E2" d="M143.688 185.301h13.484v20.24h-13.484z"/><path fill="#0A8093" d="M142.759 200.292H158.1v5.368h-15.341zM150.439 180.688v-.012l-.008.006-.009-.006v.012l-7.661 4.613H158.099z"/><path fill="#8C8D36" d="M142.761 200.292h15.337v1.25h-15.337z"/><path fill="#69D1E2" d="M167.041 116.651h13.486v20.241h-13.486z"/><path fill="#0A8093" d="M166.114 132.595h15.34v5.368h-15.34zM173.792 112.037v-.01l-.009.005-.008-.005v.01l-7.659 4.614h15.337z"/><path fill="#8C8D36" d="M166.116 131.345h15.337v1.25h-15.337z"/><g><path fill="#69D1E2" d="M167.041 151.561h13.486v20.241h-13.486z"/><path fill="#0A8093" d="M166.114 166.434h15.34v5.368h-15.34zM173.792 146.946v-.009l-.009.004-.008-.004v.009l-7.659 4.615h15.337z"/><path fill="#8C8D36" d="M166.116 166.455h15.337v1.25h-15.337z"/></g><g><path fill="#69D1E2" d="M167.041 185.301h13.486v20.24h-13.486z"/><path fill="#0A8093" d="M166.114 200.292h15.34v5.368h-15.34zM173.792 180.688v-.012l-.009.006-.008-.006v.012l-7.659 4.613h15.337z"/><path fill="#8C8D36" d="M166.116 200.292h15.337v1.25h-15.337z"/></g><g><path fill="#69D1E2" d="M190.395 116.651h13.484v20.241h-13.484z"/><path fill="#0A8093" d="M189.467 132.595h15.339v5.368h-15.339zM197.146 112.037v-.01l-.008.005-.009-.005v.01l-7.66 4.614h15.336z"/><path fill="#8C8D36" d="M189.469 131.345h15.335v1.25h-15.335z"/><g><path fill="#69D1E2" d="M190.395 151.561h13.484v20.241h-13.484z"/><path fill="#0A8093" d="M189.467 166.434h15.339v5.368h-15.339zM197.146 146.946v-.009l-.008.004-.009-.004v.009l-7.66 4.615h15.336z"/><path fill="#8C8D36" d="M189.469 166.455h15.335v1.25h-15.335z"/></g><g><path fill="#69D1E2" d="M190.395 185.301h13.484v20.24h-13.484z"/><path fill="#0A8093" d="M189.467 200.292h15.339v5.368h-15.339zM197.146 180.688v-.012l-.008.006-.009-.006v.012l-7.66 4.613h15.336z"/><path fill="#8C8D36" d="M189.469 200.292h15.335v1.25h-15.335z"/></g></g><g><path fill="#2B4760" d="M122.974 86.451h90.052v4.088h-90.052z"/><path fill="#2B4760" d="M190.033 89.132h-73.669l6.677 8.174h89.917l6.678-8.174z"/><path fill="#0A8093" d="M120.568 94.277l2.473 3.029h89.917l2.475-3.029zM145.966 89.132h-29.602l1.716 2.1h99.839l1.717-2.1h-29.603z"/></g><path fill="#11A7CE" d="M44.395 101.986h90.051v119.432H44.395z"/><g fill="#335171"><path d="M89.976 185.467h11.197v35.951H89.976zM77.669 185.467h11.198v35.951H77.669z"/></g><path fill="#69D1E2" d="M89.855 117.888h11.318v24.871H89.855zM89.855 151.728h11.318v24.865H89.855zM77.669 117.888h11.23v24.871h-11.23zM77.669 151.728h11.23v24.865h-11.23z"/><g><path fill="#69D1E2" d="M108.479 121.442h13.484v20.241h-13.484z"/><path fill="#098FAF" d="M107.551 137.386h15.34v5.368h-15.34zM115.229 116.828v-.01l-.009.005-.008-.005v.01l-7.66 4.614h15.337z"/><path fill="#8EB740" d="M107.552 136.135h15.337v1.251h-15.337z"/></g><g><path fill="#69D1E2" d="M56.878 121.442h13.484v20.241H56.878z"/><path fill="#098FAF" d="M55.949 137.386H71.29v5.368H55.949zM63.627 116.828v-.01l-.007.005-.01-.005v.01l-7.661 4.614H71.287z"/><path fill="#8EB740" d="M55.949 136.135h15.337v1.251H55.949z"/></g><g><path fill="#69D1E2" d="M108.479 156.353h13.484v20.24h-13.484z"/><path fill="#098FAF" d="M107.551 171.225h15.34v5.368h-15.34zM115.229 151.737v-.009l-.009.005-.008-.005v.009l-7.66 4.616h15.337z"/><path fill="#8EB740" d="M107.552 171.245h15.337v1.251h-15.337z"/></g><g><path fill="#69D1E2" d="M56.878 156.353h13.484v20.24H56.878z"/><path fill="#098FAF" d="M55.949 171.225H71.29v5.368H55.949zM63.627 151.737v-.009l-.007.005-.01-.005v.009l-7.661 4.616H71.287z"/><path fill="#8EB740" d="M55.949 171.245h15.337v1.251H55.949z"/></g><g><path fill="#69D1E2" d="M108.479 190.092h13.484v20.241h-13.484z"/><path fill="#098FAF" d="M107.551 205.083h15.34v5.368h-15.34zM115.229 185.477v-.01l-.009.005-.008-.005v.01l-7.66 4.615h15.337z"/><path fill="#8EB740" d="M107.552 205.083h15.337v1.249h-15.337z"/></g><g><path fill="#69D1E2" d="M56.878 190.092h13.484v20.241H56.878z"/><path fill="#098FAF" d="M55.949 205.083H71.29v5.368H55.949zM63.627 185.477v-.01l-.007.005-.01-.005v.01l-7.661 4.615H71.287z"/><path fill="#8EB740" d="M55.949 205.083h15.337v1.249H55.949z"/></g><g><path fill="#335171" d="M44.395 91.132h90.051v4.087H44.395z"/><path fill="#335171" d="M111.455 93.812h-73.67l6.677 8.174h89.917l6.677-8.174z"/><path fill="#098FAF" d="M41.988 98.957l2.474 3.029h89.917l2.475-3.029zM67.387 93.812H37.785l1.715 2.101h99.841l1.715-2.101h-29.601z"/></g></g><g><path fill="#F7724C" d="M219.046 94.309L185.335 120.1v108.691h67.422l.045-108.691z"/><path fill="#A57B6A" d="M210.459 194.397h17.239v34.394h-17.239z"/><g fill="#88E8FF"><path d="M194.199 168.478h7.377v19.499h-7.377zM194.199 197.171h7.377v19.499h-7.377zM194.199 139.784h7.377v19.499h-7.377z"/></g><g fill="#88E8FF"><path d="M208.326 168.478h7.377v19.499h-7.377zM208.326 139.784h7.377v19.499h-7.377z"/></g><g fill="#88E8FF"><path d="M222.453 168.478h7.376v19.499h-7.376zM222.453 139.784h7.376v19.499h-7.376z"/></g><g fill="#88E8FF"><path d="M236.58 168.478h7.378v19.499h-7.378zM236.58 197.171h7.378v19.499h-7.378zM236.58 139.784h7.378v19.499h-7.378z"/></g><path fill="#88E8FF" d="M208.326 111.091h7.377v19.499h-7.377zM222.453 111.091h7.376v19.499h-7.376z"/><path fill="#A57B6A" d="M219.046 94.309l33.756 25.791 10.469.005-44.227-33.654-44.159 33.654 10.45-.005z"/></g><g><path fill="#7F5547" d="M313.296 204.949h3.249v16.246h-3.249z"/><path fill="#8EB740" d="M314.92 157.289c-8.879 0-16.074 24.635-16.074 33.512 0 8.879 7.195 16.074 16.074 16.074 8.877 0 16.074-7.195 16.074-16.074 0-8.877-7.197-33.512-16.074-33.512z"/></g><g><path fill="#A6ABBA" d="M0 238.781h463.997V260H0z"/><path fill="#C4C8D8" d="M454.334 250.165h-11.4v-1.55h11.4v1.55zm-22.803 0h-11.403v-1.55h11.403v1.55zm-22.803 0h-11.402v-1.55h11.402v1.55zm-22.804 0h-11.402v-1.55h11.402v1.55zm-22.806 0h-11.4v-1.55h11.4v1.55zm-22.803 0h-11.401v-1.55h11.401v1.55zm-22.802 0h-11.401v-1.55h11.401v1.55zm-22.804 0h-11.404v-1.55h11.404v1.55zm-22.805 0h-11.4v-1.55h11.4v1.55zm-22.803 0H237.7v-1.55h11.401v1.55zm-22.804 0h-11.401v-1.55h11.401v1.55zm-22.802 0h-11.403v-1.55h11.403v1.55zm-22.804 0h-11.403v-1.55h11.403v1.55zm-22.805 0h-11.401v-1.55h11.401v1.55zm-22.804 0h-11.401v-1.55h11.401v1.55zm-22.804 0h-11.402v-1.55h11.402v1.55zm-22.803 0h-11.4v-1.55h11.4v1.55zm-22.802 0H55.27v-1.55h11.403v1.55zm-22.804 0H32.468v-1.55h11.401v1.55zm-22.805 0H9.661v-1.55h11.403v1.55z"/></g><g fill="#462D3B"><path d="M213.907 34.989c.495 1.542 1.774 2.559 3.229 2.559 1.513 0 2.676-.698 2.676-2.269 0-3.315-8.405-3.286-8.405-9.481 0-3.141 2.298-5.555 5.613-5.555s5.206 1.832 6.194 4.392l-3.286 2.036c-.494-1.687-1.367-2.792-2.908-2.792-1.076 0-1.832.669-1.832 1.803 0 3.606 8.404 2.879 8.404 9.597 0 3.606-2.675 5.904-6.456 5.904-3.141 0-5.438-1.629-6.456-4.014l3.227-2.18zM226.965 40.893V20.535h3.781v20.358h-3.781zM247.557 40.893V28.358c0-.582.029-1.396.029-1.396h-.059s-.349.698-.64 1.163L243.397 34h-.058l-3.432-5.817c-.262-.465-.698-1.28-.698-1.28h-.059s.029.844.029 1.455v12.535h-3.78V20.535h4.188l3.083 5.468c.262.465.669 1.28.669 1.28h.058s.437-.814.698-1.309l3.054-5.438h4.188v20.358h-3.78zM255.99 40.893V20.535h5.642c4.624 0 6.544 3.723 6.544 7.271s-2.152 7.416-7.097 7.416h-1.309v5.671h-3.78zm5.205-9.307c2.152 0 3.229-1.745 3.229-3.723 0-2.065-1.105-3.723-3.257-3.723h-1.396v7.445h1.424zM271.287 40.893V20.535h3.781v16.723h5.933v3.635h-9.714zM290.656 40.893h-3.811v-5.729l-4.915-14.629h4.246l2.036 7.3c.291 1.076.523 2.56.523 2.56h.059c.029-.291.232-1.483.523-2.56l2.007-7.3h4.275l-4.944 14.804v5.554zM307.175 34.989c.495 1.542 1.774 2.559 3.229 2.559 1.513 0 2.676-.698 2.676-2.269 0-3.315-8.405-3.286-8.405-9.481 0-3.141 2.298-5.555 5.613-5.555s5.206 1.832 6.194 4.392l-3.286 2.036c-.494-1.687-1.367-2.792-2.908-2.792-1.076 0-1.832.669-1.832 1.803 0 3.606 8.404 2.879 8.404 9.597 0 3.606-2.675 5.904-6.456 5.904-3.141 0-5.438-1.629-6.456-4.014l3.227-2.18zM332.273 37.17c-1.018 2.385-2.908 4.014-6.05 4.014-5.612 0-7.154-5.177-7.154-10.47 0-5.293 1.542-10.47 7.154-10.47 3.315 0 5.206 1.832 6.195 4.392l-3.286 2.036c-.495-1.687-1.367-2.792-2.909-2.792-2.588 0-3.373 3.17-3.373 6.834s.785 6.834 3.373 6.834c1.454 0 2.327-1.018 2.821-2.559l3.229 2.181zM344.372 40.893v-7.649h-5.235v7.649h-3.781V20.535h3.781v9.074h5.235v-9.074h3.78v20.358h-3.78zM352.805 40.893V20.535h10.819v3.636h-7.038v5.206h5.933v3.636h-5.933v4.246h7.038v3.635h-10.819zM368.016 40.893V20.535h5.264c5.613 0 7.445 4.886 7.445 10.179s-1.832 10.179-7.445 10.179h-5.264zm5.263-3.635c2.588 0 3.664-2.879 3.664-6.544s-1.076-6.543-3.664-6.543h-1.483v13.087h1.483zM393.114 20.535h3.78v13.582c0 4.915-2.646 7.067-6.194 7.067s-6.312-2.152-6.312-7.097V20.535h3.781v13.756c0 2.007.728 3.257 2.472 3.257 1.833 0 2.473-1.309 2.473-3.286V20.535zM401.547 40.893V20.535h3.781v16.723h5.933v3.635h-9.714zM414.17 40.893V20.535h10.818v3.636h-7.038v5.206h5.933v3.636h-5.933v4.246h7.038v3.635H414.17z"/><g><path d="M220.575 69.144l-.308-2.405h-3.979l-.247 2.405h-5.365l4.625-21.586h6.045l4.625 21.586h-5.396zm-1.881-13.384c-.185-1.233-.339-2.991-.339-2.991h-.062s-.186 1.758-.37 2.991l-.864 6.476h2.498l-.863-6.476zM230.688 69.144V47.558h6.414c4.935 0 6.97 4.255 6.97 7.679 0 4.132-2.313 7.895-7.186 7.895h-1.079v6.013h-5.119zm6.075-10.608c1.604 0 2.22-1.573 2.22-3.207 0-1.758-.647-3.207-2.251-3.207h-.925v6.414h.956zM249.003 69.144V47.558h6.414c4.935 0 6.97 4.255 6.97 7.679 0 4.132-2.313 7.895-7.186 7.895h-1.079v6.013h-5.119zm6.075-10.608c1.604 0 2.22-1.573 2.22-3.207 0-1.758-.647-3.207-2.251-3.207h-.925v6.414h.956zM266.393 58.351c0-5.736 1.325-11.225 7.309-11.225 6.013 0 7.309 5.489 7.309 11.225s-1.296 11.225-7.309 11.225c-5.984 0-7.309-5.49-7.309-11.225zm9.498 0c0-3.947-.278-6.291-2.189-6.291-1.882 0-2.189 2.344-2.189 6.291s.339 6.291 2.189 6.291c1.88 0 2.189-2.344 2.189-6.291zM286.249 69.144V47.558h5.119v21.586h-5.119zM307.371 69.144l-3.7-8.265c-.709-1.573-1.326-3.546-1.326-3.546h-.062s.062 2.066.062 3.824v7.987h-4.811V47.558h5.242l3.361 7.401c.71 1.542 1.48 3.701 1.48 3.701h.062s-.062-2.22-.062-4.04v-7.062h4.842v21.586h-5.088zM320.875 69.144V52.492h-3.176v-4.934h11.502v4.934h-3.176v16.652h-5.15zM346.746 69.144V58.166c0-1.356.092-2.59.092-2.59h-.062s-.463.925-1.295 2.066l-2.405 3.299h-.124l-2.405-3.299c-.832-1.141-1.264-2.066-1.264-2.066h-.062s.03 1.265.03 2.59v10.979h-4.811V47.558h5.119l1.912 2.745a31.36 31.36 0 011.511 2.375h.062s.647-1.049 1.542-2.375l1.881-2.745h5.089v21.586h-4.81zM357.721 69.144V47.558h11.996v4.687h-6.877v4.132h5.735v4.502h-5.735v3.577h6.877v4.688h-11.996zM385.41 69.144l-3.7-8.265c-.709-1.573-1.326-3.546-1.326-3.546h-.062s.062 2.066.062 3.824v7.987h-4.811V47.558h5.242l3.361 7.401c.71 1.542 1.48 3.701 1.48 3.701h.062s-.062-2.22-.062-4.04v-7.062h4.842v21.586h-5.088zM398.915 69.144V52.492h-3.176v-4.934h11.502v4.934h-3.176v16.652h-5.15zM415.627 62.514c.524 1.326 1.665 2.221 2.93 2.221 1.048 0 1.604-.617 1.604-1.388 0-2.96-8.388-3.639-8.388-9.961 0-3.546 2.651-6.26 6.599-6.26 3.054 0 5.366 1.635 6.507 4.657l-4.07 2.405c-.339-1.418-1.326-2.529-2.528-2.529-.895 0-1.48.617-1.48 1.419 0 3.053 8.48 3.146 8.48 10.022 0 4.04-2.961 6.476-6.908 6.476-3.484 0-5.735-1.912-7.03-4.471l4.284-2.591z"/></g><path d="M210.695 7.599H425.37v6.06H210.695zM210.695 75.917H425.37v6.058H210.695z"/></g><g><g fill="#FFF"><path d="M285.564 115.395V90.294h6.956c5.271 0 7.96 2.259 7.96 6.92 0 2.151-.753 4.016-2.51 5.092v.108a5.779 5.779 0 013.335 5.271c0 4.267-2.51 7.709-8.642 7.709h-7.099zm6.418-14.81c2.977 0 3.837-1.47 3.837-3.227 0-1.721-.896-2.618-3.873-2.618h-1.721v5.845h1.757zm1.04 10.363c2.977 0 3.837-1.506 3.837-3.263 0-1.721-.896-3.012-3.873-3.012h-2.761v6.275h2.797zM316.832 90.294h4.662v16.746c0 6.06-3.264 8.713-7.639 8.713-4.374 0-7.781-2.653-7.781-8.749v-16.71h4.662v16.961c0 2.474.896 4.016 3.048 4.016 2.259 0 3.048-1.614 3.048-4.052V90.294zM329.06 108.115c.609 1.9 2.188 3.156 3.98 3.156 1.864 0 3.299-.861 3.299-2.797 0-4.088-10.363-4.052-10.363-11.69 0-3.873 2.833-6.849 6.921-6.849s6.419 2.259 7.638 5.415l-4.052 2.51c-.609-2.08-1.686-3.442-3.586-3.442-1.327 0-2.259.825-2.259 2.223 0 4.446 10.362 3.55 10.362 11.833 0 4.446-3.299 7.279-7.96 7.279-3.873 0-6.705-2.008-7.961-4.948l3.981-2.69zM345.16 115.395V90.294h4.662v25.101h-4.662zM366.782 115.395l-6.418-14.092c-.287-.681-.609-1.685-.609-1.685h-.072s.036 1.076.036 1.864v13.913h-4.16V90.294h4.447l6.311 13.733c.287.61.609 1.686.609 1.686h.072c0-.179-.036-1.219-.036-1.829v-13.59h4.159v25.101h-4.339zM376.859 115.395V90.294h13.339v4.482h-8.678v6.419h7.315v4.482h-7.315v5.235h8.678v4.482h-13.339zM397.441 108.115c.609 1.9 2.188 3.156 3.98 3.156 1.864 0 3.299-.861 3.299-2.797 0-4.088-10.363-4.052-10.363-11.69 0-3.873 2.833-6.849 6.921-6.849s6.419 2.259 7.638 5.415l-4.052 2.51c-.609-2.08-1.686-3.442-3.586-3.442-1.327 0-2.259.825-2.259 2.223 0 4.446 10.363 3.55 10.363 11.833 0 4.446-3.3 7.279-7.961 7.279-3.873 0-6.705-2.008-7.961-4.948l3.981-2.69zM415.37 108.115c.609 1.9 2.188 3.156 3.98 3.156 1.864 0 3.299-.861 3.299-2.797 0-4.088-10.363-4.052-10.363-11.69 0-3.873 2.833-6.849 6.921-6.849s6.419 2.259 7.638 5.415l-4.052 2.51c-.609-2.08-1.686-3.442-3.586-3.442-1.327 0-2.259.825-2.259 2.223 0 4.446 10.362 3.55 10.362 11.833 0 4.446-3.299 7.279-7.96 7.279-3.873 0-6.705-2.008-7.961-4.948l3.981-2.69z"/></g></g><g fill-rule="evenodd" clip-rule="evenodd"><path fill="#462D3B" d="M61.605 231.459c-1.771 2.388-4.354 1.645-6.719 1.738 1.779 1.258 3.253 2.788 4.338 4.695 1.466 2.577.589 5.558-2.049 6.958-.76.405-1.492.878-2.182 1.394-.698.519-1.399 1.113-1.206 2.131.204 1.075 1.067 1.478 1.996 1.75 2.84.826 5.092.045 6.775-2.396.9-1.306 1.785-2.627 2.58-3.999 2.178-3.751 1.9-6.319-.999-9.609-.808-.918-1.687-1.776-2.534-2.662z"/><path fill="#462D3B" d="M53.445 232.562c-.163-.101.163.099 0 0-2.035-.04-3.401-1.785-5.429-.74-.404.209-.901.848-1.458.762 1.443 1.981 2.727 3.25 4.229 5.229 1.306 1.72 1.049 2.97-.227 4.359-1.088 1.187-2.424 2.023-3.842 2.756-1.087.563-1.933 1.34-1.632 2.724.307 1.417 1.459 1.611 2.653 1.739 1.532.164 2.863-.292 3.975-1.313 2.125-1.95 4.067-4.059 5.683-6.471 1.206-1.798.878-3.229-.414-4.877-1.01-1.292-2.627-2.184-3.538-4.168z"/><path fill="#B84425" d="M46.559 232.583c1.675.759 5.854.568 6.887-.021-2.328-2.446-5.158-3.95-8.486-4.512-.797-.135-1.569-.122-2.187.519 1.851 1.272 2.505 2.898 3.786 4.014z"/><path fill="#462D3B" d="M28.564 228.456c-3.405-.605-6.808-1.229-10.036-2.535 1.395 5.138 3.519 10.054 3.193 15.697a12.47 12.47 0 01-.94 4.027c-.688 1.671.559 4.17 3.491 2.864 1.201-.534 2.392-2.007 2.876-4.396.226-1.115.286-3.796.054-5.589 1.095 1.255 2.226 4.343 2.275 7.631-.022 1.571-.008 3.213 1.958 3.32 2.423.004 3.365-1.834 3.365-4.276-.032-4.646-1.066-8.14-3.373-12.153-.897-1.562-1.904-3.063-2.863-4.59z"/><path fill="#F3682A" d="M28.564 228.456c4.737-.045 9.477-.629 14.208.112 6.167.378 10.673 4.448 12.114 4.629 1.705.226 4.947.649 6.719-1.738-.54-1.836-1.784-8.171.21-6.816.542.368.674.617.877 1.054 1.695 3.652 3.036 7.529 5.162 10.912 5.485 8.728 13.143 13.797 23.934 12.703 1.983-.2 3.688-1.293 5.051-2.566-.89-.438-.689-2.229-1.035-3.119-.29-.746-3.854-10.546-5.473-12.128-5.827-2.095-11.116-4.589-16.307-8.852-2.527-2.13-4.154-3.997-6.085-6.133-2.77-3.066-5.853-5.791-9.032-8.397-4.122-3.378-9.208-3.981-14.257-4.373-2.236-.174-4.437-.46-6.645-.788-1.66-.247-2.812-1.03-3.327-2.66-3.512 1.58-20.253 1.685-23.05 0 .045 4.176-.53 9.068.438 13.192 1.096 4.668 2.713 9.121 6.463 12.434 3.193 2.058 4.388 2.058 10.035 2.534z"/><path fill="#FFF8F0" d="M90.33 231.498c-.212 1.414-.19 2.78 1.123 3.703.783.552.38 1.018.111 1.637-1.236 2.853-.67 4.571 2.091 6.051.809.435 1.122.812 1.009 1.605-.197 1.386 1.032 2.251 2.175 2.251 2.981-1.661 5.938-8.154 5.207-11.438-.308-1.38-1.308-2.055-2.586-2.286-2.862-.515-5.231-.413-9.13-1.523zM36.279 193.536c1.822.98 3.341 2.974 4.657 4.64-.509.86-1.836 1.327-2.826 1.681-2.514.897-8.907 5.079-12.345 8.331-2.328 1.911-4.901 1.87-6.79-.494-4.231-5.298-11.998-10.553-14.079-11.241 1.499-1.883 3.172-4.346 5.462-4.715 4.033-.648 21.915-.36 25.921 1.798z"/><path fill="#462D3B" d="M30.67 199.231c.833.004 1.44-.34 1.491-1.215.051-.885-.329-1.551-1.312-1.66-.945-.105-1.575.289-1.615 1.278-.04.943.556 1.426 1.436 1.597zM13.159 196.08c-.106 1.108.327 1.755 1.372 1.89.812.104 1.353-.405 1.544-1.066.261-.901-.223-1.695-1.408-1.771-.525-.034-1.346.138-1.508.947z"/><path fill="#F3682A" d="M40.936 198.176c.381-.422.276-1.034.029-1.801-1.456-4.501-2.538-8.143-4.039-10.854-2.851-5.153-6.534-7.221-13.595-7.625-9.241-.529-13.436 5.017-14.196 6.119-2.816 3.921-3.56 7.688-4.966 11.361-.237.619.19.915.728 1.076 1.499-1.883 3.483-3.205 5.773-3.573 4.031-.649 8.233.567 9.6 6.057.504 2.023.477 4.602.315 6.66 1.308-.046 2.804-.425 3.817.611.192-3.149.465-5.095 1.265-7.575 1.423-4.416 6.518-5.985 10.439-4.098 1.863.897 3.514 1.976 4.83 3.642z"/><path fill="#FFF8F0" d="M35.345 183.843c.835-1.126 1.857-2.248 1.779-3.547-.061-1.03-.188-3.265-1.315-3.497-1.144-.235-3.294.463-3.984 1.623a14.024 14.024 0 00-.847 1.645c1.53.42 3.991 2.637 4.367 3.776z"/><path fill="#462D3B" d="M20.802 205.317c-.567.643-.701 1.291-.062 1.993.79.87 1.767.815 2.639.597.82-.204 1.536-1.066 1.087-2.107-1.013-1.036-2.881-.91-3.664-.483zM35.345 183.843c.053.666.764 1.278 1.369 1.301 1.601-2.022 2.222-6.546.686-8.73-.608-.867-1.629-1.495-2.604-1.005-2 1.01-3.837 1.388-4.877 3.738.188.789.965 1.08 1.445 1.086.218-.524 2.366-3.277 4.064-3.001 1.137.185 1.031 1.715 1.092 2.744.079 1.298-.339 2.741-1.175 3.867z"/><path fill="#FFF8F0" d="M10.051 183.182c-.748-1.185-1.682-2.383-1.507-3.67.139-1.022.435-3.242 1.578-3.389 1.158-.148 3.248.712 3.85 1.92.25.504.582 1.231.76 1.772-1.559.302-4.221 2.261-4.681 3.367z"/><path fill="#462D3B" d="M10.051 183.182c-.104.662-.694 1.409-1.299 1.386-1.443-2.138-2.197-6.851-.843-9.153.538-.911.816-1.694 2.325-1.137 2.103.774 4.955 2.286 5.813 4.707-.247.773-1.044 1.005-1.522.975-.339-1.048-2.594-3.222-4.259-3.659-.896-.233-1.093.177-1.245 2.271-.094 1.296.282 3.425 1.03 4.61z"/></g></svg>