<svg xmlns="http://www.w3.org/2000/svg" width="293" height="311" viewBox="0 0 293 311"><style>.a{fill:#F2692B;}.b{fill:#FFF8F0;}.c{fill:#462D3B;}</style><path d="M271.5 173.7c-4.1-14.1-9.7-28.2-17-42.7 -1-2-1.5-5-1.6-7.6 -10.6 7.9-21.5 17.3-29.7 26.8 -8.9 10.4-20.6 10.1-30.8 1.1 -6.4-6.6-15.3-14-24.2-20.7 -1.7 2.9-3.7 5.6-5 8.7 -5.5 12.9-10.7 23.6-15.2 34.4 -8.9 21.5-14.7 43.3-12.7 83.1 0.3 6.9 3.7 20.8 7 26.5 0 0-1.7 1.6-7-0.7 -20.4-9.4-30.5-30.8-34.8-51.2 -4.5-21.8-5.4-37.5-11-57.8 -0.6-2.2-1.3-4.5-2-6.8 -4.9-15.7-11.5-26.5-16.1-34.4 -1.7 3.4-4 6.3-8 6.3 -3.7 0.1-4.7 2.4-6.1 5.2 -4.7 9.6-15.8 12.1-24.3 5.5 -2.6-2-4.1-4.6-8.1-2 -7.8 5.1-15.6 2.9-23.1-1.3 0 0-1.4 7.6-1.6 11.5 -0.3 5.5-0.3 10.8 0 16.1 1.6 28.1 11.7 53.4 27.9 77.7 26.4 39.9 63.2 56.6 109.6 55.8 3.4 0.1 6.8 0.2 10.2 0.3 11.5 0.7 23.1 1.3 34.6 2 -1.7-27.7-1.1-55.5-5.1-83 -1.1-7.9-2.3-15.4-0.5-23 2.2-9.2 11.7-13.3 18.5-6.6 4.4 4.4 6.7 11.6 7 17.8 1.8 31.7 2.1 63.4 2 95.1 4.4 0 8.8 0 13.1 0 0.2-33.3 1.1-66.6 0.6-99.8 -0.2-13 9.1-18.2 15.6-15.6 6.5 2.6 9.5 8.7 9.9 15.7 0.8 16.3 1.1 32.6-0.5 48.9 -1 16.6-1.8 33-4.6 50.6 26.2 0.2 41.5-18 42.6-42.3C282.6 233.5 280.3 203.6 271.5 173.7z" class="a"/><path d="M25 147.5c4-2.6 5.5 0 8.1 2 8.5 6.6 19.6 4.1 24.3-5.5 1.4-2.8 2.4-5.1 6.1-5.2 4-0.1 6.3-3 8-6.3 -9.1-17.9-21.4-27.4-38.2-34.3 -4.8-2-9.2-1.4-12.4 2.7C11 114.1 4.3 129.4 1.9 146.1 9.4 150.3 17.2 152.6 25 147.5z" class="b"/><path d="M223.2 150.2c8.2-9.5 19.1-18.9 29.7-26.8 15.3-11.5 30.2-19.9 35.8-21.6 -6.4-8.8-15.2-15.1-25.5-17.1 -18.1-3.6-37.3 1.2-44.4 25.7 -2.6 9.1-2.9 20.7-2.6 30 0 0 0 0 0 0 1.6 2.6 1.6 5.1-1 7.7 -3.7 3.8-8.1 3.4-12 2.2 -3.7-1.1-6.8-5.1-4.5-9.7 0.1 0 0.1-0.1 0.2-0.1 -0.4-13.1-1.3-21.7-4.4-32.5 -5.7-20.2-28.4-28.2-46.5-20.3 -8.6 3.7-16.2 8.3-22.5 15.6 2.2 4 8.1 6.3 12.5 8.1 6.4 2.6 18.3 10.2 30.2 19.1 8.9 6.7 17.8 14.1 24.2 20.7C202.7 160.3 214.3 160.6 223.2 150.2zM244.9 93.1c2.8-0.1 7.1 1 7.8 5.3 0.3 5.9-2.1 9.3-7.7 9.8 -4.3 0.4-7.1-2.4-8-6C235.8 97.3 238.5 93.2 244.9 93.1zM160.7 102.8c0-4.8 2.1-8.7 7.5-8.8 4.2 0 8.5 1.9 8.5 7.3 0 5.1-3.3 7.6-8.1 8.4C164.1 109.6 160.7 106.6 160.7 102.8z" class="b"/><path d="M176.7 101.3c0-5.4-4.4-7.3-8.5-7.3 -5.4 0.1-7.5 3.9-7.5 8.8 0 3.8 3.3 6.8 7.9 6.9C173.4 108.9 176.8 106.5 176.7 101.3z" class="c"/><path d="M245 108.2c5.6-0.5 8-3.9 7.7-9.8 -0.7-4.3-5-5.4-7.8-5.3 -6.3 0.2-9.1 4.3-7.9 9.1C237.9 105.7 240.7 108.6 245 108.2z" class="c"/><path d="M148.1 87.8c18-7.9 40.8 0.1 46.5 20.3 3 10.8 4 19.4 4.4 32.5 4.8-4.3 13-3.5 16.5-1.4 0.4 0.4 0.7 0.9 0.9 1.3 0 0 0 0 0 0 -0.4-9.3-0.1-21 2.6-30 7.1-24.6 26.3-29.4 44.4-25.7 10.3 2.1 19 8.4 25.5 17.1 2.5-0.6 4.4-1.9 3.5-4.7 -5.6-16.3-8.4-32.9-19.5-50.5 -2.7 0-4.6-2.6-4.9-5.6 -1.8-4.8-12.4-13.5-19.5-15.7 -0.1 0.1-0.1 0.3-0.2 0.4 -2.2 0.1-5.7-1.1-6.7-4.7 0.1-0.3 0.2-0.5 0.3-0.7 -8.7-3.5-19.6-5.8-33.1-5.4 -11.9 0.3-21.7 1.7-30 4.5 0 0 0 0 0 0.1 -1 3.5-4.5 4.7-6.7 4.7 0 0 0-0.1 0-0.1 -7 2.6-16.8 11.1-18.6 15.7 -0.4 3-3.6 5.6-6.4 5.6 -0.4 0.6-0.7 1.1-1.1 1.7 -7.2 12-12.8 28.3-20.1 48.4 -1.2 3.4-1.8 6.2-0.2 8.1C131.8 96.1 139.5 91.5 148.1 87.8z" class="a"/><path d="M154.1 9.7c-5.2 0.6-5 7.6-5.4 12.2 -0.6 5.9 1.1 12.4 4.7 17.7 1.7-4.7 11.6-13.1 18.6-15.7C170.8 21.3 161.7 8.8 154.1 9.7z" class="b"/><path d="M198.9 140.6c-0.1 0-0.1 0.1-0.2 0.1 -2.2 4.6 0.9 8.7 4.5 9.7 3.9 1.1 8.3 1.6 12-2.2 2.6-2.6 2.6-5.2 1-7.7 -0.3-0.4-0.6-0.9-0.9-1.3C212 137.1 203.7 136.2 198.9 140.6z" class="c"/><path d="M153.3 39.6c-3.6-5.2-5.2-11.8-4.7-17.7 0.5-4.6 0.2-11.6 5.4-12.2 7.6-0.9 16.7 11.6 17.8 14.2 0 0 0 0.1 0 0.1 2.2 0.1 5.7-1.1 6.7-4.7 0 0 0 0 0-0.1 -4.3-10.7-12.5-12.8-21.4-17.7 -4.3-2.4-9 0.3-11.9 4.1 -7.3 9.6-5.3 30.2 1.6 39.6 0 0 0 0 0 0C149.7 45.2 153 42.6 153.3 39.6z" class="c"/><path d="M273.2 20.3c-0.1-3.9-0.4-6.6-0.9-8.2 -0.6-1-1.2-1.8-2.1-2.4 -0.6-0.1-1.4-0.1-2.3 0.1 -7.4 1.6-17.6 10.6-19.7 15.4 7.1 2.3 17.7 10.9 19.5 15.7C271.3 35.7 273.4 26.2 273.2 20.3z" class="b"/><path d="M248.1 25.6c0-0.1 0.1-0.3 0.2-0.4 2.1-4.8 12.3-13.8 19.7-15.4 0.9-0.2 1.7-0.3 2.3-0.1 1 0.2 1.6 0.9 2.1 2.4 0.5 1.7 0.7 4.3 0.9 8.2 0.2 5.9-1.9 15.4-5.4 20.7 0.4 3 2.2 5.6 4.9 5.7 0 0 0 0 0 0 6.9-9.4 11.8-29.7 6-40.4 -2.3-4.2-3.4-7.8-10.3-5.5 -9.4 3.1-22.1 9.2-26.7 19.5 -0.1 0.3-0.2 0.5-0.3 0.7C242.4 24.5 245.9 25.7 248.1 25.6z" class="c"/><path d="M243.6 209.9c-0.3-7-3.4-13.2-9.9-15.7 -6.5-2.6-15.8 2.6-15.6 15.6 0.5 33.3-0.4 66.6-0.6 99.8 7 0.9 14 1 21-0.2 2.8-17.6 3.6-34 4.6-50.6C244.7 242.6 244.4 226.2 243.6 209.9z" class="c"/><path d="M195.3 196.8c-6.8-6.7-16.3-2.5-18.5 6.6 -1.8 7.6-0.6 15.1 0.5 23 4 27.5 3.4 55.4 5.1 83 7.3 1.2 14.6 1 21.9 0.2 0-31.7-0.2-63.4-2-95.1C202 208.4 199.7 201.2 195.3 196.8z" class="c"/></svg>