<svg xmlns="http://www.w3.org/2000/svg" width="293" height="195" viewBox="0 0 293 195"><style>.a{fill:#F2692B;}.b{fill:#462D3B;}.c{fill:#FFF8F0;}</style><path d="M135.6 117.8c-3.3-1-16.3-3.2-18.3-6.5 0 0 0-0.1 0-0.1 0.5-0.7 0.8-1.6 1-2.8 2.3-24.5 16.5-47.8 29.5-68.6 -4.1-4.9-2.6-13.6-7.2-15.7 -24.5-6.4-49.4-6.1-73.7 2.3 -21.8 7.5-37.3 21.8-50.8 39.6C0.9 85.9-2.5 108.6 1.6 131.8c5.1 29 27.1 44.2 52.7 54 27.9 10.7 55.3 10.3 85 4.1C156.1 156.7 134.3 123 135.6 117.8z" class="a"/><path d="M197.2 170.1c-7-3.9-5.2-9.8-5.6-12.6 0.7-0.6 8.4-7.8 9-8.3 14.2 2.3 16.3-6.2 24.9-15 6.2-6.3 18.8-3.8 28-3.2 7 2.9 11.6 6.3 16.3 10.1 4.7 3.8 8 9 5.7 15.5 -2.3 6.7-8.5 7.9-14.4 7.7 -4.2-0.2-10.4-1.7-13.1-1.9 0 0 3 13.9-14.7 14.9C221 177.8 208.5 176.4 197.2 170.1z" class="b"/><path d="M139.2 189.8c-12.8-11.7-15.2-28.7-6.9-45 1-2 1.4-3.4 0.2-5.2 -3.3-4.7-1.7-15.4-0.5-20.6 13.6-4.3 24.7 1.7 35.6 10.2 8.2 6.5 15.1 13 21.4 21.4 2.7 3.5 8.8 8 11.6 9.7C200.1 163.7 182.9 188.6 139.2 189.8z" class="c"/><path d="M146.5 39.8c2.9 0.3 1.1 1.5 4 1.9 0.3 4.1-2.7 6.5-4.8 9.2 -11.6 14.8-15.6 32.4-18.5 50.4 -2.4 8.1-0.1 8.6 8.7 9.8 18 2.5 34.6 12.4 48.1 25.2 3.3 3.2 5.9 6.5 7.1 11.3 1.4 5.8 5.2 7.9 10.8 10.8 0.5 0.3-2.5 4.8-2.5 4.8 -5.3-0.4-10.9-6.1-13.6-9.6 -6.5-10-10.9-16-19.6-21.7 -16-10.6-37.6-15.3-58.2-13.4 -30.8 2.8-44.6 2.7-57.8-1.5 -8.6-3-13.3-6.4-20.1-11.3 -2.1-1.5-4.1-3.6-2.6-5.8 1.7-2.6 3.5-1.9 5.5-0.7 5.5 4.8 11.4 9.6 19.2 11.8 22.8 6.3 43.5 1.2 60.1 0.6 3.3-0.1 5.7-1.3 6-5C120.7 81.9 127.9 55 146.5 39.8z" fill="#B84526"/><path d="M270.4 90.5c8.1 4.6 14.8 13.8 20.5 21.4 -2.4 3.8-8.5 5.7-13 7.2 -11.5 3.7-40.7 19.8-56.6 34 -10.7 8.3-23.9 8.8-30.6-3 -16.5-29-47.1-35.2-60.8-39 -2.4-0.7-4.4-4.4-4.4-4.4 -0.1-14.1 17.6-25.9 28-27.3C171.8 77 252.6 80.4 270.4 90.5z" class="c"/><path d="M291 111.9c1.8-1.8 1-4.5 0.3-8.1 -4.3-22.3-9.2-36.6-15.6-48.9 -12.3-23.5-30-34.7-62-36.1 -42.6-2-61.8 20.3-65.8 27.5 -16.1 19.1-19.4 35.1-22.1 53.1 -0.4 2.9-1.6 6.9 0.4 8.5 5.6-9.1 17.9-18 28.3-19.4 18.3-2.4 35.6 3.4 41.1 28.2 2 9.2 3.5 16.9 2.5 26.2 5.9-0.1 12.7-1.6 17.2 3.2 1.2-14.1 2.4-18.9 6.3-30 6.9-19.7 28-24.3 46.8-18.6C277.2 100.2 285.2 104.3 291 111.9z" class="a"/><path d="M268.7 46.9c3.9-5 8.7-9.9 8.5-15.7 -0.2-4.6-0.5-14.7-5.5-15.9 -5.1-1.2-14.9 1.7-18.2 6.8 -1.4 2.1-3 5-4 7.3C256.2 31.5 267.1 41.8 268.7 46.9z" class="c"/><path d="M199.1 141.6c-2.6 2.8-3.3 5.7-0.5 8.9 3.5 4 7.9 3.9 11.9 3 3.7-0.8 7.1-4.6 5.2-9.3C211.2 139.5 202.7 139.8 199.1 141.6z" class="b"/><path d="M268.7 46.9c0.2 3 3.3 5.8 6 6 7.5-8.9 10.8-29.1 4.1-39.1 -2.7-4-7.2-6.9-11.7-4.8 -9.2 4.3-17.5 5.8-22.5 16.2 0.8 3.6 4.2 5 6.4 5.1 1-2.3 11.1-14.4 18.7-13 5.1 1 4.5 7.8 4.6 12.5C274.6 35.5 272.6 42 268.7 46.9z" class="b"/><path d="M153 40.9c-3.2-5.4-7.3-10.9-6.4-16.7 0.7-4.6 2.3-14.5 7.5-15 5.3-0.5 14.6 3.6 17.2 9.1 1.1 2.3 2.5 5.6 3.2 8C167.5 27.5 155.2 36 153 40.9z" class="c"/><path d="M153 40.9c-0.5 3-4 5.4-6.8 5.2 -6.3-9.8-8.4-30.2-2-40.3 2.5-4 3.9-7.5 10.6-4.8 9.4 3.7 22.1 10.9 25.7 21.8 -1.2 3.4-4.8 4.4-7 4.2 -1.4-4.7-11.4-14.8-18.8-16.9 -4-1.2-5 0.7-5.9 10.1C148.3 25.9 149.8 35.5 153 40.9z" class="b"/><path d="M172.9 117.9c-1.3 0.2-2.6 0.1-3.9-0.1 -5.2-1-9-5-9.9-10.4 -0.3-1.8 0.9-3.5 2.7-3.8 1.8-0.3 3.5 0.9 3.8 2.7 0.4 2.7 2.2 4.6 4.7 5.1 1.9 0.4 4.6-0.2 6.2-2.8 1-1.5 3-2 4.5-1.1 1.5 1 2 3 1.1 4.5C180 115.3 176.6 117.4 172.9 117.9z" class="b"/><path d="M248.6 123.1c-1.2 0.4-2.4 0.7-3.7 0.7 -5.3 0.2-9.9-2.8-12-7.9 -0.7-1.7 0.1-3.6 1.8-4.3 1.7-0.7 3.6 0.1 4.3 1.8 1 2.5 3.2 4 5.7 3.9 2-0.1 4.4-1.2 5.4-4.1 0.6-1.7 2.4-2.7 4.2-2.1 1.7 0.6 2.7 2.4 2.1 4.2C255 119 252.1 121.9 248.6 123.1z" class="b"/></svg>