<svg xmlns="http://www.w3.org/2000/svg" width="100" height="100" viewBox="0 0 100 100"><g fill="#010101"><path d="M97.5 75.71v-.052h-95v.053c-1.38 0-2.5 1.12-2.5 2.5s1.12 2.5 2.5 2.5h95c1.38 0 2.5-1.118 2.5-2.5s-1.12-2.5-2.5-2.5zM49.998 38.082c1.38 0 2.498-1.12 2.498-2.498V20.597c0-.002.003-.003.003-.005 0-1.38-1.122-2.5-2.5-2.5-1.383 0-2.502 1.12-2.502 2.5v14.993c0 1.378 1.12 2.497 2.5 2.497zM2.52 70.566h14.993c1.38 0 2.5-1.117 2.5-2.498s-1.12-2.5-2.5-2.5H2.52c-1.378 0-2.498 1.12-2.498 2.5s1.12 2.498 2.5 2.498zM82.54 65.568c-1.38 0-2.5 1.12-2.5 2.5s1.12 2.498 2.5 2.498h14.937c1.382 0 2.498-1.117 2.498-2.498 0-1.38-1.116-2.5-2.498-2.5H82.54zM74.732 46.863l10.6-10.596.002-.004c.977-.975.977-2.557 0-3.533-.975-.976-2.557-.976-3.532 0L71.2 43.33c-.976.978-.976 2.56 0 3.533.977.978 2.558.978 3.532 0zM25.262 46.863c.975.978 2.556.978 3.533 0 .975-.975.975-2.556 0-3.532L18.197 32.735l-.003-.004c-.977-.976-2.558-.977-3.533 0-.977.977-.975 2.558 0 3.533l10.602 10.6zM25.135 70.566h5.047c-.104-.822-.172-1.65-.172-2.498 0-11.043 8.93-19.98 19.97-19.99h.042c11.037.012 19.97 8.947 19.97 19.99 0 .848-.07 1.676-.173 2.498h5.046c.08-.822.123-1.656.123-2.498 0-13.762-11.095-24.902-24.836-24.984v-.005h-.312v.004c-13.738.082-24.83 11.225-24.83 24.984 0 .842.04 1.676.123 2.498z"/><path d="M48.015 73.65v.002h.004c.007.01.018.014.025.023.11.107.227.203.354.29.06.04.124.066.188.102.08.044.157.093.242.128.08.033.162.05.242.074.076.022.148.05.225.065.232.045.467.048.703.027.71.062 1.44-.168 1.98-.71l7.062-7.065.004-.002c.977-.977.977-2.56 0-3.535s-2.56-.975-3.533 0l-3.23 3.23V51.894c0-1.38-1.118-2.498-2.5-2.498-1.378 0-2.497 1.12-2.497 2.498v13.96l-2.803-2.804c-.977-.976-2.557-.976-3.533 0-.975.978-.976 2.558 0 3.536l7.065 7.064z"/></g></svg>