<svg xmlns="http://www.w3.org/2000/svg" width="100" height="100" viewBox="0 0 100 100"><g fill="#010101"><path d="M50 26c1.104 0 2-.896 2-2V12.006 12c0-1.103-.895-2-2-2s-2.002.897-2.002 2v12c0 1.105.897 2 2 2zM26 50c0-1.104-.895-2-2-2H12.003 12c-1.104 0-2 .895-2 2s.896 2 2 2h12c1.105 0 2-.895 2-2zM88 48H76.05h-.005c-1.104 0-2 .895-2 2s.896 2 2 2H88c1.105 0 2-.895 2-2 0-1.104-.895-2-2-2zM50.002 73.91c-1.105 0-2 .896-2 2V88c0 1.103.895 2 2 2s2-.897 2-2V75.91c0-1.104-.897-2-2-2zM69.796 33.03l8.483-8.482c0-.002.002-.002.002-.003.78-.78.78-2.046 0-2.828-.78-.78-2.046-.78-2.827 0L66.97 30.2c-.78.783-.78 2.048 0 2.83.78.78 2.047.78 2.826 0zM30.2 33.03c.78.78 2.046.78 2.827 0 .78-.782.78-2.047 0-2.83l-8.48-8.48-.004-.003c-.78-.78-2.047-.782-2.828 0-.78.78-.78 2.047 0 2.828L30.2 33.03zM69.832 67.004l-.002-.002c-.78-.78-2.046-.78-2.827 0-.78.783-.78 2.05 0 2.83l8.452 8.452c.782.782 2.048.782 2.83 0 .78-.78.78-2.046 0-2.828l-8.453-8.452zM30.264 66.908l-8.545 8.544-.005.004c-.78.78-.78 2.047 0 2.828.783.78 2.047.78 2.828 0l8.55-8.546c.78-.78.78-2.047 0-2.828-.78-.783-2.048-.783-2.83-.002zM50.125 30.003V30h-.248v.003C38.88 30.07 30 38.986 30 50c0 11.012 8.88 19.93 19.877 19.996V70h.248v-.004C61.123 69.93 70.003 61.014 70.003 50s-8.88-19.93-19.878-19.997zm-.105 35.995h-.035c-8.836-.01-15.982-7.16-15.982-15.998 0-8.837 7.146-15.99 15.98-16h.036C58.853 34.01 66 41.164 66 50c0 8.838-7.146 15.988-15.98 15.998z"/></g></svg>