<svg xmlns="http://www.w3.org/2000/svg" width="100" height="100" viewBox="0 0 100 100"><g fill="#010101"><path d="M97.5 75.71v-.052h-95v.053c-1.38 0-2.5 1.12-2.5 2.5s1.12 2.5 2.5 2.5h95c1.38 0 2.5-1.118 2.5-2.5s-1.12-2.5-2.5-2.5zM49.998 38.082c1.38 0 2.5-1.12 2.5-2.5V20.598l.002-.005c0-1.38-1.12-2.5-2.5-2.5s-2.5 1.12-2.5 2.5v14.992c0 1.38 1.118 2.498 2.498 2.498zM2.522 70.566h14.992c1.38 0 2.5-1.117 2.5-2.498s-1.12-2.5-2.5-2.5H2.527h-.005c-1.38 0-2.5 1.12-2.5 2.5s1.12 2.498 2.5 2.498zM82.54 65.568c-1.38 0-2.5 1.12-2.5 2.5s1.12 2.498 2.5 2.498h14.937c1.382 0 2.498-1.117 2.498-2.498 0-1.38-1.116-2.5-2.498-2.5H82.54zM74.732 46.864l10.6-10.597c0-.002.002-.002.002-.003.977-.975.977-2.557 0-3.534-.975-.975-2.557-.975-3.532 0L71.2 43.33c-.976.978-.976 2.558 0 3.534.977.977 2.558.977 3.532 0zM25.262 46.864c.975.977 2.556.977 3.533 0 .975-.976.976-2.556 0-3.533L18.198 32.735l-.003-.004c-.977-.975-2.558-.977-3.533 0-.977.977-.976 2.558 0 3.534l10.6 10.6zM25.135 70.566h5.047c-.103-.822-.17-1.65-.17-2.498 0-11.043 8.928-19.978 19.968-19.99h.042c11.038.012 19.97 8.947 19.97 19.99 0 .848-.07 1.676-.173 2.498h5.046c.08-.822.123-1.656.123-2.498 0-13.762-11.095-24.902-24.836-24.985v-.004h-.31v.003c-13.74.083-24.832 11.225-24.832 24.985 0 .842.04 1.676.123 2.498z"/><path d="M51.985 50.122v-.002h-.004c-.007-.01-.018-.014-.025-.023-.11-.107-.227-.204-.354-.29-.06-.04-.124-.067-.188-.103-.08-.044-.157-.092-.242-.127-.08-.033-.162-.05-.243-.075-.076-.023-.148-.052-.224-.066-.233-.046-.467-.048-.703-.028-.71-.062-1.44.168-1.98.71l-7.063 7.065-.004.002c-.977.977-.977 2.56 0 3.535.977.977 2.56.975 3.534 0l3.228-3.23v14.386c0 1.38 1.12 2.498 2.5 2.498s2.5-1.12 2.5-2.498V57.918l2.802 2.803c.977.978 2.557.978 3.533 0 .975-.976.976-2.556 0-3.534l-7.065-7.064z"/></g></svg>