<svg xmlns="http://www.w3.org/2000/svg" width="266" height="150">
  <g fill-rule="evenodd" clip-rule="evenodd">
    <path fill="#9C5C8F" d="M13.517 55.384c1.116-2.701 3.915-4.609 6.848-4.604 22.063-.008 44.125.002 66.188-.005a7.582 7.582 0 0 1 5.242 1.964c1.617 1.447 2.538 3.608 2.493 5.775-.008 8.458.016 16.912-.011 25.369-.016 3.821-3.354 7.232-7.173 7.337-8.046.034-16.095.002-24.142.016 1.081 2.663 2.175 5.324 3.256 7.99-4.793-2.639-9.538-5.373-14.358-7.955-10.584-.094-21.176.008-31.764-.054-3.813-.106-7.139-3.515-7.16-7.329-.032-8.277 0-16.559-.016-24.84-.03-1.243.087-2.513.597-3.664z"/>
    <path fill="#FFF" d="M45.878 56.001c1.222-1.3 3.542-.878 4.443.592.488.771.531 1.801.139 2.624-1.7 3.344-2.41 7.069-3.064 10.73-.773 4.774-1.417 9.611-1.166 14.457.069 1.236-.528 2.735-1.855 3.023-1.254.28-2.396-.541-3.184-1.428-3.603-3.875-5.642-8.895-7.112-13.904-1.486 2.934-2.978 5.866-4.419 8.822-1.009 2-2.074 4.039-3.686 5.627-.681.675-1.831 1.286-2.709.592-1.321-1.155-1.646-2.996-2.207-4.579-2.127-7.337-3.333-14.897-4.569-22.423-.283-1.254.243-2.757 1.495-3.259 1.012-.379 2.306-.432 3.167.312.601.536.766 1.366.878 2.124.867 5.826 1.9 11.633 3.307 17.355 2.41-4.569 4.807-9.146 7.208-13.721.358-.669.785-1.342 1.441-1.759.878-.563 2.18-.523 2.914.265.617.646.822 1.545.993 2.394.718 3.782 1.689 7.526 3.101 11.11.608-5.402 1.354-10.87 3.325-15.97.447-1.026.84-2.111 1.56-2.984zm13.547 2.893c2.594-.317 5.394.545 7.16 2.517 1.441 1.631 2.25 3.747 2.522 5.888.44 3.661-.219 7.467-1.98 10.715-.996 1.852-2.298 3.627-4.134 4.716-2.69 1.633-6.298 1.433-8.898-.291-2.076-1.422-3.242-3.846-3.717-6.261-.956-5.466.678-11.559 4.817-15.375 1.187-1.026 2.669-1.72 4.23-1.909zm.542 5.623c-1.247.414-2.034 1.555-2.704 2.618-1.679 2.703-2.165 6.27-.814 9.21.355.773.926 1.588 1.825 1.751.956.156 1.844-.391 2.541-.985 1.535-1.315 2.297-3.293 2.668-5.233.417-2.209.203-4.657-1.094-6.549-.519-.772-1.542-1.122-2.422-.812zm20.271-5.618c2.536-.315 5.287.467 7.062 2.359 1.588 1.713 2.448 4.006 2.69 6.309.374 3.538-.277 7.197-1.956 10.344-1.009 1.903-2.341 3.733-4.23 4.841-2.583 1.549-5.994 1.406-8.553-.12-1.73-1.04-2.88-2.817-3.542-4.686-1.815-5.714-.283-12.437 3.898-16.75 1.256-1.221 2.884-2.078 4.631-2.297zm.55 5.625c-1.361.486-2.177 1.786-2.885 2.965-1.532 2.701-1.908 6.178-.523 9.015.374.784 1.036 1.574 1.972 1.617 1.02.037 1.897-.608 2.605-1.276 1.54-1.518 2.244-3.688 2.49-5.793.253-1.973-.075-4.091-1.222-5.746-.526-.77-1.558-1.099-2.437-.782z"/>
    <path d="M107.991 59.649c2.212-.488 4.54-.422 6.742.091.008 1.801 0 3.603.005 5.404-1.807-.435-3.828-.843-5.581.002-2.095 1.025-3.24 3.387-3.261 5.655-.117 2.261.635 4.776 2.637 6.048 1.839 1.217 4.188.957 6.205.379-.005 1.801 0 3.602-.005 5.403a13.158 13.158 0 0 1-8.191-.291c-3.127-1.173-5.618-3.874-6.57-7.074-.72-2.429-.814-5.06-.229-7.529.941-3.96 4.285-7.205 8.248-8.088zm16.258-.267c2.722-.304 5.685.115 7.884 1.86 2.121 1.646 3.181 4.302 3.55 6.896.373 2.839.29 5.793-.588 8.537-.747 2.33-2.311 4.483-4.563 5.543-2.289 1.078-4.958 1.15-7.396.6a8.277 8.277 0 0 1-5.366-4.023c-1.551-2.725-1.834-5.959-1.714-9.034.128-2.652.798-5.417 2.581-7.462 1.398-1.663 3.469-2.674 5.612-2.917zm.838 5.167c-1.169.296-1.831 1.449-2.125 2.535-.579 2.148-.48 4.408-.333 6.607.141 1.188.27 2.501 1.115 3.427 1.124 1.278 3.381 1.105 4.415-.202.683-.838.859-1.943 1.017-2.979.219-1.852.274-3.736-.008-5.583-.198-1.107-.505-2.276-1.319-3.104-.699-.726-1.804-.947-2.762-.701zm106.762-4.807c2.311-.606 4.761-.518 7.085-.021.054 1.807.011 3.616.024 5.423-1.77-.424-3.723-.822-5.455-.059-1.991.908-3.197 3.042-3.353 5.175-.245 2.392.414 5.141 2.522 6.539 1.847 1.27 4.24 1.021 6.285.43-.024 1.814.053 3.632-.043 5.443-2.845.739-5.943.641-8.655-.536-2.978-1.297-5.286-3.987-6.143-7.114-.657-2.402-.731-4.986-.126-7.406.948-3.785 4.095-6.891 7.859-7.874zm-92.575.179c2.572-.005 5.147-.005 7.724 0 .931 4.174 1.817 8.361 2.591 12.567.736-4.225 1.727-8.398 2.723-12.567 2.639-.005 5.278-.002 7.92-.002 1.025 7.555 2.045 15.111 3.062 22.666-2.021.003-4.038.003-6.058 0-.561-5.175-1.057-10.354-1.649-15.527-1.226 5.183-2.517 10.349-3.766 15.527-1.377.006-2.757.003-4.134 0-1.321-5.183-2.621-10.373-3.953-15.553-.52 5.186-1.035 10.371-1.561 15.556-1.93-.003-3.862.003-5.792-.003.961-7.556 1.93-15.108 2.893-22.664zm27.702-.003c2.575.002 5.151-.005 7.729.002.93 4.169 1.808 8.349 2.587 12.549.747-4.217 1.727-8.388 2.725-12.551h7.889c1.022 7.555 2.042 15.111 3.059 22.666-2.018.006-4.036-.002-6.053.006-.561-5.178-1.084-10.355-1.636-15.533-1.26 5.175-2.496 10.355-3.755 15.53-1.377-.003-2.752 0-4.126 0-1.321-5.188-2.635-10.379-3.953-15.57-.527 5.188-1.038 10.379-1.563 15.567-1.933.003-3.862.003-5.794 0 .961-7.555 1.928-15.11 2.891-22.666zm25.711.075c4.134-.094 8.273-.013 12.41-.04.008 1.609-.006 3.216.008 4.825-2.087.024-4.174.002-6.261.013a955.885 955.885 0 0 0 0 4.148c1.807.005 3.613 0 5.42.002.001 1.566.003 3.131 0 4.695-1.807.002-3.613-.004-5.42.002a956.807 956.807 0 0 0 0 4.15c2.095.005 4.192 0 6.287.002.001 1.609.003 3.219 0 4.828-4.136.002-8.272.002-12.406 0-.028-7.541.045-15.085-.038-22.625zm14.198-.075c2.589.011 5.178-.021 7.766.016 2.439.078 5.025.687 6.846 2.413 1.644 1.529 2.212 4.025 1.574 6.151-.504 1.729-1.801 3.134-3.421 3.892 1.62 3.402 3.256 6.794 4.875 10.194-2.153.003-4.307 0-6.458.003-1.688-3.47-3.325-6.968-5.035-10.427-.043 3.475-.006 6.949-.02 10.424-2.044.003-4.085.003-6.127 0-.003-7.555-.003-15.11 0-22.666zm6.098 4.358a812.704 812.704 0 0 0 0 5.409c1.106-.077 2.311-.119 3.253-.789 1.083-.782.966-2.456.282-3.464-.845-1.036-2.316-1.057-3.535-1.156zm27.691-4.352c4.129-.011 8.257 0 12.386-.005.003 1.612 0 3.224 0 4.836-2.096.002-4.19 0-6.285.002-.003 1.38-.003 2.76-.003 4.142 1.808.006 3.614-.002 5.421.003 0 1.567.002 3.136 0 4.702h-5.415a521.862 521.862 0 0 0-.003 4.15c2.104.005 4.206 0 6.312.002 0 1.609 0 3.219-.003 4.831-4.133 0-8.27 0-12.404-.003-.009-7.553-.001-15.107-.006-22.66z"/>
  </g>
</svg>