<svg xmlns="http://www.w3.org/2000/svg" width="243" height="61" viewBox="0 0 243 61"><style>.a{fill:#462D3B;}.b{fill:#FFF8F0;}.c{fill:#F2692B;}</style><path d="M9.5 37.3c-0.1 1.4 0.3 14.1-1.5 19.5 -1.1 3.4-0.3 3.6 4 3.4C14.1 52.2 13.8 44.5 9.5 37.3z" class="a"/><path d="M27.8 18c-3.7-1.1-7.9 1-8.5 5.1 -0.3 2.2-0.3 3.9 0 6.4 0 0 0 0 0 0 0.5 0.8 0 1.7-0.6 2 -0.7 0.3-1.6 0.5-2.4-0.1C15.7 31 15.6 30.5 15.9 30c0 0 0 0 0 0 -0.2-1.8-0.5-4.1-1.2-5.8 -2-4.6-5.8-5-9.3-3.9 -1.9 0.7-3.5 2.1-4.5 4 1.3 0.2 5 1.8 8.7 4 1.9 1.1 3.8 2.4 5.3 3.8 2 1.8 4.2 1.5 6-0.6 1.5-2 3.9-4.4 6-6.3 1.4-1.3 2.7-2.3 3.5-2.7 0.8-0.5 1.9-1.1 2.2-1.9C31.1 19.3 29.6 18.6 27.8 18z" class="b"/><path d="M5.3 20.3c3.4-1.2 7.3-0.7 9.3 3.9 0.7 1.7 1.1 3.9 1.2 5.8 0 0 0 0 0 0 0-0.1 0.1-0.2 0.1-0.3 0.6-0.5 2.2-0.9 3.2-0.1 -0.3-2.6-0.3-4.2 0-6.4 0.6-4.1 4.8-6.2 8.5-5.1 1.8 0.5 3.4 1.2 4.8 2.5 0.3-0.4 0.1-0.9-0.2-1.6 -1.9-3.7-3.4-6.7-5.1-8.9 -0.1-0.1-0.2-0.2-0.2-0.3 -0.5 0.1-1.2-0.4-1.4-0.9 -0.5-0.9-2.6-2.3-4-2.6 0 0 0 0 0 0 -0.4 0.1-1.1-0.1-1.4-0.7 0 0 0 0 0 0 -1.7-0.3-3.6-0.4-5.9-0.1C11.6 5.6 9.5 6.4 7.9 7.3c0 0 0.1 0.1 0.1 0.1C7.9 8.1 7.2 8.4 6.8 8.5 6.8 8.4 6.8 8.4 6.8 8.4c-1.3 0.6-3.2 2.6-3.4 3.5 0 0.6-0.6 1.2-1.1 1.3 0 0 0 0 0 0 0 0-0.1 0.1-0.1 0.1 -1.9 3.8-1.4 6.8-2.1 10.2 -0.1 0.6 0.3 0.8 0.8 0.8C1.8 22.4 3.4 21 5.3 20.3z" class="c"/><path d="M26 5.3c-0.2-0.9-0.3-2.2-1.4-2.2 -1.5 0-3 2.7-3.1 3.2 1.4 0.3 3.5 1.7 4 2.6C26.1 7.7 26.3 6.4 26 5.3z" class="b"/><path d="M16 29.7c-0.1 0.1-0.1 0.2-0.1 0.3 -0.2 0.5-0.2 1 0.4 1.5 0.8 0.6 1.7 0.5 2.4 0.1 0.7-0.3 1.2-1.2 0.6-2 0 0 0 0 0 0C18.2 28.8 16.6 29.2 16 29.7z" class="a"/><path d="M21.6 6.2c0 0 0 0 0 0 0.1-0.5 1.6-3.2 3.1-3.2 1 0 1.2 1.3 1.4 2.2 0.3 1.1 0.1 2.4-0.5 3.5 0.1 0.6 0.8 1 1.4 0.9 0 0 0 0 0 0 1.1-2 1-6-0.7-7.7 -0.7-0.7-1.6-1.1-2.4-0.5 -1.6 1.2-3.1 1.8-3.7 4 0 0 0 0 0 0C20.4 6.2 21.1 6.3 21.6 6.2z" class="a"/><path d="M2.6 5.9C2.4 5.9 2.2 5.9 2.1 5.9 2 6 1.9 6.2 1.8 6.4 1.7 6.8 1.7 7.3 1.8 8.1c0.1 1.1 0.7 2.9 1.6 3.9 0.2-1 2.1-2.9 3.4-3.5C6.3 7.5 4 6 2.6 5.9z" class="b"/><path d="M3.4 11.9C2.6 11 1.9 9.2 1.8 8.1c-0.1-0.8-0.1-1.3 0-1.6C1.8 6.1 1.9 6 2.1 5.9c0.1 0 0.3 0 0.4 0C4 6 6.3 7.5 6.8 8.4c0 0 0 0 0 0.1C7.2 8.4 7.9 8.1 8 7.4 8 7.3 8 7.3 7.9 7.3 6.8 5.4 4.1 4.5 2.2 4.1 0.8 3.9 0.7 4.6 0.4 5.5c-0.8 2.2 0.3 6 1.9 7.7 0 0 0 0 0 0C2.8 13.1 3.4 12.5 3.4 11.9z" class="a"/><path d="M20.1 48.7c0.1-2.4 1.6-4.2 3.8-4.3 0.4-0.1 0.8 0 0.8-0.3 0-0.7-1.6-0.7-2.9-0.1 -1.9 0.8-2.4 2.6-2.6 4.7 -0.2 2.5 1.3 4.8 1.3 6.9 0.4-0.1 0.8-0.2 1.1-0.4C21.5 53.9 20 51 20.1 48.7z" fill="#B84526"/><path d="M20.4 55.6c-1.2 0.3-2.6 0.3-3.3 0.4 -2.6 0.3-3.7 1.6-3.4 4.3 3.5 0.3 5.8 0.2 9.3 0 0-2.1-0.6-3.4-1.5-5C21.2 55.4 20.8 55.5 20.4 55.6z" class="a"/><path d="M54.7 18.6c-3.3 1.4-5.7 3.2-7.5 6.7 0.3 0.7 0.8 1.2 1.6 1.2 0.7 0 0.9 0.5 1.2 1 0.9 1.9 3.1 2.4 4.8 1.1 0.5-0.4 0.8-0.9 1.6-0.4 1.5 1 3.1 0.6 4.5-0.3 -0.5-3.3-1.8-6.3-3.7-8.8C56.5 18.4 55.6 18.2 54.7 18.6z" class="b"/><path d="M9.5 37.3c4.2 7.3 4.5 15 2.5 22.9 0.6 0 1.1 0 1.7 0 -0.3-2.6 0.8-4 3.4-4.3 0.7-0.1 2.1-0.1 3.3-0.4 0-2.1-1.6-4.4-1.3-6.9 0.2-2.2 0.7-3.9 2.6-4.7 1.3-0.6 2.9-0.5 2.9 0.1 0 0.3-0.3 0.2-0.7 0.3 -2.1 0.1-3.6 1.9-3.8 4.3 -0.1 2.3 1.4 5.2 1.4 6.5 0.9 1.6 1.5 2.9 1.5 5 0.8 0 1.8-0.1 2.8-0.1 0 0 0 0 0 0 2.2-0.1 4.9-0.2 6.4-0.3 0.7 0 1.3 0 2-0.1 0.7 0 1.4 0 2 0 8.1-0.3 14.6-3.7 19.4-10.9 3.8-5.6 5.9-11.6 5.5-18.4 0-0.8-0.3-2.3-0.3-2.3 -1.5 0.8-3 1.3-4.5 0.3 -0.8-0.5-1.1 0-1.6 0.4 -1.7 1.3-3.8 0.8-4.8-1.1 -0.3-0.5-0.5-1-1.2-1 -0.8 0-1.2-0.6-1.6-1.2 -0.9 1.6-2.2 3.7-3.2 6.7 -1.5 4.7-1.6 7.9-2.5 12.6 -0.7 3.4-2.3 7-5.2 9.1 -0.5 0.4-1 0.7-1.6 0.9 -1 0.4-1.4 0.1-1.4 0.1 0.3-1.3 0.4-3 0.5-4.5 0 0 0 0 0 0 0-0.7 0-1.3 0-2 0-0.1 0-0.2 0-0.3 0 0 0-0.1 0-0.1 0-0.1 0-0.3 0-0.5 -0.1-12.9-3.3-18.6-7.1-22.6 -2.1 1.9-4.5 4.3-6 6.3 -1.8 2-4 2.3-6 0.6 -1.5-1.4-3.4-2.7-5.3-3.8C9.7 31.3 9.5 34.4 9.5 37.3z" class="c"/><path d="M9.6 25.9c-0.7 0.1-1.3-0.2-1.4-0.9 -0.1-0.8 0.1-1.4 1-1.6 0.8-0.2 1.4 0.1 1.5 1C10.9 25.2 10.4 25.6 9.6 25.9z" class="a"/><path d="M25.1 21.5c0.2 1-0.1 1.6-1 1.8 -0.7 0.2-1.2-0.2-1.5-0.8 -0.3-0.8 0-1.5 1.1-1.7C24.2 20.7 24.9 20.8 25.1 21.5z" class="a"/><path d="M68 22.6c0.4 1.3 1.5 2.1 2.7 2.1 1.2 0 2.2-0.6 2.2-1.9 0-2.7-6.9-2.7-6.9-7.8 0-2.6 1.9-4.6 4.6-4.6s4.3 1.5 5.1 3.6l-2.7 1.7c-0.4-1.4-1.1-2.3-2.4-2.3 -0.9 0-1.5 0.6-1.5 1.5 0 3 6.9 2.4 6.9 7.9 0 3-2.2 4.9-5.3 4.9 -2.6 0-4.5-1.3-5.3-3.3L68 22.6z" class="a"/><path d="M78.8 27.4V10.7h3.1v16.8H78.8z" class="a"/><path d="M95.8 27.4V17.1c0-0.5 0-1.1 0-1.1h0c0 0-0.3 0.6-0.5 1l-2.9 4.8h0l-2.8-4.8c-0.2-0.4-0.6-1.1-0.6-1.1h0c0 0 0 0.7 0 1.2v10.3h-3.1V10.7h3.4l2.5 4.5c0.2 0.4 0.6 1.1 0.6 1.1h0c0 0 0.4-0.7 0.6-1.1l2.5-4.5h3.4v16.8H95.8z" class="a"/><path d="M102.7 27.4V10.7h4.6c3.8 0 5.4 3.1 5.4 6s-1.8 6.1-5.8 6.1h-1.1v4.7H102.7zM107 19.8c1.8 0 2.7-1.4 2.7-3.1 0-1.7-0.9-3.1-2.7-3.1h-1.1v6.1H107z" class="a"/><path d="M115.3 27.4V10.7h3.1v13.8h4.9v3H115.3z" class="a"/><path d="M131.2 27.4h-3.1v-4.7l-4-12h3.5l1.7 6c0.2 0.9 0.4 2.1 0.4 2.1h0c0-0.2 0.2-1.2 0.4-2.1l1.7-6h3.5l-4.1 12.2V27.4z" class="a"/><path d="M144.8 22.6c0.4 1.3 1.5 2.1 2.7 2.1 1.2 0 2.2-0.6 2.2-1.9 0-2.7-6.9-2.7-6.9-7.8 0-2.6 1.9-4.6 4.6-4.6s4.3 1.5 5.1 3.6l-2.7 1.7c-0.4-1.4-1.1-2.3-2.4-2.3 -0.9 0-1.5 0.6-1.5 1.5 0 3 6.9 2.4 6.9 7.9 0 3-2.2 4.9-5.3 4.9 -2.6 0-4.5-1.3-5.3-3.3L144.8 22.6z" class="a"/><path d="M165.5 24.4c-0.8 2-2.4 3.3-5 3.3 -4.6 0-5.9-4.3-5.9-8.6 0-4.4 1.3-8.6 5.9-8.6 2.7 0 4.3 1.5 5.1 3.6l-2.7 1.7c-0.4-1.4-1.1-2.3-2.4-2.3 -2.1 0-2.8 2.6-2.8 5.6 0 3 0.6 5.6 2.8 5.6 1.2 0 1.9-0.8 2.3-2.1L165.5 24.4z" class="a"/><path d="M175.5 27.4v-6.3h-4.3v6.3h-3.1V10.7h3.1v7.5h4.3v-7.5h3.1v16.8H175.5z" class="a"/><path d="M182.4 27.4V10.7h8.9v3h-5.8v4.3h4.9v3h-4.9v3.5h5.8v3H182.4z" class="a"/><path d="M194.9 27.4V10.7h4.3c4.6 0 6.1 4 6.1 8.4 0 4.4-1.5 8.4-6.1 8.4H194.9zM199.3 24.4c2.1 0 3-2.4 3-5.4 0-3-0.9-5.4-3-5.4h-1.2v10.8H199.3z" class="a"/><path d="M215.6 10.7h3.1v11.2c0 4-2.2 5.8-5.1 5.8s-5.2-1.8-5.2-5.8V10.7h3.1V22c0 1.7 0.6 2.7 2 2.7 1.5 0 2-1.1 2-2.7V10.7z" class="a"/><path d="M222.6 27.4V10.7h3.1v13.8h4.9v3H222.6z" class="a"/><path d="M232.9 27.4V10.7h8.9v3h-5.8v4.3h4.9v3h-4.9v3.5h5.8v3H232.9z" class="a"/><path d="M73.5 50.7l-0.3-2h-3.3l-0.2 2h-4.4l3.8-17.8h5l3.8 17.8H73.5zM72 39.7c-0.2-1-0.3-2.5-0.3-2.5H71.7c0 0-0.2 1.4-0.3 2.5l-0.7 5.3h2.1L72 39.7z" class="a"/><path d="M81.9 50.7V32.9h5.3c4.1 0 5.7 3.5 5.7 6.3 0 3.4-1.9 6.5-5.9 6.5h-0.9v5H81.9zM86.9 41.9c1.3 0 1.8-1.3 1.8-2.6 0-1.4-0.5-2.6-1.9-2.6h-0.8v5.3H86.9z" class="a"/><path d="M96.9 50.7V32.9h5.3c4.1 0 5.7 3.5 5.7 6.3 0 3.4-1.9 6.5-5.9 6.5h-0.9v5H96.9zM101.9 41.9c1.3 0 1.8-1.3 1.8-2.6 0-1.4-0.5-2.6-1.9-2.6h-0.8v5.3H101.9z" class="a"/><path d="M111.3 41.8c0-4.7 1.1-9.2 6-9.2 5 0 6 4.5 6 9.2s-1.1 9.2-6 9.2C112.4 51 111.3 46.5 111.3 41.8zM119.1 41.8c0-3.2-0.2-5.2-1.8-5.2 -1.5 0-1.8 1.9-1.8 5.2s0.3 5.2 1.8 5.2C118.8 47 119.1 45 119.1 41.8z" class="a"/><path d="M127.6 50.7V32.9h4.2v17.8H127.6z" class="a"/><path d="M145 50.7l-3-6.8c-0.6-1.3-1.1-2.9-1.1-2.9h-0.1c0 0 0.1 1.7 0.1 3.1v6.6h-4V32.9h4.3l2.8 6.1c0.6 1.3 1.2 3 1.2 3h0.1c0 0-0.1-1.8-0.1-3.3v-5.8h4v17.8H145z" class="a"/><path d="M156.1 50.7V37h-2.6v-4.1h9.5v4.1h-2.6v13.7H156.1z" class="a"/><path d="M177.4 50.7v-9c0-1.1 0.1-2.1 0.1-2.1h-0.1c0 0-0.4 0.8-1.1 1.7l-2 2.7h-0.1l-2-2.7c-0.7-0.9-1-1.7-1-1.7h-0.1c0 0 0 1 0 2.1v9h-4V32.9h4.2l1.6 2.3c0.8 1.1 1.2 2 1.2 2h0.1c0 0 0.5-0.9 1.3-2l1.5-2.3h4.2v17.8H177.4z" class="a"/><path d="M186.5 50.7V32.9h9.9v3.9h-5.7v3.4h4.7v3.7h-4.7v2.9h5.7v3.9H186.5z" class="a"/><path d="M209.3 50.7l-3-6.8c-0.6-1.3-1.1-2.9-1.1-2.9h-0.1c0 0 0.1 1.7 0.1 3.1v6.6h-4V32.9h4.3l2.8 6.1c0.6 1.3 1.2 3 1.2 3h0.1c0 0-0.1-1.8-0.1-3.3v-5.8h4v17.8H209.3z" class="a"/><path d="M220.4 50.7V37h-2.6v-4.1h9.5v4.1h-2.6v13.7H220.4z" class="a"/><path d="M234.2 45.2c0.4 1.1 1.4 1.8 2.4 1.8 0.9 0 1.3-0.5 1.3-1.1 0-2.4-6.9-3-6.9-8.2 0-2.9 2.2-5.2 5.4-5.2 2.5 0 4.4 1.3 5.4 3.8l-3.4 2c-0.3-1.2-1.1-2.1-2.1-2.1 -0.7 0-1.2 0.5-1.2 1.2 0 2.5 7 2.6 7 8.3 0 3.3-2.4 5.3-5.7 5.3 -2.9 0-4.7-1.6-5.8-3.7L234.2 45.2z" class="a"/><rect x="65.4" width="176.8" height="5" class="a"/><rect x="65.4" y="56.3" width="176.8" height="5" class="a"/></svg>