<svg xmlns="http://www.w3.org/2000/svg" width="266" height="150">
  <g fill="#6772E5">
    <path d="M237.225 76.447c0-14.822-7.181-26.52-20.903-26.52-13.78 0-22.118 11.697-22.118 26.404 0 17.429 9.844 26.229 23.972 26.229 6.891 0 12.103-1.563 16.039-3.764v-11.58c-3.937 1.969-8.453 3.185-14.187 3.185-5.616 0-10.595-1.969-11.232-8.801h28.313c-.001-.751.116-3.763.116-5.153zm-28.604-5.5c0-6.543 3.995-9.264 7.643-9.264 3.532 0 7.296 2.721 7.296 9.264h-14.939zM171.853 49.928c-5.674 0-9.321 2.664-11.35 4.517l-.751-3.59h-12.74v67.515l14.476-3.069.058-16.386c2.086 1.505 5.154 3.647 10.25 3.647 10.363 0 19.803-8.338 19.803-26.693-.059-16.792-9.614-25.941-19.746-25.941zm-3.475 39.895c-3.416 0-5.442-1.216-6.833-2.722l-.058-21.482c1.506-1.68 3.59-2.837 6.891-2.837 5.27 0 8.918 5.906 8.918 13.492 0 7.759-3.591 13.549-8.918 13.549zM127.094 46.512l14.533-3.127V31.631L127.094 34.7zM127.094 50.912h14.533v50.665h-14.533zM111.519 55.197l-.927-4.285H98.085v50.665h14.476V67.241c3.416-4.458 9.206-3.648 11.001-3.011V50.912c-1.853-.695-8.627-1.969-12.043 4.285zM82.567 38.348l-14.128 3.011-.058 46.38c0 8.569 6.427 14.881 14.997 14.881 4.748 0 8.223-.868 10.133-1.91V88.955c-1.853.753-11.002 3.415-11.002-5.154V63.246h11.002V50.912H82.509l.058-12.564zM43.425 65.62c0-2.258 1.853-3.127 4.922-3.127 4.4 0 9.959 1.332 14.359 3.706V52.591c-4.806-1.911-9.554-2.664-14.359-2.664-11.754 0-19.571 6.138-19.571 16.387 0 15.981 22.003 13.433 22.003 20.324 0 2.664-2.316 3.532-5.559 3.532-4.806 0-10.943-1.97-15.808-4.633v13.781c5.385 2.315 10.828 3.3 15.808 3.3 12.043 0 20.324-5.964 20.324-16.328-.058-17.254-22.119-14.185-22.119-20.67z"/>
  </g>
</svg>