<svg xmlns="http://www.w3.org/2000/svg" width="464" height="261"><path fill="#462D3B" d="M19.9 48.3c.5 1.5 1.8 2.6 3.2 2.6 1.5 0 2.7-.7 2.7-2.3 0-3.3-8.4-3.3-8.4-9.5 0-3.1 2.3-5.6 5.6-5.6s5.2 1.8 6.2 4.4l-3.3 2c-.5-1.7-1.4-2.8-2.9-2.8-1.1 0-1.8.7-1.8 1.8 0 3.6 8.4 2.9 8.4 9.6 0 3.6-2.7 5.9-6.5 5.9-3.1 0-5.4-1.6-6.5-4l3.3-2.1zM33 54.2V33.8h3.8v20.4H33zM53.6 54.2V41.6v-1.4h-.1s-.3.7-.6 1.2l-3.5 5.9h-.1l-3.4-5.8c-.3-.5-.7-1.3-.7-1.3h-.1v14h-3.8V33.8h4.2l3.1 5.5c.3.5.7 1.3.7 1.3h.1s.4-.8.7-1.3l3.1-5.4h4.2v20.4h-3.8v-.1zM62 54.2V33.8h5.6c4.6 0 6.5 3.7 6.5 7.3s-2.2 7.4-7.1 7.4h-1.3v5.7H62zm5.2-9.3c2.2 0 3.2-1.7 3.2-3.7 0-2.1-1.1-3.7-3.3-3.7h-1.4v7.4h1.5zM77.3 54.2V33.8h3.8v16.7H87v3.6h-9.7v.1zM96.7 54.2h-3.8v-5.7L88 33.9h4.2l2 7.3c.3 1.1.5 2.6.5 2.6h.1c0-.3.2-1.5.5-2.6l2-7.3h4.3l-4.9 14.8v5.5zM113.2 48.3c.5 1.5 1.8 2.6 3.2 2.6 1.5 0 2.7-.7 2.7-2.3 0-3.3-8.4-3.3-8.4-9.5 0-3.1 2.3-5.6 5.6-5.6s5.2 1.8 6.2 4.4l-3.3 2c-.5-1.7-1.4-2.8-2.9-2.8-1.1 0-1.8.7-1.8 1.8 0 3.6 8.4 2.9 8.4 9.6 0 3.6-2.7 5.9-6.5 5.9-3.1 0-5.4-1.6-6.5-4l3.3-2.1zM138.3 50.5c-1 2.4-2.9 4-6 4-5.6 0-7.2-5.2-7.2-10.5s1.5-10.5 7.2-10.5c3.3 0 5.2 1.8 6.2 4.4l-3.3 2c-.5-1.7-1.4-2.8-2.9-2.8-2.6 0-3.4 3.2-3.4 6.8s.8 6.8 3.4 6.8c1.5 0 2.3-1 2.8-2.6l3.2 2.4zM150.4 54.2v-7.6h-5.2v7.6h-3.8V33.8h3.8v9.1h5.2v-9.1h3.8v20.4h-3.8zM158.8 54.2V33.8h10.8v3.6h-7v5.2h5.9v3.6h-5.9v4.2h7V54h-10.8v.2zM174 54.2V33.8h5.3c5.6 0 7.4 4.9 7.4 10.2s-1.8 10.2-7.4 10.2H174zm5.3-3.7c2.6 0 3.7-2.9 3.7-6.5s-1.1-6.5-3.7-6.5h-1.5v13.1h1.5v-.1zM199.1 33.8h3.8v13.6c0 4.9-2.6 7.1-6.2 7.1s-6.3-2.2-6.3-7.1V33.8h3.8v13.8c0 2 .7 3.3 2.5 3.3s2.5-1.3 2.5-3.3V33.8h-.1zM207.6 54.2V33.8h3.8v16.7h5.9v3.6h-9.7v.1zM220.2 54.2V33.8H231v3.6h-7v5.2h5.9v3.6H224v4.2h7V54h-10.8v.2zM26.6 82.4l-.3-2.4h-4l-.2 2.4h-5.4l4.6-21.6h6l4.6 21.6h-5.3zM24.7 69c-.2-1.2-.3-3-.3-3h-.1s-.2 1.8-.4 3l-.9 6.5h2.5l-.8-6.5zM36.7 82.4V60.8h6.4c4.9 0 7 4.3 7 7.7 0 4.1-2.3 7.9-7.2 7.9h-1.1v6h-5.1zm6.1-10.6c1.6 0 2.2-1.6 2.2-3.2 0-1.8-.6-3.2-2.3-3.2h-.9v6.4h1zM55 82.4V60.8h6.4c4.9 0 7 4.3 7 7.7 0 4.1-2.3 7.9-7.2 7.9h-1.1v6H55zm6.1-10.6c1.6 0 2.2-1.6 2.2-3.2 0-1.8-.6-3.2-2.3-3.2h-.9v6.4h1zM72.4 71.6c0-5.7 1.3-11.2 7.3-11.2S87 65.9 87 71.6c0 5.7-1.3 11.2-7.3 11.2-6 .1-7.3-5.4-7.3-11.2zm9.5 0c0-3.9-.3-6.3-2.2-6.3-1.9 0-2.2 2.3-2.2 6.3s.3 6.3 2.2 6.3c1.9 0 2.2-2.3 2.2-6.3zM92.3 82.4V60.8h5.1v21.6h-5.1zM113.4 82.4l-3.7-8.3c-.7-1.6-1.3-3.5-1.3-3.5h-.1s.1 2.1.1 3.8v8h-4.8V60.8h5.2l3.4 7.4c.7 1.5 1.5 3.7 1.5 3.7h.1s-.1-2.2-.1-4v-7.1h4.8v21.6h-5.1zM126.9 82.4V65.8h-3.2v-4.9h11.5v4.9H132v16.7h-5.1v-.1zM152.8 82.4V71.5c0-1.4.1-2.6.1-2.6h-.1s-.5.9-1.3 2.1l-2.4 3.3h-.1l-2.4-3.3c-.8-1.1-1.3-2.1-1.3-2.1h-.1v13.6h-4.8V60.8h5.1l1.9 2.7c.9 1.3 1.5 2.4 1.5 2.4h.1s.6-1 1.5-2.4l1.9-2.7h5.1v21.6h-4.7zM163.8 82.4V60.8h12v4.7h-6.9v4.1h5.7v4.5h-5.7v3.6h6.9v4.7h-12zM191.4 82.4l-3.7-8.3c-.7-1.6-1.3-3.5-1.3-3.5h-.1s.1 2.1.1 3.8v8h-4.8V60.8h5.2l3.4 7.4c.7 1.5 1.5 3.7 1.5 3.7h.1s-.1-2.2-.1-4v-7.1h4.8v21.6h-5.1zM204.9 82.4V65.8h-3.2v-4.9h11.5v4.9H210v16.7h-5.1v-.1zM221.7 75.8c.5 1.3 1.7 2.2 2.9 2.2 1 0 1.6-.6 1.6-1.4 0-3-8.4-3.6-8.4-10 0-3.5 2.7-6.3 6.6-6.3 3.1 0 5.4 1.6 6.5 4.7l-4.1 2.4c-.3-1.4-1.3-2.5-2.5-2.5-.9 0-1.5.6-1.5 1.4 0 3.1 8.5 3.1 8.5 10 0 4-3 6.5-6.9 6.5-3.5 0-5.7-1.9-7-4.5l4.3-2.5zM16.7 20.9h214.7V27H16.7zM16.7 89.2h214.7v6.1H16.7z"/><path fill="#FFF8F0" d="M397.459 98.866c-19.764-3.952-40.711 1.263-48.482 28.082-2.866 9.89-3.21 22.601-2.802 32.789h-.009c1.736 2.791 1.736 5.566-1.069 8.43-4.058 4.143-8.872 3.683-13.13 2.448-4.004-1.156-7.375-5.552-4.963-10.602.056-.051.119-.096.178-.148-.401-14.306-1.453-23.636-4.765-35.428-6.194-22.045-31.03-30.736-50.72-22.165-9.363 4.076-17.701 9.093-24.508 17.065 2.354 4.34 8.811 6.887 13.628 8.813 6.98 2.797 20.001 11.112 32.929 20.836 9.718 7.308 19.384 15.407 26.399 22.566 11.127 9.86 23.824 10.135 33.579-1.171 8.953-10.382 20.83-20.608 32.445-29.278 16.747-12.496 32.957-21.756 39.093-23.531-7.033-9.567-16.578-16.459-27.803-18.706z"/><path fill="#F2692B" d="M271.697 102.272c19.689-8.572 44.525.119 50.72 22.165 3.312 11.792 4.363 21.122 4.765 35.428 5.218-4.737 14.238-3.774 17.979-1.544.388.475.715.945 1.006 1.416h.008c-.407-10.188-.063-22.899 2.803-32.789 7.771-26.819 28.719-32.033 48.482-28.082 11.225 2.248 20.77 9.139 27.804 18.707 2.678-.694 4.844-2.082 3.794-5.171-6.067-17.839-9.128-35.876-21.326-55.08-2.976-.016-5.016-2.894-5.403-6.169-1.96-5.264-13.581-14.688-21.278-17.143-.058.137-.139.283-.186.413-2.365.059-6.259-1.228-7.328-5.086.11-.276.251-.539.373-.812-9.532-3.817-21.431-6.328-36.101-5.924-12.951.358-23.646 1.862-32.751 4.871.009.021.02.04.027.062-1.069 3.862-4.962 5.151-7.328 5.09-.01-.029-.038-.078-.052-.111-7.646 2.866-18.363 12.085-20.256 17.171-.387 3.268-3.975 6.132-6.955 6.16-.384.609-.778 1.186-1.158 1.818-7.912 13.098-13.931 30.854-21.95 52.788-1.364 3.73-1.995 6.736-.195 8.888 6.805-7.973 15.143-12.99 24.506-17.066z"/><path fill="#FFF8F0" d="M278.27 17.059c-5.644.694-5.405 8.267-5.899 13.335-.626 6.385 1.164 13.582 5.078 19.289 1.893-5.086 12.609-14.305 20.256-17.171-1.173-2.845-11.101-16.482-19.435-15.453z"/><path fill="#462D3B" d="M327.182 159.864c-.059.053-.122.098-.178.148-2.412 5.05.959 9.445 4.963 10.602 4.258 1.234 9.072 1.694 13.13-2.448 2.806-2.863 2.806-5.639 1.069-8.43a13.108 13.108 0 0 0-1.006-1.416c-3.74-2.23-12.761-3.193-17.978 1.544zM277.448 49.684c-3.914-5.708-5.704-12.904-5.078-19.289.494-5.069.256-12.641 5.899-13.335 8.335-1.029 18.263 12.607 19.435 15.454.014.033.042.082.052.111 2.366.061 6.259-1.228 7.328-5.09-.008-.021-.019-.041-.027-.062-4.692-11.726-13.666-13.94-23.324-19.28-4.717-2.604-9.869.303-13.033 4.464-7.984 10.487-5.763 32.919 1.753 43.193.012 0 .027-.005.041-.005 2.98-.03 6.568-2.894 6.954-6.161z"/><path fill="#FFF8F0" d="M408.267 28.607c-.149-4.297-.396-7.149-.942-8.965-.616-1.104-1.364-2.001-2.265-2.596-.679-.149-1.5-.092-2.511.132-8.079 1.794-19.211 11.616-21.5 16.832 7.697 2.456 19.318 11.879 21.278 17.143 3.909-5.703 6.161-16.13 5.94-22.546z"/><path fill="#462D3B" d="M380.863 34.423c.047-.13.128-.276.186-.413 2.289-5.215 13.421-15.038 21.5-16.832 1.011-.224 1.832-.281 2.511-.132 1.078.236 1.789 1.023 2.265 2.596.547 1.816.793 4.668.942 8.965.222 6.416-2.03 16.842-5.939 22.546.388 3.275 2.428 6.153 5.403 6.169l.02.001c7.521-10.278 12.841-32.468 6.586-44.076-2.477-4.6-3.704-8.51-11.245-6.045-10.269 3.351-24.167 10.035-29.183 21.321-.122.273-.263.536-.373.812 1.068 3.86 4.962 5.146 7.327 5.088z"/><path fill="#F2692B" d="M304.643 261a283.72 283.72 0 0 0-.97-7.452c-1.245-8.611-2.549-16.771-.571-25.106 2.371-10.016 12.733-14.55 20.16-7.236 4.839 4.763 7.312 12.628 7.69 19.41.383 6.793.688 13.59.954 20.385h85.036c-1.052-22.409-4.273-43.673-10.505-64.947-4.507-15.385-10.56-30.775-18.511-46.62-1.102-2.198-1.671-5.464-1.757-8.329-11.615 8.67-23.492 18.896-32.445 29.278-9.755 11.306-22.452 11.031-33.579 1.171-7.016-7.159-16.682-15.259-26.399-22.566-1.865 3.127-4.009 6.151-5.415 9.479-5.969 14.099-11.695 25.813-16.566 37.588-7.599 18.377-13.101 36.914-14.111 64.947h46.989z"/><path fill="#462D3B" d="M304.643 261h27.264c-.267-6.795-.571-13.592-.954-20.385-.379-6.782-2.852-14.647-7.69-19.41-7.427-7.313-17.789-2.779-20.16 7.236-1.978 8.336-.674 16.495.571 25.106.36 2.48.673 4.967.969 7.453zM365.354 118.951c1.72 4.036 5.077 6.913 9.084 8.007 1.365.37 2.804.536 4.278.47 5.878-.264 10.701-4.038 12.583-9.847a3.65 3.65 0 0 0-2.349-4.597c-1.864-.648-3.973.426-4.6 2.345-.931 2.885-3.162 4.681-5.964 4.802-2.179.1-4.987-.913-6.316-4.044a3.652 3.652 0 0 0-6.716 2.864zM306.476 118.059a3.649 3.649 0 0 0-2.026-4.75 3.656 3.656 0 0 0-4.748 2.026c-1.125 2.816-3.478 4.451-6.275 4.385-2.184-.053-4.911-1.254-6.022-4.468a3.65 3.65 0 0 0-4.646-2.256 3.658 3.658 0 0 0-2.258 4.649c1.446 4.17 4.634 7.283 8.587 8.634 1.32.451 2.712.709 4.163.739 5.882.144 10.946-3.289 13.225-8.959z"/><g><path fill="#DFDFDE" d="M381.357 164.198a.498.498 0 0 1 .18-.007c.329.036.531.366.459.734-.066.303-.299.545-.561.594a.468.468 0 0 1-.176.007c-.324-.034-.526-.368-.455-.743.064-.302.292-.532.553-.585z"/><path fill="#9A9D9F" d="M381.581 163.989c.423.056.683.481.586.958-.08.394-.378.702-.719.769a.907.907 0 0 1-.227.013c-.428-.051-.696-.485-.591-.958.078-.396.385-.704.725-.771a.71.71 0 0 1 .226-.011zm.415.937c.072-.368-.13-.698-.459-.734a.498.498 0 0 0-.18.007c-.262.053-.489.283-.553.585-.071.375.131.709.455.743a.47.47 0 0 0 .176-.007c.262-.049.495-.291.561-.594z"/><path fill="#30302F" d="M375.988 162.427c.851.106 1.381.967 1.182 1.927-.163.789-.766 1.4-1.447 1.534a1.42 1.42 0 0 1-.45.02c-.854-.108-1.379-.967-1.184-1.929.158-.785.762-1.396 1.444-1.528.149-.033.303-.039.455-.024zm.226 1.809c.078-.362-.126-.694-.446-.729a.538.538 0 0 0-.174.007c-.261.053-.488.281-.551.588-.071.355.127.683.447.722a.623.623 0 0 0 .178-.005c.259-.055.485-.285.546-.583z"/><path fill="#202842" d="M375.594 163.515a.538.538 0 0 1 .174-.007c.32.034.524.366.446.729a.743.743 0 0 1-.546.583.623.623 0 0 1-.178.005c-.32-.039-.519-.366-.447-.722.062-.307.29-.536.551-.588z"/><path fill="#555656" d="M376.171 161.524c1.293.159 2.102 1.467 1.803 2.923-.248 1.2-1.17 2.126-2.204 2.333a2.044 2.044 0 0 1-.68.027c-1.298-.153-2.102-1.458-1.806-2.918.249-1.205 1.171-2.134 2.204-2.338.226-.044.452-.057.683-.027zm.999 2.83c.199-.96-.331-1.82-1.182-1.927a1.476 1.476 0 0 0-.455.023c-.683.132-1.286.743-1.444 1.528-.195.962.33 1.82 1.184 1.929.149.017.301.013.45-.02.681-.133 1.284-.744 1.447-1.533z"/><path fill="#F5F5F5" d="M382.095 160.902c1.903.229 3.083 2.15 2.646 4.298-.364 1.752-1.713 3.119-3.234 3.419a3.17 3.17 0 0 1-1.002.045l-6.885-.826c-1.896-.231-3.084-2.152-2.645-4.291.36-1.768 1.707-3.128 3.231-3.428.331-.063.67-.081 1.01-.04l6.879.823zm-4.121 3.545c.299-1.456-.51-2.764-1.803-2.923a2.088 2.088 0 0 0-.683.027c-1.033.204-1.955 1.133-2.204 2.338-.296 1.46.508 2.765 1.806 2.918.227.03.456.018.68-.027 1.034-.207 1.956-1.133 2.204-2.333zm4.193.5c.097-.477-.163-.902-.586-.958a.71.71 0 0 0-.226.011c-.34.066-.646.375-.725.771-.105.473.163.907.591.958a.912.912 0 0 0 .227-.013c.341-.067.639-.375.719-.769zm-2.663-.315c.036-.174-.058-.312-.204-.34-.027 0-.055 0-.082.008a.333.333 0 0 0-.252.271c-.036.162.061.315.204.332a.222.222 0 0 0 .085-.004.34.34 0 0 0 .249-.267z"/><path fill="#3F4DA1" d="M401.966 158.114c-.03-.016-.162-.062-.196-.077a3.88 3.88 0 0 0-.298-.087c-.027-.009-.052-.021-.08-.027l-.21-.03-31.973-3.723a2.685 2.685 0 0 0-.839.031 3.479 3.479 0 0 0-1.393.658 3.395 3.395 0 0 0-.389.345 5.594 5.594 0 0 0-.331.372 4.642 4.642 0 0 0-.562.918 5.089 5.089 0 0 0-.361 1.092l-14.301 70.627c-.353 1.746.325 3.334 1.562 3.919l3.387 1.605c-1.232-.585-1.907-2.169-1.558-3.923l14.303-70.623c.027-.158.07-.303.112-.451.066-.222.152-.437.248-.642.08-.174.168-.338.267-.495a4.345 4.345 0 0 1 1.016-1.14c.163-.127.334-.24.509-.334.281-.155.58-.264.883-.323.271-.056.556-.066.837-.032l31.976 3.724a2.745 2.745 0 0 1 .597.154c.059.019.125.042.184.067l-3.39-1.605z"/><path fill="#5E6BB2" d="M404.574 159.498c1.715.197 2.764 2.052 2.344 4.143l-14.304 70.627c-.354 1.745-1.625 3.102-3.03 3.378-.276.056-.556.07-.835.036l-31.99-3.723c-1.71-.196-2.754-2.055-2.334-4.145l14.303-70.623c.355-1.75 1.623-3.104 3.034-3.385.271-.056.556-.066.837-.032l31.975 3.724zm-19.833 5.702c.437-2.147-.743-4.069-2.646-4.298l-6.878-.823a3.286 3.286 0 0 0-1.01.04c-1.524.3-2.871 1.66-3.231 3.428-.439 2.139.748 4.06 2.645 4.291l6.885.826a3.17 3.17 0 0 0 1.002-.045c1.52-.3 2.869-1.667 3.233-3.419z"/></g><path fill="#462D3B" d="M387.011 226.63c5.859 1.347 11.165 1.379 15.759 2.743 4.246 1.263 6.316 2.619 7.03 3.289.144 8.132-1.657 18.007-4.942 28.338h27.057c2.811-10.822 4.195-21.145 3.927-30.345-.196-6.757-2.879-12.884-7.762-17.711-3.289-3.258-7.634-5.952-12.918-8.013-8.038-3.143-13.167-4.103-23.835-5.103-5.954-.559-15.172 3.278-16.36 10.675-1.195 7.403 6.217 14.785 12.044 16.127z"/></svg>