<svg xmlns="http://www.w3.org/2000/svg" width="266" height="150"><path fill="#33190B" d="M98.576 31.035c.201-.195 3.314-2.398 3.255-1.678-.124 1.535 1.288.334 2.026.659.764.336 1.328 1.627 2.177 2.124 1.392.815 4.57 2.15 5.902.563.537 1.602 2.721 2.174 3.833.828 2.062 1.492 4.432-.448 4.176-2.729 1.283 1.622 5.138-1.05 3.472-3.426 2.189.075 2.767-3.159.788-3.841 1.575-1.263.625-4.458-1.45-4.513 1.083-1.271-.091-3.504-1.658-3.645.66-1.348-.475-2.328-1.823-2.155.645-1.448.236-4.341-3.539-3.396 2.276-3.795-4.214-7.205-7.226-5.411-.798-3.384-5.619-2.646-6.485-.662-.694-1.045-3.187-1.24-3.007.432-2.129-1.893-8.447.564-6.452 3.578-4.543.184-6.64 4.807-4.805 6.13-3.043-.44-3.683 3.003-2.32 4.973-2.506-.16-3.365 4.408-1.371 5.538-1.636 2.745.312 4.066 1.531 3.8-1.018 1.67.778 4.694 2.972 3.339-.63 3.24 2.858 3.596 3.471 2.154 1.415 3.183 5.358-1.523 6.533-2.662z"/><path fill="#8E5F35" d="M115.673 12.98c-2.36-3.346-4.782-3.449-8.688-3.611h-4.246c-3.907.162-6.33.266-8.688 3.611-2.361 3.349-1.467 4.217-1.281 8.256.141 3.053-1.683.911-.42 9.398 1.262 8.488 8.633 11.211 12.511 11.211 3.879 0 10.698-2.276 12.514-11.211 1.816-8.934-.563-6.346-.421-9.398.185-4.039 1.08-4.907-1.281-8.256z"/><path fill="#8E5F35" d="M102.483 40.691h4.757v6.964h-4.757z"/><path fill="#5F3A1B" d="M104.02 33.758a.482.482 0 01-.482-.526c.066-.733.169-3.612.169-4.493a.483.483 0 01.966 0c0 .838-.099 3.759-.172 4.58a.483.483 0 01-.481.439z"/><path fill="#563217" d="M104.669 37.586c-1.39 0-3.004-.341-3.889-1.318a.484.484 0 11.718-.649c.638.706 2.076 1.094 3.67.983 1.227-.084 2.268-.458 2.592-.933a.485.485 0 01.798.546c-.505.739-1.748 1.244-3.326 1.351-.181.015-.37.02-.563.02z"/><ellipse fill="#3A1E0C" cx="97.909" cy="28.41" rx="1.717" ry="2.037"/><path fill="#3A1E0C" d="M100.075 24.791a.52.52 0 01-.392-.177c-.486-.548-1.142-.672-1.606-.681-.73-.012-1.496.267-1.901.694a.524.524 0 01-.759-.72c.613-.646 1.645-1.035 2.678-1.02.953.016 1.795.383 2.371 1.032a.524.524 0 01-.391.872zM110.075 24.732a.524.524 0 01-.412-.846c.441-.561 1.273-.936 2.172-.979.949-.043 1.822.289 2.444.942a.523.523 0 11-.758.721c-.553-.58-1.263-.639-1.637-.618-.673.032-1.196.323-1.397.58a.52.52 0 01-.412.2z"/><ellipse fill="#3A1E0C" cx="111.792" cy="28.41" rx="1.717" ry="2.037"/><ellipse fill="#AE6751" cx="96.783" cy="32.857" rx="2.424" ry="1.674"/><ellipse fill="#AE6751" cx="112.919" cy="32.857" rx="2.424" ry="1.674"/><path fill="#8E5F35" d="M118.55 74.377c.074-.033-3.877-21.731-4.722-24.36-1.159-3.608-1.58-3.896-6.587-6.21-.748-.279-1.873.02-2.38.182-.505-.162-1.631-.461-2.379-.182-5.007 2.314-5.428 2.602-6.586 6.21-.845 2.629-4.796 24.327-4.722 24.36-.562 2.419-.699 5.132.241 6.689 1.209 2.012 2.75 3.273 3.446 1.736.24-.529-1.382-2.648-.664-4.299.106-.244.021-.266.223-.283.264-.023.292 1.938.36 2.131.234.654 1.219.494 1.228-.246l.004-2.762c.013-.459-.065-1.238-.534-1.555-.485-.329.436-6.031.623-7.202.744-4.639 1.646-10.167 2.727-14.893-.111-1.013.391-1.647.391-1.647a80.643 80.643 0 00-.391 1.647c.047.434.205.936.566 1.488.863 1.323 2.375 4.684 2.013 8.28-.362 3.597-4.666 5.586-4.752 12.78-.081 6.652 2.609 32.477 2.359 37.564-.054 1.1-.601 1.904-1.014 2.393-.258.305-.31 1.119-.312 1.176-.06 1.908-1.839 1.818-1.839 1.818s-.309.916.706.449l6.627-3.045s.371.652.371-.762l-.101-40.028 1.411-.122 1.412.122-.027 11.348-.073 28.68c0 1.414.371.762.371.762l6.627 3.045c1.016.467.707-.449.707-.449s-1.779.09-1.839-1.818c-.001-.057-.053-.871-.311-1.176-.414-.488-.961-1.293-1.015-2.393-.169-3.451 1.013-16.438 1.767-26.516.007 0 .013 0 .02.002.346-4.752.599-8.879.573-11.051-.087-7.194-4.188-8.426-4.55-12.023s.947-7.714 1.811-9.037c.361-.553.519-1.055.565-1.488a79.172 79.172 0 00-.39-1.647s.501.635.39 1.647c1.081 4.726 1.983 10.254 2.726 14.893.188 1.171 1.11 6.873.625 7.202-.47.317-.546 1.096-.534 1.555l.003 2.762c.01.74.994.9 1.227.246.07-.193.097-2.154.361-2.131.202.018.117.039.224.283.719 1.65-.904 3.77-.663 4.299.695 1.537 2.236.275 3.446-1.736.933-1.555.797-4.268.234-6.688z"/><path fill="#F5CC99" d="M98.827 53.694a79.1 79.1 0 01.391-1.647c0-.001-.502.634-.391 1.647zM110.506 52.046c.133.534.263 1.087.39 1.647.112-1.012-.39-1.647-.39-1.647z"/><path fill="#F5CC99" d="M98.827 53.694a79.1 79.1 0 01.391-1.647c0-.001-.502.634-.391 1.647zM110.506 52.046c.133.534.263 1.087.39 1.647.112-1.012-.39-1.647-.39-1.647z"/><path fill="#FFF" d="M108.379 44.26l-1.14-1.153s-1.912 1.368-2.418 1.53c-.506-.162-2.339-1.53-2.339-1.53l-1.077 1.054-1.8 1.032c.662 3.746 3.532 8.247 5.216 11.504 2.11-3.339 5.112-7.565 5.667-11.402l-2.109-1.035z"/><g fill="#3D323F"><path d="M98.49 53.694c-.077.729-.032 1.265.071 1.682.387-1.973.657-3.329.657-3.329-.133.534-.6 1.086-.728 1.647z"/><path d="M98.561 55.555a.18.18 0 01-.174-.137c-.123-.492-.147-1.062-.076-1.744.076-.333.239-.633.395-.923.144-.263.279-.511.338-.749a.178.178 0 01.213-.131.18.18 0 01.137.21s-.271 1.356-.656 3.328a.183.183 0 01-.172.146h-.005zm.193-2.096a1.744 1.744 0 00-.089.274 6.714 6.714 0 00-.025.308l.114-.582z"/></g><path fill="#B0ADB2" d="M102.535 47.625l-1.182-3.119a.27.27 0 01.504-.192l.884 2.333 1.888-1.918a.27.27 0 01.384.378l-2.478 2.518z"/><path fill="#B0ADB2" d="M107.088 47.606l-2.458-2.498a.27.27 0 01.384-.378l1.908 1.938 1.021-2.263c.062-.136.222-.196.357-.136a.27.27 0 01.134.357l-1.346 2.98z"/><g fill="#3D323F"><path d="M111.233 53.694c-.128-.561-.594-1.113-.727-1.647 0 0 .279 1.398.675 3.423.168-.47.238-1.049.052-1.776z"/><path d="M111.182 55.65l-.014-.001a.18.18 0 01-.163-.145c-.396-2.024-.675-3.423-.675-3.423a.18.18 0 01.137-.21.18.18 0 01.214.131c.058.238.193.486.336.749.158.29.321.59.392.902.171.672.152 1.287-.058 1.877a.182.182 0 01-.169.12zm-.212-2.189l.193.98a3.259 3.259 0 00-.104-.704 1.84 1.84 0 00-.089-.276z"/></g><path fill="#4C2F19" d="M113.25 76.912c-.021-1.807-.2-3.467-.546-5.076a.18.18 0 00-.176-.143H97.207a.18.18 0 00-.175.143 25.337 25.337 0 00-.559 5.076c-.031 2.527.419 9.705.423 9.777a.18.18 0 00.175.168c.577.014 1.957.02 4.221.02h.001c2.368 0 5.249-.008 7.555-.012a977.56 977.56 0 013.528-.008h.284a.18.18 0 00.179-.168c.006-.074.442-7.277.411-9.777z"/><path fill="#59772A" d="M118.844 74.891a15.96 15.96 0 00-.119-.554l-.015.003c-.006-.301-.152-1.111-.57-3.445a1014.3 1014.3 0 00-1.429-7.758c-.805-4.274-2.228-11.669-2.711-13.175-.832-2.588-1.28-3.525-3.424-4.726a.18.18 0 00-.216.031c-1.304 1.334-3.446 2.162-5.591 2.162-2.183 0-3.964-.831-5.016-2.34a.18.18 0 00-.231-.057c-2.406 1.274-2.896 2.125-3.798 4.929-.483 1.505-1.905 8.9-2.711 13.175-.498 2.647-1.018 5.475-1.428 7.758-.419 2.335-.564 3.145-.571 3.445l-.015-.003c-.074.321-.142.651-.201.981a.178.178 0 00.093.19c.496.26 1.218.402 2.035.402.797 0 1.655-.135 2.477-.39a.178.178 0 00.126-.186c-.049-.628.04-2.296.741-6.676l.008-.046c.473-2.948 1.617-8.898 2.335-12.576.139.277.3.485.44.666.068.09.133.174.188.259 1.031 1.579 1.228 3.893.586 6.877-.123.569-.426 1.269-.811 2.155-.611 1.406-1.448 3.332-1.985 5.841a.177.177 0 00.175.216h15.321a.185.185 0 00.141-.066.18.18 0 00.035-.15c-.494-2.3-1.248-4.042-1.853-5.441-.413-.954-.77-1.778-.957-2.56-.688-2.854-.484-5.23.587-6.872.052-.08.118-.168.19-.264.138-.186.296-.397.44-.651.711 3.642 1.86 9.61 2.333 12.566l.006.041c.713 4.44.796 6.102.74 6.714a.178.178 0 00.157.194c.441.054.904.081 1.372.081 1.287 0 2.393-.205 3.035-.562a.169.169 0 00.091-.188z"/><path fill="#4C2F19" d="M98.165 115.873c-.718 1.479-2.023 2.5-2.023 2.5-.789.924-.839 1.418-.087 1.51 0 0 1.56.193 2.591-.092 2.267-.623 3.469-2.32 3.709-2.445l.163 1.654c.598.359.937-.064.937-.064s.706-4.871.08-5.363c-.108-.084 0 0 0 0 .053.041-1.718 3.166-4.349 3.74-.448.098-1.006.145-1.262-.383-.141-.293.111-.795.241-1.057zM111.56 115.873c.717 1.479 2.022 2.5 2.022 2.5.789.924.839 1.418.087 1.51 0 0-1.559.193-2.59-.092-2.268-.623-3.469-2.32-3.709-2.445l-.163 1.654c-.598.359-.936-.064-.936-.064s-.707-4.871-.08-5.363c.107-.084 0 0 0 0-.053.041 1.717 3.166 4.348 3.74.447.098 1.005.145 1.262-.383.141-.293-.113-.795-.241-1.057z"/><path fill="#46591D" d="M111.849 46.078a8.798 8.798 0 00-1.273-.841.18.18 0 00-.216.031c-1.304 1.334-3.446 2.162-5.591 2.162-2.183 0-3.964-.831-5.016-2.34a.18.18 0 00-.23-.057c-.562.297-.995.561-1.364.83a.18.18 0 00-.073.123.18.18 0 00.041.137c1.6 1.917 3.672 3.017 6.696 3.017 0 0 4.241.304 7.047-2.803a.186.186 0 00.046-.134.19.19 0 00-.067-.125zM98.452 56.049a.272.272 0 01-.225-.119c-.048-.073-1.175-1.817.317-4.976.225-.41.414-.958.349-1.14a.27.27 0 01.164-.345.269.269 0 01.344.164c.18.508-.283 1.394-.377 1.565-1.354 2.869-.358 4.415-.349 4.431a.27.27 0 01-.223.42zM111.229 56.049a.27.27 0 01-.224-.418c.01-.015.996-1.586-.356-4.446-.086-.157-.549-1.043-.369-1.551a.27.27 0 11.507.181c-.064.182.125.729.342 1.125 1.499 3.173.373 4.917.324 4.99a.27.27 0 01-.224.119z"/><path fill="#33190B" d="M121.181 19.872c-.152-2.786-2.518-6.634-4.788-7.983-.249-.148-.623-.275-1.047-.36-.332-2.564-4.019-5.224-4.495-2.614.577-3.163-6.343-3.703-6.832-.51-2.196-2.223-8.005-1.57-8.223 1.655-3.225-1.985-6.069 2.03-7.191 4.568-.891 2.013-1.551 4.507-1.014 6.703.209.854.93.571 1.689 1.053 1.074.681 1.454 1.569 2.621 1.929 2.457.757 4.291-2.062 4.815-3.757 0 0 3.358 1.157 4.917-1.872 2.385 2.089 5.708-1.47 5.512-2.107 1.686 1.915 3.659.627 5.476-1.107-.759 2.686.887 4.028 1.953 3.734-1.268 1.569.401 4.183 2.233 3.248-.873 2.219 1.222 5.172 2.887 3.921 1.661-1.25 1.592-4.575 1.487-6.501z"/><g><path fill="#F5CC99" d="M149.647 28.139c-.44 2.503 1.043 4.589 3.316 5.038s4.473-.908 4.912-3.412c.44-2.503-1.044-4.897-3.317-5.348-2.272-.449-4.471 1.217-4.911 3.722zM133.79 28.139c.441 2.503-1.044 4.589-3.317 5.038s-4.472-.908-4.912-3.412c-.44-2.503 1.045-4.897 3.317-5.348 2.272-.449 4.471 1.217 4.912 3.722z"/><path fill="#F5CC99" d="M153.133 11.6c-2.137-3.073-5.679-5.34-9.353-5.485l-.191-.008.004-.144-1.811.071-1.811-.071.004.144-.189.008c-3.675.146-7.126 2.478-9.354 5.485-3.688 4.981-2.038 16.129-1.24 20.053 2.228 8.337 7.429 9.762 12.59 9.762 5.163 0 10.548-1.425 12.592-9.762.798-3.496 2.527-14.634-1.241-20.053z"/><path fill="#F5CC99" d="M138.405 39.875h6.756v8.272h-6.756z"/><path fill="#F5CC99" d="M159.963 79.252c.062-.047-3.396-25.444-4.228-27.962-1.143-3.455-3.869-4.044-11.311-6.636-.395.265-.375.572-.096.913l-.002-.002-2.545.503-2.544-.503-.002.002c.279-.341.299-.648-.096-.913-7.441 2.592-10.167 3.181-11.309 6.636-.832 2.519-4.292 27.916-4.229 27.962-.054 1.289-.084 3.865.628 5.783.917 2.475 2.493 4.111 3.221 2.4.252-.592-1.021-3.236-.265-5.08.112-.271.429-.307.609-.305.234.002.112 2.287.159 2.52.157.789 1.428.709 1.491-.15l.209-3.215c.046-.533.037-.951-.354-1.371-.403-.436-.678-.719-.742-1.488-.094-1.145.574-5.871.805-7.083.798-4.201 1.893-10.716 2.769-15.525l2.699 57.466-3.849 2.59s-.689.648.402.648h7.468s1.034.059 1.034-1.297l-.444-35.863 2.339-.117 2.341.117-.444 35.863c0 1.355 1.034 1.297 1.034 1.297h7.467c1.092 0 .402-.648.402-.648l-3.849-2.59 2.7-57.466c.876 4.81 1.969 11.324 2.768 15.525.23 1.213.899 5.939.805 7.083-.063.77-.338 1.053-.741 1.488-.391.42-.4.838-.354 1.371l.208 3.215c.064.859 1.335.939 1.492.15.046-.232-.075-2.518.159-2.52.18-.002.497.033.608.305.757 1.844-.516 4.488-.265 5.08.729 1.711 2.304.074 3.222-2.4.714-1.918.684-4.494.63-5.783z"/><path fill="#FFF" d="M147.466 45.533c-.144-.05-.936-.474-.936-.474s-1.419-1.335-1.369-1.318c.049.018-3.379 2.146-3.379 2.146l-3.377-2.146-1.378 1.361s-.72.341-1.031.449c-.205 5.042-2.442 26.189.891 30.228 0 0 9.612 1.213 10.153-.52 2.392-7.673.918-25.733.426-29.726z"/><path fill="#54495A" d="M130.843 115.691c-.371.25-.38.219-.188.598.11.219.356.328.73.328l7.486.002c.082 0 .654-.07.979-.498-.696-1.439-2.969-2.309-4.954-3.125l-4.053 2.695zM152.723 115.691c-.02-.016-3.868-2.641-3.868-2.641-1.848.711-3.916 1.33-5.095 3.137.064.074.212.174.275.219.277.197.574.213.658.213l7.486-.002c.375 0 .621-.109.73-.328.194-.379.254-.23-.186-.598zm-8.03.75z"/><path fill="#89827E" d="M148.911 113.102l1.688-39.387h-17.633l1.689 39.387s2.65.777 5.228 3.125c.166-.217.177-.6.177-1.084l-.441-35.693h4.33l-.441 35.695c0 .539.074.924.253 1.133 3.203-2.704 5.15-3.176 5.15-3.176z"/><path fill="#B0ADB2" d="M138.201 49.446l-1.461-4.04a.305.305 0 01.184-.393.306.306 0 01.393.185l1.163 3.215 3.043-2.549a.306.306 0 11.393.47l-3.715 3.112z"/><path fill="#6D4A2B" d="M136.455 45.291c-5.132 1.77-7.793 2.938-8.787 5.943-.813 2.459-4.022 25.614-4.224 27.497-.01.092.056.168.144.193 1.27.373 3.507.615 5.15.248a.179.179 0 00.116-.09.179.179 0 00.007-.148c-.07-.176 1.701-13.309 2.25-16.448.308-1.757.623-3.561.92-5.22l.703 18.625c.883 0 2.105.113 2.989.08.28-.012.942.031 1.163-.192.184-.183.109-.613.117-.892.036-1.45.025-2.901.011-4.353-.039-4.032-.145-8.064-.251-12.096-.095-3.529-.205-7.057-.285-10.586-.003-.181-.179-2.508-.023-2.561z"/><path fill="#B0ADB2" d="M145.232 49.443l-3.71-3.109c-.131-.108-.148-.302-.039-.432s.303-.146.432-.038l3.045 2.551 1.178-3.178a.307.307 0 01.576.214l-1.482 3.992z"/><path fill="#3A1E0C" d="M132.188 23.868a.605.605 0 01-.44-1.022c.628-.663 2.018-.901 3.018-.904.706-.007 1.977.106 2.699.858a.604.604 0 11-.873.838c-.289-.301-.979-.486-1.806-.486h-.017c-1.125.004-1.943.316-2.142.526a.603.603 0 01-.439.19zM145.872 23.893a.606.606 0 01-.365-1.089c1.619-1.223 4.598-1.189 5.794.065a.605.605 0 11-.877.835c-.708-.744-2.993-.836-4.188.065a.594.594 0 01-.364.124z"/><path fill="#CB9A75" d="M140.957 33.127l-.044-.001a.606.606 0 01-.561-.647c.066-.937.17-4.589.17-5.701a.605.605 0 111.211 0c0 1.156-.104 4.81-.174 5.787a.602.602 0 01-.602.562z"/><path fill="#B98663" d="M141.454 37.256c-.13 0-.257-.004-.381-.01-1.515-.077-2.754-.57-3.399-1.352a.606.606 0 01.935-.772c.417.505 1.385.855 2.526.913 1.416.068 2.755-.305 3.417-.958a.606.606 0 11.851.861c-.986.977-2.621 1.318-3.949 1.318z"/><path fill="#4C2F19" d="M136.934 62.755l-.385-16.525.012-1.113-1.436.488a.123.123 0 00-.106.07l-2.229 4.397a.128.128 0 00.019.142l2.006 2.355-1.597 1.089a.134.134 0 00-.003.139l3.518 8.775c.006.008.117.278.145.321l.056-.138z"/><path fill="#6D4A2B" d="M147.104 45.291c5.131 1.77 7.793 2.938 8.787 5.943.812 2.459 4.021 25.614 4.223 27.497.011.092-.055.168-.144.193-1.271.373-3.507.615-5.15.248a.175.175 0 01-.115-.09.183.183 0 01-.008-.148c.069-.176-1.701-13.309-2.251-16.448-.307-1.757-.623-3.561-.92-5.22l-.703 18.625c-.882 0-2.104.113-2.988.08-.281-.012-.942.031-1.164-.192-.183-.183-.109-.613-.115-.892-.037-1.45-.026-2.901-.012-4.353.039-4.032.145-8.064.252-12.096.094-3.529.205-7.057.283-10.586.005-.181.181-2.508.025-2.561z"/><path fill="#4C2F19" d="M146.622 62.755l.383-16.525-.012-1.113 1.436.488a.126.126 0 01.107.07l2.229 4.397a.128.128 0 01-.019.142l-2.007 2.355 1.598 1.089a.134.134 0 01.003.139l-3.519 8.775c-.005.008-.117.278-.145.321l-.054-.138z"/><path fill="#3A1E0C" d="M129 24.139c.103-2.016-.267-6.365 2.395-7.505 1.022-.438 2.691-1.833 3.68-2.145 4.911-1.552 1.379-.136 7.884-1.188 3.619-.586 7.293 1.962 9.248 2.251 1.556.229 2.299 4.367 2.117 7.923-.044.866-.033 1.592-.248 3.276-.026.204-.216.853.272.853.499 0 .804-1.04 1.013-2.557.521-3.785.736-5.407.566-8.963-.058-1.223.102-5.326-2.378-6.023-7.96-2.241-26.272-4.38-26.272 6.626 0 4.885.737 10.679 1.238 11.019.483.328.623-.125.615-.593-.015-.717-.174-2.101-.13-2.974z"/><path fill="#B98663" d="M134.584 28.497c-.96 0-2.091-.347-2.498-1.154a.605.605 0 111.081-.545c.117.232.767.526 1.564.484.249-.014 1.076-.104 1.29-.681a.606.606 0 011.136.422c-.318.854-1.199 1.403-2.359 1.469a4.976 4.976 0 01-.214.005zM148.179 28.703a4.36 4.36 0 01-.198-.005c-1.169-.063-2.151-.694-2.562-1.646a.606.606 0 111.112-.481c.271.63.962.887 1.516.917.743.041 1.41-.275 1.709-.804a.607.607 0 011.055.598c-.506.887-1.502 1.421-2.632 1.421z"/><path fill="#32180A" d="M154.849 25.176h-26.193a.606.606 0 010-1.21h26.193a.605.605 0 010 1.21z"/><path fill="#32180A" d="M147.78 31.15c-1.344 0-2.451-.444-3.293-1.321-1.782-1.859-1.673-4.999-1.668-5.132a.625.625 0 011.248.05c-.001.027-.09 2.749 1.324 4.22.605.628 1.387.934 2.389.934 1.506 0 2.677-.421 3.482-1.252 1.273-1.316 1.312-3.322 1.293-3.906a.625.625 0 011.248-.04c.029.907-.073 3.191-1.645 4.814-1.048 1.083-2.521 1.633-4.378 1.633zM135.143 31.151c-1.865 0-3.343-.551-4.396-1.637-1.572-1.623-1.675-3.905-1.646-4.812a.631.631 0 01.645-.604.624.624 0 01.605.645c-.019.582.02 2.586 1.294 3.901.808.833 1.984 1.256 3.497 1.256 1.01 0 1.795-.308 2.402-.94 1.418-1.479 1.322-4.184 1.322-4.211a.623.623 0 01.598-.65.624.624 0 01.651.599c.005.133.115 3.268-1.669 5.128-.842.879-1.954 1.325-3.303 1.325z"/><path fill="#C0944C" d="M153.739 16.16c-.869.592-1.908.898-3.014.725-1.482-.233-1.524-1.358-.574-2.346-1.793 2.148-8.828 4.575-11.831 3.451-.989-.37-1.01-1.53-.563-2.018-.433.418-4.248 3.189-6.515 2.062-1.062-.53.021-1.888.021-1.888-1.325 1.19-4.221 2.203-5.435.842-1.193-1.338.353-3.261 1.576-4.01-.281.021-1.062.131-1.432-.643-.787-1.643 2.38-4.864 7.833-6.725 7.955-2.712 15.569-.644 18.418 1.196 1.4.904 3.252 2.52 3.632 4.32.455 2.155-.31 3.803-2.116 5.034z"/></g><g><path fill="#33190B" d="M187.327 73.519c0 1.168-4.844 1.026-12.847 1.026h-6.614c-8.003 0-12.847.142-12.847-1.026l.419-31.633c0-10.019 6.177-16.182 15.734-16.182 10.349 0 15.736 6.466 15.736 16.182l.419 31.633z"/><path fill="#E0AA79" d="M185.071 93.393c.074-.033-3.877-21.159-4.722-23.719-1.158-3.514-1.578-3.794-6.587-6.047-.748-.271-1.874.019-2.379.177-.506-.158-1.631-.448-2.38-.177-5.009 2.253-5.429 2.533-6.588 6.047-.845 2.561-4.796 23.686-4.722 23.719-.562 2.355-.698 4.996.24 6.514 1.21 1.957 2.75 3.186 3.446 1.691.241-.518-1.381-2.582-.663-4.188.106-.238.021-.258.225-.275.263-.023.29 1.885.36 2.074.232.639 1.218.48 1.226-.24l.004-2.688c.013-.447-.064-1.207-.533-1.516-.485-.318.436-5.871.624-7.012.742-4.518 1.646-9.898 2.725-14.5-.11-.986.392-1.605.392-1.605a77.364 77.364 0 00-.392 1.605c.048.422.205.91.566 1.448.863 1.289 1.661 4.318 1.298 7.822-.362 3.502-3.95 5.68-4.037 12.686-.081 6.477 2.608 31.621 2.358 36.576-.054 1.068-.601 1.852-1.014 2.328-.259.297-.311 1.09-.312 1.145-.06 1.857-1.839 1.771-1.839 1.771s-.309.891.707.436c1.764-.787 6.627-2.963 6.627-2.963s.37.637.37-.742l-.101-38.975 1.412-.119 1.411.119-.029 11.051-.071 27.924c0 1.379.369.742.369.742s4.864 2.176 6.628 2.963c1.017.455.707-.436.707-.436s-1.779.086-1.84-1.771c-.001-.055-.054-.848-.312-1.145-.413-.477-.96-1.26-1.015-2.328-.17-3.361 1.014-16.006 1.767-25.818h.021c.346-4.625.599-8.645.572-10.758-.087-7.006-3.675-9.184-4.038-12.686-.362-3.504.436-6.533 1.298-7.822.362-.538.52-1.026.567-1.448a90.486 90.486 0 00-.392-1.605s.502.619.392 1.605c1.079 4.602 1.982 9.983 2.726 14.5.188 1.141 1.108 6.693.622 7.012-.468.309-.545 1.068-.532 1.516l.003 2.688c.009.721.993.879 1.227.24.069-.189.098-2.098.36-2.074.203.018.118.037.225.275.718 1.605-.904 3.67-.663 4.188.696 1.494 2.236.266 3.446-1.691.94-1.518.803-4.159.24-6.514zM182.194 32.413c-2.359-3.346-4.782-3.449-8.688-3.611h-4.245c-3.907.162-6.33.266-8.688 3.611-2.361 3.349-1.467 4.217-1.281 8.256.142 3.052-1.683.911-.421 9.398 1.263 8.488 8.634 11.211 12.513 11.211s10.697-2.276 12.514-11.211-.563-6.347-.421-9.398c.183-4.04 1.078-4.908-1.283-8.256z"/><path fill="#F5CC99" d="M165.348 73.253c.128-.547.258-1.084.392-1.605-.001 0-.503.619-.392 1.605zM177.027 71.648c.133.521.263 1.059.392 1.605.11-.986-.392-1.605-.392-1.605z"/><path fill="#E0AA79" d="M169.005 60.322h4.756v7.346h-4.756z"/><path fill="#B27D56" d="M170.541 53.191a.482.482 0 01-.481-.526c.065-.734.168-3.613.168-4.493a.483.483 0 11.966 0c0 .836-.098 3.758-.172 4.579a.484.484 0 01-.481.44z"/><ellipse fill="#3A1E0C" cx="164.43" cy="47.841" rx="1.717" ry="2.038"/><path fill="#3A1E0C" d="M166.596 44.625a.52.52 0 01-.392-.177c-.485-.547-1.142-.672-1.606-.681-.732-.013-1.495.267-1.901.694a.523.523 0 11-.759-.72c.614-.646 1.646-1.035 2.679-1.02.953.016 1.796.383 2.371 1.032a.524.524 0 01-.392.872zM176.596 44.568a.522.522 0 01-.411-.846c.441-.562 1.272-.938 2.173-.98.954-.047 1.82.289 2.442.942a.522.522 0 11-.758.721c-.553-.58-1.267-.639-1.635-.617-.673.031-1.197.323-1.399.579a.522.522 0 01-.412.201z"/><ellipse fill="#3A1E0C" cx="178.313" cy="47.841" rx="1.717" ry="2.038"/><path fill="#F5CC99" d="M165.348 73.253c.128-.547.258-1.084.392-1.605-.001 0-.503.619-.392 1.605zM177.027 71.648c.133.521.263 1.059.392 1.605.11-.986-.392-1.605-.392-1.605z"/><path fill="#FFF" d="M175.042 64.207c-.39-.18-1.281-.962-1.281-.962-.532 2.891-2.486 5.474-2.486 5.474s-2.013-2.99-2.27-5.474c0 0-.744.716-1.077.869 0 0-.264 8.628 3.415 12.062 3.512-3.224 3.699-11.969 3.699-11.969z"/><path fill="#B0ADB2" d="M167.707 67.838a.27.27 0 01-.167-.482l1.851-1.446a.27.27 0 01.332.425l-1.851 1.446a.259.259 0 01-.165.057zM175.129 67.838a.266.266 0 01-.162-.055l-2.018-1.522a.27.27 0 11.324-.43l2.018 1.522a.27.27 0 01-.162.485z"/><path fill="#FFF" d="M165.331 71.017c.89-2.074.779-4.058.456-6.069-2.312 1.223-2.67 2.037-3.539 4.67a9.144 9.144 0 00-.149.518c1.088.374 2.103.73 3.159 1.014.024-.045.048-.09.073-.133z"/><path fill="#6D4A2B" d="M178.936 88.805c-1.041 1.016-3.252 2.252-3.575 1.928-5.047-3.574-2.105-4.352-7.865 0-.803.268-2.578-.652-3.725-1.842-.57 1.512-.994 3.174-.994 4.922 0 2.459.236 12.871.239 12.906a.176.176 0 00.173.164c.574.014 2.005.02 4.371.02 2.485 0 5.521-.006 7.938-.012 1.598-.004 2.925-.008 3.644-.008h.295a.177.177 0 00.177-.158c.003-.031.335-10.064.335-12.502-.001-2.09-.432-3.869-1.013-5.418z"/><path fill="#FFF" d="M180.519 69.618c-.891-2.702-1.393-3.541-3.634-4.718-.758 2.374.099 4.432.71 6.671 1.014-.469 1.956-1.046 3.104-1.317a12.88 12.88 0 00-.18-.636z"/><path fill="#8B7454" d="M177.161 85.104c-.548-1.061-1.021-1.977-1.163-2.619-.74-3.354.412-4.736 1.254-5.992.178-.268 1.831-2.089.505-5.307-.889-2.074-1.169-4.079-.854-6.314a38.89 38.89 0 00-1.943-.939.181.181 0 00-.172.013.176.176 0 00-.08.151c.001.068.045 4.935-3.364 9.782-3.41-4.848-3.365-9.714-3.364-9.782a.175.175 0 00-.08-.151.182.182 0 00-.171-.013c-.772.354-1.41.657-1.944.939.239 1.927.035 4.24-.854 6.314-1.325 3.218.327 5.04.505 5.307.843 1.256 1.994 2.639 1.253 5.992-.141.643-.614 1.559-1.162 2.619-.562 1.088-1.223 2.369-1.756 3.787 1.146 1.189 2.757 2.602 3.56 2.334 2.791-1.709 3.425-2.922 3.996-2.951h.035c.809-.041 2.399 2.131 3.997 2.951.803.268 2.413-1.145 3.56-2.334-.535-1.418-1.196-2.7-1.758-3.787z"/><path fill="#AA3131" d="M164.685 133.795c-.718 1.439-2.021 2.434-2.021 2.434-.788.9-.839 1.383-.087 1.471 0 0 1.559.189 2.591-.088 2.267-.607 3.469-2.258 3.708-2.383l.164 1.611c.598.35.936-.062.936-.062s.706-4.742.08-5.223c-.107-.082 0 0 0 0 .053.041-1.716 3.084-4.349 3.645-.447.094-1.006.139-1.261-.375-.143-.284.112-.774.239-1.03zM178.082 133.795c.718 1.439 2.021 2.434 2.021 2.434.788.9.839 1.383.087 1.471 0 0-1.559.189-2.591-.088-2.267-.607-3.47-2.258-3.708-2.383l-.164 1.611c-.598.35-.936-.062-.936-.062s-.707-4.742-.081-5.223c.106-.082 0 0 0 0-.053.041 1.717 3.084 4.349 3.645.448.094 1.006.139 1.262-.375.142-.284-.112-.774-.239-1.03z"/><ellipse fill="#DD947A" cx="163.304" cy="52.289" rx="2.425" ry="1.675"/><ellipse fill="#DD947A" cx="179.439" cy="52.289" rx="2.425" ry="1.675"/><path fill="#6D4A2B" d="M171.412 89.254a.35.35 0 01-.35-.35c0-.902-.035-2.055-.068-3.168a114.908 114.908 0 01-.069-3.193c0-1.367.021-2.752.042-4.094.021-1.332.042-2.708.042-4.068a.35.35 0 11.699 0c0 1.365-.021 2.746-.041 4.078-.021 1.34-.043 2.723-.042 4.084 0 .904.034 2.057.067 3.172.035 1.119.069 2.275.069 3.189a.35.35 0 01-.349.35z"/><path fill="#33190B" d="M156.96 44.658s12.235-2.719 23.114-10.439c0 0 3.726 6.401 4.195 15.441 0 0 4.296-17.166-6.244-20.858-10.541-3.693-23.482 2.002-21.065 15.856z"/><path fill="#FFF" d="M167.613 55.695c1.382 3.368 6.895 2.284 7.278-.032l-7.278.032z"/><path fill="#A36E46" d="M171.166 58.234c-1.846 0-3.312-.893-3.925-2.387a.4.4 0 01.038-.376.4.4 0 01.333-.18l7.277-.032h.002a.404.404 0 01.397.469c-.259 1.568-2.299 2.506-4.122 2.506zm-2.884-2.14c.812 1.191 2.247 1.334 2.884 1.334 1.372 0 2.663-.588 3.144-1.36l-6.028.026z"/></g><g><path fill="#B78557" d="M249.524 27.225c-.45 2.557 1.066 4.687 3.388 5.146 2.322.459 4.568-.927 5.017-3.484.45-2.558-1.066-5.004-3.388-5.463s-4.567 1.242-5.017 3.801zM233.326 27.225c.45 2.557-1.066 4.687-3.389 5.146-2.321.459-4.567-.927-5.017-3.484-.45-2.558 1.066-5.004 3.389-5.463 2.322-.46 4.568 1.242 5.017 3.801z"/><path fill="#B78557" d="M253.011 9.993c-2.268-3.078-5.802-5.101-9.555-5.25l-.194-.008.004-.147-1.85.074-1.85-.074.004.147-.193.008c-3.753.149-7.288 2.172-9.555 5.25-2.269 3.083-2.569 6.966-2.391 10.683.136 2.81.632 7.344.771 10.153 2.276 8.516 7.94 9.971 13.213 9.971s11.126-1.455 13.213-9.971c.14-2.81.636-7.344.771-10.153.181-3.718-.121-7.6-2.388-10.683z"/><path fill="#F5CC99" d="M237.966 40.988h6.901v8.448h-6.901z"/><path fill="#B78557" d="M259.985 78.627c.065-.047-3.468-25.35-4.317-27.859-1.167-3.443-3.952-4.03-11.553-6.612-.402.264-.383.571-.098.911l-.003-.002-2.599.5-2.599-.5-.002.002c.285-.34.305-.647-.098-.911-7.601 2.582-10.387 3.169-11.553 6.612-.85 2.509-4.383 27.812-4.317 27.859-.057 1.283-.087 3.852.64 5.764.938 2.465 2.546 4.096 3.29 2.391.259-.59-1.042-3.225-.27-5.061.114-.271.438-.307.622-.305.239.002.115 2.279.162 2.512.161.785 1.459.705 1.523-.152l.214-3.203c.047-.531.037-.945-.362-1.365-.412-.434-.692-.717-.758-1.482-.096-1.141.587-5.848.822-7.056.815-4.188 1.933-10.678 2.828-15.471l2.758 57.255-3.933 2.582s-.704.646.411.646h7.627s1.057.057 1.057-1.291l-.453-35.734 2.39-.115 2.391.115-.454 35.734c0 1.348 1.057 1.291 1.057 1.291h7.627c1.115 0 .411-.646.411-.646l-3.932-2.582 2.758-57.255c.895 4.793 2.012 11.283 2.827 15.471.235 1.208.918 5.916.823 7.056-.065.766-.346 1.049-.759 1.482-.398.42-.408.834-.361 1.365l.213 3.203c.064.857 1.363.938 1.523.152.048-.232-.077-2.51.163-2.512.184-.002.508.033.621.305.772 1.836-.527 4.471-.27 5.061.744 1.705 2.353.074 3.291-2.391.728-1.912.699-4.481.642-5.764z"/><path fill="#FFF" d="M246.786 44.868c-.147-.049-1.337-.936-1.337-.936s-.633-.703-.582-.687c.05.018-3.451 2.14-3.451 2.14l-3.45-2.14-.749.708s-1.394.988-1.712 1.097c1.484 5.069 2.507 11.774 5.911 15.799 3.175-4.329 3.848-10.924 5.37-15.981z"/><path fill="#605F6D" d="M255.834 50.711c-1.049-3.096-3.417-3.959-9.048-5.844-1.522 5.058-2.195 11.652-5.37 15.981-3.404-4.024-4.427-10.729-5.911-15.799-5.242 1.762-7.492 2.666-8.506 5.661-.831 2.451-4.109 25.519-4.314 27.396-.011.092.057.166.146.191 1.298.373 3.582.615 5.261.25a.177.177 0 00.118-.092.182.182 0 00.008-.148c-.071-.174 1.737-13.257 2.299-16.386.314-1.751.636-3.547.939-5.201l.953 20.08 18.012.021.955-20.101c.303 1.654.626 3.45.94 5.201.562 3.128 2.353 16.283 2.258 16.478a.17.17 0 00.004.16.176.176 0 00.133.092 18.07 18.07 0 002.121.117c.935 0 2.104-.143 3.152-.533.044-.016.089-.027.119-.064a.177.177 0 00.037-.131c-.286-2.487-3.501-24.952-4.306-27.329z"/><path fill="#3D323F" d="M230.241 114.934c-.378.248-.388.217-.191.596.112.217.363.328.746.328h7.647c.082 0 .667-.07.999-.496-.711-1.434-3.032-2.301-5.061-3.113l-4.14 2.685zM252.591 114.934c-.021-.016-3.951-2.631-3.951-2.631-1.889.709-4 1.324-5.204 3.125.065.072.217.172.282.217.282.197.586.213.672.213h7.646c.383 0 .635-.111.747-.328.196-.38.257-.231-.192-.596zm-8.201.748z"/><path fill="#605F6D" d="M248.696 112.354l1.725-35.811h-18.012l1.727 35.811s2.707.773 5.34 3.113c.169-.217.181-.598.181-1.08l-.451-35.562h4.423l-.451 35.566c0 .535.076.918.259 1.125 3.271-2.692 5.259-3.162 5.259-3.162z"/><path fill="#3D323F" d="M243.499 57.302l-1.307-8.658.949-1.702-1.677-1.254v-.093l-.052.047-.051-.047v.093l-1.676 1.254.948 1.702-1.307 8.658 2.086 3.547z"/><path fill="#B0ADB2" d="M237.9 48.717a.303.303 0 01-.191-.537l3.45-2.819a.303.303 0 01.383.47l-3.45 2.818a.3.3 0 01-.192.068z"/><path fill="#B0ADB2" d="M244.801 48.717a.3.3 0 01-.191-.068l-3.45-2.818a.304.304 0 01.383-.47l3.45 2.819a.302.302 0 01-.192.537z"/><path fill="#7C7C89" d="M248.7 49.67l-.688-4.723a.129.129 0 00-.09-.096l-1.669-.616-.021-.002-.784-.302-.109.616-3.989 16.003-3.909-15.682-.225-.916-.766.282h-.005l-1.668.616a.126.126 0 00-.089.096L234 49.669a.128.128 0 00.056.132l2.646 1.716-1.03 2.843a.127.127 0 00.032.133l5.34 6.283c.007.005.036.045.075.082l.252.291.38-.483 5.246-6.173a.123.123 0 00.031-.133l-1.03-2.843 2.647-1.716a.125.125 0 00.055-.131z"/><ellipse fill="#3A1E0C" cx="234.28" cy="25.827" rx="1.584" ry="1.88"/><ellipse fill="#3A1E0C" cx="248.692" cy="25.827" rx="1.584" ry="1.88"/><path fill="#3A1E0C" d="M232.064 22.454a.605.605 0 01-.439-1.022c.921-.97 3.574-1.612 5.215-.479a.606.606 0 01-.689.997c-1.087-.751-3.112-.247-3.647.316a.605.605 0 01-.44.188z"/><g fill="#3A1E0C"><path d="M255.093 29.043s.185-3.727-.001-2.385c-.081.58-1.216 7.207-6.399 7.207-1.185 0-2.327-1.146-7.155-1.146-4.119 0-5.623.984-7.419.984-5.182 0-5.808-6.078-5.855-6.735.037 1.876.204 2.284-.137 1.743.086.751.242 2.146.092 2.767-.182.755-.829 3.667.978 4.061-1.153 2.1.431 3.92 1.547 3.685.067 2.618 2.312 2.827 3.333 2.53.832 2.344 3.891 2.105 4.337.996.603 1.637 3.129 1.905 3.985.123 0 0 2.167 2.34 4.494-.577 1.159 1.04 3.74-.088 3.8-1.732 1.936.425 2.81-1.737 2.111-2.865.784-.036 2.198-1.406 1.467-3.286 1.73-.705.674-2.537.822-5.37z"/><path d="M240.448 44.299c-.87 0-1.658-.445-2.064-1.14-.345.372-.97.604-1.686.604-.984 0-2.2-.47-2.747-1.771a3.156 3.156 0 01-.65.065c-1.253 0-2.607-.691-2.75-2.612h-.01c-.58 0-1.198-.413-1.576-1.051-.479-.81-.498-1.793-.06-2.731a1.547 1.547 0 01-.781-.643c-.578-.923-.374-2.462-.103-3.59.144-.591-.019-2.014-.096-2.696a.202.202 0 01.198-.225l-.009-.17a35.3 35.3 0 01-.055-1.368.202.202 0 01.192-.205c.109-.017.203.077.211.187.015.191.16 1.915.981 3.538 1.01 1.997 2.582 3.01 4.673 3.01.691 0 1.331-.149 2.142-.338 1.235-.288 2.773-.646 5.277-.646 3.261 0 4.86.518 5.919.861.508.165.875.284 1.236.284 5.164 0 6.189-6.962 6.199-7.032.04-.291.064-.466.261-.466.056 0 .111.023.149.064.073.076.126.132-.008 2.823-.048.912.032 1.716.102 2.425.136 1.379.244 2.481-.873 3.041.369 1.127-.01 1.972-.279 2.386-.3.461-.731.811-1.141.94.231.574.176 1.31-.163 1.916-.374.673-1.018 1.059-1.765 1.059h-.001c-.1 0-.201-.007-.304-.021-.198 1.216-1.594 2.099-2.82 2.099-.435 0-.819-.11-1.128-.322-.781.92-1.631 1.387-2.527 1.387-.912 0-1.617-.487-1.945-.766a2.3 2.3 0 01-1.999 1.104zm-2.036-1.752h.003a.202.202 0 01.187.133c.268.727 1.01 1.215 1.847 1.215.772 0 1.433-.414 1.768-1.109a.197.197 0 01.151-.112.2.2 0 01.178.062c.008.009.781.824 1.85.824.816 0 1.604-.468 2.339-1.39a.199.199 0 01.142-.075.205.205 0 01.151.051c.255.229.608.35 1.023.35 1.096 0 2.4-.847 2.439-1.938a.196.196 0 01.078-.152.199.199 0 01.167-.038c.15.033.299.05.44.05.816 0 1.235-.533 1.412-.851.321-.577.34-1.284.045-1.762a.201.201 0 01-.008-.2.202.202 0 01.17-.106c.299-.015.776-.298 1.111-.812.241-.371.585-1.149.177-2.199a.201.201 0 01.111-.26c.981-.399.952-1.16.8-2.707-.071-.724-.151-1.543-.103-2.485.012-.233.023-.494.035-.758a12.082 12.082 0 01-.943 2.301c-1.244 2.284-3.073 3.491-5.29 3.491-.425 0-.838-.134-1.361-.304-1.034-.335-2.597-.842-5.794-.842-2.458 0-3.971.353-5.187.636-.802.187-1.495.348-2.232.348-3.566 0-5.047-2.804-5.651-4.846l-.005.006a.235.235 0 01-.087.055c.083.783.173 1.857.04 2.406-.359 1.488-.342 2.653.052 3.28.179.286.432.461.771.535a.207.207 0 01.141.113.206.206 0 01-.007.181c-.48.876-.503 1.806-.06 2.554.345.582.927.933 1.388.837.059-.012.12.002.167.039s.075.093.076.153c.059 2.261 1.819 2.436 2.357 2.436.254 0 .509-.033.719-.094.104-.03.21.025.247.126.438 1.234 1.543 1.674 2.432 1.674.736 0 1.364-.281 1.526-.686a.204.204 0 01.188-.13z"/><path d="M228.263 26.968l-.001-.016c-.002-.063-.004-.052.001.016z"/><path d="M228.261 27.163a.194.194 0 01-.199-.179c-.006-.078-.011-.145.05-.21a.201.201 0 01.148-.064c.043 0 .18.015.201.201l.001.008a.228.228 0 01.002.026V26.954a.21.21 0 01-.19.209h-.013z"/><g><path d="M228.102 28.662c.011.015.016.035.024.05-.009-.083-.019-.16-.024-.226v.176z"/><path d="M228.126 28.914a.2.2 0 01-.17-.094.42.42 0 01-.026-.052c-.026-.035-.03-.062-.03-.106v-.176c0-.107.084-.196.191-.201.119-.012.201.074.211.182l.025.224a.202.202 0 01-.201.223z"/></g></g><path fill="#3A1E0C" d="M251.015 22.498a.598.598 0 01-.438-.188c-.785-.823-2.662-.797-3.791.056a.607.607 0 01-.731-.967c1.622-1.224 4.194-1.188 5.398.076a.604.604 0 01-.438 1.023z"/><path fill="#9C6C40" d="M240.573 32.323l-.044-.002a.606.606 0 01-.562-.647c.068-.955.175-4.687.175-5.824a.605.605 0 011.21 0c0 1.182-.105 4.914-.177 5.911a.604.604 0 01-.602.562zM241.453 36.616c-1.487 0-2.924-.521-3.83-1.416a.607.607 0 01.851-.862c1.354 1.338 4.391 1.569 6.131-.15a.605.605 0 11.851.861c-1.1 1.087-2.575 1.567-4.003 1.567z"/><path fill="#3A1E0C" d="M228.259 23.886c.104-2.061-.325-7.44 2.104-8.41.844-.337 1.349-.254 2.19.004 1.135.346 2.793.086 3.796-.513 1.7 1.324 4.016.698 4.896-.23-.009.008.841.973 2.689 1.128 1.1.093 2.234.029 3.33-.041 1.82-.117 4.455-.595 5.312-.478 2.335.318 2.29 4.615 2.31 6.532.01.886 0 3.469-.651 7.433-.035.209.073.211.364.179.325-.037.444-.205.494-.446.384-1.84.888-7.513 1.388-9.302.82-2.938 1.444-7.3.385-9.734-.303-.696-2.021-2.846-3.728-2.715 1.71-3.378-1.691-5.159-4.457-5.271-4.464-.181-8.147.832-12.316 2.233-2.312.777-4.106 1.727-6.076 3.234-1.7 1.302-2.587 2.422-3.101 4.455-1.093 4.329.104 12.494.737 16.84.063.438.123.888.234 1.316.242.937 1.19.316.965-.221-.832-1.975-.91-5.103-.865-5.993z"/></g><g><ellipse transform="rotate(-7.068 194.566 38.67)" fill="#F5CC99" cx="194.56" cy="38.639" rx="2.936" ry="3.517"/><ellipse transform="rotate(-172.932 219.595 38.64)" fill="#F5CC99" cx="219.593" cy="38.639" rx="2.936" ry="3.517"/><path fill="#F5CC99" d="M220.233 82.652c.073-.033-3.841-20.91-4.678-23.44-1.148-3.472-1.563-3.749-6.525-5.976-.742-.269-1.856.019-2.357.176-.501-.157-1.616-.444-2.357-.176-4.961 2.227-5.377 2.504-6.525 5.976-.836 2.53-4.751 23.407-4.678 23.44-.557 2.328-.692 4.938.238 6.436 1.198 1.936 2.725 3.148 3.414 1.672.238-.512-1.369-2.551-.657-4.139.105-.234.021-.254.222-.271.262-.023.288 1.863.357 2.051.23.631 1.206.475 1.215-.236l.003-2.658c.014-.441-.063-1.191-.528-1.496-.48-.316.433-5.803.618-6.93.736-4.463 1.631-9.783 2.7-14.331-.11-.975.388-1.585.388-1.585a84.02 84.02 0 00-.388 1.585c.047.417.203.9.561 1.433.855 1.272.979 3.935.619 7.396s-3.246 5.946-3.333 12.868c-.08 6.402 2.584 31.25 2.338 36.146-.054 1.059-.597 1.83-1.006 2.301-.256.293-.307 1.078-.309 1.131-.06 1.836-1.822 1.75-1.822 1.75s-.307.881.7.432l6.565-2.93s.367.629.367-.73l-.101-38.518 1.398-.117 1.398.117-.028 10.92-.071 27.598c0 1.359.367.73.367.73l6.564 2.93c1.007.449.701-.432.701-.432s-1.763.086-1.823-1.75c-.001-.053-.053-.838-.308-1.131-.41-.471-.953-1.242-1.006-2.301-.168-3.32 1.004-15.818 1.75-25.514h.02c.343-4.57.594-8.543.567-10.633-.086-6.922-2.974-9.407-3.333-12.868s-.235-6.123.619-7.396c.357-.532.514-1.016.561-1.433a84.1 84.1 0 00-.387-1.585s.497.61.387 1.585c1.07 4.548 1.965 9.867 2.7 14.331.187 1.127 1.099 6.613.618 6.93-.465.305-.542 1.055-.528 1.496l.003 2.658c.009.711.984.867 1.216.236.068-.188.096-2.074.356-2.051.201.018.117.037.223.271.711 1.588-.896 3.627-.658 4.139.69 1.477 2.216.264 3.415-1.672.931-1.497.796-4.107.238-6.435zM217.913 22.74c-2.364-3.354-4.793-3.457-8.708-3.619h-4.256c-3.916.162-6.345.266-8.709 3.619-2.366 3.356-1.471 4.227-1.283 8.275.141 3.06-1.688.913-.423 9.421 1.266 8.508 8.654 11.236 12.543 11.236 3.887 0 10.722-2.281 12.542-11.236s-.564-6.361-.423-9.421c.187-4.049 1.083-4.919-1.283-8.275z"/><path fill="#F5CC99" d="M200.694 62.75c.127-.539.256-1.07.388-1.585 0 0-.498.61-.388 1.585zM212.265 61.165a84.1 84.1 0 01.387 1.585c.11-.975-.387-1.585-.387-1.585zM204.316 49.782h4.713v7.276h-4.713z"/><path fill="#B98663" d="M206.232 43.607l-.047-.002a.525.525 0 01-.477-.569c.066-.735.169-3.619.169-4.5a.524.524 0 011.049 0c0 .839-.099 3.77-.173 4.594a.522.522 0 01-.521.477zM206.885 47.445c-1.404 0-3.034-.346-3.929-1.335a.525.525 0 01.778-.705c.632.699 2.063 1.083 3.646.974 1.218-.083 2.25-.452 2.568-.917a.525.525 0 01.866.591c-.513.751-1.771 1.264-3.363 1.372a7.97 7.97 0 01-.566.02z"/><ellipse fill="#3A1E0C" cx="200.107" cy="38.206" rx="1.721" ry="2.042"/><path fill="#3A1E0C" d="M202.278 34.579a.527.527 0 01-.394-.178c-.486-.549-1.144-.674-1.609-.682-.712-.011-1.498.268-1.905.695a.526.526 0 01-.761-.722c.614-.647 1.65-1.039 2.685-1.022.956.017 1.8.385 2.377 1.036a.525.525 0 01-.393.873zM212.302 34.52a.523.523 0 01-.412-.848c.441-.562 1.275-.938 2.177-.982.95-.044 1.825.29 2.449.944a.523.523 0 11-.76.723c-.554-.581-1.267-.637-1.64-.62-.674.033-1.199.324-1.401.582a.524.524 0 01-.413.201z"/><ellipse fill="#3A1E0C" cx="214.023" cy="38.206" rx="1.721" ry="2.042"/><path fill="#F5CC99" d="M200.694 62.75c.127-.539.256-1.07.388-1.585 0 0-.498.61-.388 1.585zM212.265 61.165a84.1 84.1 0 01.387 1.585c.11-.975-.387-1.585-.387-1.585z"/><path fill="#7E5A90" d="M216.408 61.961c-.289-1.318-.534-2.346-.686-2.804-1.079-3.263-1.579-3.776-5.352-5.507a.18.18 0 00-.158.006c-.049.026-.071.078-.09.13-.86 2.433-5.805 2.543-6.694-.062l-.007-.038a.176.176 0 00-.245-.128c-3.952 1.802-4.471 2.325-5.553 5.599-.145.435-.373 1.384-.643 2.607.96 1.003 3.677 1.921 3.719 1.736.1.261.236.521.409.778.86 1.28.955 4.062.247 7.26-.115.519-.367 1.169-.686 1.992-.893 2.305-2.241 5.787-2.306 10.912-.031 2.539.354 7.766.754 12.902.006.09.08.158.171.16.569.014 1.878.02 4.003.02 2.206 0 4.874-.006 7.042-.012 1.48-.004 2.727-.008 3.432-.008h.299c.092 0 .168-.07.176-.16.384-4.951.771-10.355.739-12.902-.063-5.07-1.293-8.256-2.19-10.581-.337-.874-.628-1.628-.802-2.327-.757-3.056-.66-5.904.248-7.256.173-.258.31-.518.409-.779.048.207 2.951-.749 3.764-1.538z"/><path fill="#52396D" d="M200.037 122.578c-.711 1.422-2.003 2.404-2.003 2.404-.781.891-.831 1.367-.086 1.453 0 0 1.544.188 2.566-.086 2.246-.602 3.437-2.232 3.674-2.354l.161 1.59c.594.348.929-.061.929-.061s.699-4.686.079-5.16c-.106-.082 0 0 0 0 .052.039-1.701 3.045-4.309 3.6-.442.094-.996.139-1.249-.369-.14-.281.112-.763.238-1.017zM213.309 122.578c.711 1.422 2.003 2.404 2.003 2.404.781.891.831 1.367.086 1.453 0 0-1.543.188-2.565-.086-2.247-.602-3.438-2.232-3.675-2.354l-.161 1.59c-.594.348-.928-.061-.928-.061s-.7-4.686-.08-5.16c.107-.082 0 0 0 0-.052.039 1.701 3.045 4.309 3.6.443.094.996.139 1.25-.369.139-.281-.113-.763-.239-1.017z"/><ellipse fill="#F4AF95" cx="198.978" cy="42.663" rx="2.43" ry="1.68"/><ellipse fill="#F4AF95" cx="215.152" cy="42.663" rx="2.43" ry="1.68"/><path fill="#4F2F19" d="M215.445 19.578c-3.864-2.562-9.431-2.817-13.878-1.366-2.429.793-8.31 2.892-8.949 10.791-.846 5.739 1.176 9.318 1.176 9.318s.292-5.151 10.428-7.978c6.642-1.853 8.873-3.946 8.873-3.946s.719 2.856 3.553 5.801c3.774 3.922 3.432 6.869 3.432 6.869s1.324-2.008 1.519-5.384l.001-.005c.74-3.768.129-9.933-6.155-14.1z"/><path fill="#4F2F19" d="M215.57 16.519c0 4.62-3.455 5.385-7.718 5.385s-7.719-1.146-7.719-5.385c0-2.974 3.456-5.385 7.719-5.385s7.718 2.411 7.718 5.385z"/></g><g><path fill="#F5D4AE" d="M75.71 37.153c-.454 2.583 1.077 4.733 3.422 5.197 2.345.463 4.612-.937 5.066-3.52.454-2.583-1.077-5.053-3.422-5.516-2.344-.463-4.612 1.255-5.066 3.839zM59.353 37.153c.454 2.583-1.077 4.733-3.422 5.197-2.344.463-4.612-.937-5.065-3.52-.455-2.583 1.077-5.053 3.421-5.516 2.343-.463 4.612 1.255 5.066 3.839z"/><path fill="#F5D4AE" d="M79.23 19.752c-2.29-3.109-5.859-5.151-9.649-5.302l-.196-.008.005-.148-1.868.074-1.867-.074.004.148-.196.008c-3.79.15-7.359 2.192-9.648 5.302-2.291 3.113-2.595 7.033-2.415 10.788.137 2.836.639 7.415.779 10.253 2.299 8.6 8.019 10.068 13.343 10.068 5.325 0 11.234-1.469 13.342-10.068.141-2.838.644-7.417.78-10.253.181-3.754-.123-7.674-2.414-10.788z"/><path fill="#F5D4AE" d="M64.038 49.274h6.968v8.532h-6.968z"/><path fill="#F5D4AE" d="M86.274 87.602c.065-.045-3.503-24.897-4.361-27.362-1.177-3.383-3.989-3.959-11.665-6.494-.407.26-.386.561-.099.894l-.002-.001-2.625.49-2.624-.49-.002.001c.288-.333.308-.634-.099-.894-7.675 2.535-10.487 3.111-11.665 6.494-.858 2.465-4.426 27.317-4.361 27.362-.056 1.262-.086 3.783.647 5.66.947 2.42 2.571 4.023 3.323 2.35.259-.58-1.053-3.168-.272-4.971.114-.268.442-.301.628-.299.242.002.116 2.238.164 2.465.163.771 1.473.695 1.539-.148l.215-3.145c.047-.523.037-.93-.365-1.342-.417-.428-.7-.703-.766-1.457-.097-1.119.592-5.744.83-6.932.824-4.112 2.308-10.486 3.211-15.193l2.429 56.234-3.969 2.537s-.712.633.415.633h7.702s1.066.059 1.066-1.268L65.11 87.63l2.413-.115 2.414.115-.457 35.096c0 1.326 1.066 1.268 1.066 1.268h7.703c1.126 0 .415-.633.415-.633l-3.97-2.537 2.429-56.234c.903 4.707 2.388 11.081 3.211 15.193.237 1.188.927 5.812.83 6.932-.065.754-.349 1.029-.765 1.457-.403.412-.413.818-.365 1.342l.215 3.145c.064.844 1.376.92 1.539.148.048-.227-.079-2.463.163-2.465.186-.002.513.031.628.299.78 1.803-.533 4.391-.272 4.971.751 1.674 2.375.07 3.322-2.35.732-1.877.702-4.399.645-5.66z"/><path fill="#54495A" d="M56.238 123.26c-.382.246-.393.213-.195.586.114.213.368.322.755.322h7.721c.083 0 .674-.068 1.009-.486-.717-1.41-3.062-2.26-5.11-3.059l-4.18 2.637zM78.807 123.26c-.021-.016-3.991-2.582-3.991-2.582-1.906.695-4.039 1.301-5.254 3.068.065.072.218.17.283.213.285.193.592.209.68.209h7.722c.386 0 .64-.109.753-.322.199-.373.26-.227-.193-.586zm-8.282.734z"/><path fill="#8B7454" d="M74.875 120.727l1.74-35.17H58.427l1.744 35.17s2.734.76 5.393 3.059c.17-.215.181-.586.181-1.061l-.456-34.93h4.467l-.456 34.932c0 .527.077.902.262 1.105 3.304-2.643 5.313-3.105 5.313-3.105z"/><ellipse fill="#3A1E0C" cx="60.316" cy="35.742" rx="1.6" ry="1.898"/><ellipse fill="#3A1E0C" cx="74.87" cy="35.742" rx="1.6" ry="1.898"/><path fill="#8E410D" d="M57.996 32.302a.534.534 0 01-.386-.901c.718-.754 2.05-.965 3.056-.912.523.028 1.803.177 2.393.945a.534.534 0 11-.848.649c-.17-.223-.744-.483-1.603-.529-.953-.05-1.846.184-2.227.582a.527.527 0 01-.385.166z"/><path fill="#CB9A75" d="M66.67 42.223l-.039-.002a.533.533 0 01-.494-.57c.069-.96.176-4.732.176-5.886a.534.534 0 111.067 0c0 1.091-.103 4.896-.179 5.963a.533.533 0 01-.531.495z"/><path fill="#A3D284" d="M82.087 60.184c-1.024-2.941-2.871-3.763-9.595-5.896l-1.487-1.015-3.484 1.855-3.484-1.855-1.537 1.081c-6.725 2.132-8.514 2.889-9.537 5.83-.223.641-.621 2.713-1.089 5.446.812.479 3.488 1.639 5.692 1.593.099-.526.158-.63.254-1.136l.38 19.825h18.642l.389-19.825c.095.506.146.578.245 1.104 2.204.047 4.89-1.082 5.701-1.562-.469-2.732-.867-4.804-1.09-5.445z"/><path fill="#71A350" d="M63.91 58.93l-1.485-4.103a.27.27 0 11.507-.184l1.223 3.377 3.188-2.671a.27.27 0 01.346.414L63.91 58.93z"/><path fill="#71A350" d="M71.121 58.929l-3.777-3.165a.27.27 0 11.346-.414l3.19 2.674 1.238-3.339a.27.27 0 01.506.188l-1.503 4.056z"/><path fill="#FFF" d="M63.117 44.903c1.783 3.63 8.35 2.353 8.801-.167l-8.801.167z"/><path fill="#B98663" d="M67.358 47.6c-2.167 0-3.859-.911-4.641-2.502a.447.447 0 01.392-.641l8.801-.165a.443.443 0 01.446.521c-.313 1.746-2.787 2.787-4.998 2.787zm-3.441-2.268c1.01 1.232 2.694 1.381 3.441 1.381 1.699 0 3.294-.655 3.892-1.519l-7.333.138z"/><path fill="#8E410D" d="M77.215 32.302a.536.536 0 01-.386-.166c-.388-.407-1.304-.642-2.278-.579-.837.052-1.389.305-1.546.52a.534.534 0 01-.858-.635c.563-.762 1.823-.917 2.339-.95 1.026-.064 2.385.142 3.116.909a.533.533 0 01-.387.901z"/><path fill="#D86D23" d="M54.073 30.475c1.91.351 2.612-2.954 1.883-3.976 2.865.792 5.11-1.289 5.466-2.578.321 2.239 3.91 1.645 3.999-.239.089 1.662 4.8 2.328 6.584.091-.138 2.374 3.366 2.703 4.71 1.158-.54 1.79 1.715 3.274 2.792 2.234-.889 1.955.816 4.252 1.588 3.835-.902.835-1.106 2.868-.122 3.78 1.209 1.12 1.95-.825 1.777-1.871 2.267-1.141 2.04-5.275.367-5.27 2.262-.633 1.741-5.218-.25-4.961.951-.602.94-3.079-.977-2.842 1.35-1.56.24-4.978-2.329-4.212.613-2.324-4.231-3.911-6.033-1.857.869-2.054-2.686-2.423-3.984-1.056.829-.677 1.04-2.285-.104-2.566-1.589-.39-3.086.8-3.464 2.368-.555-2.429-3.799-2.013-3.571.365-1.206-1.756-4.005.199-3.935 2.592-1.404-1.682-4.781.273-4.159 2.763-2.266-.133-5.066 3.243-2.453 7.051-.779-.179-1.724.814-1.724 2.35 0 .909.651 1.844 1.414 2.251-.762.347-1.109 1.836-.242 3.438.707 1.305 1.909 1.659 2.783 1.308 1.536-.617.626-3.222-.016-4.156z"/></g><g><path fill="#F06829" d="M35.22 149.031c.542-1.75-.225-2.869-1.518-4.205-3.691.506-7.389.943-10.708-1.354-2.231-1.545-4.262-3.248-4.489-6.279-.103-1.361.206-2.053 1.739-1.93 2.092.17 5.476.281 7.573.375-.05-2.404 10.8-2.973 10.478-.01l1.911-.055c3.124-6.055 2.09-15.137 2.88-25.961.133-4.832-.438-10.502.826-15.307-2.368.584-5.201-.215-6.731 1.715-2.791 3.51-3.881 3.244-7.083 0-1.297-1.318-3.563-2.252-6.541.305-7.382 8.699-8.3 19.117-7.909 29.873.073 1.986-.426 3.391-2.203 4.732-5.384 4.064-8.244 9.502-7.227 16.418.133.904.359 1.788.648 2.65h28.198a3.192 3.192 0 01.156-.967z"/><path fill-rule="evenodd" clip-rule="evenodd" fill="#472E3B" d="M43.085 109.613c-4.782 8.23-5.143 16.949-2.88 25.961 4.903.258 5.774-.012 4.525-3.832-2.02-6.187-1.505-20.558-1.645-22.129z"/><path fill-rule="evenodd" clip-rule="evenodd" fill="#FAF9F0" d="M47.116 87.26c2.158.865 3.25 3.646 4.299 5.818-2.187.213-10.946 3.633-16.257 7.879-2.37 1.895-4.896 1.365-6.75-1.02-2.643-3.943-7.971-9.447-10.23-10.881-.89-.564-2.084-1.314-2.393-2.27 1.657-1.336 3.584-2.951 5.584-3.506 4.394-1.223 21.949 2.452 25.747 3.98z"/><path fill-rule="evenodd" clip-rule="evenodd" fill="#F06829" d="M15.786 86.787c-.278-.496-.04-1.072.372-1.768 2.42-4.08 4.284-7.4 6.352-9.722 3.928-4.408 7.979-5.549 14.983-4.448 10.49 1.651 12.293 9.336 13.144 9.631 1.888 4.457 1.167 7.803 1.729 11.707.095.656-.389.852-.95.891-1.049-2.172-2.697-3.904-4.855-4.773-3.799-1.525-8.178-1.266-10.729 3.799-.941 1.869-1.485 4.396-1.782 6.447-1.271-.336-2.649-1.039-3.868-.25.507-3.121.672-5.086.438-7.688-.414-4.635-5.049-7.297-9.302-6.318-2.023.465-3.874 1.156-5.532 2.492z"/><path fill-rule="evenodd" clip-rule="evenodd" fill="#FAF9F0" d="M24.428 74.007c-.569-1.285-1.319-2.611-.955-3.862.288-.994.906-3.152 2.061-3.129 1.17.022 3.119 1.182 3.537 2.469.174.536.367 1.236.464 1.796-1.591.073-4.489 1.697-5.107 2.726z"/><path fill-rule="evenodd" clip-rule="evenodd" fill="#472E3B" d="M33.898 98.23c.413.752.4 1.416-.38 1.963-.965.676-1.909.404-2.713-.002-.756-.381-1.266-1.385-.595-2.303 1.219-.788 3.017-.251 3.688.342zM24.428 74.007c-.2.64-1.031 1.082-1.627.971-1.118-2.334-.724-6.895 1.262-8.692.787-.712 1.924-1.101 2.769-.405 1.732 1.43 3.446 2.206 3.942 4.734-.359.731-1.184.843-1.654.743-.098-.562-1.589-3.73-3.311-3.835-1.152-.072-1.388 1.45-1.676 2.442-.363 1.253-.274 2.757.295 4.042z"/><path fill-rule="evenodd" clip-rule="evenodd" fill="#FAF9F0" d="M49.312 78.959c.994-.994 2.172-1.957 2.286-3.256.09-1.03.293-3.266-.793-3.662-1.1-.402-3.334-.023-4.189 1.025-.356.438-.842 1.076-1.135 1.564 1.455.642 3.625 3.145 3.831 4.329z"/><path fill-rule="evenodd" clip-rule="evenodd" fill="#472E3B" d="M49.312 78.959c-.044.67.571 1.381 1.167 1.492 1.886-1.771 3.462-6.062 2.647-8.613-.324-1.012-.423-1.839-2.022-1.628-2.228.292-5.352 1.139-6.728 3.317.07.81.799 1.213 1.275 1.29.562-.949 3.25-2.578 4.975-2.635.928-.031 1.029.414.713 2.496-.193 1.289-1.033 3.287-2.027 4.281z"/><path fill-rule="evenodd" clip-rule="evenodd" fill="#B84425" d="M29.481 129.992c.296.432.681.574 1.273.668-.106-2.412 1.771-5.148 1.522-8.033-.212-2.473-.845-4.451-2.98-5.373-1.511-.654-3.267-.615-3.273.137-.004.387.344.258.848.363 2.431.146 4.104 2.111 4.249 4.873.109 2.584-1.596 5.848-1.639 7.365z"/><path fill-rule="evenodd" clip-rule="evenodd" fill="#472E3B" d="M38.294 135.629c.322-2.963-.947-4.527-3.842-4.826-1.074-.109-3.404-.115-4.971-.811-1.006 1.844-1.714 3.242-1.665 5.646 3.92.243 6.557.274 10.478-.009zM41.299 93.49c.83.09 1.472-.189 1.614-1.057.144-.875-.166-1.582-1.135-1.793-.932-.201-1.601.125-1.744 1.105-.138.939.405 1.48 1.265 1.745zM23.722 88.512c-.223 1.096.142 1.785 1.17 2.029.799.188 1.391-.264 1.651-.902.355-.873-.044-1.715-1.218-1.914-.52-.088-1.357-.002-1.603.787z"/><path fill-rule="evenodd" clip-rule="evenodd" fill="#FAF9F0" d="M33.944 148.852c.205.125.353.414.364.654.007.164.038.329.071.494h11.705c-.008-2.148-.589-4.264-1.568-6.338-.524-1.111-1.644-1.688-2.937-1.258-2.607.867-5.427 1.508-7.877 2.422-1.799 2.559-.645 3.498.242 4.026z"/></g></svg>