<svg xmlns="http://www.w3.org/2000/svg" width="266" height="150">
  <g fill="#D0D8DC">
    <path d="M4.53 8.707h32.954v10.984H4.53zM41.146 8.707h32.955v10.984H41.146zM79.592 8.707h32.954v10.984H79.592zM116.208 8.707h32.954v10.984h-32.954zM154.655 8.707h32.955v10.984h-32.955zM191.271 8.707h32.955v10.984h-32.955zM229.717 8.707h32.955v10.984h-32.955zM4.53 85.601h32.954v9.154H4.53zM116.208 133.2h32.954v9.155h-32.954zM154.655 70.954h32.955v47.601h-32.955z"/>
  </g>
  <g fill="#FFECB2">
    <path d="M4.53 32.507h32.954v3.662H4.53zM191.271 28.846h32.955v12.815h-32.955z"/>
  </g>
  <g fill="#BDDDF4">
    <path d="M4.53 47.153h32.954v21.97H4.53zM79.592 74.615h32.954v43.939H79.592zM191.271 50.815h32.955v67.739h-32.955z"/>
  </g>
  <g fill="#F8BBCF">
    <path d="M4.53 103.908h32.954v14.646H4.53zM41.146 52.646h32.955V61.8H41.146zM41.146 80.108h32.955v58.584H41.146zM116.208 50.815h32.954v20.138h-32.954zM191.271 125.877h32.955v16.479h-32.955z"/>
  </g>
  <g fill="#C8E5C9">
    <path d="M79.592 28.846h32.954v18.308H79.592zM154.655 28.846h32.955v27.461h-32.955zM227.887 28.846h34.785v49.432h-34.785z"/>
  </g>
  <g>
    <path fill="#FFF8F0" d="M219.931 7.986c-5.505 3.789-12.369 7.144-18.918 9.795-9.442 3.822-18.23 6.183-21.343 6.263 2.135 5.379 5.783 9.81 10.797 12.257 8.831 4.307 19.353 4.438 26.333-7.247 2.573-4.31 4.309-10.261 5.375-15.116l.002.001c-.472-1.531-.13-2.838 1.548-3.841 2.426-1.452 4.638-.64 6.493.467 1.745 1.042 2.791 3.531 1.03 5.613-.033.019-.068.03-.102.048-1.58 6.796-2.239 11.327-2.135 17.295.195 11.161 10.831 18.329 21.175 16.722 4.918-.765 9.471-2.1 13.666-5.016-.572-2.337-3.304-4.336-5.337-5.841-2.945-2.182-8.056-7.713-12.95-13.896-3.678-4.647-7.234-9.661-9.656-13.905-4.028-6.024-9.981-7.723-15.978-3.599zm-18.853 26.499c-1.449-.338-3.535-1.482-3.311-3.809.623-3.094 2.334-4.491 5.273-3.997 2.289.385 3.337 2.211 3.312 4.164-.032 2.658-1.998 4.414-5.274 3.642zm44.603 6.34c-.65 2.479-2.249 4.198-5.027 3.499-2.141-.54-4.119-2.125-3.402-4.897.685-2.647 2.737-3.48 5.32-3.22 2.311.69 3.627 2.651 3.109 4.618z"/>
    <path fill="#462D3B" d="M237.251 39.427c-.717 2.772 1.262 4.357 3.402 4.897 2.778.7 4.377-1.02 5.027-3.499.519-1.967-.798-3.928-3.109-4.618-2.583-.26-4.635.573-5.32 3.22zM203.041 26.68c-2.939-.494-4.65.903-5.273 3.997-.225 2.326 1.861 3.47 3.311 3.809 3.276.771 5.242-.984 5.274-3.641.025-1.953-1.023-3.78-3.312-4.165z"/>
    <path fill="#F2692B" d="M250.187 50.244c-10.344 1.607-20.979-5.561-21.175-16.722-.104-5.969.555-10.499 2.135-17.295-3.047 1.59-7.182.021-8.668-1.494a6.404 6.404 0 0 1-.302-.792h-.002c-1.066 4.854-2.802 10.806-5.375 15.115-6.98 11.685-17.502 11.554-26.333 7.247-5.014-2.447-8.662-6.878-10.797-12.257-1.348-.004-2.54.382-2.429 1.969.657 9.161-.131 18.043 3.247 28.608 1.401.374 2.006 1.983 1.784 3.575.274 2.725 4.589 8.605 7.914 10.714.044-.058.1-.116.139-.172 1.122.265 2.799 1.354 2.826 3.305-.087.118-.185.224-.276.337 4.022 2.979 9.321 5.633 16.29 7.258 6.15 1.43 11.379 2.045 16.045 1.752-.001-.012-.005-.021-.006-.035.982-1.686 2.976-1.814 4.085-1.492.001.016.007.041.01.059 3.961-.406 10.154-3.428 11.675-5.593.586-1.492 2.632-2.399 4.04-2.045.258-.239.515-.461.771-.713 5.35-5.198 10.384-12.826 16.876-22.176 1.105-1.589 1.773-2.929 1.191-4.166-4.195 2.913-8.748 4.248-13.665 5.013z"/>
    <path fill="#FFF8F0" d="M236.553 89.608c2.747.371 3.57-3.227 4.43-5.555 1.085-2.938 1.131-6.551-.009-9.726-1.521 2.166-7.714 5.187-11.675 5.593.201 1.487 3.197 9.143 7.254 9.688z"/>
    <path fill="#462D3B" d="M231.146 16.227c.033-.018.068-.029.102-.048 1.761-2.082.715-4.571-1.03-5.613-1.855-1.107-4.067-1.919-6.493-.467-1.678 1.003-2.02 2.31-1.548 3.841.08.258.177.521.302.792 1.486 1.515 5.621 3.084 8.667 1.495zM240.974 74.328c1.14 3.175 1.094 6.789.009 9.726-.859 2.328-1.683 5.926-4.43 5.555-4.057-.545-7.053-8.201-7.254-9.688-.003-.018-.009-.043-.01-.059-1.109-.322-3.103-.193-4.085 1.492.001.014.005.023.006.035.762 6.107 4.719 8.262 8.613 11.973 1.901 1.812 4.692 1.078 6.697-.494 5.062-3.957 6.788-14.809 4.514-20.582l-.021-.004c-1.408-.354-3.453.553-4.039 2.046z"/>
    <path fill="#FFF8F0" d="M176.686 68.092c-.462 2.045-.699 3.419-.664 4.343.153.598.396 1.113.745 1.506.303.154.698.228 1.201.248 4.031.152 10.495-3.104 12.219-5.279-3.325-2.109-7.64-7.989-7.914-10.714-2.549 2.205-4.9 6.844-5.587 9.896z"/>
    <path fill="#462D3B" d="M190.325 68.738c-.039.056-.095.114-.139.172-1.724 2.176-8.188 5.432-12.219 5.279-.503-.021-.898-.094-1.201-.248-.479-.245-.717-.705-.745-1.506-.035-.924.202-2.298.664-4.343.688-3.053 3.038-7.691 5.587-9.897.222-1.592-.383-3.201-1.784-3.575l-.009-.004c-4.817 3.917-10.069 13.722-8.556 19.968.599 2.475.694 4.469 4.555 4.239 5.258-.309 12.636-1.742 16.396-6.444.092-.113.189-.219.276-.337-.026-1.95-1.703-3.04-2.825-3.304z"/>
    <path fill="#F2692B" d="M199.006 0a141.462 141.462 0 0 0 2.207 13.636c.248 1.173.112 2.783-.2 4.146 6.549-2.652 13.413-6.007 18.918-9.795 5.997-4.124 11.95-2.425 15.979 3.6 2.422 4.244 5.979 9.257 9.656 13.905 1.267-1.245 2.651-2.405 3.727-3.801 4.557-5.91 8.705-10.723 12.458-15.675A106.95 106.95 0 0 0 266 0h-66.994z"/>
  </g>
</svg>