<svg xmlns="http://www.w3.org/2000/svg" width="150" height="150"><path fill="#FFF8F0" d="M107.271 58.564c-11.146-2.229-22.959.712-27.342 15.836-1.616 5.578-1.811 12.746-1.58 18.492h-.005c.979 1.574.979 3.139-.604 4.754-2.288 2.336-5.003 2.076-7.404 1.381-2.258-.652-4.159-3.131-2.799-5.979.031-.029.067-.055.101-.084-.227-8.068-.819-13.33-2.688-19.98-3.493-12.432-17.499-17.333-28.604-12.5-5.28 2.299-9.982 5.128-13.821 9.624 1.327 2.448 4.969 3.883 7.686 4.969 3.937 1.578 11.279 6.267 18.57 11.751 5.48 4.121 10.932 8.689 14.888 12.727 6.275 5.561 13.437 5.715 18.938-.66 5.049-5.855 11.747-11.623 18.298-16.512 9.444-7.048 18.586-12.27 22.046-13.271-3.967-5.393-9.349-9.28-15.68-10.548z"/><path fill="#F2692B" d="M36.348 60.485c11.104-4.834 25.11.067 28.604 12.5 1.868 6.65 2.461 11.912 2.688 19.98 2.942-2.672 8.029-2.129 10.139-.871.219.268.403.533.567.799h.004c-.229-5.746-.035-12.914 1.581-18.492 4.383-15.125 16.196-18.065 27.342-15.836 6.33 1.268 11.713 5.154 15.68 10.55 1.51-.392 2.731-1.174 2.14-2.916-3.422-10.061-5.147-20.232-12.027-31.063-1.678-.008-2.828-1.631-3.047-3.478-1.105-2.969-7.659-8.283-12-9.668-.032.077-.078.159-.104.232-1.334.034-3.529-.692-4.133-2.868.062-.156.142-.304.211-.458-5.376-2.153-12.086-3.569-20.359-3.341-7.304.202-13.335 1.05-18.47 2.747l.016.035c-.604 2.178-2.799 2.904-4.133 2.871-.006-.017-.021-.044-.029-.062-4.312 1.617-10.356 6.815-11.424 9.684-.218 1.843-2.241 3.458-3.922 3.474-.217.344-.439.668-.653 1.024-4.462 7.387-7.856 17.401-12.379 29.77-.77 2.104-1.125 3.799-.11 5.013 3.835-4.498 8.537-7.327 13.818-9.626z"/><path fill="#FFF8F0" d="M40.055 12.43c-3.184.392-3.049 4.662-3.327 7.52-.354 3.601.656 7.66 2.863 10.878 1.067-2.868 7.111-8.067 11.424-9.684-.661-1.604-6.26-9.295-10.96-8.714z"/><path fill="#462D3B" d="M67.639 92.965c-.033.029-.069.055-.101.084-1.36 2.848.541 5.326 2.799 5.979 2.401.695 5.116.955 7.404-1.381 1.582-1.615 1.582-3.18.604-4.754a7.465 7.465 0 0 0-.567-.799c-2.11-1.258-7.197-1.801-10.139.871zM39.591 30.828c-2.207-3.219-3.217-7.277-2.863-10.878.278-2.858.144-7.128 3.327-7.52 4.7-.581 10.299 7.11 10.96 8.715.008.018.023.045.029.062 1.334.034 3.529-.692 4.133-2.871l-.016-.035c-2.646-6.613-7.707-7.862-13.154-10.873-2.659-1.469-5.565.171-7.35 2.518-4.503 5.914-3.25 18.564.988 24.358l.023-.002c1.682-.015 3.705-1.631 3.923-3.474z"/><path fill="#FFF8F0" d="M113.366 18.942c-.084-2.423-.223-4.032-.531-5.056-.348-.623-.77-1.128-1.277-1.464-.383-.084-.846-.052-1.416.075-4.556 1.012-10.834 6.551-12.125 9.493 4.341 1.385 10.895 6.699 12 9.668 2.205-3.217 3.474-9.097 3.349-12.716z"/><path fill="#462D3B" d="M97.912 22.222c.026-.073.072-.155.104-.232 1.291-2.942 7.569-8.481 12.125-9.493.57-.126 1.033-.159 1.416-.075.608.133 1.009.577 1.277 1.464.309 1.024.447 2.633.531 5.056.125 3.618-1.145 9.499-3.35 12.715.219 1.846 1.369 3.469 3.047 3.478l.012.001c4.241-5.796 7.241-18.31 3.714-24.856-1.396-2.594-2.089-4.799-6.342-3.409-5.791 1.89-13.629 5.659-16.457 12.024-.069.154-.148.302-.211.458.605 2.176 2.8 2.902 4.134 2.869z"/><path fill="#F2692B" d="M54.927 150a170.624 170.624 0 0 0-.546-4.203c-.702-4.855-1.438-9.457-.322-14.158 1.337-5.648 7.181-8.205 11.369-4.08 2.729 2.686 4.123 7.121 4.337 10.945.216 3.831.387 7.664.538 11.496h47.957c-.593-12.638-2.41-24.629-5.924-36.627-2.542-8.676-5.955-17.355-10.439-26.291-.621-1.24-.942-3.082-.99-4.697-6.551 4.889-13.249 10.656-18.298 16.512-5.501 6.375-12.662 6.221-18.938.66-3.956-4.037-9.407-8.605-14.888-12.727-1.052 1.764-2.261 3.469-3.054 5.346-3.366 7.951-6.596 14.557-9.343 21.197-4.285 10.363-7.388 20.818-7.958 36.627h26.499z"/><path fill="#462D3B" d="M54.927 150h15.375c-.15-3.832-.322-7.665-.538-11.496-.214-3.824-1.608-8.26-4.337-10.945-4.188-4.125-10.032-1.568-11.369 4.08-1.115 4.701-.38 9.303.322 14.158.203 1.399.381 2.801.547 4.203zM89.166 69.892c.97 2.276 2.863 3.897 5.123 4.515a7.83 7.83 0 0 0 2.412.265c3.315-.149 6.035-2.276 7.097-5.553a2.058 2.058 0 0 0-1.324-2.593c-1.052-.365-2.241.241-2.595 1.323-.524 1.627-1.783 2.639-3.363 2.708-1.229.056-2.812-.516-3.562-2.281a2.057 2.057 0 0 0-2.701-1.087 2.063 2.063 0 0 0-1.087 2.703zM55.961 69.389a2.058 2.058 0 0 0-1.144-2.678 2.062 2.062 0 0 0-2.678 1.143c-.634 1.587-1.96 2.51-3.539 2.472-1.231-.03-2.77-.707-3.397-2.52a2.058 2.058 0 0 0-2.62-1.272 2.062 2.062 0 0 0-1.273 2.622c.815 2.352 2.613 4.107 4.843 4.869.744.254 1.529.4 2.347.417 3.321.081 6.176-1.856 7.461-5.053z"/><g><path fill="#E0E0DF" d="M98.19 95.408a.292.292 0 0 1 .102-.003c.186.021.3.206.259.414-.037.171-.168.308-.315.335a.277.277 0 0 1-.1.003c-.183-.019-.297-.207-.257-.418a.42.42 0 0 1 .311-.331z"/><path fill="#9A9EA0" d="M98.316 95.291c.239.031.386.271.331.54a.546.546 0 0 1-.405.434.46.46 0 0 1-.128.007c-.241-.028-.393-.273-.333-.54a.55.55 0 0 1 .408-.435.385.385 0 0 1 .127-.006zm.235.528c.041-.208-.073-.394-.259-.414a.293.293 0 0 0-.102.003.423.423 0 0 0-.312.331c-.04.211.074.399.257.418a.279.279 0 0 0 .1-.003c.148-.027.279-.164.316-.335z"/><path fill="#303030" d="M95.163 94.41c.479.06.778.545.666 1.086-.092.445-.432.79-.816.866a.748.748 0 0 1-.254.01c-.481-.061-.777-.545-.667-1.087.089-.443.43-.788.814-.862a.82.82 0 0 1 .257-.013zm.127 1.021c.044-.204-.071-.392-.252-.411a.325.325 0 0 0-.098.004.417.417 0 0 0-.311.331c-.04.201.071.386.252.407a.342.342 0 0 0 .101-.003.416.416 0 0 0 .308-.328z"/><path fill="#202842" d="M94.94 95.023a.323.323 0 0 1 .098-.004c.181.02.296.207.252.411a.416.416 0 0 1-.308.328.34.34 0 0 1-.101.003c-.181-.021-.292-.206-.252-.407a.42.42 0 0 1 .311-.331z"/><path fill="#565757" d="M95.266 93.9c.729.091 1.186.827 1.017 1.648-.14.677-.659 1.199-1.243 1.316a1.2 1.2 0 0 1-.383.015c-.732-.086-1.186-.822-1.019-1.646.141-.679.66-1.202 1.243-1.318.127-.023.255-.031.385-.015zm.563 1.596c.112-.541-.187-1.026-.666-1.086a.82.82 0 0 0-.257.013c-.385.074-.726.419-.814.862-.11.542.186 1.026.667 1.087.085.011.17.008.254-.01.384-.076.724-.421.816-.866z"/><path fill="#F5F5F5" d="M98.606 93.551c1.073.128 1.739 1.212 1.492 2.423-.205.988-.966 1.76-1.823 1.929a1.753 1.753 0 0 1-.565.024l-3.883-.465c-1.069-.131-1.739-1.214-1.491-2.421.203-.996.963-1.764 1.822-1.933a1.81 1.81 0 0 1 .569-.022l3.879.465zm-2.324 1.998c.169-.821-.287-1.558-1.017-1.648a1.184 1.184 0 0 0-.385.016c-.583.116-1.103.64-1.243 1.318-.167.823.286 1.56 1.019 1.646.128.018.257.01.383-.015.584-.118 1.104-.64 1.243-1.317zm2.365.282c.055-.269-.092-.509-.331-.54a.385.385 0 0 0-.127.006.549.549 0 0 0-.408.435c-.06.267.092.512.333.54a.46.46 0 0 0 .128-.007c.193-.037.361-.211.405-.434zm-1.501-.178c.021-.098-.032-.177-.115-.191a.144.144 0 0 0-.046.004.191.191 0 0 0-.143.152c-.021.092.034.179.115.188a.11.11 0 0 0 .048-.002.192.192 0 0 0 .141-.151z"/><path fill="#3F4DA1" d="M109.812 91.978c-.017-.008-.091-.035-.11-.043a1.647 1.647 0 0 0-.168-.049c-.016-.005-.029-.013-.045-.016l-.118-.018-18.031-2.1a1.452 1.452 0 0 0-.474.019 1.787 1.787 0 0 0-.496.182 2.196 2.196 0 0 0-.695.593 2.668 2.668 0 0 0-.52 1.132l-8.065 39.83c-.198.985.184 1.881.881 2.211l1.91.905c-.695-.33-1.076-1.224-.879-2.213l8.066-39.828a2.48 2.48 0 0 1 .203-.615 2.487 2.487 0 0 1 .503-.728 2.142 2.142 0 0 1 .507-.382c.159-.087.327-.148.498-.182.153-.031.313-.038.472-.019l18.033 2.1c.056.007.108.02.16.031.06.014.118.033.177.056.033.011.07.023.104.038l-1.913-.904z"/><path fill="#5E6BB2" d="M111.284 92.758c.967.111 1.559 1.157 1.321 2.336l-8.066 39.83c-.2.985-.916 1.75-1.709 1.906a1.489 1.489 0 0 1-.471.02l-18.041-2.1c-.964-.11-1.553-1.158-1.316-2.337l8.066-39.828c.2-.987.915-1.75 1.711-1.908.153-.031.313-.038.472-.019l18.033 2.1zm-11.185 3.216c.247-1.211-.419-2.295-1.492-2.423l-3.879-.465a1.838 1.838 0 0 0-.569.022c-.859.169-1.619.937-1.822 1.933-.248 1.207.422 2.29 1.491 2.421l3.883.465c.191.022.381.014.565-.024.857-.17 1.618-.941 1.823-1.929z"/></g><path fill="#462D3B" d="M101.379 130.617c3.305.76 6.297.777 8.887 1.548 2.396.711 3.562 1.477 3.966 1.854.08 4.586-.935 10.154-2.788 15.98h15.259c1.585-6.103 2.366-11.925 2.215-17.112-.111-3.811-1.624-7.266-4.378-9.989-1.854-1.836-4.305-3.356-7.284-4.518-4.533-1.772-7.426-2.314-13.442-2.878-3.357-.314-8.556 1.849-9.227 6.021-.674 4.174 3.506 8.337 6.792 9.094z"/></svg>