<svg xmlns="http://www.w3.org/2000/svg" width="266" height="150">
  <path fill="#E0E0E0" d="M141.474 51.279c-4.849 4.257-9.512 9.179-11.167 15.393-1.462 5.464-.378 11.369 2.045 16.465 2.413 5.118 6.096 9.513 9.995 13.592 6.24 6.563 5.002 9.374 4.537 17.285-.518 8.717 8.205 12.337 15.321 13.609 29.317 5.255 59.804-6.771 82.352-26.222 4.569-3.943 8.925-8.276 11.79-13.585 5.209-9.696 4.661-21.906-.171-31.801-4.849-9.887-13.586-17.531-23.469-22.396-14.733-7.254-32.052-8.611-48.087-5.036-16.034 3.577-30.8 11.868-43.146 22.696zm39.993 41.126c3.61.245 7.205 1.785 9.456 4.604 2.272 2.827 2.92 7.003 1.149 10.153-1.528 2.728-4.509 4.305-7.464 5.353-5.585 1.983-15.849 3.29-20.171-2.058-5.176-6.396.462-13.353 6.493-15.929 3.332-1.432 6.927-2.37 10.537-2.123z"/>
  <path fill="#009688" d="M147.949 84.703c.396-.028.823-.09 1.108-.366.801-.774-.258-2.093-.116-3.196.182-1.396 1.996-1.719 3.354-2.094.45-.126.912-.309 1.208-.672.69-.843.151-2.11-.502-2.984-2.305-3.082-5.744-5.076-9.087-6.984-.941-.537-1.925-1.089-3.008-1.161-1.083-.071-2.29.49-2.59 1.533-.407 1.418.881 3.261-.205 4.26-.353.326-.88.434-1.195.797-.753.864.231 2.097.631 3.173 1.176 3.167-.657 4.483 2.441 6.341 2.061 1.232 5.619 1.533 7.961 1.353z"/>
  <path fill="#4DAF4E" d="M166.273 53.648l-4.846-2.822c-.433-.252-.88-.51-1.375-.59-.587-.095-1.181.069-1.748.248a28.619 28.619 0 0 0-5.957 2.661c-.508.301-1.032.644-1.296 1.173-.319.642-.185 1.415.034 2.098a9.43 9.43 0 0 0 2.362 3.823c.314.311.668.623.784 1.049.479 1.771-.446 4.257 2.357 4.649 2.336.326 3.804-2.561 6.136-2.61.492-.011.978.096 1.47.136 1.096.085 2.253-.2 3.06-.944.808-.743 1.185-1.986.758-2.997-.359-.854-1.224-1.475-1.38-2.388-.301-1.759 1.728-2.268-.359-3.486z"/>
  <path fill="#8BC249" d="M183.923 38.99c-.568-.031-1.261.062-1.502.579-1.631 3.504-2.106.78-5.082 2.496-1.703.981-2.81 4.473-2.491 6.358.66 3.883 5.363 5.882 8.881 5.866 5.531-.025 5.878-3.12 7.508-6.774.558-1.249 1.623-.482 1.444-2.479-.096-1.081-1.351-2.347-2.072-3.063-1.765-1.754-4.194-2.859-6.686-2.983z"/>
  <path fill="#FEEA39" d="M214.737 38.056c-.446-1.103-1.731-1.611-2.911-1.74-10.185-1.107-13.806 14.85-2.716 14.972 2.643.03 8.786-.462 9.9-2.865-.038.081-.165-5.604-.281-5.86-.853-1.918-3.077-2.248-3.992-4.507z"/>
  <path fill="#F8981D" d="M236.696 55.091c-1.09-1.005-2.246-2.648-1.303-3.789.564-.682 1.599-.721 2.329-1.22.834-.57 1.158-1.712.951-2.704-.205-.992-.86-1.841-1.633-2.498-1.91-1.63-4.623-2.219-7.073-1.665-.814.183-1.62.497-2.245 1.052-.459.407-.802.929-1.133 1.447a83.937 83.937 0 0 0-3.178 5.414c-1.913 3.558-1.981 8.47 2.721 9.531 1.346.302 4.898.015 6.009-.818 1.912-1.434 1.202-4.493 4.555-4.75z"/>
  <path fill="#EF4438" d="M244.759 72.601c.138.356.276.712.415 1.066 1.276-.035 2.55-.068 3.826-.104.617-.017 1.316-.07 1.711-.548.226-.275.303-.644.329-1 .183-2.522-1.767-5.292-.349-7.388.44-.652 1.196-1.201 1.172-1.986-.014-.499-.353-.92-.675-1.3-1.826-2.156-4.082-4.508-6.901-4.354-.309.017-.636.076-.85.296-.238.241-.274.607-.278.945-.013 1.927.432 4.432-1.297 5.284-.993.492-2.188.069-3.278.273-2.071.384-3.03 2.761-3.523 4.809-.422 1.762-.758 3.676-.026 5.333.73 1.657 2.967 2.743 4.429 1.675l5.295-3.001z"/>
  <path fill="#903F98" d="M245.715 90.207c.157-.266.454-.41.717-.576 1.086-.689 1.715-2.042 1.54-3.317-.177-1.279-1.146-2.411-2.382-2.78-.987-.298-2.054-.13-3.079-.257-2.084-.259-3.993-1.736-6.077-1.462-2.144.285-3.588 2.301-4.58 4.223-2.25 4.353-2.196 10.729 3.651 11.668 2.09.335 5.022-.554 6.954-1.251 1.38-.502 3.09-.744 3.75-2.268.617-1.422-1.113-2.932-.494-3.98z"/>
  <path fill="#4555A5" d="M218.239 108.604c-.513.301-.396 1.142.069 1.51.465.371 1.105.396 1.699.412 1.787.039 3.958-.141 4.752-1.741.7-1.409-.081-3.289.809-4.587 1.001-1.455 1.612-4.82-.259-6.171-.569-.409-1.34-.32-2.042-.345-.701-.021-1.533-.303-1.677-.987-.993-4.729-9.722 3.742-9.713 7.405.003 1.179.309 2.398 1.075 3.295.768.896 2.055 1.394 3.175 1.025l2.112.184z"/>
  <g>
    <path fill="#F2692B" fill-rule="evenodd" d="M97.803 150c-.148-13.156-.502-27.16 2.736-39.47-7.943 1.957-17.446-.72-22.58 5.744-9.364 11.78-13.018 10.89-23.762 0-4.352-4.416-11.952-7.546-21.94 1.027-8.7 10.255-14.715 21.222-18.813 32.699h84.359z" clip-rule="evenodd"/>
    <path fill="#009688" d="M50.368 132.948c-27.169-2.839-49.062-6.364-48.904-7.876.158-1.513 22.307-.437 49.477 2.402 4.537.473 8.927.969 13.079 1.475 20.783 2.481 35.958 5.141 35.826 6.402-.132 1.259-15.601.717-36.519-1.16a725.098 725.098 0 0 1-12.959-1.243z"/>
    <path fill="#D0D8DC" d="M63.326 134.191a9.597 9.597 0 0 1-.058-2.408 9.804 9.804 0 0 1 .75-2.834c20.783 2.481 35.958 5.141 35.826 6.402-.131 1.259-15.6.717-36.518-1.16z"/>
    <path fill="#F8981D" d="M100.892 138.866c-4.227-.441-4.918-2.039-4.724-3.9.194-1.86 1.202-3.281 5.429-2.84 4.228.443 9.881 4.44 9.881 4.44s-6.358 2.742-10.586 2.3z"/>
    <path fill="#FFF8F0" fill-rule="evenodd" d="M111.292 86.885c7.24 2.907 10.903 12.233 14.422 19.523-7.336.711-36.72 12.187-54.534 26.427-7.949 6.354-16.424 4.578-22.641-3.419-8.864-13.226-26.741-31.69-34.317-36.5-2.983-1.895-6.992-4.408-8.027-7.61 5.558-4.486 12.025-9.901 18.73-11.766 14.738-4.106 73.624 8.225 86.367 13.345z" clip-rule="evenodd"/>
    <path fill="#F2692B" fill-rule="evenodd" d="M6.194 85.306c-.932-1.665-.134-3.602 1.247-5.927C15.558 65.69 21.81 54.545 28.748 46.763c13.179-14.787 26.763-18.615 50.261-14.921 35.188 5.539 41.237 31.319 44.09 32.304 6.334 14.954 3.914 26.175 5.802 39.272.32 2.202-1.305 2.859-3.187 2.991-3.519-7.29-9.047-13.101-16.287-16.012-12.746-5.119-27.431-4.248-35.99 12.743-3.158 6.27-4.982 14.743-5.979 21.62-4.263-1.121-8.887-3.48-12.975-.835 1.702-10.47 2.254-17.062 1.47-25.789-1.39-15.542-16.938-24.474-31.203-21.195-6.783 1.561-12.995 3.878-18.556 8.365z" clip-rule="evenodd"/>
    <path fill="#462D3B" fill-rule="evenodd" d="M66.952 123.685c1.386 2.526 1.342 4.752-1.275 6.585-3.236 2.267-6.403 1.361-9.102-.002-2.536-1.278-4.248-4.643-1.996-7.722 4.09-2.648 10.121-.848 12.373 1.139zM91.777 107.788c2.783.303 4.936-.634 5.412-3.544.482-2.938-.555-5.306-3.806-6.013-3.126-.682-5.368.416-5.851 3.71-.459 3.145 1.36 4.959 4.245 5.847zM32.815 91.09c-.747 3.671.476 5.988 3.925 6.805 2.682.633 4.666-.883 5.541-3.029 1.19-2.924-.148-5.749-4.087-6.416-1.747-.297-4.554-.007-5.379 2.64z" clip-rule="evenodd"/>
  </g>
  <g>
    <path fill="#212121" d="M104.169 25.06c1.045-.826 2.199-1.613 3.521-1.785 1.015-.133 2.295.374 2.342 1.395.028.635-.438 1.174-.894 1.616-.896.864-1.889 1.664-2.522 2.735a5.193 5.193 0 0 0-.507 4.042c.142.482.248 1.186-.235 1.329-.129.038-.266.015-.398-.012-1.753-.368-3.174-1.643-4.326-3.014-.791-.941-3.077-2.983-1.841-3.8.645-.426 1.913-.408 2.695-.878.773-.468 1.459-1.07 2.165-1.628zM33.977 49.624l.096.017a146.16 146.16 0 0 1 8.966 1.806 146.564 146.564 0 0 1 17.507 5.263c8.969 3.317 18.216 6.322 26.925 10.294 5.93 2.704 11.618 5.954 17.677 8.443 3.424 1.406 8.926 4.59 12.203 1.115 6.027-6.399-8.532-17.583-12.593-21.012-5.336-4.506-10.999-8.71-17.312-11.696-6.801-3.216-14.195-4.944-21.552-6.513-6.111-1.303-12.352-2.517-18.57-1.912-.549.054-1.099.11-1.646.172-4.005.457-8.16 1.104-11.867 2.757a11.468 11.468 0 0 0-3.513 2.458c-1.241 1.273-2.042 3.427-1.736 5.219.424 2.514 3.306 3.226 5.415 3.589z"/>
    <path fill="#616262" d="M26.203 16.597c-.042 2.82.948 5.536 1.94 8.181.979 2.631 2.095 5.313 2.122 8.167-.004.056.007.099.002.155-.008 3.704-1.32 7.45-1.65 11.129 1.292-1.386 3.233-1.522 5.017-1.445 8.056.387 15.382 3.432 22.789 6.358 9.322 3.682 18.495 7.857 27.171 12.902 7.884 4.583 15.498 9.605 23.366 14.228.401.241.83.495 1.258.766 6.38 3.94 15.644 10.666 22.866 9.845 2.483-.292 5.005-1.864 5.578-4.299.12-.466.151-.927.118-1.4-.061-1.642-.849-3.267-1.662-4.752l-1.367-2.492c-1.496-2.656-3.051-5.271-4.604-7.902-3.034-5.104-6.055-10.207-9.088-15.324-3.604-6.096-7.262-12.238-12.082-17.417-7.992-8.602-18.061-12.198-28.626-16.282A143.499 143.499 0 0 0 41.51 8.046c-3.597-.35-7.975-.158-11.135 1.522-2.433 1.301-4.134 3.494-4.172 7.029z"/>
    <path fill="#434343" d="M28.616 44.229c1.292-1.386 3.233-1.522 5.017-1.445 8.056.387 15.382 3.432 22.789 6.358 9.322 3.682 18.495 7.857 27.171 12.902 7.884 4.583 15.498 9.605 23.366 14.228.401.241.83.495 1.258.766C97.74 68 87.939 58.131 76.24 50.667c-9.683-6.169-20.463-10.561-31.443-14.142-4.75-1.569-9.585-2.977-14.533-3.58-.004.056.007.099.002.155-.008 3.703-1.32 7.449-1.65 11.129z"/>
  </g>
</svg>
