<?xml version="1.0" encoding="UTF-8"?>
<!DOCTYPE svg  PUBLIC '-//W3C//DTD SVG 1.1//EN'  'http://www.w3.org/Graphics/SVG/1.1/DTD/svg11.dtd'>
<svg enable-background="new 0 0 266 150" version="1.1" viewBox="0 0 266 150" xml:space="preserve" xmlns="http://www.w3.org/2000/svg">
	<path d="m145.72 120.9c6.547-7.592 15.232-15.074 23.729-21.415 12.249-9.142 24.104-15.911 28.591-17.21-5.145-6.996-12.125-12.038-20.335-13.681-14.454-2.89-29.775 0.923-35.459 20.537-2.096 7.233-2.349 16.53-2.049 23.983h-6e-3c1.27 2.042 1.27 4.07-0.782 6.164-2.97 3.03-6.489 2.694-9.604 1.792-2.928-0.848-5.394-4.062-3.629-7.754 0.04-0.039 0.087-0.07 0.129-0.108-0.293-10.465-1.062-17.29-3.484-25.914-4.53-16.122-22.695-22.479-37.097-16.209-6.847 2.98-12.946 6.649-17.925 12.48 1.721 3.174 6.445 5.035 9.968 6.444 5.105 2.045 14.627 8.129 24.084 15.24 7.107 5.346 14.177 11.271 19.308 16.507 8.138 7.213 17.427 7.413 24.561-0.856zm17.275-45.633c2.233-0.059 5.696 0.807 6.254 4.268 0.275 4.727-1.677 7.405-6.132 7.807-3.47 0.312-5.685-1.939-6.393-4.783-0.962-3.869 1.223-7.165 6.271-7.292zm-67.147 7.772c0-3.844 1.668-6.949 5.964-6.99 3.314-0.03 6.788 1.516 6.804 5.812 0.012 4.104-2.65 6.093-6.498 6.698-3.617-0.123-6.273-2.467-6.27-5.52z" fill="#FFF8F0"/>
	<path d="m108.62 81.864c-0.016-4.296-3.489-5.842-6.804-5.812-4.296 0.041-5.964 3.146-5.964 6.99-3e-3 3.053 2.653 5.397 6.27 5.52 3.848-0.605 6.51-2.594 6.498-6.698z" fill="#462D3B"/>
	<path d="m163.12 87.346c4.455-0.401 6.407-3.08 6.132-7.807-0.558-3.461-4.021-4.327-6.254-4.268-5.048 0.127-7.233 3.423-6.271 7.292 0.709 2.843 2.923 5.095 6.393 4.783z" fill="#462D3B"/>
	<path d="m85.723 71.09c14.401-6.27 32.566 0.087 37.097 16.209 2.423 8.624 3.191 15.449 3.484 25.914 3.816-3.467 10.415-2.762 13.15-1.13 0.284 0.347 0.522 0.691 0.736 1.036h5e-3c-0.299-7.453-0.046-16.75 2.05-23.983 5.684-19.614 21.005-23.427 35.459-20.537 8.21 1.643 15.19 6.685 20.335 13.681 1.958-0.508 3.542-1.521 2.775-3.781-4.438-13.047-6.675-26.239-15.599-40.285-2.175-0.011-3.667-2.115-3.951-4.51-1.435-3.851-9.934-10.742-15.562-12.538-0.042 0.1-0.102 0.206-0.136 0.3-1.729 0.044-4.577-0.897-5.36-3.719 0.081-0.203 0.186-0.394 0.273-0.594-6.971-2.792-15.674-4.628-26.403-4.332-9.473 0.262-17.294 1.361-23.954 3.562 6e-3 0.016 0.014 0.03 0.02 0.045-0.782 2.825-3.629 3.767-5.359 3.723-8e-3 -0.022-0.028-0.058-0.038-0.082-5.593 2.097-13.432 8.839-14.816 12.559-0.282 2.39-2.906 4.485-5.085 4.505-0.282 0.446-0.571 0.867-0.849 1.328-5.787 9.581-10.189 22.567-16.054 38.609-0.998 2.727-1.459 4.926-0.144 6.5 4.98-5.831 11.079-9.5 17.926-12.48z" fill="#F2692B"/>
	<path d="m90.531 8.766c-4.128 0.508-3.954 6.045-4.315 9.753-0.458 4.67 0.851 9.933 3.713 14.108 1.384-3.72 9.223-10.462 14.816-12.559-0.857-2.081-8.119-12.055-14.214-11.302z" fill="#FFF8F0"/>
	<path d="m126.3 113.21c-0.042 0.038-0.089 0.069-0.129 0.108-1.765 3.691 0.701 6.906 3.629 7.754 3.115 0.902 6.634 1.238 9.604-1.792 2.052-2.094 2.052-4.122 0.782-6.164-0.214-0.345-0.452-0.689-0.736-1.036-2.735-1.632-9.333-2.337-13.15 1.13z" fill="#462D3B"/>
	<path d="m89.929 32.627c-2.862-4.175-4.172-9.438-3.713-14.108 0.362-3.708 0.187-9.245 4.315-9.753 6.095-0.753 13.357 9.221 14.214 11.302 0.01 0.023 0.03 0.06 0.038 0.082 1.73 0.043 4.577-0.898 5.359-3.723-6e-3 -0.016-0.014-0.03-0.02-0.045-3.432-8.576-9.995-10.195-17.06-14.101-3.448-1.905-7.217 0.221-9.531 3.265-5.84 7.67-4.215 24.077 1.282 31.59 9e-3 0 0.02-3e-3 0.031-3e-3 2.179-0.021 4.803-2.116 5.085-4.506z" fill="#462D3B"/>
	<path d="m185.61 17.212c-0.109-3.143-0.289-5.229-0.688-6.557-0.451-0.808-0.998-1.464-1.656-1.899-0.497-0.109-1.097-0.067-1.836 0.096-5.909 1.313-14.051 8.497-15.726 12.312 5.629 1.796 14.128 8.688 15.562 12.538 2.86-4.171 4.507-11.797 4.344-16.49z" fill="#FFF8F0"/>
	<path d="m165.57 21.465c0.034-0.095 0.094-0.201 0.136-0.3 1.675-3.815 9.816-10.999 15.726-12.312 0.739-0.164 1.339-0.206 1.836-0.096 0.788 0.173 1.308 0.748 1.656 1.899 0.399 1.328 0.579 3.414 0.688 6.557 0.162 4.693-1.484 12.319-4.344 16.49 0.284 2.395 1.776 4.5 3.951 4.51 4e-3 0 9e-3 1e-3 0.016 1e-3 5.5-7.517 9.391-23.746 4.817-32.236-1.812-3.364-2.71-6.224-8.226-4.421-7.512 2.451-17.676 7.339-21.344 15.594-0.088 0.2-0.192 0.392-0.273 0.594 0.784 2.822 3.632 3.764 5.361 3.72z" fill="#462D3B"/>
<path d="m184.27 139.68c-3.296-11.251-7.724-22.51-13.539-34.099-0.806-1.607-1.222-3.997-1.284-6.093-8.497 6.341-17.183 13.823-23.729 21.415-7.134 8.269-16.422 8.068-24.561 0.857-5.13-5.236-12.2-11.161-19.308-16.507-1.364 2.288-2.932 4.499-3.961 6.936-4.365 10.312-8.554 18.876-12.116 27.49-1.537 3.716-2.956 7.44-4.221 11.319h105.64c-0.854-3.78-1.817-7.549-2.92-11.318z" fill="#F2692B"/>
<path d="m196.17 62.083c-11.468-11.479-32.13-18.809-62.071-18.809-32.511 0-55.389 9.542-62.081 18.987-6.691 9.445-5.026 6.487-8.221 14.157-3.194 7.671-0.032 22.25 8.23 30.513 12.386 12.386 32.463 12.386 44.849 0 3.68-3.666 11.275-6.566 17.223-6.566 6.532 0 13.447 2.805 17.222 6.566 12.387 12.386 32.463 12.386 44.849 0 8.152-8.151 10.852-19.495 8.357-30.068-1.368-5.794-1.402-7.817-8.357-14.78z" fill="#010101"/>
</svg>
