<svg version="1.1" id="Layer_1" xmlns="http://www.w3.org/2000/svg" x="0" y="0" viewBox="0 0 266 150" xml:space="preserve"><style>.st0{fill:#f2f2f4}.st1{fill:#ed6e6f}.st2{fill:#4b69a8}.st3{fill:#fbd071}.st4{fill:#c66366}.st5{fill:#f5ba68}.st6{fill:#f7ba63}.st7{fill:#527db6}.st9{fill:#81b640}.st10{fill:#f8db7a}.st11{fill:#00afb0}.st13{fill:#814b51}.st14{fill:#afcc83}.st20{fill:#fde05a}.st21{fill:#ef4e58}.st22{fill:#41489a}.st23{fill:#f4f5f5}.st24{fill:#4b71b6}.st25,.st27,.st28{fill-rule:evenodd;clip-rule:evenodd;fill:#5a4854}.st27,.st28{fill:#e8824b}.st28{fill:#f8f5ef}</style><path class="st0" d="M38.4 137.8v-18.5c0-1-.5-1.9-1.2-2.5-.1-.1-.2-.2-.3-.2l-5.7-3.3-6.1-3.5-5.2-3c-.5-.3-1.1-.4-1.7-.4-.5 0-.9.2-1.4.4l-5.2 3-6 3.5-5.7 3.3c-.1.1-.6.4-.6.4-.6.6-1 1.4-1 2.3v19.5c0 1 .5 1.9 1.2 2.5.1.1.2.2.3.2l5.7 3.3 6.1 3.5 5.2 3c1 .6 2.2.6 3.1 0l5.2-3 6-3.5 5.7-3.3c.1-.1.2-.1.3-.2.8-.6 1.2-1.5 1.2-2.5v-1z"/><path class="st1" d="M18.2 109.8h6.9l-5.2-3c-.5-.3-1.1-.4-1.7-.4v3.4zM18.2 123.8h20.2v-3.5H18.2zM18.2 116.8h19c-.1-.1-.2-.2-.3-.2l-5.7-3.3h-13v3.5zM18.2 128.6c0 .7-.5 1.2-1.2 1.2H-1.6v1h40v-3.5H18.2v1.3zM-.1 141.5l5.7 3.3h25.5l5.7-3.3c.1-.1.2-.1.3-.2H-.4c.1.1.2.1.3.2zM16.8 151.2c1 .6 2.2.6 3.1 0l5.2-3H11.7l5.1 3zM-1.6 137.8h40v-3.5h-40z"/><path class="st2" d="M18.2 106.4c-.5 0-.9.2-1.4.4l-5.2 3-6 3.5-5.7 3.3c-.1.1-.6.4-.6.4-.6.6-1 1.4-1 2.3v10.5H17c.7 0 1.2-.5 1.2-1.2v-22.2c0 .1 0 .1 0 0z"/><path class="st0" d="M3.3 118.5h-.8l-.3-.8h-.1l-.3.8H1c-.1 0-.2.1-.1.2l.7.5-.4.8c0 .1.1.2.2.1l.7-.5.7.5c.1.1.2 0 .2-.1l-.3-.8.7-.5c0-.1 0-.2-.1-.2zM3.3 122.6h-.8l-.3-.8c0-.1-.2-.1-.2 0l-.3.8H.9c-.1 0-.2.1-.1.2l.7.5-.3.8c0 .1.1.2.2.1l.7-.5.7.5c.1.1.2 0 .2-.1l-.3-.8.7-.5s0-.2-.1-.2zM3.3 126.8h-.8l-.3-.8c0-.1-.2-.1-.2 0l-.3.8H.9c-.1 0-.2.1-.1.2l.7.5-.2.6-.1.2c0 .1.1.2.2.1l.4-.3.3-.2.3.2.4.3c.1.1.2 0 .2-.1l-.1-.2-.2-.6.7-.5c0-.1 0-.2-.1-.2zM6.5 116.4h-.8l-.3-.8c0-.1-.2-.1-.2 0l-.3.8h-.8c-.1 0-.2.1-.1.2l.7.5-.2.6-.1.2c0 .1.1.2.2.1l.5-.4.2-.1.2.1.5.4c.1.1.2 0 .2-.1l-.1-.2-.2-.6.7-.5c.1-.1 0-.2-.1-.2zM6.6 120.7c.1-.1 0-.2-.1-.2h-.8l-.3-.8c0-.1-.2-.1-.2 0l-.3.8h-.8c-.1 0-.2.1-.1.2l.6.4.1.1-.2.8c0 .1.1.2.2.1l.7-.5.7.5c.1.1.2 0 .2-.1l-.3-.8.1-.1.5-.4zM6.5 124.6h-.8l-.3-.8c0-.1-.2-.1-.2 0l-.3.8h-.8c-.1 0-.2.1-.1.2l.7.5-.3.8c0 .1.1.2.2.1l.7-.5.7.5c.1.1.2 0 .2-.1l-.3-.8.7-.5c.1 0 0-.1-.1-.2zM9.7 114.3h-.8l-.1-.2-.2-.6c0-.1-.2-.1-.2 0l-.2.6-.1.2h-.8c-.1 0-.2.1-.1.2l.7.5-.3.8c0 .1.1.2.2.1l.7-.5.7.5c.1.1.2 0 .2-.1l-.3-.8.7-.5c.1 0 0-.2-.1-.2zM9.7 118.5h-.8l-.3-.8h-.2l-.3.8h-.8c-.1 0-.2.1-.1.2l.7.5-.2.8c0 .1.1.2.2.1l.7-.5.7.5c.1.1.2 0 .2-.1l-.3-.8.7-.5c0-.1-.1-.2-.2-.2zM9.7 122.6h-.8l-.3-.8c0-.1-.2-.1-.2 0l-.3.8h-.8c-.1 0-.2.1-.1.2l.7.5-.3.8c0 .1.1.2.2.1l.7-.5.7.5c.1.1.2 0 .2-.1l-.3-.8.7-.5c.1 0 0-.2-.1-.2zM9.7 126.8h-.8l-.3-.8c0-.1-.2-.1-.2 0l-.3.8h-.8c-.1 0-.2.1-.1.2l.7.5-.2.6-.1.2c0 .1.1.2.2.1l.4-.3.3-.2.3.2.4.3c.1.1.2 0 .2-.1l-.1-.2-.2-.6.7-.5c.1-.1 0-.2-.1-.2zM11.1 112.9l-.3.8c0 .1.1.2.2.1l.7-.5.7.5c.1.1.2 0 .2-.1l-.3-.8.7-.5c.1-.1 0-.2-.1-.2h-.8l-.3-.8c0-.1-.2-.1-.2 0l-.3.8h-.8c-.1 0-.2.1-.1.2l.7.5zM13 116.4h-.8l-.3-.8c0-.1-.2-.1-.2 0l-.3.8h-.8c-.1 0-.2.1-.1.2l.7.5-.2.6-.1.2c0 .1.1.2.2.1l.5-.4.2-.1.2.1.5.4c.1.1.2 0 .2-.1l-.1-.2-.2-.6.7-.5c0-.1 0-.2-.1-.2zM13 120.7c.1-.1 0-.2-.1-.2h-.8l-.3-.8c0-.1-.2-.1-.2 0l-.3.8h-.8c-.1 0-.2.1-.1.2l.6.4.1.1-.3.8c0 .1.1.2.2.1l.7-.5.7.5c.1.1.2 0 .2-.1l-.3-.8.1-.1.6-.4zM13 124.6h-.8l-.3-.8c0-.1-.2-.1-.2 0l-.3.8h-.8c-.1 0-.2.1-.1.2l.7.5-.3.8c0 .1.1.2.2.1l.7-.5.7.5c.1.1.2 0 .2-.1l-.3-.8.7-.5s0-.1-.1-.2zM16.2 110.2h-.8l-.3-.8c0-.1-.2-.1-.2 0l-.3.8h-.8c-.1 0-.2.1-.1.2l.4.3.3.2-.3.8c0 .1.1.2.2.1l.7-.5.7.5c.1.1.2 0 .2-.1l-.3-.8.3-.2.4-.3c0-.1 0-.2-.1-.2zM16.2 114.3h-.8l-.1-.2-.2-.6c0-.1-.2-.1-.2 0l-.2.6-.1.2h-.8c-.1 0-.2.1-.1.2l.7.5-.3.8c0 .1.1.2.2.1l.7-.5.7.5c.1.1.2 0 .2-.1l-.3-.8.7-.5s0-.2-.1-.2zM16.2 118.5h-.8l-.3-.8H15l-.3.8h-.8c-.1 0-.2.1-.1.2l.7.5-.3.8c0 .1.1.2.2.1l.7-.5.7.5c.1.1.2 0 .2-.1l-.3-.8.7-.5c-.1-.1-.1-.2-.2-.2zM14.4 123.3l-.3.8c0 .1.1.2.2.1l.7-.5.7.5c.1.1.2 0 .2-.1l-.3-.8.7-.5c.1-.1 0-.2-.1-.2h-.8l-.3-.8c0-.1-.2-.1-.2 0l-.3.8h-.8c-.1 0-.2.1-.1.2l.7.5zM16.2 126.8h-.8l-.3-.8c0-.1-.2-.1-.2 0l-.3.8h-.8c-.1 0-.2.1-.1.2l.7.5-.2.6-.1.2c0 .1.1.2.2.1l.4-.3.3-.2.3.2.4.3c.1.1.2 0 .2-.1l-.1-.2-.2-.6.7-.5c0-.1 0-.2-.1-.2z"/><g><path class="st3" d="M59.4 83.3c0-.6-.2-1.2-.5-1.7-.3-.4-.6-.8-1.1-1l-16.9-9.7c-1-.6-2.2-.6-3.1 0l-16.9 9.8c-.4.3-.8.6-1.1 1-.3.5-.5 1.1-.5 1.7v19.5c0 .6.2 1.2.5 1.7.3.4.6.8 1.1 1l16.9 9.7c1 .6 2.2.6 3.1 0l16.9-9.7c.4-.3.8-.6 1.1-1 .3-.5.5-1.1.5-1.7V83.3z"/><path class="st4" d="M20.9 105.5l16.9 9.7c1 .6 2.2.6 3.1 0l16.9-9.7c.4-.3.8-.6 1.1-1h-39c.2.4.6.7 1 1zM57.8 80.6l-16.9-9.7c-1-.6-2.2-.6-3.1 0l-16.9 9.8c-.4.3-.8.6-1.1 1h39c-.2-.5-.5-.8-1-1.1zM37.5 93.1l.8-3.5c.1-.3-.2-.6-.5-.6h-.6c-.3 0-.6.3-.5.6l.8 3.5z"/><path class="st0" d="M36.6 91.2h1.9v7.9h-1.9z"/><path class="st5" d="M36.1 90.3h2.8v.9h-2.8z"/><path class="st4" d="M34.3 93.1h4.6v.9h-4.6zM38.9 96.8l-2.8-.9v-1l2.8 1zM23.6 93.1l.8-3.5c.1-.3-.2-.6-.5-.6h-.6c-.3 0-.6.3-.5.6l.8 3.5z"/><path class="st0" d="M26.8 90.3c-.5 0-.9.4-.9.9v6c0 1.1 1.1 3.3 4.6 3.3 3.6 0 4.6-2.1 4.6-3.3v-6c0-.5-.4-.9-.9-.9h-7.4z"/><path class="st4" d="M30.6 94.9H26v-3.8c0-.5.4-.9.9-.9h3.8v4.7zM30.6 94.9h4.6v2.4c0 1.2-1 2.2-2.2 2.2h-.2c-1.2 0-2.2-1-2.2-2.2v-2.4z"/><path class="st5" d="M25.9 94.9h4.6v2.4c0 1.2-1 2.2-2.2 2.2h-.2c-1.2 0-2.2-1-2.2-2.2v-2.4z"/><path class="st4" d="M29.6 99.1v-4.2h-.9v4.6c.3 0 .7-.2.9-.4zM27.8 99.5v-4.6h-.9v4.2c.2.2.5.4.9.4z"/><path class="st6" d="M26.8 93.1h2.8v.9h-2.8z"/><path class="st5" d="M26.8 91.2h2.8v.9h-2.8z"/><path class="st5" d="M27.3 91.8h1.9v1.7h-1.9z"/><path class="st0" d="M22.7 91.2h1.9v7.9h-1.9z"/><path class="st5" d="M22.2 98.6H25v.9h-2.8zM22.2 90.3H25v.9h-2.8z"/><path class="st7" d="M21.7 99.6h3.7v.9h-3.7z"/><path class="st5" d="M36.6 98.6h2.8v.9h-2.8z"/><path class="st7" d="M35.7 99.6h3.7v.9h-3.7z"/><path class="st5" d="M27.8 89.4h5.6v.9h-5.6z"/><path class="st6" d="M30.1 86.6h.9v2.8h-.9z"/><g><path class="st0" d="M29.6 88c-.8 0-1.4-.6-1.4-1.4 0-.8.6-1.4 1.4-1.4.8 0 1.4.6 1.4 1.4 0 .7-.6 1.4-1.4 1.4zm0-1.9c-.3 0-.5.2-.5.5s.2.5.5.5.5-.2.5-.5-.2-.5-.5-.5z"/><path class="st0" d="M31.5 88c-.8 0-1.4-.6-1.4-1.4 0-.8.6-1.4 1.4-1.4.8 0 1.4.6 1.4 1.4 0 .7-.6 1.4-1.4 1.4zm0-1.9c-.3 0-.5.2-.5.5s.2.5.5.5.5-.2.5-.5c-.1-.3-.3-.5-.5-.5z"/><path class="st0" d="M33.3 88.9c-.8 0-1.4-.6-1.4-1.4 0-.8.6-1.4 1.4-1.4.8 0 1.4.6 1.4 1.4 0 .8-.6 1.4-1.4 1.4zm0-1.9c-.3 0-.5.2-.5.5s.2.5.5.5.5-.2.5-.5-.2-.5-.5-.5zM27.8 88.9c-.8 0-1.4-.6-1.4-1.4 0-.8.6-1.4 1.4-1.4.8 0 1.4.6 1.4 1.4 0 .8-.7 1.4-1.4 1.4zm0-1.9c-.3 0-.5.2-.5.5s.2.5.5.5.5-.2.5-.5c-.1-.3-.3-.5-.5-.5z"/></g><path class="st5" d="M33.3 96.8v.5c0 .3-.2.5-.5.5s-.5-.2-.5-.5v-.5h1m1-.9h-2.8v1.4c0 .8.6 1.4 1.4 1.4.8 0 1.4-.6 1.4-1.4v-1.4z"/><path d="M32.9 94c-.6 0-1-.4-1-.9v-1c0-.5.4-.9.9-.9h.1c.5 0 .9.4.9.9v1c0 .5-.4.9-.9.9z" fill="#f1aec7"/><path class="st7" d="M30.6 93.5c.8 0 1.4.6 1.4 1.4 0 .8-.6 1.4-1.4 1.4-.8 0-1.4-.6-1.4-1.4 0-.7.6-1.4 1.4-1.4z"/><path class="st5" d="M30.1 84.7h.9v2.8h-.9z"/><path class="st4" d="M27.8 89.4l-.9-.9.5-.5c.8-.8 2-1.3 3.2-1.3 1.2 0 2.3.5 3.2 1.3l.5.5-.9.9h-5.6z"/><g><path class="st3" d="M30.6 88c.3 0 .5.2.5.5s-.2.5-.5.5-.5-.2-.5-.5.2-.5.5-.5zM28.7 88c.3 0 .5.2.5.5s-.2.5-.5.5-.5-.2-.5-.5.2-.5.5-.5zM32.4 88c.3 0 .5.2.5.5s-.2.5-.5.5-.5-.2-.5-.5.3-.5.5-.5z"/></g><g><path class="st4" d="M22.2 93.1h4.6v.9h-4.6zM22.2 96.8l2.8-.9v-1l-2.8 1z"/></g></g><g><path class="st1" d="M122.4 47.3c0-1.1-.6-2.1-1.6-2.7l-16.9-9.7c-1-.6-2.2-.6-3.1 0l-4 2.3-12.9 7.4c-1 .6-1.6 1.6-1.6 2.7v19.5c0 1.1.6 2.1 1.6 2.7l12.9 7.4 4 2.3c1 .6 2.2.6 3.1 0l16.9-9.7c1-.6 1.6-1.6 1.6-2.7V47.3z"/><path class="st9" d="M82.4 47.3v19.5c0 1.1.6 2.1 1.6 2.7l12.9 7.4V37.2L84 44.6c-1 .6-1.6 1.6-1.6 2.7z"/><path class="st10" d="M96.9 49.1c4.4 0 7.9 3.6 7.9 7.9s-3.6 7.9-7.9 7.9c-4.4 0-7.9-3.6-7.9-7.9s3.5-7.9 7.9-7.9z"/><path class="st1" d="M99.5 54.4v3.5c0 1.5-1.2 2.6-2.6 2.6-1.5 0-2.6-1.2-2.6-2.6v-3.5h5.2m.9-1.8h-7.1c-.5 0-.9.4-.9.9v4.4c0 2.4 2 4.4 4.4 4.4 2.4 0 4.4-2 4.4-4.4v-4.4c.1-.5-.3-.9-.8-.9z"/><path class="st0" d="M99.5 54.4v3.5c0 1.5-1.2 2.6-2.6 2.6-1.5 0-2.6-1.2-2.6-2.6v-3.5h5.2"/><path class="st10" d="M93.3 53.1c.2 0 .4.2.4.4s-.2.4-.4.4-.4-.2-.4-.4.2-.4.4-.4zM100.4 53.1c.2 0 .4.2.4.4s-.2.4-.4.4-.4-.2-.4-.4c-.1-.2.1-.4.4-.4z"/><circle class="st10" cx="93.3" cy="57" r=".4"/><circle class="st10" cx="100.4" cy="57" r=".4"/><path class="st10" d="M96.9 53.1c.2 0 .4.2.4.4s-.2.4-.4.4-.4-.2-.4-.4c-.1-.2.1-.4.4-.4zM99.5 59.9c.2 0 .4.2.4.4s-.2.4-.4.4-.4-.2-.4-.4.2-.4.4-.4zM94.3 59.9c.2 0 .4.2.4.4s-.2.4-.4.4-.4-.2-.4-.4c-.1-.2.1-.4.4-.4z"/><g><path class="st2" d="M97.4 56.8v.8c0 .3-.3.6-.6.6s-.6-.3-.6-.6v-.8h1.2M97.4 55v.8c0 .3-.3.6-.6.6s-.6-.3-.6-.6V55h1.2M97.4 58.6v.8c0 .3-.3.6-.6.6s-.6-.3-.6-.6v-.8h1.2M99 56.8v.8c0 .3-.3.6-.6.6s-.6-.3-.6-.6v-.8H99M95.9 56.8v.8c0 .3-.3.6-.6.6s-.6-.3-.6-.6v-.8h1.2"/></g></g><g><path class="st0" d="M80.4 57v-9.8c0-1.1-.6-2.1-1.6-2.7l-16.9-9.7c-1-.6-2.2-.6-3.1 0l-16.9 9.7c-1 .6-1.6 1.6-1.6 2.7v19.5c0 1.1.6 2.1 1.6 2.7l16.9 9.7c1 .6 2.2.6 3.1 0l16.9-9.7c1-.6 1.6-1.6 1.6-2.7V57z"/><path class="st1" d="M41.9 69.5l16.9 9.7c1 .6 2.2.6 3.1 0l16.9-9.7c1-.6 1.6-1.6 1.6-2.7v-9.7h-40v9.8c0 1 .6 2 1.5 2.6z"/></g><g><path class="st0" d="M164.4 64.6V47.2c0-1.1-.6-2.1-1.6-2.7l-16.9-9.7c-1-.6-2.1-.6-3.1 0l-16.9 9.8c-1 .6-1.6 1.6-1.6 2.7V66.9c0 1.1.6 2.1 1.6 2.7l16.9 9.7c1 .6 2.1.6 3.1 0l16.9-9.7c1-.6 1.6-1.6 1.6-2.7v-2.3z"/><path class="st2" d="M124.4 66.8c0 1.1.6 2.1 1.6 2.7l16.9 9.7c1 .6 2.1.6 3.1 0l16.9-9.7c1-.6 1.6-1.6 1.6-2.7v-2.2h-40v2.2z"/><path class="st1" d="M164.4 47.3c0-1.1-.6-2.1-1.6-2.7l-16.9-9.7c-1-.6-2.1-.6-3.1 0l-16.9 9.8c-1 .6-1.6 1.6-1.6 2.7v2.2h40v-2.3z"/></g><g><path class="st9" d="M62.9 80.6c-1 .6-1.6 1.6-1.6 2.7v19.5c0 1.1.6 2.1 1.6 2.7l9.9 5.7V74.9l-9.9 5.7z"/><path class="st0" d="M79.8 70.9l-7 4v36.3l7 4c1 .6 2.2.6 3.1 0l7-4V74.9l-7-4c-.9-.6-2.1-.6-3.1 0z"/><path class="st1" d="M99.8 105.5c1-.6 1.6-1.6 1.6-2.7V83.3c0-1.1-.6-2.1-1.6-2.7l-9.9-5.7v36.3l9.9-5.7z"/><path class="st3" d="M82.9 93.8l-1.5.8v.8h.7z"/><path class="st11" d="M81.4 97.3c-.2 0-.4-.2-.4-.4v-1.5c0-.2.2-.4.4-.4s.4.2.4.4v1.5c0 .2-.2.4-.4.4z"/><path class="st11" d="M81.4 95.7c-1.5 0-2.9-.6-4.1-1.6-.2-.1-.2-.4 0-.5.1-.2.4-.2.5 0 1 .9 2.2 1.4 3.5 1.4 1.3 0 2.6-.5 3.5-1.4.2-.1.4-.1.5 0 .1.2.1.4 0 .5-1 1.1-2.4 1.6-3.9 1.6z"/><path d="M81.4 97.3c-1 0-1.9-.3-2.7-.8l.4-.6c1.4.9 3.3.9 4.6 0l.4.6c-.8.5-1.7.8-2.7.8z" fill="#00abea"/><path class="st13" d="M80.8 92.1l-.9 1.3-.1.5 2.2-.6z"/><path class="st14" d="M79.1 94.3c-1 0-2.2-.8-2.5-2.7l.8-.1c.3 1.6 1.2 2.1 1.8 2.1.2 0 .4-.1.4-.2 0-.2 0-.2-.4-.3-.2-.1-.5-.2-.6-.4-.7-.8.2-1.6.7-2 .1-.1.1-.1.1-.2s-.2-.2-.3-.2c-.5 0-.9-.3-1-.7-.1-.5.1-.9.5-1.1l.4.7c-.1 0-.1.2-.1.3 0 0 0 .1.2.1.5 0 .9.3 1.1.7.1.2.2.6-.3 1s-.8.8-.6 1c0 0 .2.1.3.1.3.1 1 .3.9 1.1-.3.4-.8.8-1.4.8z"/><path d="M82.1 90s.8-1.5-.8-2.3c0 0 5.3-.8 4.6 6.1-.5-.4-1.2-1.1-1.5-1.7l-2.3-1.3V90z" fill="#925f69"/><path class="st13" d="M81.4 91.5l3.8 2.3-1.5.8-2.3-2.3v-.8z"/><path d="M79.9 89.3c.4 0 .8.3.8.8-.5.5-.6 1.1-.3 1.7l.2.3c.1.1.2.3.3.4l2.1 2.1v-1.1c0-1.3-.3-2.6-.9-3.8-.4-.8-1.2-1.3-2-1.3H80v.9h-.1z" fill="#855960"/><path class="st3" d="M79.9 88.5l-.8.8v.7s.9-.5 1.2-.6c.2-.1.2-.3.1-.5-.1 0-.5-.4-.5-.4z"/><path class="st14" d="M81.4 98.8c-3.6 0-6.5-2.9-6.5-6.5h.8c0 3.1 2.6 5.7 5.7 5.7 3.2 0 5.7-2.6 5.7-5.7h.8c0 3.6-2.9 6.5-6.5 6.5z"/><circle class="st10" cx="75.7" cy="94.6" r=".5"/><path class="st10" d="M76.9 95.9c.3 0 .5.2.5.5s-.2.5-.5.5-.5-.2-.5-.5c-.1-.3.2-.5.5-.5zM78.7 97.3c.3 0 .5.2.5.5s-.2.5-.5.5-.5-.2-.5-.5.2-.5.5-.5zM87.1 94.1c.3 0 .5.2.5.5s-.2.5-.5.5-.5-.2-.5-.5.2-.5.5-.5zM86 95.9c.3 0 .5.2.5.5s-.2.5-.5.5-.5-.2-.5-.5c-.1-.3.2-.5.5-.5zM84.1 97.3c.3 0 .5.2.5.5s-.2.5-.5.5-.5-.2-.5-.5.2-.5.5-.5z"/><path d="M81.8 97.6H81c-.4 0-.8-.3-.8-.8 0-.4.3-.8.8-.8h.8c.4 0 .8.3.8.8-.1.5-.4.8-.8.8z" fill="#f5bc8f"/><path d="M84.4 92.1c.3.7.8 1.4 1.5 1.7.8-6.9-4.6-6.1-4.6-6.1 3.9 0 3.1 4.4 3.1 4.4z" fill="#a26972"/></g><g><path class="st10" d="M143.4 28.6V11.3c0-1.1-.6-2.1-1.6-2.7l-16.9-9.7c-1-.6-2.2-.6-3.1 0l-16.9 9.8c-1 .6-1.6 1.6-1.6 2.7v19.5c0 1.1.6 2.1 1.6 2.7l16.9 9.7c1 .6 2.2.6 3.1 0l16.9-9.7c1-.6 1.6-1.6 1.6-2.7v-2.3z"/><path class="st1" d="M143.4 13.5l-20.1-3-19.9 3v15.1h40z"/><path d="M143.4 11.3c0-1.1-.6-2.1-1.6-2.7l-16.9-9.7c-1-.6-2.2-.6-3.1 0l-16.9 9.8c-1 .6-1.6 1.6-1.6 2.7v2.2h40v-2.3z" fill="#576270"/></g><g><path class="st0" d="M122.4 119.3c0-1.1-.6-2.1-1.6-2.7l-11.7-6.8-5.1-3c-1-.6-2.2-.6-3.1 0l-5.1 3-11.7 6.8c-1 .6-1.6 1.6-1.6 2.7v19.5c0 1.1.6 2.1 1.6 2.7l11.7 6.8 5.1 3c1 .6 2.2.6 3.1 0l5.1-3 11.7-6.8c1-.6 1.6-1.6 1.6-2.7v-19.5z"/><path class="st2" d="M83.9 116.6c-1 .6-1.6 1.6-1.6 2.7v19.5c0 1.1.6 2.1 1.6 2.7l11.7 6.8v-38.5l-11.7 6.8z"/><path class="st1" d="M120.8 141.5c1-.6 1.6-1.6 1.6-2.7v-19.5c0-1.1-.6-2.1-1.6-2.7l-11.7-6.8v38.5l11.7-6.8z"/></g><g><path class="st9" d="M103.4 102.8V83.3c0-1.1.6-2.1 1.6-2.7l16.9-9.8c1-.6 2.2-.6 3.1 0l16.9 9.7c1 .6 1.6 1.6 1.6 2.7v19.5c0 1.1-.6 2.1-1.6 2.7l-16.9 9.7c-1 .6-2.2.6-3.1 0l-16.9-9.7c-1-.5-1.6-1.5-1.6-2.6z"/><path class="st10" d="M123 81.9l-17.1 10.4c-.5.3-.5 1.1 0 1.4l17.1 10.4c.3.2.6.2.8 0l17.1-10.4c.5-.3.5-1.1 0-1.4l-17.1-10.4c-.3-.1-.6-.1-.8 0z"/><path class="st2" d="M123.4 86.6c3.6 0 6.5 2.9 6.5 6.5s-2.9 6.5-6.5 6.5-6.5-2.9-6.5-6.5 2.9-6.5 6.5-6.5z"/><path class="st0" d="M117.8 89.7c-.3.5-.5 1.1-.7 1.7 3.6-.3 8.9.7 12.3 4 .2-.6.4-1.2.4-1.8-3.5-2.9-8.3-4-12-3.9zM123.7 95.3l.2.5h.5c.1 0 .1.1 0 .1l-.4.3.2.5c0 .1-.1.1-.1.1l-.4-.3-.4.3c-.1 0-.1 0-.1-.1l.2-.5-.4-.3c-.1 0 0-.1 0-.1h.5l.2-.5c-.2-.1-.1-.1 0 0zM125.8 96.6l.1.2h.2v.1l-.2.1.1.2s0 .1 0 0l-.2-.1-.2.1s-.1 0 0 0l.1-.2-.2-.1v-.1h.2l.1-.2c-.1 0 0 0 0 0zM122.7 94.3l.1.2h.2v.1l-.2.1.1.2s0 .1 0 0l-.2-.1-.2.1s-.1 0 0 0l.1-.2-.2-.1v-.1h.2l.1-.2c0-.1 0-.1 0 0zM118.6 94l.1.2h.2v.1l-.2.1.1.2s0 .1 0 0l-.2-.1-.2.1s-.1 0 0 0l.1-.2-.2-.1v-.1h.2l.1-.2zM122.1 96.5l.1.2h.2v.1l-.2.1.1.2s0 .1 0 0l-.2-.1-.2.1s-.1 0 0 0l.1-.2-.2-.1v-.1h.2l.1-.2c-.1 0 0 0 0 0zM120.2 93.8l.1.2h.2l-.2.1.1.2-.2-.1-.2.1.1-.2-.2-.1h.2l.1-.2c-.1 0 0 0 0 0zM125.9 90.1l.1.2h.2v.1l-.2.1.1.2s0 .1 0 0l-.2-.1-.2.1h-.1l.1-.2-.2-.1v-.1h.2l.2-.2zM118.9 92.7l.1.2h.2l-.2.1.1.2-.2-.1-.2.1.1-.2-.2-.1h.2l.1-.2c-.1 0 0 0 0 0zM119.8 95.3l.1.3h.3s.1 0 0 .1l-.2.2.1.3s0 .1-.1 0l-.2-.2-.2.2h-.1l.1-.3-.2-.2v-.1h.3l.1-.3c-.1 0 0 0 0 0zM127 96.7l.1.2h.2l-.1.1.1.2-.1-.1-.2.1.1-.2-.1-.1h.2l-.2-.2c-.1-.1 0-.1 0 0zM127.6 95.3l.1.2h.2v.1l-.2.1.1.2s0 .1 0 0l-.2-.1-.2.1s-.1 0 0 0l.1-.2-.2-.1v-.1h.2l.1-.2c-.1 0 0 0 0 0z"/></g><g><path class="st20" d="M185.4 28.7V11.4c0-1.1-.6-2.1-1.6-2.7L166.9-1c-1-.6-2.2-.6-3.1 0l-16.9 9.7c-1 .6-1.6 1.6-1.6 2.7V30.8c0 1.1.6 2.1 1.6 2.7l16.9 9.7c1 .6 2.2.6 3.1 0l16.9-9.7c1-.6 1.6-1.6 1.6-2.7v-2.1z"/><path class="st21" d="M185.4 28.7l-19.8-1.3-20.2 1.3v2.1c0 1.1.6 2.1 1.6 2.7l16.9 9.7c1 .6 2.2.6 3.1 0l16.9-9.7c1-.6 1.6-1.6 1.6-2.7l-.1-2.1z"/><path class="st22" d="M185.4 13.4h-40v15.3h40z"/><path class="st23" d="M158 23.1l.2.6h.7c.1 0 .1.1.1.2l-.5.4.2.6c0 .1-.1.1-.1.1l-.5-.4-.5.4c-.1 0-.2 0-.1-.1l.2-.6-.5-.4c-.1-.1 0-.2.1-.2h.7l.2-.6c-.4-.1-.2-.1-.2 0zM159.3 21.1l-.1.7.6.3c.1 0 .1.2 0 .2l-.7.1-.1.7c0 .1-.1.1-.2 0l-.3-.6-.7.1c-.1 0-.1-.1-.1-.2l.5-.5-.3-.6c0-.1 0-.2.1-.1l.6.3.5-.5c.1-.1.2 0 .2.1zM160.9 19.3l-.3.6.5.5c.1.1 0 .2-.1.1l-.7-.1-.3.6c0 .1-.2.1-.2 0l-.1-.7-.7-.1c-.1 0-.1-.1 0-.2l.6-.3-.1-.7c0-.1.1-.1.2-.1l.5.5.6-.3c.1.1.2.1.1.2zM162.9 18.2l-.5.5.3.6c0 .1 0 .2-.1.1l-.6-.3-.5.5c-.1.1-.2 0-.2-.1l.1-.7-.6-.3c-.1 0-.1-.2 0-.2l.7-.1.1-.7c0-.1.1-.1.2 0l.3.6.7-.1c.1.1.1.2.1.2zM165.1 17.7l-.6.3.1.6c0 .1-.1.1-.1.1l-.5-.4-.6.3c-.1 0-.2 0-.1-.1l.3-.6-.5-.4c-.1-.1 0-.2.1-.2l.7.1.3-.6c0-.1.1-.1.2 0l.1.6.7.1c0 .1 0 .2-.1.2zM172.8 23.1l-.2.6h-.7c-.1 0-.1.1-.1.2l.5.4-.2.6c0 .1.1.1.1.1l.5-.4.5.4c.1 0 .2 0 .1-.1l-.2-.6.5-.4c.1-.1 0-.2-.1-.2h-.7l-.2-.6c.3-.1.2-.1.2 0zM171.5 21.1l.1.7-.6.2c-.1 0-.1.2 0 .2l.7.1.1.7c0 .1.1.1.2 0l.3-.6.7.1c.1 0 .1-.1.1-.2l-.5-.5.3-.6c0-.1 0-.2-.1-.1l-.6.3-.5-.5c-.1 0-.2.1-.2.2zM169.9 19.3l.3.6-.5.5c-.1.1 0 .2.1.1l.7-.1.3.6c0 .1.2.1.2 0l.1-.7.7-.1c.1 0 .1-.1 0-.2l-.6-.3.1-.7c0-.1-.1-.1-.2-.1l-.5.5-.6-.3c-.1.1-.2.1-.1.2zM167.9 18.2l.5.5-.3.6c0 .1 0 .2.1.1l.6-.3.5.5c.1.1.2 0 .2-.1l-.1-.7.6-.3c.1 0 .1-.2 0-.2l-.7-.1-.1-.7c0-.1-.1-.1-.2 0l-.3.6-.7-.1c-.1.1-.2.2-.1.2zM165.6 17.7l.6.3-.1.6c0 .1.1.1.1.1l.5-.4.6.3c.1 0 .2 0 .1-.1l-.3-.6.5-.4c.1-.1 0-.2-.1-.2l-.7.1-.3-.6c0-.1-.1-.1-.2 0l-.1.6-.7.1c.1.1.1.2.1.2z"/></g><g><path class="st23" d="M38.3 61.1V47.7c0-1-.5-2-1.3-2.6-.1 0-.1-.1-.2-.1l-2.1-1.2-2-1.1-1.6-.9-8.4-4.8-1.8-1-1.1-.6c-1-.6-2.2-.6-3.1 0l-1.1.6-1.8 1-8.4 4.8-2.6 1.5-2 1.1-1 .6c-.1 0-.1.1-.2.1-.8.6-1.3 1.5-1.3 2.6v19.5c0 1 .5 2 1.3 2.6.1 0 .1.1.2.1l2.1 1.2 2 1.1 1.6.9 8.4 4.8 1.8 1 1.1.6c1 .6 2.2.6 3.1 0l1.1-.6 1.8-1 8.4-4.8 2.4-1.4 2-1.1 1.3-.7c.1 0 .1-.1.2-.1.8-.6 1.3-1.5 1.3-2.6v-3.7l-.1-2.4z"/><path class="st22" d="M22.7 78l8.4-4.8-8.4-7.5zM31.1 41.8l-8.4-4.9v12.4zM5.5 73.2l8.4 4.8V65.7zM36.9 69.8c.8-.6 1.3-1.5 1.3-2.6v-3.7h-8.4l7.1 6.3zM-1.7 63.5v3.8c0 1 .5 2 1.3 2.6l7.1-6.3-8.4-.1zM-.4 45.2c-.8.6-1.3 1.5-1.3 2.6v3.7h8.4l-7.1-6.3zM38.3 51.5v-3.8c0-1-.5-2-1.3-2.6l-7.1 6.3h8.4zM13.9 36.9l-8.4 4.9 8.4 7.5z"/><g><path class="st21" d="M20.9 35.9l-1.1-.6c-1-.6-2.2-.6-3.1 0l-1.1.6v18H-1.7v7.2h17.3v18l1.1.6c1 .6 2.2.6 3.1 0l1.1-.6v-18h17.3v-7.2H20.9v-18z"/><path class="st21" d="M10.6 63.5l-8.7 7.6 2 1.2 9.9-8.8zM24.1 63.5l9.4 8.3 2-1.1-8.2-7.2zM12.1 51.5l-9.3-8.2-1.9 1.1 8 7.1zM22.7 51.5h3.2l8.7-7.7-1.9-1.1z"/></g></g><g><path class="st20" d="M145.3 102.8V83.3c0-1.1.6-2.1 1.6-2.7l16.9-9.7c1-.6 2.2-.6 3.1 0l16.9 9.7c1 .6 1.6 1.6 1.6 2.7v19.5c0 1.1-.6 2.1-1.6 2.7l-16.9 9.7c-1 .6-2.2.6-3.1 0l-16.9-9.7c-1-.5-1.6-1.6-1.6-2.7z"/><path class="st24" d="M185.3 90.4v-7.1c0-1.1-.6-2.1-1.6-2.7l-16.9-9.7c-1-.6-2.2-.6-3.1 0l-1.9 1.1v18.5l23.5-.1zM157.7 74.4l-10.8 6.2c-1 .6-1.6 1.6-1.6 2.7v7.1h12.4v-16zM145.3 95.7v7.1c0 1.1.6 2.1 1.6 2.7l10.8 6.2v-16h-12.4zM185.3 95.7h-23.4v18.5l1.9 1.1c1 .6 2.2.6 3.1 0l16.9-9.7c1-.6 1.6-1.6 1.6-2.7l-.1-7.2z"/></g><g><path class="st25" d="M222.5 120.1c-2.1 2.8-5.1 1.9-7.9 2 2.1 1.5 3.8 3.3 5.1 5.5 1.7 3 .7 6.5-2.4 8.1-.9.5-1.7 1-2.6 1.6-.8.6-1.6 1.3-1.4 2.5.2 1.3 1.2 1.7 2.3 2 3.3 1 6 .1 7.9-2.8 1.1-1.5 2.1-3.1 3-4.7 2.5-4.4 2.2-7.4-1.2-11.2-.7-1-1.8-2-2.8-3z"/><path class="st25" d="M213 121.4c-.2-.1.2.1 0 0-2.4 0-4-2.1-6.4-.9-.5.2-1.1 1-1.7.9 1.7 2.3 3.2 3.8 4.9 6.1 1.5 2 1.2 3.5-.3 5.1-1.3 1.4-2.8 2.4-4.5 3.2-1.3.7-2.3 1.6-1.9 3.2.4 1.7 1.7 1.9 3.1 2 1.8.2 3.3-.3 4.7-1.5 2.5-2.3 4.8-4.8 6.7-7.6 1.4-2.1 1-3.8-.5-5.7-1.1-1.4-3-2.5-4.1-4.8z"/><path d="M204.9 121.4c2 .9 6.8.7 8.1 0-2.7-2.9-6-4.6-9.9-5.3-.9-.2-1.8-.1-2.6.6 2.2 1.5 2.9 3.4 4.4 4.7z" fill-rule="evenodd" clip-rule="evenodd" fill="#ba6546"/><path class="st25" d="M183.9 116.6c-4-.7-8-1.4-11.7-3 1.6 6 4.1 11.8 3.7 18.4-.1 1.6-.5 3.2-1.1 4.7-.8 2 .7 4.9 4.1 3.4 1.4-.6 2.8-2.3 3.4-5.1.3-1.3.3-4.4.1-6.5 1.3 1.5 2.6 5.1 2.7 8.9 0 1.8 0 3.8 2.3 3.9 2.8 0 3.9-2.1 3.9-5 0-5.4-1.2-9.5-3.9-14.2-1.2-2-2.4-3.7-3.5-5.5z"/><path class="st27" d="M183.9 116.6c5.5-.1 11.1-.7 16.6.1 7.2.4 12.5 5.2 14.2 5.4 2 .3 5.8.8 7.9-2-.6-2.1-2.1-9.6.2-8 .6.4.8.7 1 1.2 2 4.3 3.6 8.8 6 12.8 6.4 10.2 15.4 16.1 28 14.9 2.3-.2 4.3-1.5 5.9-3-1-.5-.8-2.6-1.2-3.7-.3-.9-4.5-12.3-6.4-14.2-6.8-2.5-13-5.4-19.1-10.4-3-2.5-4.9-4.7-7.1-7.2-3.2-3.6-6.8-6.8-10.6-9.8-4.8-4-10.8-4.7-16.7-5.1-2.6-.2-5.2-.5-7.8-.9-1.9-.3-3.3-1.2-3.9-3.1-4.1 1.8-23.7 2-27 0 .1 4.9-.6 10.6.5 15.4 1.3 5.5 3.2 10.7 7.6 14.5 3.9 2.5 5.3 2.5 11.9 3.1z"/><path class="st28" d="M256.1 120.1c-.2 1.7-.2 3.3 1.3 4.3.9.6.4 1.2.1 1.9-1.4 3.3-.8 5.3 2.4 7.1.9.5 1.3 1 1.2 1.9-.2 1.6 1.2 2.6 2.5 2.6 3.5-1.9 6.9-9.5 6.1-13.4-.4-1.6-1.5-2.4-3-2.7-3.2-.5-6-.4-10.6-1.7zM192.9 75.7c2.1 1.1 3.9 3.5 5.5 5.4-.6 1-2.1 1.6-3.3 2-2.9 1-10.4 5.9-14.4 9.7-2.7 2.2-5.7 2.2-7.9-.6-5-6.2-14-12.3-16.5-13.2 1.8-2.2 3.7-5.1 6.4-5.5 4.6-.6 25.5-.3 30.2 2.2z"/><path class="st25" d="M186.3 82.4c1 0 1.7-.4 1.7-1.4.1-1-.4-1.8-1.5-1.9-1.1-.1-1.8.3-1.9 1.5 0 1 .7 1.6 1.7 1.8zM165.9 78.7c-.1 1.3.4 2.1 1.6 2.2 1 .1 1.6-.5 1.8-1.2.3-1.1-.3-2-1.6-2.1-.7 0-1.6.2-1.8 1.1z"/><path class="st27" d="M198.4 81.2c.4-.5.3-1.2 0-2.1-1.7-5.3-3-9.5-4.7-12.7-3.3-6-7.6-8.4-15.9-8.9-10.8-.6-15.7 5.9-16.6 7.2-3.3 4.6-4.2 9-5.8 13.3-.3.7.2 1.1.9 1.3 1.8-2.2 4.1-3.8 6.8-4.2 4.7-.8 9.6.7 11.2 7.1.6 2.4.6 5.4.4 7.8 1.5-.1 3.3-.5 4.5.7.2-3.7.5-6 1.5-8.9 1.7-5.2 7.6-7 12.2-4.8 2 .9 3.9 2.2 5.5 4.2z"/><path class="st28" d="M191.8 64.4c1-1.3 2.2-2.6 2.1-4.1-.1-1.2-.2-3.8-1.5-4.1-1.3-.3-3.9.5-4.7 1.9-.3.6-.7 1.3-1 1.9 1.8.5 4.7 3.1 5.1 4.4z"/><path class="st25" d="M174.8 89.5c-.7.8-.8 1.5-.1 2.3.9 1 2.1 1 3.1.7 1-.2 1.8-1.2 1.3-2.5-1.2-1.1-3.4-1-4.3-.5zM191.8 64.4c.1.8.9 1.5 1.6 1.5 1.9-2.4 2.6-7.7.8-10.2-.7-1-1.9-1.7-3-1.2-2.3 1.2-4.5 1.6-5.7 4.4.2.9 1.1 1.3 1.7 1.3.3-.6 2.8-3.8 4.8-3.5 1.3.2 1.2 2 1.3 3.2 0 1.5-.5 3.2-1.5 4.5z"/><path class="st28" d="M162.2 63.6c-.9-1.4-2-2.8-1.8-4.3.2-1.2.5-3.8 1.8-4 1.4-.2 3.8.8 4.5 2.2.3.6.7 1.4.9 2.1-1.7.4-4.8 2.7-5.4 4z"/><path class="st25" d="M162.2 63.6c-.1.8-.8 1.6-1.5 1.6-1.7-2.5-2.6-8-1-10.7.6-1.1 1-2 2.7-1.3 2.5.9 5.8 2.7 6.8 5.5-.3.9-1.2 1.2-1.8 1.1-.4-1.2-3-3.8-5-4.3-1-.3-1.3.2-1.5 2.7 0 1.5.4 4 1.3 5.4z"/></g><g><path class="st23" d="M99.8 8.5L88 1.7l-5-2.9c-1-.6-2.2-.6-3.1 0l-5.2 3-11.8 6.7c-1 .6-1.6 1.6-1.6 2.7v19.5c0 1.1.6 2.1 1.6 2.7l11.6 6.7 5.3 3c1 .6 2.2.6 3.1 0l5-2.9 11.9-6.9c.9-.5 1.4-1.4 1.5-2.3V10.9c0-1-.6-1.9-1.5-2.4z"/><path d="M62.9 8.5c-1 .6-1.6 1.6-1.6 2.7v19.5c0 1.1.6 2.1 1.6 2.7l11.6 6.7V1.8L62.9 8.5z" fill="#72ae43"/><path class="st21" d="M99.8 8.5L88 1.7v38.6l11.9-6.9c.9-.5 1.4-1.4 1.5-2.3V10.9c-.1-1-.7-1.9-1.6-2.4z"/></g><g><path class="st23" d="M187.4 31.8V12.3c0-1.1.6-2.1 1.6-2.7l16.9-9.7c1-.6 2.2-.6 3.1 0l16.9 9.7c1 .6 1.6 1.6 1.6 2.7v19.5c0 1.1-.6 2.1-1.6 2.7L209 44.2c-1 .6-2.2.6-3.1 0L189 34.5c-1-.6-1.6-1.6-1.6-2.7z"/><path class="st21" d="M227.4 19.4v-7.1c0-1.1-.6-2.1-1.6-2.7L208.9-.1c-1-.6-2.2-.6-3.1 0L203.9 1v18.4h23.5zM199.7 3.3l-10.8 6.2c-1 .6-1.6 1.6-1.6 2.7v7.1h12.4v-16zM227.4 24.6h-23.5V43l1.9 1.1c1 .6 2.2.6 3.1 0l16.9-9.7c1-.6 1.6-1.6 1.6-2.7v-7.1zM187.4 24.6v7.1c0 1.1.6 2.1 1.6 2.7l10.8 6.2v-16h-12.4z"/></g></svg>