<svg xmlns="http://www.w3.org/2000/svg" width="464" height="261" viewBox="0 0 464 261"><style>.a{fill:#C8D968;}.b{fill:#805648;}.c{fill:#8FB840;}.d{fill:#C4C7D8;}.e{fill:#345172;}.f{fill:#6ECCDE;}.g{fill:#0C8FAF;}.h{fill:#E6EBEC;}.i{fill:#F2692B;}.j{fill:#FFF8F0;}.k{fill:#462D3B;}.l{fill:#FFF;}</style><linearGradient gradientUnits="userSpaceOnUse" x1="396.5" y1="319.7" x2="67.5" y2="-58.7"><stop offset="0" stop-color="#9CCC66"/><stop offset="1" stop-color="#7DB342"/></linearGradient><rect width="464" height="261" fill="url(#SVGID_1_)"/><path d="M103.5 191c-1.7-20.2-18.6-36.1-39.2-36.1 -9.7 0-18.6 3.6-25.4 9.4 -2.9-2.5-6.6-4-10.7-4 -9 0-16.4 7.4-16.4 16.4 0 1 0.1 2 0.3 2.9 -2.9-1.2-6.1-1.9-9.4-1.9 -0.9 0-1.8 0.1-2.6 0.1V244.5l96-0.2c15 0 27.2-12.2 27.1-27.2C123.1 204.7 114.8 194.3 103.5 191z" class="a"/><path d="M290.5 235.3c0-9 7.3-16.4 16.4-16.4 0.4 0 0.8 0 1.3 0.1 -1.1-2.8-1.7-5.8-1.7-9 0-13.5 10.9-24.4 24.3-24.4 3.3 0 6.5 0.7 9.4 1.9 -0.2-1-0.3-1.9-0.3-2.9 0-9.1 7.3-16.4 16.4-16.4 4.1 0 7.8 1.5 10.7 4 6.9-5.9 15.7-9.4 25.4-9.4 20.6 0 37.6 15.8 39.2 36.1 11.3 3.3 19.6 13.7 19.7 26.1 0 15-12.1 27.2-27.1 27.2l-120.5 0.2c0 0-3.4 0-4.5 0 -3.2 0-5.9-2.6-5.9-5.8 0-1 0.3-1.9 0.7-2.7C291.9 241.1 290.5 238.3 290.5 235.3z" class="a"/><rect y="213.1" width="464" height="9" fill="#578C3E"/><rect y="222.1" width="464" height="20.3" fill="#8C8D35"/><path d="M178.7 196.2c0-9.1 7.3-16.4 16.4-16.4 0.4 0 0.8 0 1.3 0.1 -1.1-2.8-1.7-5.8-1.7-9 0-13.5 10.9-24.4 24.4-24.4 3.3 0 6.5 0.7 9.4 1.9 -0.2-1-0.3-1.9-0.3-2.9 0-9 7.3-16.4 16.4-16.4 4.1 0 7.8 1.5 10.7 4 6.9-5.8 15.7-9.4 25.5-9.4 20.6 0 37.5 15.9 39.2 36.1 11.3 3.3 19.6 13.7 19.6 26.1 0 15-12.2 27.2-27.2 27.2H191.8c0 0-3.4 0-4.5 0 -3.2 0-5.8-2.6-5.8-5.8 0-1 0.3-1.9 0.7-2.7C180.2 202.1 178.7 199.2 178.7 196.2z" class="a"/><rect x="217.2" y="202.2" width="3" height="14.9" class="b"/><path d="M218.7 158.4c-8.2 0-14.8 22.6-14.8 30.8s6.6 14.8 14.8 14.8c8.2 0 14.8-6.6 14.8-14.8S226.9 158.4 218.7 158.4z" class="c"/><rect y="240.7" width="464" height="20.3" fill="#A6ABBB"/><path d="M459.5 251.6h-10.8V250.1h10.8V251.6zM437.9 251.6h-10.8V250.1h10.8V251.6zM416.2 251.6h-10.8V250.1h10.8V251.6zM394.5 251.6h-10.8V250.1h10.8V251.6zM372.9 251.6h-10.8V250.1h10.8V251.6zM351.2 251.6h-10.8V250.1h10.8V251.6zM329.5 251.6h-10.8V250.1h10.8V251.6zM307.9 251.6H297V250.1h10.8V251.6zM286.2 251.6h-10.8V250.1h10.8V251.6zM264.5 251.6H253.7V250.1h10.8V251.6zM242.8 251.6h-10.8V250.1h10.8V251.6zM221.2 251.6H210.3V250.1h10.8V251.6zM199.5 251.6h-10.8V250.1h10.8V251.6z" class="d"/><path d="M177.8 251.6h-10.8V250.1h10.8V251.6zM156.2 251.6H145.3V250.1h10.8V251.6zM134.5 251.6H123.7V250.1h10.8V251.6zM112.8 251.6H102V250.1h10.8V251.6zM91.2 251.6H80.3V250.1h10.8V251.6zM69.5 251.6H58.7V250.1h10.8V251.6zM47.8 251.6H37V250.1h10.8V251.6zM26.1 251.6H15.3V250.1h10.8V251.6zM4.5 251.6H0V250.1h4.5V251.6z" class="d"/><rect x="248.6" y="27.3" width="146.8" height="194.7" fill="#11A8CE"/><rect x="322.9" y="163.4" width="18.3" height="58.6" class="e"/><rect x="302.9" y="163.4" width="18.3" height="58.6" class="e"/><rect x="322.7" y="53.3" width="18.4" height="40.5" class="f"/><rect x="322.7" y="108.4" width="18.4" height="40.5" class="f"/><rect x="302.9" y="53.3" width="18.3" height="40.5" class="f"/><rect x="302.9" y="108.4" width="18.3" height="40.5" class="f"/><rect x="353.1" y="59" width="22" height="33" class="f"/><rect x="351.6" y="85" width="25" height="8.8" class="g"/><polygon points="364.1 51.5 364.1 51.5 364.1 51.5 364.1 51.5 364.1 51.5 351.6 59 364.1 59 364.1 59 376.6 59 " class="g"/><rect x="351.6" y="83" width="25" height="2" class="c"/><polygon points="353.1 60.6 375.1 82.5 375.1 59 353.1 59 " class="h"/><rect x="269" y="59" width="22" height="33" class="f"/><rect x="267.4" y="85" width="25" height="8.8" class="g"/><polygon points="280 51.5 280 51.5 280 51.5 279.9 51.5 279.9 51.5 267.4 59 279.9 59 280 59 292.4 59 " class="g"/><rect x="267.4" y="83" width="25" height="2" class="c"/><polygon points="269 60.6 290.9 82.5 290.9 59 269 59 " class="h"/><rect x="353.1" y="116" width="22" height="33" class="f"/><rect x="351.6" y="140.2" width="25" height="8.8" class="g"/><polygon points="364.1 108.4 364.1 108.4 364.1 108.4 364.1 108.4 364.1 108.4 351.6 116 364.1 116 364.1 116 376.6 116 " class="g"/><rect x="351.6" y="140.2" width="25" height="2" class="c"/><polygon points="353.1 117.5 375.1 139.4 375.1 116 353.1 116 " class="h"/><rect x="269" y="116" width="22" height="33" class="f"/><rect x="267.4" y="140.2" width="25" height="8.8" class="g"/><polygon points="280 108.4 280 108.4 280 108.4 279.9 108.4 279.9 108.4 267.4 116 279.9 116 280 116 292.4 116 " class="g"/><rect x="267.4" y="140.2" width="25" height="2" class="c"/><polygon points="269 117.5 290.9 139.4 290.9 116 269 116 " class="h"/><rect x="353.1" y="171" width="22" height="33" class="f"/><rect x="351.6" y="195.4" width="25" height="8.8" class="g"/><polygon points="364.1 163.4 364.1 163.4 364.1 163.4 364.1 163.4 364.1 163.4 351.6 171 364.1 171 364.1 171 376.6 171 " class="g"/><rect x="351.6" y="195.4" width="25" height="2" class="c"/><polygon points="353.1 172.5 375.1 194.4 375.1 171 353.1 171 " class="h"/><rect x="269" y="171" width="22" height="33" class="f"/><rect x="267.4" y="195.4" width="25" height="8.8" class="g"/><polygon points="280 163.4 280 163.4 280 163.4 279.9 163.4 279.9 163.4 267.4 171 279.9 171 280 171 292.4 171 " class="g"/><rect x="267.4" y="195.4" width="25" height="2" class="c"/><polygon points="269 172.5 290.9 194.4 290.9 171 269 171 " class="h"/><rect x="248.6" y="9.6" width="146.8" height="6.7" class="e"/><polygon points="357.9 14 286.1 14 237.8 14 248.7 27.3 286.1 27.3 357.9 27.3 395.3 27.3 406.2 14 " class="e"/><polygon points="244.7 22.4 248.7 27.3 286.1 27.3 357.9 27.3 395.3 27.3 399.3 22.4 " class="g"/><polygon points="286.1 14 237.8 14 240.6 17.4 403.4 17.4 406.2 14 357.9 14 " class="g"/><rect x="92.7" y="213.3" width="1.2" height="2.8" class="b"/><polygon points="93.3 177 87.9 213.3 93.3 213.3 98.7 213.3 " class="c"/><circle cx="69.5" cy="178.9" r="20.3" class="c"/><rect x="67.1" y="199.2" width="4.4" height="17.1" class="b"/><path d="M441.3 216.3c-1.2-4.1-2.8-8.1-4.9-12.3 -0.3-0.6-0.4-1.4-0.5-2.2 -3.1 2.3-6.2 5-8.6 7.7 -2.6 3-5.9 2.9-8.9 0.3 -1.9-1.9-4.4-4-7-6 -0.5 0.8-1.1 1.6-1.4 2.5 -1.6 3.7-3.1 6.8-4.4 9.9 -2.6 6.2-4.2 12.5-3.7 24 0.1 2 1.1 6 2 7.7 0 0-0.5 0.5-2-0.2 -5.9-2.7-8.8-8.9-10-14.8 -1.3-6.3-1.6-10.8-3.2-16.7 -0.2-0.6-0.4-1.3-0.6-2 -1.4-4.5-3.3-7.6-4.6-9.9 -0.5 1-1.1 1.8-2.3 1.8 -1.1 0-1.4 0.7-1.8 1.5 -1.4 2.8-4.6 3.5-7 1.6 -0.7-0.6-1.2-1.3-2.3-0.6 -2.3 1.5-4.5 0.8-6.7-0.4 0 0-0.4 2.2-0.5 3.3 -0.1 1.6-0.1 3.1 0 4.6 0.5 8.1 3.4 15.4 8 22.4 7.6 11.5 18.2 16.3 31.6 16.1 1 0 2 0.1 2.9 0.1 3.3 0.2 6.7 0.4 10 0.6 -0.5-8-0.3-16-1.5-23.9 -0.3-2.3-0.7-4.4-0.2-6.6 0.6-2.6 3.4-3.8 5.3-1.9 1.3 1.3 1.9 3.3 2 5.1 0.5 9.1 0.6 18.3 0.6 27.4 1.3 0 2.5 0 3.8 0 0.1-9.6 0.3-19.2 0.2-28.8 -0.1-3.7 2.6-5.2 4.5-4.5 1.9 0.7 2.7 2.5 2.8 4.5 0.2 4.7 0.3 9.4-0.1 14.1 -0.3 4.8-0.5 9.5-1.3 14.6 7.5 0.1 12-5.2 12.3-12.2C444.5 233.5 443.8 224.9 441.3 216.3z" class="i"/><path d="M370.2 208.7c1.2-0.8 1.6 0 2.3 0.6 2.4 1.9 5.6 1.2 7-1.6 0.4-0.8 0.7-1.5 1.8-1.5 1.2 0 1.8-0.9 2.3-1.8 -2.6-5.2-6.2-7.9-11-9.9 -1.4-0.6-2.6-0.4-3.6 0.8 -2.9 3.8-4.8 8.2-5.5 13C365.7 209.5 368 210.2 370.2 208.7z" class="j"/><path d="M427.4 209.5c2.4-2.7 5.5-5.4 8.6-7.7 4.4-3.3 8.7-5.7 10.3-6.2 -1.9-2.5-4.4-4.3-7.3-4.9 -5.2-1-10.7 0.3-12.8 7.4 -0.8 2.6-0.8 6-0.7 8.7h0c0.5 0.7 0.5 1.5-0.3 2.2 -1.1 1.1-2.3 1-3.5 0.6 -1.1-0.3-1.9-1.5-1.3-2.8 0 0 0 0 0 0 -0.1-3.8-0.4-6.2-1.3-9.4 -1.6-5.8-8.2-8.1-13.4-5.9 -2.5 1.1-4.7 2.4-6.5 4.5 0.6 1.1 2.3 1.8 3.6 2.3 1.8 0.7 5.3 2.9 8.7 5.5 2.6 1.9 5.1 4.1 7 6C421.4 212.4 424.8 212.5 427.4 209.5zM433.6 193c0.8 0 2.1 0.3 2.3 1.5 0.1 1.7-0.6 2.7-2.2 2.8 -1.3 0.1-2.1-0.7-2.3-1.7C431 194.2 431.8 193.1 433.6 193zM409.3 195.8c0-1.4 0.6-2.5 2.2-2.5 1.2 0 2.5 0.5 2.5 2.1 0 1.5-1 2.2-2.3 2.4C410.3 197.8 409.3 196.9 409.3 195.8z" class="j"/><path d="M414 195.4c0-1.6-1.3-2.1-2.5-2.1 -1.6 0-2.2 1.1-2.2 2.5 0 1.1 1 1.9 2.3 2C413 197.6 414 196.9 414 195.4z" class="k"/><path d="M433.6 197.4c1.6-0.1 2.3-1.1 2.2-2.8 -0.2-1.2-1.5-1.6-2.3-1.5 -1.8 0-2.6 1.2-2.3 2.6C431.6 196.7 432.4 197.5 433.6 197.4z" class="k"/><path d="M405.7 191.5c5.2-2.3 11.8 0 13.4 5.9 0.9 3.1 1.2 5.6 1.3 9.4 1.4-1.3 3.8-1 4.7-0.4 0.1 0.1 0.2 0.3 0.3 0.4h0c-0.1-2.7 0-6 0.7-8.7 2.1-7.1 7.6-8.5 12.8-7.4 3 0.6 5.5 2.4 7.3 4.9 0.7-0.2 1.3-0.5 1-1.4 -1.6-4.7-2.4-9.5-5.6-14.5 -0.8 0-1.3-0.8-1.4-1.6 -0.5-1.4-3.6-3.9-5.6-4.5 0 0 0 0.1 0 0.1 -0.6 0-1.7-0.3-1.9-1.3 0-0.1 0.1-0.1 0.1-0.2 -2.5-1-5.7-1.7-9.5-1.6 -3.4 0.1-6.2 0.5-8.6 1.3 0 0 0 0 0 0 -0.3 1-1.3 1.4-1.9 1.3 0 0 0 0 0 0 -2 0.8-4.8 3.2-5.3 4.5 -0.1 0.9-1 1.6-1.8 1.6 -0.1 0.2-0.2 0.3-0.3 0.5 -2.1 3.5-3.7 8.1-5.8 13.9 -0.4 1-0.5 1.8-0.1 2.3C401 193.9 403.2 192.6 405.7 191.5z" class="i"/><path d="M407.4 169c-1.5 0.2-1.4 2.2-1.6 3.5 -0.2 1.7 0.3 3.6 1.3 5.1 0.5-1.3 3.3-3.8 5.4-4.5C412.3 172.3 409.6 168.7 407.4 169z" class="j"/><path d="M420.3 206.7c0 0 0 0 0 0 -0.6 1.3 0.3 2.5 1.3 2.8 1.1 0.3 2.4 0.4 3.5-0.6 0.7-0.8 0.7-1.5 0.3-2.2 -0.1-0.1-0.2-0.2-0.3-0.4C424.1 205.7 421.7 205.5 420.3 206.7z" class="k"/><path d="M407.2 177.6c-1-1.5-1.5-3.4-1.3-5.1 0.1-1.3 0.1-3.3 1.6-3.5 2.2-0.3 4.8 3.3 5.1 4.1 0 0 0 0 0 0 0.6 0 1.7-0.3 1.9-1.3 0 0 0 0 0 0 -1.2-3.1-3.6-3.7-6.2-5.1 -1.2-0.7-2.6 0.1-3.4 1.2 -2.1 2.8-1.5 8.7 0.5 11.4 0 0 0 0 0 0C406.2 179.2 407.1 178.5 407.2 177.6z" class="k"/><path d="M441.8 172c0-1.1-0.1-1.9-0.2-2.4 -0.2-0.3-0.4-0.5-0.6-0.7 -0.2 0-0.4 0-0.7 0 -2.1 0.5-5.1 3.1-5.7 4.4 2 0.6 5.1 3.1 5.6 4.5C441.2 176.5 441.8 173.7 441.8 172z" class="j"/><path d="M434.5 173.6c0 0 0-0.1 0-0.1 0.6-1.4 3.5-4 5.7-4.4 0.3-0.1 0.5-0.1 0.7 0 0.3 0.1 0.5 0.3 0.6 0.7 0.1 0.5 0.2 1.2 0.2 2.4 0.1 1.7-0.5 4.4-1.6 6 0.1 0.9 0.6 1.6 1.4 1.6 0 0 0 0 0 0 2-2.7 3.4-8.6 1.7-11.6 -0.7-1.2-1-2.2-3-1.6 -2.7 0.9-6.4 2.7-7.7 5.6 0 0.1-0.1 0.1-0.1 0.2C432.9 173.3 433.9 173.6 434.5 173.6z" class="k"/><path d="M433.2 226.7c-0.1-2-1-3.8-2.8-4.5 -1.9-0.7-4.5 0.7-4.5 4.5 0.1 9.6-0.1 19.2-0.2 28.8 2 0.3 4 0.3 6.1-0.1 0.8-5.1 1-9.8 1.3-14.6C433.5 236.1 433.4 231.4 433.2 226.7z" class="k"/><path d="M419.3 222.9c-2-1.9-4.7-0.7-5.3 1.9 -0.5 2.2-0.2 4.4 0.2 6.6 1.1 7.9 1 16 1.5 23.9 2.1 0.3 4.2 0.3 6.3 0 0-9.1-0.1-18.3-0.6-27.4C421.2 226.2 420.6 224.2 419.3 222.9z" class="k"/><path d="M19.9 48.3c0.5 1.5 1.8 2.6 3.2 2.6 1.5 0 2.7-0.7 2.7-2.3 0-3.3-8.4-3.3-8.4-9.5 0-3.1 2.3-5.6 5.6-5.6s5.2 1.8 6.2 4.4l-3.3 2c-0.5-1.7-1.4-2.8-2.9-2.8 -1.1 0-1.8 0.7-1.8 1.8 0 3.6 8.4 2.9 8.4 9.6 0 3.6-2.7 5.9-6.5 5.9 -3.1 0-5.4-1.6-6.5-4L19.9 48.3z" class="k"/><path d="M33 54.2V33.8h3.8v20.4H33z" class="k"/><path d="M53.6 54.2V41.6c0-0.6 0-1.4 0-1.4h-0.1c0 0-0.3 0.7-0.6 1.2l-3.5 5.9h-0.1l-3.4-5.8c-0.3-0.5-0.7-1.3-0.7-1.3h-0.1c0 0 0 0.8 0 1.5v12.5h-3.8V33.8h4.2l3.1 5.5c0.3 0.5 0.7 1.3 0.7 1.3h0.1c0 0 0.4-0.8 0.7-1.3l3.1-5.4h4.2v20.4H53.6z" class="k"/><path d="M62 54.2V33.8h5.6c4.6 0 6.5 3.7 6.5 7.3s-2.2 7.4-7.1 7.4h-1.3v5.7H62zM67.2 44.9c2.2 0 3.2-1.7 3.2-3.7 0-2.1-1.1-3.7-3.3-3.7h-1.4v7.4H67.2z" class="k"/><path d="M77.3 54.2V33.8H81.1v16.7h5.9v3.6H77.3z" class="k"/><path d="M96.7 54.2h-3.8v-5.7l-4.9-14.6h4.2l2 7.3c0.3 1.1 0.5 2.6 0.5 2.6h0.1c0-0.3 0.2-1.5 0.5-2.6l2-7.3h4.3l-4.9 14.8V54.2z" class="k"/><path d="M113.2 48.3c0.5 1.5 1.8 2.6 3.2 2.6 1.5 0 2.7-0.7 2.7-2.3 0-3.3-8.4-3.3-8.4-9.5 0-3.1 2.3-5.6 5.6-5.6s5.2 1.8 6.2 4.4l-3.3 2c-0.5-1.7-1.4-2.8-2.9-2.8 -1.1 0-1.8 0.7-1.8 1.8 0 3.6 8.4 2.9 8.4 9.6 0 3.6-2.7 5.9-6.5 5.9 -3.1 0-5.4-1.6-6.5-4L113.2 48.3z" class="k"/><path d="M138.3 50.5c-1 2.4-2.9 4-6 4 -5.6 0-7.2-5.2-7.2-10.5 0-5.3 1.5-10.5 7.2-10.5 3.3 0 5.2 1.8 6.2 4.4l-3.3 2c-0.5-1.7-1.4-2.8-2.9-2.8 -2.6 0-3.4 3.2-3.4 6.8s0.8 6.8 3.4 6.8c1.5 0 2.3-1 2.8-2.6L138.3 50.5z" class="k"/><path d="M150.4 54.2v-7.6h-5.2v7.6h-3.8V33.8h3.8v9.1h5.2v-9.1h3.8v20.4H150.4z" class="k"/><path d="M158.8 54.2V33.8h10.8v3.6h-7v5.2h5.9v3.6h-5.9v4.2h7v3.6H158.8z" class="k"/><path d="M174 54.2V33.8h5.3c5.6 0 7.4 4.9 7.4 10.2 0 5.3-1.8 10.2-7.4 10.2H174zM179.3 50.5c2.6 0 3.7-2.9 3.7-6.5s-1.1-6.5-3.7-6.5h-1.5v13.1H179.3z" class="k"/><path d="M199.1 33.8h3.8v13.6c0 4.9-2.6 7.1-6.2 7.1s-6.3-2.2-6.3-7.1V33.8h3.8v13.8c0 2 0.7 3.3 2.5 3.3 1.8 0 2.5-1.3 2.5-3.3V33.8z" class="k"/><path d="M207.6 54.2V33.8h3.8v16.7h5.9v3.6H207.6z" class="k"/><path d="M220.2 54.2V33.8h10.8v3.6h-7v5.2h5.9v3.6h-5.9v4.2h7v3.6H220.2z" class="k"/><path d="M26.6 82.4l-0.3-2.4H22.3l-0.2 2.4h-5.4l4.6-21.6h6l4.6 21.6H26.6zM24.7 69c-0.2-1.2-0.3-3-0.3-3h-0.1c0 0-0.2 1.8-0.4 3l-0.9 6.5h2.5L24.7 69z" class="k"/><path d="M36.7 82.4V60.8h6.4c4.9 0 7 4.3 7 7.7 0 4.1-2.3 7.9-7.2 7.9h-1.1v6H36.7zM42.8 71.8c1.6 0 2.2-1.6 2.2-3.2 0-1.8-0.6-3.2-2.3-3.2h-0.9v6.4H42.8z" class="k"/><path d="M55 82.4V60.8h6.4c4.9 0 7 4.3 7 7.7 0 4.1-2.3 7.9-7.2 7.9h-1.1v6H55zM61.1 71.8c1.6 0 2.2-1.6 2.2-3.2 0-1.8-0.6-3.2-2.3-3.2h-0.9v6.4H61.1z" class="k"/><path d="M72.4 71.6c0-5.7 1.3-11.2 7.3-11.2 6 0 7.3 5.5 7.3 11.2s-1.3 11.2-7.3 11.2C73.7 82.9 72.4 77.4 72.4 71.6zM81.9 71.6c0-3.9-0.3-6.3-2.2-6.3 -1.9 0-2.2 2.3-2.2 6.3s0.3 6.3 2.2 6.3C81.6 77.9 81.9 75.6 81.9 71.6z" class="k"/><path d="M92.3 82.4V60.8h5.1v21.6H92.3z" class="k"/><path d="M113.4 82.4l-3.7-8.3c-0.7-1.6-1.3-3.5-1.3-3.5h-0.1c0 0 0.1 2.1 0.1 3.8v8h-4.8V60.8h5.2l3.4 7.4c0.7 1.5 1.5 3.7 1.5 3.7h0.1c0 0-0.1-2.2-0.1-4v-7.1h4.8v21.6H113.4z" class="k"/><path d="M126.9 82.4V65.8h-3.2v-4.9h11.5v4.9h-3.2v16.7H126.9z" class="k"/><path d="M152.8 82.4V71.5c0-1.4 0.1-2.6 0.1-2.6h-0.1c0 0-0.5 0.9-1.3 2.1l-2.4 3.3h-0.1l-2.4-3.3c-0.8-1.1-1.3-2.1-1.3-2.1h-0.1c0 0 0 1.3 0 2.6v11h-4.8V60.8h5.1l1.9 2.7c0.9 1.3 1.5 2.4 1.5 2.4h0.1c0 0 0.6-1 1.5-2.4l1.9-2.7h5.1v21.6H152.8z" class="k"/><path d="M163.8 82.4V60.8h12v4.7h-6.9v4.1h5.7v4.5h-5.7v3.6h6.9v4.7H163.8z" class="k"/><path d="M191.4 82.4l-3.7-8.3c-0.7-1.6-1.3-3.5-1.3-3.5h-0.1c0 0 0.1 2.1 0.1 3.8v8h-4.8V60.8h5.2l3.4 7.4c0.7 1.5 1.5 3.7 1.5 3.7h0.1c0 0-0.1-2.2-0.1-4v-7.1h4.8v21.6H191.4z" class="k"/><path d="M204.9 82.4V65.8h-3.2v-4.9h11.5v4.9h-3.2v16.7H204.9z" class="k"/><path d="M221.7 75.8c0.5 1.3 1.7 2.2 2.9 2.2 1 0 1.6-0.6 1.6-1.4 0-3-8.4-3.6-8.4-10 0-3.5 2.7-6.3 6.6-6.3 3.1 0 5.4 1.6 6.5 4.7l-4.1 2.4c-0.3-1.4-1.3-2.5-2.5-2.5 -0.9 0-1.5 0.6-1.5 1.4 0 3.1 8.5 3.1 8.5 10 0 4-3 6.5-6.9 6.5 -3.5 0-5.7-1.9-7-4.5L221.7 75.8z" class="k"/><rect x="16.7" y="20.9" width="214.7" height="6.1" class="k"/><rect x="16.7" y="89.2" width="214.7" height="6.1" class="k"/><path d="M19.6 128.7v-25.1h7c5.7 0 8.1 4.6 8.1 9s-2.7 9.1-8.7 9.1h-1.6v7H19.6zM26 117.2c2.7 0 4-2.2 4-4.6 0-2.5-1.4-4.6-4-4.6h-1.7v9.2H26z" class="l"/><path d="M38.5 128.7v-25.1h4.7V124.2h7.3v4.5H38.5z" class="l"/><path d="M64.8 103.6h4.7v16.7c0 6.1-3.3 8.7-7.6 8.7 -4.4 0-7.8-2.7-7.8-8.7v-16.7h4.7v17c0 2.5 0.9 4 3 4 2.3 0 3-1.6 3-4.1V103.6z" class="l"/><path d="M77 121.4c0.6 1.9 2.2 3.2 4 3.2 1.9 0 3.3-0.9 3.3-2.8 0-4.1-10.4-4.1-10.4-11.7 0-3.9 2.8-6.8 6.9-6.8s6.4 2.3 7.6 5.4l-4.1 2.5c-0.6-2.1-1.7-3.4-3.6-3.4 -1.3 0-2.3 0.8-2.3 2.2 0 4.4 10.4 3.6 10.4 11.8 0 4.4-3.3 7.3-8 7.3 -3.9 0-6.7-2-8-4.9L77 121.4z" class="l"/></svg>
